<svg width="645" height="297" viewBox="0 0 645 297" fill="none" xmlns="http://www.w3.org/2000/svg">
<rect x="247" y="55" width="332" height="60" rx="16.5058" fill="#3EFFA1"/>
<rect y="111" width="296" height="60" rx="16.5058" fill="#3EFFA1"/>
<path fill-rule="evenodd" clip-rule="evenodd" d="M235 111V116H254V96H247V101C247 106.523 242.523 111 237 111H235Z" fill="#3EFFA1"/>
<path fill-rule="evenodd" clip-rule="evenodd" d="M308 115V110H289V130H296V125C296 119.477 300.477 115 306 115H308Z" fill="#3EFFA1"/>
<path d="M34.36 14L22.16 42H17.04L4.8 14H10.44L19.76 35.6L29.16 14H34.36ZM44.8331 42.28C42.6731 42.28 40.7265 41.8133 38.9931 40.88C37.2598 39.9467 35.8998 38.6533 34.9131 37C33.9531 35.32 33.4731 33.4267 33.4731 31.32C33.4731 29.2133 33.9531 27.3333 34.9131 25.68C35.8998 24.0267 37.2598 22.7333 38.9931 21.8C40.7265 20.8667 42.6731 20.4 44.8331 20.4C47.0198 20.4 48.9798 20.8667 50.7131 21.8C52.4465 22.7333 53.7931 24.0267 54.7531 25.68C55.7398 27.3333 56.2331 29.2133 56.2331 31.32C56.2331 33.4267 55.7398 35.32 54.7531 37C53.7931 38.6533 52.4465 39.9467 50.7131 40.88C48.9798 41.8133 47.0198 42.28 44.8331 42.28ZM44.8331 38C46.6731 38 48.1931 37.3867 49.3931 36.16C50.5931 34.9333 51.1931 33.32 51.1931 31.32C51.1931 29.32 50.5931 27.7067 49.3931 26.48C48.1931 25.2533 46.6731 24.64 44.8331 24.64C42.9931 24.64 41.4731 25.2533 40.2731 26.48C39.0998 27.7067 38.5131 29.32 38.5131 31.32C38.5131 33.32 39.0998 34.9333 40.2731 36.16C41.4731 37.3867 42.9931 38 44.8331 38ZM73.9113 42L68.4313 34.6L62.9112 42H57.3913L65.7113 31.16L57.7513 20.64H63.3113L68.5513 27.64L73.7913 20.64H79.1913L71.1913 31.08L79.5513 42H73.9113ZM103.456 42.4C101.296 42.4 99.2023 42.0933 97.1756 41.48C95.1756 40.8667 93.589 40.0533 92.4156 39.04L94.2156 35C95.3623 35.9067 96.7623 36.6533 98.4156 37.24C100.096 37.8 101.776 38.08 103.456 38.08C105.536 38.08 107.082 37.7467 108.096 37.08C109.136 36.4133 109.656 35.5333 109.656 34.44C109.656 33.64 109.362 32.9867 108.776 32.48C108.216 31.9467 107.496 31.5333 106.616 31.24C105.736 30.9467 104.536 30.6133 103.016 30.24C100.882 29.7333 99.149 29.2267 97.8156 28.72C96.509 28.2133 95.3756 27.4267 94.4156 26.36C93.4823 25.2667 93.0156 23.8 93.0156 21.96C93.0156 20.4133 93.429 19.0133 94.2556 17.76C95.109 16.48 96.3756 15.4667 98.0556 14.72C99.7623 13.9733 101.842 13.6 104.296 13.6C106.002 13.6 107.682 13.8133 109.336 14.24C110.989 14.6667 112.416 15.28 113.616 16.08L111.976 20.12C110.749 19.4 109.469 18.8533 108.136 18.48C106.802 18.1067 105.509 17.92 104.256 17.92C102.202 17.92 100.669 18.2667 99.6556 18.96C98.669 19.6533 98.1756 20.5733 98.1756 21.72C98.1756 22.52 98.4556 23.1733 99.0156 23.68C99.6023 24.1867 100.336 24.5867 101.216 24.88C102.096 25.1733 103.296 25.5067 104.816 25.88C106.896 26.36 108.602 26.8667 109.936 27.4C111.269 27.9067 112.402 28.6933 113.336 29.76C114.296 30.8267 114.776 32.2667 114.776 34.08C114.776 35.6267 114.349 37.0267 113.496 38.28C112.669 39.5333 111.402 40.5333 109.696 41.28C107.989 42.0267 105.909 42.4 103.456 42.4ZM131.292 20.4C133.372 20.4 135.225 20.8533 136.852 21.76C138.505 22.6667 139.799 23.9467 140.732 25.6C141.665 27.2533 142.132 29.16 142.132 31.32C142.132 33.48 141.665 35.4 140.732 37.08C139.799 38.7333 138.505 40.0133 136.852 40.92C135.225 41.8267 133.372 42.28 131.292 42.28C128.412 42.28 126.132 41.32 124.452 39.4V49.76H119.452V20.64H124.212V23.44C125.039 22.4267 126.052 21.6667 127.252 21.16C128.479 20.6533 129.825 20.4 131.292 20.4ZM130.732 38C132.572 38 134.079 37.3867 135.252 36.16C136.452 34.9333 137.052 33.32 137.052 31.32C137.052 29.32 136.452 27.7067 135.252 26.48C134.079 25.2533 132.572 24.64 130.732 24.64C129.532 24.64 128.452 24.92 127.492 25.48C126.532 26.0133 125.772 26.7867 125.212 27.8C124.652 28.8133 124.372 29.9867 124.372 31.32C124.372 32.6533 124.652 33.8267 125.212 34.84C125.772 35.8533 126.532 36.64 127.492 37.2C128.452 37.7333 129.532 38 130.732 38ZM156.474 42.28C154.314 42.28 152.367 41.8133 150.634 40.88C148.9 39.9467 147.54 38.6533 146.554 37C145.594 35.32 145.114 33.4267 145.114 31.32C145.114 29.2133 145.594 27.3333 146.554 25.68C147.54 24.0267 148.9 22.7333 150.634 21.8C152.367 20.8667 154.314 20.4 156.474 20.4C158.66 20.4 160.62 20.8667 162.354 21.8C164.087 22.7333 165.434 24.0267 166.394 25.68C167.38 27.3333 167.874 29.2133 167.874 31.32C167.874 33.4267 167.38 35.32 166.394 37C165.434 38.6533 164.087 39.9467 162.354 40.88C160.62 41.8133 158.66 42.28 156.474 42.28ZM156.474 38C158.314 38 159.834 37.3867 161.034 36.16C162.234 34.9333 162.834 33.32 162.834 31.32C162.834 29.32 162.234 27.7067 161.034 26.48C159.834 25.2533 158.314 24.64 156.474 24.64C154.634 24.64 153.114 25.2533 151.914 26.48C150.74 27.7067 150.154 29.32 150.154 31.32C150.154 33.32 150.74 34.9333 151.914 36.16C153.114 37.3867 154.634 38 156.474 38ZM177.415 23.76C178.855 21.52 181.388 20.4 185.015 20.4V25.16C184.588 25.08 184.202 25.04 183.855 25.04C181.908 25.04 180.388 25.6133 179.295 26.76C178.202 27.88 177.655 29.5067 177.655 31.64V42H172.655V20.64H177.415V23.76ZM201.257 40.84C200.67 41.32 199.95 41.68 199.097 41.92C198.27 42.16 197.39 42.28 196.457 42.28C194.11 42.28 192.297 41.6667 191.017 40.44C189.737 39.2133 189.097 37.4267 189.097 35.08V15.92H194.097V20.8H199.817V24.8H194.097V34.96C194.097 36 194.35 36.8 194.857 37.36C195.39 37.8933 196.123 38.16 197.057 38.16C198.177 38.16 199.11 37.8667 199.857 37.28L201.257 40.84ZM211.989 42.28C210.256 42.28 208.563 42.0533 206.909 41.6C205.256 41.1467 203.936 40.5733 202.949 39.88L204.869 36.08C205.829 36.72 206.976 37.24 208.309 37.64C209.669 38.0133 211.003 38.2 212.309 38.2C215.296 38.2 216.789 37.4133 216.789 35.84C216.789 35.0933 216.403 34.5733 215.629 34.28C214.883 33.9867 213.669 33.7067 211.989 33.44C210.229 33.1733 208.789 32.8667 207.669 32.52C206.576 32.1733 205.616 31.5733 204.789 30.72C203.989 29.84 203.589 28.6267 203.589 27.08C203.589 25.0533 204.429 23.44 206.109 22.24C207.816 21.0133 210.109 20.4 212.989 20.4C214.456 20.4 215.923 20.5733 217.389 20.92C218.856 21.24 220.056 21.68 220.989 22.24L219.069 26.04C217.256 24.9733 215.216 24.44 212.949 24.44C211.483 24.44 210.363 24.6667 209.589 25.12C208.843 25.5467 208.469 26.12 208.469 26.84C208.469 27.64 208.869 28.2133 209.669 28.56C210.496 28.88 211.763 29.1867 213.469 29.48C215.176 29.7467 216.576 30.0533 217.669 30.4C218.763 30.7467 219.696 31.3333 220.469 32.16C221.269 32.9867 221.669 34.16 221.669 35.68C221.669 37.68 220.803 39.28 219.069 40.48C217.336 41.68 214.976 42.28 211.989 42.28ZM258.815 20.64V32.44C258.815 35.56 258.002 37.9867 256.375 39.72C254.749 41.4267 252.415 42.28 249.375 42.28C246.095 42.28 243.735 41.1733 242.295 38.96C241.549 40.08 240.589 40.92 239.415 41.48C238.269 42.0133 236.869 42.28 235.215 42.28C232.175 42.28 229.842 41.4267 228.215 39.72C226.615 37.9867 225.815 35.56 225.815 32.44V20.64H230.815V32C230.815 34.0267 231.162 35.52 231.855 36.48C232.575 37.44 233.709 37.92 235.255 37.92C236.802 37.92 237.949 37.44 238.695 36.48C239.442 35.4933 239.815 34 239.815 32V20.64H244.815V32C244.815 34 245.189 35.4933 245.935 36.48C246.682 37.44 247.829 37.92 249.375 37.92C250.922 37.92 252.042 37.44 252.735 36.48C253.455 35.52 253.815 34.0267 253.815 32V20.64H258.815ZM275.354 38.04C277.674 38.04 279.607 37.2667 281.154 35.72L283.794 38.8C282.861 39.9467 281.661 40.8133 280.194 41.4C278.727 41.9867 277.074 42.28 275.234 42.28C272.887 42.28 270.821 41.8133 269.034 40.88C267.247 39.9467 265.861 38.6533 264.874 37C263.914 35.32 263.434 33.4267 263.434 31.32C263.434 29.24 263.901 27.3733 264.834 25.72C265.794 24.04 267.101 22.7333 268.754 21.8C270.434 20.8667 272.327 20.4 274.434 20.4C276.434 20.4 278.247 20.84 279.874 21.72C281.527 22.5733 282.834 23.8133 283.794 25.44C284.754 27.04 285.234 28.92 285.234 31.08L268.874 34.28C269.381 35.5067 270.194 36.44 271.314 37.08C272.434 37.72 273.781 38.04 275.354 38.04ZM274.434 24.4C272.594 24.4 271.101 25 269.954 26.2C268.834 27.4 268.274 29.0133 268.274 31.04V31.08L280.354 28.76C280.007 27.4533 279.301 26.4 278.234 25.6C277.194 24.8 275.927 24.4 274.434 24.4ZM310.918 20.64V42H306.158V39.24C305.331 40.2533 304.304 41.0133 303.078 41.52C301.878 42.0267 300.544 42.28 299.078 42.28C296.998 42.28 295.131 41.8267 293.478 40.92C291.851 40.0133 290.571 38.7333 289.638 37.08C288.731 35.4267 288.278 33.5067 288.278 31.32C288.278 29.1333 288.731 27.2267 289.638 25.6C290.571 23.9467 291.851 22.6667 293.478 21.76C295.131 20.8533 296.998 20.4 299.078 20.4C300.464 20.4 301.731 20.64 302.878 21.12C304.051 21.6 305.064 22.3067 305.918 23.24V20.64H310.918ZM299.638 38C301.478 38 302.998 37.3867 304.198 36.16C305.398 34.9333 305.998 33.32 305.998 31.32C305.998 29.32 305.398 27.7067 304.198 26.48C302.998 25.2533 301.478 24.64 299.638 24.64C297.798 24.64 296.278 25.2533 295.078 26.48C293.904 27.7067 293.318 29.32 293.318 31.32C293.318 33.32 293.904 34.9333 295.078 36.16C296.278 37.3867 297.798 38 299.638 38ZM322.22 23.76C323.66 21.52 326.193 20.4 329.82 20.4V25.16C329.393 25.08 329.006 25.04 328.66 25.04C326.713 25.04 325.193 25.6133 324.1 26.76C323.006 27.88 322.46 29.5067 322.46 31.64V42H317.46V20.64H322.22V23.76ZM345.311 20.64H350.311V42H345.311V20.64ZM347.831 17.12C346.925 17.12 346.165 16.84 345.551 16.28C344.938 15.6933 344.631 14.9733 344.631 14.12C344.631 13.2667 344.938 12.56 345.551 12C346.165 11.4133 346.925 11.12 347.831 11.12C348.738 11.12 349.498 11.4 350.111 11.96C350.725 12.4933 351.031 13.1733 351.031 14C351.031 14.88 350.725 15.6267 350.111 16.24C349.525 16.8267 348.765 17.12 347.831 17.12ZM363.474 42.28C361.74 42.28 360.047 42.0533 358.394 41.6C356.74 41.1467 355.42 40.5733 354.434 39.88L356.354 36.08C357.314 36.72 358.46 37.24 359.794 37.64C361.154 38.0133 362.487 38.2 363.794 38.2C366.78 38.2 368.274 37.4133 368.274 35.84C368.274 35.0933 367.887 34.5733 367.114 34.28C366.367 33.9867 365.154 33.7067 363.474 33.44C361.714 33.1733 360.274 32.8667 359.154 32.52C358.06 32.1733 357.1 31.5733 356.274 30.72C355.474 29.84 355.074 28.6267 355.074 27.08C355.074 25.0533 355.914 23.44 357.594 22.24C359.3 21.0133 361.594 20.4 364.474 20.4C365.94 20.4 367.407 20.5733 368.874 20.92C370.34 21.24 371.54 21.68 372.474 22.24L370.554 26.04C368.74 24.9733 366.7 24.44 364.434 24.44C362.967 24.44 361.847 24.6667 361.074 25.12C360.327 25.5467 359.954 26.12 359.954 26.84C359.954 27.64 360.354 28.2133 361.154 28.56C361.98 28.88 363.247 29.1867 364.954 29.48C366.66 29.7467 368.06 30.0533 369.154 30.4C370.247 30.7467 371.18 31.3333 371.954 32.16C372.754 32.9867 373.154 34.16 373.154 35.68C373.154 37.68 372.287 39.28 370.554 40.48C368.82 41.68 366.46 42.28 363.474 42.28ZM409.394 20.64V42H404.634V39.24C403.808 40.2533 402.781 41.0133 401.554 41.52C400.354 42.0267 399.021 42.28 397.554 42.28C395.474 42.28 393.608 41.8267 391.954 40.92C390.328 40.0133 389.048 38.7333 388.114 37.08C387.208 35.4267 386.754 33.5067 386.754 31.32C386.754 29.1333 387.208 27.2267 388.114 25.6C389.048 23.9467 390.328 22.6667 391.954 21.76C393.608 20.8533 395.474 20.4 397.554 20.4C398.941 20.4 400.208 20.64 401.354 21.12C402.528 21.6 403.541 22.3067 404.394 23.24V20.64H409.394ZM398.114 38C399.954 38 401.474 37.3867 402.674 36.16C403.874 34.9333 404.474 33.32 404.474 31.32C404.474 29.32 403.874 27.7067 402.674 26.48C401.474 25.2533 399.954 24.64 398.114 24.64C396.274 24.64 394.754 25.2533 393.554 26.48C392.381 27.7067 391.794 29.32 391.794 31.32C391.794 33.32 392.381 34.9333 393.554 36.16C394.754 37.3867 396.274 38 398.114 38ZM18.08 97.28C15.8667 97.28 13.88 96.8133 12.12 95.88C10.36 94.9467 8.98667 93.6533 8 92C7.01333 90.32 6.52 88.4267 6.52 86.32C6.52 84.2133 7.01333 82.3333 8 80.68C8.98667 79.0267 10.3467 77.7333 12.08 76.8C13.84 75.8667 15.84 75.4 18.08 75.4C20.1867 75.4 22.0267 75.8267 23.6 76.68C25.2 77.5333 26.4 78.76 27.2 80.36L23.36 82.6C22.7467 81.6133 21.9733 80.88 21.04 80.4C20.1333 79.8933 19.1333 79.64 18.04 79.64C16.1733 79.64 14.6267 80.2533 13.4 81.48C12.1733 82.68 11.56 84.2933 11.56 86.32C11.56 88.3467 12.16 89.9733 13.36 91.2C14.5867 92.4 16.1467 93 18.04 93C19.1333 93 20.1333 92.76 21.04 92.28C21.9733 91.7733 22.7467 91.0267 23.36 90.04L27.2 92.28C26.3733 93.88 25.16 95.12 23.56 96C21.9867 96.8533 20.16 97.28 18.08 97.28ZM40.8097 97.28C38.6497 97.28 36.703 96.8133 34.9697 95.88C33.2364 94.9467 31.8764 93.6533 30.8897 92C29.9297 90.32 29.4497 88.4267 29.4497 86.32C29.4497 84.2133 29.9297 82.3333 30.8897 80.68C31.8764 79.0267 33.2364 77.7333 34.9697 76.8C36.703 75.8667 38.6497 75.4 40.8097 75.4C42.9964 75.4 44.9564 75.8667 46.6897 76.8C48.423 77.7333 49.7697 79.0267 50.7297 80.68C51.7164 82.3333 52.2097 84.2133 52.2097 86.32C52.2097 88.4267 51.7164 90.32 50.7297 92C49.7697 93.6533 48.423 94.9467 46.6897 95.88C44.9564 96.8133 42.9964 97.28 40.8097 97.28ZM40.8097 93C42.6497 93 44.1697 92.3867 45.3697 91.16C46.5697 89.9333 47.1697 88.32 47.1697 86.32C47.1697 84.32 46.5697 82.7067 45.3697 81.48C44.1697 80.2533 42.6497 79.64 40.8097 79.64C38.9697 79.64 37.4497 80.2533 36.2497 81.48C35.0764 82.7067 34.4897 84.32 34.4897 86.32C34.4897 88.32 35.0764 89.9333 36.2497 91.16C37.4497 92.3867 38.9697 93 40.8097 93ZM83.9509 75.4C86.6443 75.4 88.7776 76.1867 90.3509 77.76C91.9243 79.3067 92.7109 81.64 92.7109 84.76V97H87.7109V85.4C87.7109 83.5333 87.2976 82.1333 86.4709 81.2C85.6443 80.24 84.4576 79.76 82.9109 79.76C81.2309 79.76 79.8843 80.32 78.8709 81.44C77.8576 82.5333 77.3509 84.1067 77.3509 86.16V97H72.3509V85.4C72.3509 83.5333 71.9376 82.1333 71.1109 81.2C70.2843 80.24 69.0976 79.76 67.5509 79.76C65.8443 79.76 64.4843 80.3067 63.4709 81.4C62.4843 82.4933 61.9909 84.08 61.9909 86.16V97H56.9909V75.64H61.7509V78.36C62.5509 77.4 63.5509 76.6667 64.7509 76.16C65.9509 75.6533 67.2843 75.4 68.7509 75.4C70.3509 75.4 71.7643 75.7067 72.9909 76.32C74.2443 76.9067 75.2309 77.7867 75.9509 78.96C76.8309 77.84 77.9643 76.9733 79.3509 76.36C80.7376 75.72 82.2709 75.4 83.9509 75.4ZM110.94 75.4C113.02 75.4 114.874 75.8533 116.5 76.76C118.154 77.6667 119.447 78.9467 120.38 80.6C121.314 82.2533 121.78 84.16 121.78 86.32C121.78 88.48 121.314 90.4 120.38 92.08C119.447 93.7333 118.154 95.0133 116.5 95.92C114.874 96.8267 113.02 97.28 110.94 97.28C108.06 97.28 105.78 96.32 104.1 94.4V104.76H99.1003V75.64H103.86V78.44C104.687 77.4267 105.7 76.6667 106.9 76.16C108.127 75.6533 109.474 75.4 110.94 75.4ZM110.38 93C112.22 93 113.727 92.3867 114.9 91.16C116.1 89.9333 116.7 88.32 116.7 86.32C116.7 84.32 116.1 82.7067 114.9 81.48C113.727 80.2533 112.22 79.64 110.38 79.64C109.18 79.64 108.1 79.92 107.14 80.48C106.18 81.0133 105.42 81.7867 104.86 82.8C104.3 83.8133 104.02 84.9867 104.02 86.32C104.02 87.6533 104.3 88.8267 104.86 89.84C105.42 90.8533 106.18 91.64 107.14 92.2C108.1 92.7333 109.18 93 110.38 93ZM133.562 97.28C131.349 97.28 129.616 96.68 128.362 95.48C127.136 94.2533 126.522 92.5333 126.522 90.32V67.32H131.522V89.96C131.522 92.0933 132.522 93.16 134.522 93.16C135.189 93.16 135.789 93.0267 136.322 92.76L136.562 96.76C135.629 97.1067 134.629 97.28 133.562 97.28ZM149.729 93.04C152.049 93.04 153.982 92.2667 155.529 90.72L158.169 93.8C157.236 94.9467 156.036 95.8133 154.569 96.4C153.102 96.9867 151.449 97.28 149.609 97.28C147.262 97.28 145.196 96.8133 143.409 95.88C141.622 94.9467 140.236 93.6533 139.249 92C138.289 90.32 137.809 88.4267 137.809 86.32C137.809 84.24 138.276 82.3733 139.209 80.72C140.169 79.04 141.476 77.7333 143.129 76.8C144.809 75.8667 146.702 75.4 148.809 75.4C150.809 75.4 152.622 75.84 154.249 76.72C155.902 77.5733 157.209 78.8133 158.169 80.44C159.129 82.04 159.609 83.92 159.609 86.08L143.249 89.28C143.756 90.5067 144.569 91.44 145.689 92.08C146.809 92.72 148.156 93.04 149.729 93.04ZM148.809 79.4C146.969 79.4 145.476 80 144.329 81.2C143.209 82.4 142.649 84.0133 142.649 86.04V86.08L154.729 83.76C154.382 82.4533 153.676 81.4 152.609 80.6C151.569 79.8 150.302 79.4 148.809 79.4ZM176.413 95.84C175.826 96.32 175.106 96.68 174.253 96.92C173.426 97.16 172.546 97.28 171.613 97.28C169.266 97.28 167.453 96.6667 166.173 95.44C164.893 94.2133 164.253 92.4267 164.253 90.08V70.92H169.253V75.8H174.973V79.8H169.253V89.96C169.253 91 169.506 91.8 170.013 92.36C170.546 92.8933 171.279 93.16 172.213 93.16C173.333 93.16 174.266 92.8667 175.013 92.28L176.413 95.84ZM190.003 93.04C192.323 93.04 194.256 92.2667 195.803 90.72L198.443 93.8C197.509 94.9467 196.309 95.8133 194.843 96.4C193.376 96.9867 191.723 97.28 189.883 97.28C187.536 97.28 185.469 96.8133 183.683 95.88C181.896 94.9467 180.509 93.6533 179.523 92C178.563 90.32 178.083 88.4267 178.083 86.32C178.083 84.24 178.549 82.3733 179.483 80.72C180.443 79.04 181.749 77.7333 183.403 76.8C185.083 75.8667 186.976 75.4 189.083 75.4C191.083 75.4 192.896 75.84 194.523 76.72C196.176 77.5733 197.483 78.8133 198.443 80.44C199.403 82.04 199.883 83.92 199.883 86.08L183.523 89.28C184.029 90.5067 184.843 91.44 185.963 92.08C187.083 92.72 188.429 93.04 190.003 93.04ZM189.083 79.4C187.243 79.4 185.749 80 184.603 81.2C183.483 82.4 182.923 84.0133 182.923 86.04V86.08L195.003 83.76C194.656 82.4533 193.949 81.4 192.883 80.6C191.843 79.8 190.576 79.4 189.083 79.4ZM211.726 97.28C209.513 97.28 207.78 96.68 206.526 95.48C205.3 94.2533 204.686 92.5333 204.686 90.32V67.32H209.686V89.96C209.686 92.0933 210.686 93.16 212.686 93.16C213.353 93.16 213.953 93.0267 214.486 92.76L214.726 96.76C213.793 97.1067 212.793 97.28 211.726 97.28ZM238.804 75.64V93.76C238.804 101.28 235.11 105.04 227.724 105.04C225.777 105.04 223.91 104.773 222.124 104.24C220.364 103.733 218.91 102.987 217.764 102L220.004 98.24C220.91 99.0133 222.017 99.6267 223.324 100.08C224.63 100.533 226.004 100.76 227.444 100.76C229.63 100.76 231.23 100.227 232.244 99.16C233.284 98.12 233.804 96.5067 233.804 94.32V93.32C233.004 94.2 232.03 94.88 230.884 95.36C229.737 95.8133 228.497 96.04 227.164 96.04C224.31 96.04 222.057 95.2533 220.404 93.68C218.777 92.1067 217.964 89.7467 217.964 86.6V75.64H222.964V85.96C222.964 87.8533 223.39 89.28 224.244 90.24C225.124 91.1733 226.364 91.64 227.964 91.64C229.75 91.64 231.164 91.0933 232.204 90C233.27 88.9067 233.804 87.32 233.804 85.24V75.64H238.804ZM263.005 97.28C261.272 97.28 259.578 97.0533 257.925 96.6C256.272 96.1467 254.952 95.5733 253.965 94.88L255.885 91.08C256.845 91.72 257.992 92.24 259.325 92.64C260.685 93.0133 262.018 93.2 263.325 93.2C266.312 93.2 267.805 92.4133 267.805 90.84C267.805 90.0933 267.418 89.5733 266.645 89.28C265.898 88.9867 264.685 88.7067 263.005 88.44C261.245 88.1733 259.805 87.8667 258.685 87.52C257.592 87.1733 256.632 86.5733 255.805 85.72C255.005 84.84 254.605 83.6267 254.605 82.08C254.605 80.0533 255.445 78.44 257.125 77.24C258.832 76.0133 261.125 75.4 264.005 75.4C265.472 75.4 266.938 75.5733 268.405 75.92C269.872 76.24 271.072 76.68 272.005 77.24L270.085 81.04C268.272 79.9733 266.232 79.44 263.965 79.44C262.498 79.44 261.378 79.6667 260.605 80.12C259.858 80.5467 259.485 81.12 259.485 81.84C259.485 82.64 259.885 83.2133 260.685 83.56C261.512 83.88 262.778 84.1867 264.485 84.48C266.192 84.7467 267.592 85.0533 268.685 85.4C269.778 85.7467 270.712 86.3333 271.485 87.16C272.285 87.9867 272.685 89.16 272.685 90.68C272.685 92.68 271.818 94.28 270.085 95.48C268.352 96.68 265.992 97.28 263.005 97.28ZM288.991 95.84C288.404 96.32 287.684 96.68 286.831 96.92C286.004 97.16 285.124 97.28 284.191 97.28C281.844 97.28 280.031 96.6667 278.751 95.44C277.471 94.2133 276.831 92.4267 276.831 90.08V70.92H281.831V75.8H287.551V79.8H281.831V89.96C281.831 91 282.084 91.8 282.591 92.36C283.124 92.8933 283.858 93.16 284.791 93.16C285.911 93.16 286.844 92.8667 287.591 92.28L288.991 95.84ZM313.804 75.64V97H309.044V94.28C308.244 95.24 307.244 95.9867 306.044 96.52C304.844 97.0267 303.55 97.28 302.164 97.28C299.31 97.28 297.057 96.4933 295.404 94.92C293.777 93.32 292.964 90.96 292.964 87.84V75.64H297.964V87.16C297.964 89.08 298.39 90.52 299.244 91.48C300.124 92.4133 301.364 92.88 302.964 92.88C304.75 92.88 306.164 92.3333 307.204 91.24C308.27 90.12 308.804 88.52 308.804 86.44V75.64H313.804ZM341.27 67.32V97H336.47V94.24C335.644 95.2533 334.617 96.0133 333.39 96.52C332.19 97.0267 330.857 97.28 329.39 97.28C327.337 97.28 325.484 96.8267 323.83 95.92C322.204 95.0133 320.924 93.7333 319.99 92.08C319.057 90.4 318.59 88.48 318.59 86.32C318.59 84.16 319.057 82.2533 319.99 80.6C320.924 78.9467 322.204 77.6667 323.83 76.76C325.484 75.8533 327.337 75.4 329.39 75.4C330.804 75.4 332.097 75.64 333.27 76.12C334.444 76.6 335.444 77.32 336.27 78.28V67.32H341.27ZM329.99 93C331.19 93 332.27 92.7333 333.23 92.2C334.19 91.64 334.95 90.8533 335.51 89.84C336.07 88.8267 336.35 87.6533 336.35 86.32C336.35 84.9867 336.07 83.8133 335.51 82.8C334.95 81.7867 334.19 81.0133 333.23 80.48C332.27 79.92 331.19 79.64 329.99 79.64C328.79 79.64 327.71 79.92 326.75 80.48C325.79 81.0133 325.03 81.7867 324.47 82.8C323.91 83.8133 323.63 84.9867 323.63 86.32C323.63 87.6533 323.91 88.8267 324.47 89.84C325.03 90.8533 325.79 91.64 326.75 92.2C327.71 92.7333 328.79 93 329.99 93ZM357.971 93.04C360.291 93.04 362.225 92.2667 363.771 90.72L366.411 93.8C365.478 94.9467 364.278 95.8133 362.811 96.4C361.345 96.9867 359.691 97.28 357.851 97.28C355.505 97.28 353.438 96.8133 351.651 95.88C349.865 94.9467 348.478 93.6533 347.491 92C346.531 90.32 346.051 88.4267 346.051 86.32C346.051 84.24 346.518 82.3733 347.451 80.72C348.411 79.04 349.718 77.7333 351.371 76.8C353.051 75.8667 354.945 75.4 357.051 75.4C359.051 75.4 360.865 75.84 362.491 76.72C364.145 77.5733 365.451 78.8133 366.411 80.44C367.371 82.04 367.851 83.92 367.851 86.08L351.491 89.28C351.998 90.5067 352.811 91.44 353.931 92.08C355.051 92.72 356.398 93.04 357.971 93.04ZM357.051 79.4C355.211 79.4 353.718 80 352.571 81.2C351.451 82.4 350.891 84.0133 350.891 86.04V86.08L362.971 83.76C362.625 82.4533 361.918 81.4 360.851 80.6C359.811 79.8 358.545 79.4 357.051 79.4ZM384.775 75.4C387.468 75.4 389.628 76.1867 391.255 77.76C392.882 79.3333 393.695 81.6667 393.695 84.76V97H388.695V85.4C388.695 83.5333 388.255 82.1333 387.375 81.2C386.495 80.24 385.242 79.76 383.615 79.76C381.775 79.76 380.322 80.32 379.255 81.44C378.188 82.5333 377.655 84.12 377.655 86.2V97H372.655V75.64H377.415V78.4C378.242 77.4133 379.282 76.6667 380.535 76.16C381.788 75.6533 383.202 75.4 384.775 75.4ZM412.038 95.84C411.451 96.32 410.731 96.68 409.878 96.92C409.051 97.16 408.171 97.28 407.238 97.28C404.891 97.28 403.078 96.6667 401.798 95.44C400.518 94.2133 399.878 92.4267 399.878 90.08V70.92H404.878V75.8H410.598V79.8H404.878V89.96C404.878 91 405.131 91.8 405.638 92.36C406.171 92.8933 406.904 93.16 407.838 93.16C408.958 93.16 409.891 92.8667 410.638 92.28L412.038 95.84ZM436.825 97.28C434.665 97.28 432.719 96.8133 430.985 95.88C429.252 94.9467 427.892 93.6533 426.905 92C425.945 90.32 425.465 88.4267 425.465 86.32C425.465 84.2133 425.945 82.3333 426.905 80.68C427.892 79.0267 429.252 77.7333 430.985 76.8C432.719 75.8667 434.665 75.4 436.825 75.4C439.012 75.4 440.972 75.8667 442.705 76.8C444.439 77.7333 445.785 79.0267 446.745 80.68C447.732 82.3333 448.225 84.2133 448.225 86.32C448.225 88.4267 447.732 90.32 446.745 92C445.785 93.6533 444.439 94.9467 442.705 95.88C440.972 96.8133 439.012 97.28 436.825 97.28ZM436.825 93C438.665 93 440.185 92.3867 441.385 91.16C442.585 89.9333 443.185 88.32 443.185 86.32C443.185 84.32 442.585 82.7067 441.385 81.48C440.185 80.2533 438.665 79.64 436.825 79.64C434.985 79.64 433.465 80.2533 432.265 81.48C431.092 82.7067 430.505 84.32 430.505 86.32C430.505 88.32 431.092 89.9333 432.265 91.16C433.465 92.3867 434.985 93 436.825 93ZM485.847 75.64V87.44C485.847 90.56 485.033 92.9867 483.407 94.72C481.78 96.4267 479.447 97.28 476.407 97.28C473.127 97.28 470.767 96.1733 469.327 93.96C468.58 95.08 467.62 95.92 466.447 96.48C465.3 97.0133 463.9 97.28 462.247 97.28C459.207 97.28 456.873 96.4267 455.247 94.72C453.647 92.9867 452.847 90.56 452.847 87.44V75.64H457.847V87C457.847 89.0267 458.193 90.52 458.887 91.48C459.607 92.44 460.74 92.92 462.287 92.92C463.833 92.92 464.98 92.44 465.727 91.48C466.473 90.4933 466.847 89 466.847 87V75.64H471.847V87C471.847 89 472.22 90.4933 472.967 91.48C473.713 92.44 474.86 92.92 476.407 92.92C477.953 92.92 479.073 92.44 479.767 91.48C480.487 90.52 480.847 89.0267 480.847 87V75.64H485.847ZM504.345 75.4C507.039 75.4 509.199 76.1867 510.825 77.76C512.452 79.3333 513.265 81.6667 513.265 84.76V97H508.265V85.4C508.265 83.5333 507.825 82.1333 506.945 81.2C506.065 80.24 504.812 79.76 503.185 79.76C501.345 79.76 499.892 80.32 498.825 81.44C497.759 82.5333 497.225 84.12 497.225 86.2V97H492.225V75.64H496.985V78.4C497.812 77.4133 498.852 76.6667 500.105 76.16C501.359 75.6533 502.772 75.4 504.345 75.4ZM529.963 93.04C532.283 93.04 534.217 92.2667 535.763 90.72L538.403 93.8C537.47 94.9467 536.27 95.8133 534.803 96.4C533.337 96.9867 531.683 97.28 529.843 97.28C527.497 97.28 525.43 96.8133 523.643 95.88C521.857 94.9467 520.47 93.6533 519.483 92C518.523 90.32 518.043 88.4267 518.043 86.32C518.043 84.24 518.51 82.3733 519.443 80.72C520.403 79.04 521.71 77.7333 523.363 76.8C525.043 75.8667 526.937 75.4 529.043 75.4C531.043 75.4 532.857 75.84 534.483 76.72C536.137 77.5733 537.443 78.8133 538.403 80.44C539.363 82.04 539.843 83.92 539.843 86.08L523.483 89.28C523.99 90.5067 524.803 91.44 525.923 92.08C527.043 92.72 528.39 93.04 529.963 93.04ZM529.043 79.4C527.203 79.4 525.71 80 524.563 81.2C523.443 82.4 522.883 84.0133 522.883 86.04V86.08L534.963 83.76C534.617 82.4533 533.91 81.4 532.843 80.6C531.803 79.8 530.537 79.4 529.043 79.4ZM565.567 67.32V97H560.767V94.24C559.941 95.2533 558.914 96.0133 557.687 96.52C556.487 97.0267 555.154 97.28 553.687 97.28C551.634 97.28 549.781 96.8267 548.127 95.92C546.501 95.0133 545.221 93.7333 544.287 92.08C543.354 90.4 542.887 88.48 542.887 86.32C542.887 84.16 543.354 82.2533 544.287 80.6C545.221 78.9467 546.501 77.6667 548.127 76.76C549.781 75.8533 551.634 75.4 553.687 75.4C555.101 75.4 556.394 75.64 557.567 76.12C558.741 76.6 559.741 77.32 560.567 78.28V67.32H565.567ZM554.287 93C555.487 93 556.567 92.7333 557.527 92.2C558.487 91.64 559.247 90.8533 559.807 89.84C560.367 88.8267 560.647 87.6533 560.647 86.32C560.647 84.9867 560.367 83.8133 559.807 82.8C559.247 81.7867 558.487 81.0133 557.527 80.48C556.567 79.92 555.487 79.64 554.287 79.64C553.087 79.64 552.007 79.92 551.047 80.48C550.087 81.0133 549.327 81.7867 548.767 82.8C548.207 83.8133 547.927 84.9867 547.927 86.32C547.927 87.6533 548.207 88.8267 548.767 89.84C549.327 90.8533 550.087 91.64 551.047 92.2C552.007 92.7333 553.087 93 554.287 93ZM29.16 130.64V152H24.4V149.24C23.5733 150.253 22.5467 151.013 21.32 151.52C20.12 152.027 18.7867 152.28 17.32 152.28C15.24 152.28 13.3733 151.827 11.72 150.92C10.0933 150.013 8.81333 148.733 7.88 147.08C6.97333 145.427 6.52 143.507 6.52 141.32C6.52 139.133 6.97333 137.227 7.88 135.6C8.81333 133.947 10.0933 132.667 11.72 131.76C13.3733 130.853 15.24 130.4 17.32 130.4C18.7067 130.4 19.9733 130.64 21.12 131.12C22.2933 131.6 23.3067 132.307 24.16 133.24V130.64H29.16ZM17.88 148C19.72 148 21.24 147.387 22.44 146.16C23.64 144.933 24.24 143.32 24.24 141.32C24.24 139.32 23.64 137.707 22.44 136.48C21.24 135.253 19.72 134.64 17.88 134.64C16.04 134.64 14.52 135.253 13.32 136.48C12.1467 137.707 11.56 139.32 11.56 141.32C11.56 143.32 12.1467 144.933 13.32 146.16C14.52 147.387 16.04 148 17.88 148ZM47.8219 130.4C50.5152 130.4 52.6752 131.187 54.3019 132.76C55.9285 134.333 56.7419 136.667 56.7419 139.76V152H51.7419V140.4C51.7419 138.533 51.3019 137.133 50.4219 136.2C49.5419 135.24 48.2885 134.76 46.6619 134.76C44.8219 134.76 43.3685 135.32 42.3019 136.44C41.2352 137.533 40.7019 139.12 40.7019 141.2V152H35.7019V130.64H40.4619V133.4C41.2885 132.413 42.3285 131.667 43.5819 131.16C44.8352 130.653 46.2485 130.4 47.8219 130.4ZM84.2 122.32V152H79.4V149.24C78.5733 150.253 77.5467 151.013 76.32 151.52C75.12 152.027 73.7867 152.28 72.32 152.28C70.2667 152.28 68.4133 151.827 66.76 150.92C65.1333 150.013 63.8533 148.733 62.92 147.08C61.9867 145.4 61.52 143.48 61.52 141.32C61.52 139.16 61.9867 137.253 62.92 135.6C63.8533 133.947 65.1333 132.667 66.76 131.76C68.4133 130.853 70.2667 130.4 72.32 130.4C73.7333 130.4 75.0267 130.64 76.2 131.12C77.3733 131.6 78.3733 132.32 79.2 133.28V122.32H84.2ZM72.92 148C74.12 148 75.2 147.733 76.16 147.2C77.12 146.64 77.88 145.853 78.44 144.84C79 143.827 79.28 142.653 79.28 141.32C79.28 139.987 79 138.813 78.44 137.8C77.88 136.787 77.12 136.013 76.16 135.48C75.2 134.92 74.12 134.64 72.92 134.64C71.72 134.64 70.64 134.92 69.68 135.48C68.72 136.013 67.96 136.787 67.4 137.8C66.84 138.813 66.56 139.987 66.56 141.32C66.56 142.653 66.84 143.827 67.4 144.84C67.96 145.853 68.72 146.64 69.68 147.2C70.64 147.733 71.72 148 72.92 148ZM111.396 152.28C109.236 152.28 107.289 151.813 105.556 150.88C103.822 149.947 102.462 148.653 101.476 147C100.516 145.32 100.036 143.427 100.036 141.32C100.036 139.213 100.516 137.333 101.476 135.68C102.462 134.027 103.822 132.733 105.556 131.8C107.289 130.867 109.236 130.4 111.396 130.4C113.582 130.4 115.542 130.867 117.276 131.8C119.009 132.733 120.356 134.027 121.316 135.68C122.302 137.333 122.796 139.213 122.796 141.32C122.796 143.427 122.302 145.32 121.316 147C120.356 148.653 119.009 149.947 117.276 150.88C115.542 151.813 113.582 152.28 111.396 152.28ZM111.396 148C113.236 148 114.756 147.387 115.956 146.16C117.156 144.933 117.756 143.32 117.756 141.32C117.756 139.32 117.156 137.707 115.956 136.48C114.756 135.253 113.236 134.64 111.396 134.64C109.556 134.64 108.036 135.253 106.836 136.48C105.662 137.707 105.076 139.32 105.076 141.32C105.076 143.32 105.662 144.933 106.836 146.16C108.036 147.387 109.556 148 111.396 148ZM139.417 130.4C141.497 130.4 143.35 130.853 144.977 131.76C146.63 132.667 147.924 133.947 148.857 135.6C149.79 137.253 150.257 139.16 150.257 141.32C150.257 143.48 149.79 145.4 148.857 147.08C147.924 148.733 146.63 150.013 144.977 150.92C143.35 151.827 141.497 152.28 139.417 152.28C136.537 152.28 134.257 151.32 132.577 149.4V159.76H127.577V130.64H132.337V133.44C133.164 132.427 134.177 131.667 135.377 131.16C136.604 130.653 137.95 130.4 139.417 130.4ZM138.857 148C140.697 148 142.204 147.387 143.377 146.16C144.577 144.933 145.177 143.32 145.177 141.32C145.177 139.32 144.577 137.707 143.377 136.48C142.204 135.253 140.697 134.64 138.857 134.64C137.657 134.64 136.577 134.92 135.617 135.48C134.657 136.013 133.897 136.787 133.337 137.8C132.777 138.813 132.497 139.987 132.497 141.32C132.497 142.653 132.777 143.827 133.337 144.84C133.897 145.853 134.657 146.64 135.617 147.2C136.577 147.733 137.657 148 138.857 148ZM165.159 148.04C167.479 148.04 169.412 147.267 170.959 145.72L173.599 148.8C172.665 149.947 171.465 150.813 169.999 151.4C168.532 151.987 166.879 152.28 165.039 152.28C162.692 152.28 160.625 151.813 158.839 150.88C157.052 149.947 155.665 148.653 154.679 147C153.719 145.32 153.239 143.427 153.239 141.32C153.239 139.24 153.705 137.373 154.639 135.72C155.599 134.04 156.905 132.733 158.559 131.8C160.239 130.867 162.132 130.4 164.239 130.4C166.239 130.4 168.052 130.84 169.679 131.72C171.332 132.573 172.639 133.813 173.599 135.44C174.559 137.04 175.039 138.92 175.039 141.08L158.679 144.28C159.185 145.507 159.999 146.44 161.119 147.08C162.239 147.72 163.585 148.04 165.159 148.04ZM164.239 134.4C162.399 134.4 160.905 135 159.759 136.2C158.639 137.4 158.079 139.013 158.079 141.04V141.08L170.159 138.76C169.812 137.453 169.105 136.4 168.039 135.6C166.999 134.8 165.732 134.4 164.239 134.4ZM184.603 133.76C186.043 131.52 188.576 130.4 192.203 130.4V135.16C191.776 135.08 191.389 135.04 191.043 135.04C189.096 135.04 187.576 135.613 186.483 136.76C185.389 137.88 184.843 139.507 184.843 141.64V152H179.843V130.64H184.603V133.76ZM217.129 130.64V152H212.369V149.24C211.542 150.253 210.515 151.013 209.289 151.52C208.089 152.027 206.755 152.28 205.289 152.28C203.209 152.28 201.342 151.827 199.689 150.92C198.062 150.013 196.782 148.733 195.849 147.08C194.942 145.427 194.489 143.507 194.489 141.32C194.489 139.133 194.942 137.227 195.849 135.6C196.782 133.947 198.062 132.667 199.689 131.76C201.342 130.853 203.209 130.4 205.289 130.4C206.675 130.4 207.942 130.64 209.089 131.12C210.262 131.6 211.275 132.307 212.129 133.24V130.64H217.129ZM205.849 148C207.689 148 209.209 147.387 210.409 146.16C211.609 144.933 212.209 143.32 212.209 141.32C212.209 139.32 211.609 137.707 210.409 136.48C209.209 135.253 207.689 134.64 205.849 134.64C204.009 134.64 202.489 135.253 201.289 136.48C200.115 137.707 199.529 139.32 199.529 141.32C199.529 143.32 200.115 144.933 201.289 146.16C202.489 147.387 204.009 148 205.849 148ZM235.671 150.84C235.084 151.32 234.364 151.68 233.511 151.92C232.684 152.16 231.804 152.28 230.871 152.28C228.524 152.28 226.711 151.667 225.431 150.44C224.151 149.213 223.511 147.427 223.511 145.08V125.92H228.511V130.8H234.231V134.8H228.511V144.96C228.511 146 228.764 146.8 229.271 147.36C229.804 147.893 230.537 148.16 231.471 148.16C232.591 148.16 233.524 147.867 234.271 147.28L235.671 150.84ZM249.26 148.04C251.58 148.04 253.514 147.267 255.06 145.72L257.7 148.8C256.767 149.947 255.567 150.813 254.1 151.4C252.634 151.987 250.98 152.28 249.14 152.28C246.794 152.28 244.727 151.813 242.94 150.88C241.154 149.947 239.767 148.653 238.78 147C237.82 145.32 237.34 143.427 237.34 141.32C237.34 139.24 237.807 137.373 238.74 135.72C239.7 134.04 241.007 132.733 242.66 131.8C244.34 130.867 246.234 130.4 248.34 130.4C250.34 130.4 252.154 130.84 253.78 131.72C255.434 132.573 256.74 133.813 257.7 135.44C258.66 137.04 259.14 138.92 259.14 141.08L242.78 144.28C243.287 145.507 244.1 146.44 245.22 147.08C246.34 147.72 247.687 148.04 249.26 148.04ZM248.34 134.4C246.5 134.4 245.007 135 243.86 136.2C242.74 137.4 242.18 139.013 242.18 141.04V141.08L254.26 138.76C253.914 137.453 253.207 136.4 252.14 135.6C251.1 134.8 249.834 134.4 248.34 134.4ZM284.864 122.32V152H280.064V149.24C279.237 150.253 278.211 151.013 276.984 151.52C275.784 152.027 274.451 152.28 272.984 152.28C270.931 152.28 269.077 151.827 267.424 150.92C265.797 150.013 264.517 148.733 263.584 147.08C262.651 145.4 262.184 143.48 262.184 141.32C262.184 139.16 262.651 137.253 263.584 135.6C264.517 133.947 265.797 132.667 267.424 131.76C269.077 130.853 270.931 130.4 272.984 130.4C274.397 130.4 275.691 130.64 276.864 131.12C278.037 131.6 279.037 132.32 279.864 133.28V122.32H284.864ZM273.584 148C274.784 148 275.864 147.733 276.824 147.2C277.784 146.64 278.544 145.853 279.104 144.84C279.664 143.827 279.944 142.653 279.944 141.32C279.944 139.987 279.664 138.813 279.104 137.8C278.544 136.787 277.784 136.013 276.824 135.48C275.864 134.92 274.784 134.64 273.584 134.64C272.384 134.64 271.304 134.92 270.344 135.48C269.384 136.013 268.624 136.787 268.064 137.8C267.504 138.813 267.224 139.987 267.224 141.32C267.224 142.653 267.504 143.827 268.064 144.84C268.624 145.853 269.384 146.64 270.344 147.2C271.304 147.733 272.384 148 273.584 148ZM314.3 130.4C316.38 130.4 318.233 130.853 319.86 131.76C321.513 132.667 322.806 133.947 323.74 135.6C324.673 137.253 325.14 139.16 325.14 141.32C325.14 143.48 324.673 145.4 323.74 147.08C322.806 148.733 321.513 150.013 319.86 150.92C318.233 151.827 316.38 152.28 314.3 152.28C312.833 152.28 311.486 152.027 310.26 151.52C309.06 151.013 308.046 150.253 307.22 149.24V152H302.46V122.32H307.46V133.24C308.313 132.307 309.313 131.6 310.46 131.12C311.633 130.64 312.913 130.4 314.3 130.4ZM313.74 148C315.58 148 317.086 147.387 318.26 146.16C319.46 144.933 320.06 143.32 320.06 141.32C320.06 139.32 319.46 137.707 318.26 136.48C317.086 135.253 315.58 134.64 313.74 134.64C312.54 134.64 311.46 134.92 310.5 135.48C309.54 136.013 308.78 136.787 308.22 137.8C307.66 138.813 307.38 139.987 307.38 141.32C307.38 142.653 307.66 143.827 308.22 144.84C308.78 145.853 309.54 146.64 310.5 147.2C311.46 147.733 312.54 148 313.74 148ZM350.562 130.64V152H345.802V149.28C345.002 150.24 344.002 150.987 342.802 151.52C341.602 152.027 340.308 152.28 338.922 152.28C336.068 152.28 333.815 151.493 332.162 149.92C330.535 148.32 329.722 145.96 329.722 142.84V130.64H334.722V142.16C334.722 144.08 335.148 145.52 336.002 146.48C336.882 147.413 338.122 147.88 339.722 147.88C341.508 147.88 342.922 147.333 343.962 146.24C345.028 145.12 345.562 143.52 345.562 141.44V130.64H350.562ZM363.708 152.28C361.975 152.28 360.281 152.053 358.628 151.6C356.975 151.147 355.655 150.573 354.668 149.88L356.588 146.08C357.548 146.72 358.695 147.24 360.028 147.64C361.388 148.013 362.721 148.2 364.028 148.2C367.015 148.2 368.508 147.413 368.508 145.84C368.508 145.093 368.121 144.573 367.348 144.28C366.601 143.987 365.388 143.707 363.708 143.44C361.948 143.173 360.508 142.867 359.388 142.52C358.295 142.173 357.335 141.573 356.508 140.72C355.708 139.84 355.308 138.627 355.308 137.08C355.308 135.053 356.148 133.44 357.828 132.24C359.535 131.013 361.828 130.4 364.708 130.4C366.175 130.4 367.641 130.573 369.108 130.92C370.575 131.24 371.775 131.68 372.708 132.24L370.788 136.04C368.975 134.973 366.935 134.44 364.668 134.44C363.201 134.44 362.081 134.667 361.308 135.12C360.561 135.547 360.188 136.12 360.188 136.84C360.188 137.64 360.588 138.213 361.388 138.56C362.215 138.88 363.481 139.187 365.188 139.48C366.895 139.747 368.295 140.053 369.388 140.4C370.481 140.747 371.415 141.333 372.188 142.16C372.988 142.987 373.388 144.16 373.388 145.68C373.388 147.68 372.521 149.28 370.788 150.48C369.055 151.68 366.695 152.28 363.708 152.28ZM377.694 130.64H382.694V152H377.694V130.64ZM380.214 127.12C379.307 127.12 378.547 126.84 377.934 126.28C377.321 125.693 377.014 124.973 377.014 124.12C377.014 123.267 377.321 122.56 377.934 122C378.547 121.413 379.307 121.12 380.214 121.12C381.121 121.12 381.881 121.4 382.494 121.96C383.107 122.493 383.414 123.173 383.414 124C383.414 124.88 383.107 125.627 382.494 126.24C381.907 126.827 381.147 127.12 380.214 127.12ZM401.377 130.4C404.07 130.4 406.23 131.187 407.857 132.76C409.483 134.333 410.297 136.667 410.297 139.76V152H405.297V140.4C405.297 138.533 404.857 137.133 403.977 136.2C403.097 135.24 401.843 134.76 400.217 134.76C398.377 134.76 396.923 135.32 395.857 136.44C394.79 137.533 394.257 139.12 394.257 141.2V152H389.257V130.64H394.017V133.4C394.843 132.413 395.883 131.667 397.137 131.16C398.39 130.653 399.803 130.4 401.377 130.4ZM426.995 148.04C429.315 148.04 431.248 147.267 432.795 145.72L435.435 148.8C434.501 149.947 433.301 150.813 431.835 151.4C430.368 151.987 428.715 152.28 426.875 152.28C424.528 152.28 422.461 151.813 420.675 150.88C418.888 149.947 417.501 148.653 416.515 147C415.555 145.32 415.075 143.427 415.075 141.32C415.075 139.24 415.541 137.373 416.475 135.72C417.435 134.04 418.741 132.733 420.395 131.8C422.075 130.867 423.968 130.4 426.075 130.4C428.075 130.4 429.888 130.84 431.515 131.72C433.168 132.573 434.475 133.813 435.435 135.44C436.395 137.04 436.875 138.92 436.875 141.08L420.515 144.28C421.021 145.507 421.835 146.44 422.955 147.08C424.075 147.72 425.421 148.04 426.995 148.04ZM426.075 134.4C424.235 134.4 422.741 135 421.595 136.2C420.475 137.4 419.915 139.013 419.915 141.04V141.08L431.995 138.76C431.648 137.453 430.941 136.4 429.875 135.6C428.835 134.8 427.568 134.4 426.075 134.4ZM448.278 152.28C446.545 152.28 444.852 152.053 443.198 151.6C441.545 151.147 440.225 150.573 439.238 149.88L441.158 146.08C442.118 146.72 443.265 147.24 444.598 147.64C445.958 148.013 447.292 148.2 448.598 148.2C451.585 148.2 453.078 147.413 453.078 145.84C453.078 145.093 452.692 144.573 451.918 144.28C451.172 143.987 449.958 143.707 448.278 143.44C446.518 143.173 445.078 142.867 443.958 142.52C442.865 142.173 441.905 141.573 441.078 140.72C440.278 139.84 439.878 138.627 439.878 137.08C439.878 135.053 440.718 133.44 442.398 132.24C444.105 131.013 446.398 130.4 449.278 130.4C450.745 130.4 452.212 130.573 453.678 130.92C455.145 131.24 456.345 131.68 457.278 132.24L455.358 136.04C453.545 134.973 451.505 134.44 449.238 134.44C447.772 134.44 446.652 134.667 445.878 135.12C445.132 135.547 444.758 136.12 444.758 136.84C444.758 137.64 445.158 138.213 445.958 138.56C446.785 138.88 448.052 139.187 449.758 139.48C451.465 139.747 452.865 140.053 453.958 140.4C455.052 140.747 455.985 141.333 456.758 142.16C457.558 142.987 457.958 144.16 457.958 145.68C457.958 147.68 457.092 149.28 455.358 150.48C453.625 151.68 451.265 152.28 448.278 152.28ZM468.864 152.28C467.131 152.28 465.438 152.053 463.784 151.6C462.131 151.147 460.811 150.573 459.824 149.88L461.744 146.08C462.704 146.72 463.851 147.24 465.184 147.64C466.544 148.013 467.878 148.2 469.184 148.2C472.171 148.2 473.664 147.413 473.664 145.84C473.664 145.093 473.278 144.573 472.504 144.28C471.758 143.987 470.544 143.707 468.864 143.44C467.104 143.173 465.664 142.867 464.544 142.52C463.451 142.173 462.491 141.573 461.664 140.72C460.864 139.84 460.464 138.627 460.464 137.08C460.464 135.053 461.304 133.44 462.984 132.24C464.691 131.013 466.984 130.4 469.864 130.4C471.331 130.4 472.798 130.573 474.264 130.92C475.731 131.24 476.931 131.68 477.864 132.24L475.944 136.04C474.131 134.973 472.091 134.44 469.824 134.44C468.358 134.44 467.238 134.667 466.464 135.12C465.718 135.547 465.344 136.12 465.344 136.84C465.344 137.64 465.744 138.213 466.544 138.56C467.371 138.88 468.638 139.187 470.344 139.48C472.051 139.747 473.451 140.053 474.544 140.4C475.638 140.747 476.571 141.333 477.344 142.16C478.144 142.987 478.544 144.16 478.544 145.68C478.544 147.68 477.678 149.28 475.944 150.48C474.211 151.68 471.851 152.28 468.864 152.28ZM505.905 150.84C505.318 151.32 504.598 151.68 503.745 151.92C502.918 152.16 502.038 152.28 501.105 152.28C498.758 152.28 496.945 151.667 495.665 150.44C494.385 149.213 493.745 147.427 493.745 145.08V125.92H498.745V130.8H504.465V134.8H498.745V144.96C498.745 146 498.998 146.8 499.505 147.36C500.038 147.893 500.772 148.16 501.705 148.16C502.825 148.16 503.758 147.867 504.505 147.28L505.905 150.84ZM522.158 130.4C524.851 130.4 527.011 131.187 528.638 132.76C530.264 134.333 531.078 136.667 531.078 139.76V152H526.078V140.4C526.078 138.533 525.638 137.133 524.758 136.2C523.878 135.24 522.624 134.76 520.998 134.76C519.158 134.76 517.704 135.32 516.638 136.44C515.571 137.533 515.038 139.12 515.038 141.2V152H510.038V122.32H515.038V133.12C515.864 132.24 516.878 131.573 518.078 131.12C519.304 130.64 520.664 130.4 522.158 130.4ZM558.496 130.64V152H553.736V149.24C552.909 150.253 551.883 151.013 550.656 151.52C549.456 152.027 548.123 152.28 546.656 152.28C544.576 152.28 542.709 151.827 541.056 150.92C539.429 150.013 538.149 148.733 537.216 147.08C536.309 145.427 535.856 143.507 535.856 141.32C535.856 139.133 536.309 137.227 537.216 135.6C538.149 133.947 539.429 132.667 541.056 131.76C542.709 130.853 544.576 130.4 546.656 130.4C548.043 130.4 549.309 130.64 550.456 131.12C551.629 131.6 552.643 132.307 553.496 133.24V130.64H558.496ZM547.216 148C549.056 148 550.576 147.387 551.776 146.16C552.976 144.933 553.576 143.32 553.576 141.32C553.576 139.32 552.976 137.707 551.776 136.48C550.576 135.253 549.056 134.64 547.216 134.64C545.376 134.64 543.856 135.253 542.656 136.48C541.483 137.707 540.896 139.32 540.896 141.32C540.896 143.32 541.483 144.933 542.656 146.16C543.856 147.387 545.376 148 547.216 148ZM577.038 150.84C576.451 151.32 575.731 151.68 574.878 151.92C574.051 152.16 573.171 152.28 572.238 152.28C569.891 152.28 568.078 151.667 566.798 150.44C565.518 149.213 564.878 147.427 564.878 145.08V125.92H569.878V130.8H575.598V134.8H569.878V144.96C569.878 146 570.131 146.8 570.638 147.36C571.171 147.893 571.904 148.16 572.838 148.16C573.958 148.16 574.891 147.867 575.638 147.28L577.038 150.84ZM20.12 185.4C22.2 185.4 24.0533 185.853 25.68 186.76C27.3333 187.667 28.6267 188.947 29.56 190.6C30.4933 192.253 30.96 194.16 30.96 196.32C30.96 198.48 30.4933 200.4 29.56 202.08C28.6267 203.733 27.3333 205.013 25.68 205.92C24.0533 206.827 22.2 207.28 20.12 207.28C17.24 207.28 14.96 206.32 13.28 204.4V214.76H8.28V185.64H13.04V188.44C13.8667 187.427 14.88 186.667 16.08 186.16C17.3067 185.653 18.6533 185.4 20.12 185.4ZM19.56 203C21.4 203 22.9067 202.387 24.08 201.16C25.28 199.933 25.88 198.32 25.88 196.32C25.88 194.32 25.28 192.707 24.08 191.48C22.9067 190.253 21.4 189.64 19.56 189.64C18.36 189.64 17.28 189.92 16.32 190.48C15.36 191.013 14.6 191.787 14.04 192.8C13.48 193.813 13.2 194.987 13.2 196.32C13.2 197.653 13.48 198.827 14.04 199.84C14.6 200.853 15.36 201.64 16.32 202.2C17.28 202.733 18.36 203 19.56 203ZM40.4619 188.76C41.9019 186.52 44.4352 185.4 48.0619 185.4V190.16C47.6352 190.08 47.2485 190.04 46.9019 190.04C44.9552 190.04 43.4352 190.613 42.3419 191.76C41.2485 192.88 40.7019 194.507 40.7019 196.64V207H35.7019V185.64H40.4619V188.76ZM61.7081 207.28C59.5481 207.28 57.6015 206.813 55.8681 205.88C54.1348 204.947 52.7748 203.653 51.7881 202C50.8281 200.32 50.3481 198.427 50.3481 196.32C50.3481 194.213 50.8281 192.333 51.7881 190.68C52.7748 189.027 54.1348 187.733 55.8681 186.8C57.6015 185.867 59.5481 185.4 61.7081 185.4C63.8948 185.4 65.8548 185.867 67.5881 186.8C69.3215 187.733 70.6681 189.027 71.6281 190.68C72.6148 192.333 73.1081 194.213 73.1081 196.32C73.1081 198.427 72.6148 200.32 71.6281 202C70.6681 203.653 69.3215 204.947 67.5881 205.88C65.8548 206.813 63.8948 207.28 61.7081 207.28ZM61.7081 203C63.5481 203 65.0681 202.387 66.2681 201.16C67.4681 199.933 68.0681 198.32 68.0681 196.32C68.0681 194.32 67.4681 192.707 66.2681 191.48C65.0681 190.253 63.5481 189.64 61.7081 189.64C59.8681 189.64 58.3481 190.253 57.1481 191.48C55.9748 192.707 55.3881 194.32 55.3881 196.32C55.3881 198.32 55.9748 199.933 57.1481 201.16C58.3481 202.387 59.8681 203 61.7081 203ZM97.3034 185.64L88.1434 207H82.9834L73.8234 185.64H79.0234L85.6634 201.48L92.5034 185.64H97.3034ZM100.428 185.64H105.428V207H100.428V185.64ZM102.948 182.12C102.042 182.12 101.282 181.84 100.668 181.28C100.055 180.693 99.7484 179.973 99.7484 179.12C99.7484 178.267 100.055 177.56 100.668 177C101.282 176.413 102.042 176.12 102.948 176.12C103.855 176.12 104.615 176.4 105.228 176.96C105.842 177.493 106.148 178.173 106.148 179C106.148 179.88 105.842 180.627 105.228 181.24C104.642 181.827 103.882 182.12 102.948 182.12ZM132.911 177.32V207H128.111V204.24C127.284 205.253 126.258 206.013 125.031 206.52C123.831 207.027 122.498 207.28 121.031 207.28C118.978 207.28 117.124 206.827 115.471 205.92C113.844 205.013 112.564 203.733 111.631 202.08C110.698 200.4 110.231 198.48 110.231 196.32C110.231 194.16 110.698 192.253 111.631 190.6C112.564 188.947 113.844 187.667 115.471 186.76C117.124 185.853 118.978 185.4 121.031 185.4C122.444 185.4 123.738 185.64 124.911 186.12C126.084 186.6 127.084 187.32 127.911 188.28V177.32H132.911ZM121.631 203C122.831 203 123.911 202.733 124.871 202.2C125.831 201.64 126.591 200.853 127.151 199.84C127.711 198.827 127.991 197.653 127.991 196.32C127.991 194.987 127.711 193.813 127.151 192.8C126.591 191.787 125.831 191.013 124.871 190.48C123.911 189.92 122.831 189.64 121.631 189.64C120.431 189.64 119.351 189.92 118.391 190.48C117.431 191.013 116.671 191.787 116.111 192.8C115.551 193.813 115.271 194.987 115.271 196.32C115.271 197.653 115.551 198.827 116.111 199.84C116.671 200.853 117.431 201.64 118.391 202.2C119.351 202.733 120.431 203 121.631 203ZM149.612 203.04C151.932 203.04 153.865 202.267 155.412 200.72L158.052 203.8C157.119 204.947 155.919 205.813 154.452 206.4C152.985 206.987 151.332 207.28 149.492 207.28C147.145 207.28 145.079 206.813 143.292 205.88C141.505 204.947 140.119 203.653 139.132 202C138.172 200.32 137.692 198.427 137.692 196.32C137.692 194.24 138.159 192.373 139.092 190.72C140.052 189.04 141.359 187.733 143.012 186.8C144.692 185.867 146.585 185.4 148.692 185.4C150.692 185.4 152.505 185.84 154.132 186.72C155.785 187.573 157.092 188.813 158.052 190.44C159.012 192.04 159.492 193.92 159.492 196.08L143.132 199.28C143.639 200.507 144.452 201.44 145.572 202.08C146.692 202.72 148.039 203.04 149.612 203.04ZM148.692 189.4C146.852 189.4 145.359 190 144.212 191.2C143.092 192.4 142.532 194.013 142.532 196.04V196.08L154.612 193.76C154.265 192.453 153.559 191.4 152.492 190.6C151.452 189.8 150.185 189.4 148.692 189.4ZM170.896 207.28C169.162 207.28 167.469 207.053 165.816 206.6C164.162 206.147 162.842 205.573 161.856 204.88L163.776 201.08C164.736 201.72 165.882 202.24 167.216 202.64C168.576 203.013 169.909 203.2 171.216 203.2C174.202 203.2 175.696 202.413 175.696 200.84C175.696 200.093 175.309 199.573 174.536 199.28C173.789 198.987 172.576 198.707 170.896 198.44C169.136 198.173 167.696 197.867 166.576 197.52C165.482 197.173 164.522 196.573 163.696 195.72C162.896 194.84 162.496 193.627 162.496 192.08C162.496 190.053 163.336 188.44 165.016 187.24C166.722 186.013 169.016 185.4 171.896 185.4C173.362 185.4 174.829 185.573 176.296 185.92C177.762 186.24 178.962 186.68 179.896 187.24L177.976 191.04C176.162 189.973 174.122 189.44 171.856 189.44C170.389 189.44 169.269 189.667 168.496 190.12C167.749 190.547 167.376 191.12 167.376 191.84C167.376 192.64 167.776 193.213 168.576 193.56C169.402 193.88 170.669 194.187 172.376 194.48C174.082 194.747 175.482 195.053 176.576 195.4C177.669 195.747 178.602 196.333 179.376 197.16C180.176 197.987 180.576 199.16 180.576 200.68C180.576 202.68 179.709 204.28 177.976 205.48C176.242 206.68 173.882 207.28 170.896 207.28ZM205.736 207.28C203.523 207.28 201.536 206.813 199.776 205.88C198.016 204.947 196.643 203.653 195.656 202C194.67 200.32 194.176 198.427 194.176 196.32C194.176 194.213 194.67 192.333 195.656 190.68C196.643 189.027 198.003 187.733 199.736 186.8C201.496 185.867 203.496 185.4 205.736 185.4C207.843 185.4 209.683 185.827 211.256 186.68C212.856 187.533 214.056 188.76 214.856 190.36L211.016 192.6C210.403 191.613 209.63 190.88 208.696 190.4C207.79 189.893 206.79 189.64 205.696 189.64C203.83 189.64 202.283 190.253 201.056 191.48C199.83 192.68 199.216 194.293 199.216 196.32C199.216 198.347 199.816 199.973 201.016 201.2C202.243 202.4 203.803 203 205.696 203C206.79 203 207.79 202.76 208.696 202.28C209.63 201.773 210.403 201.027 211.016 200.04L214.856 202.28C214.03 203.88 212.816 205.12 211.216 206C209.643 206.853 207.816 207.28 205.736 207.28ZM239.858 185.64V207H235.098V204.28C234.298 205.24 233.298 205.987 232.098 206.52C230.898 207.027 229.605 207.28 228.218 207.28C225.365 207.28 223.112 206.493 221.458 204.92C219.832 203.32 219.018 200.96 219.018 197.84V185.64H224.018V197.16C224.018 199.08 224.445 200.52 225.298 201.48C226.178 202.413 227.418 202.88 229.018 202.88C230.805 202.88 232.218 202.333 233.258 201.24C234.325 200.12 234.858 198.52 234.858 196.44V185.64H239.858ZM253.005 207.28C251.272 207.28 249.578 207.053 247.925 206.6C246.272 206.147 244.952 205.573 243.965 204.88L245.885 201.08C246.845 201.72 247.992 202.24 249.325 202.64C250.685 203.013 252.018 203.2 253.325 203.2C256.312 203.2 257.805 202.413 257.805 200.84C257.805 200.093 257.418 199.573 256.645 199.28C255.898 198.987 254.685 198.707 253.005 198.44C251.245 198.173 249.805 197.867 248.685 197.52C247.592 197.173 246.632 196.573 245.805 195.72C245.005 194.84 244.605 193.627 244.605 192.08C244.605 190.053 245.445 188.44 247.125 187.24C248.832 186.013 251.125 185.4 254.005 185.4C255.472 185.4 256.938 185.573 258.405 185.92C259.872 186.24 261.072 186.68 262.005 187.24L260.085 191.04C258.272 189.973 256.232 189.44 253.965 189.44C252.498 189.44 251.378 189.667 250.605 190.12C249.858 190.547 249.485 191.12 249.485 191.84C249.485 192.64 249.885 193.213 250.685 193.56C251.512 193.88 252.778 194.187 254.485 194.48C256.192 194.747 257.592 195.053 258.685 195.4C259.778 195.747 260.712 196.333 261.485 197.16C262.285 197.987 262.685 199.16 262.685 200.68C262.685 202.68 261.818 204.28 260.085 205.48C258.352 206.68 255.992 207.28 253.005 207.28ZM278.991 205.84C278.404 206.32 277.684 206.68 276.831 206.92C276.004 207.16 275.124 207.28 274.191 207.28C271.844 207.28 270.031 206.667 268.751 205.44C267.471 204.213 266.831 202.427 266.831 200.08V180.92H271.831V185.8H277.551V189.8H271.831V199.96C271.831 201 272.084 201.8 272.591 202.36C273.124 202.893 273.858 203.16 274.791 203.16C275.911 203.16 276.844 202.867 277.591 202.28L278.991 205.84ZM292.021 207.28C289.861 207.28 287.914 206.813 286.181 205.88C284.447 204.947 283.087 203.653 282.101 202C281.141 200.32 280.661 198.427 280.661 196.32C280.661 194.213 281.141 192.333 282.101 190.68C283.087 189.027 284.447 187.733 286.181 186.8C287.914 185.867 289.861 185.4 292.021 185.4C294.207 185.4 296.167 185.867 297.901 186.8C299.634 187.733 300.981 189.027 301.941 190.68C302.927 192.333 303.421 194.213 303.421 196.32C303.421 198.427 302.927 200.32 301.941 202C300.981 203.653 299.634 204.947 297.901 205.88C296.167 206.813 294.207 207.28 292.021 207.28ZM292.021 203C293.861 203 295.381 202.387 296.581 201.16C297.781 199.933 298.381 198.32 298.381 196.32C298.381 194.32 297.781 192.707 296.581 191.48C295.381 190.253 293.861 189.64 292.021 189.64C290.181 189.64 288.661 190.253 287.461 191.48C286.287 192.707 285.701 194.32 285.701 196.32C285.701 198.32 286.287 199.933 287.461 201.16C288.661 202.387 290.181 203 292.021 203ZM335.162 185.4C337.855 185.4 339.989 186.187 341.562 187.76C343.135 189.307 343.922 191.64 343.922 194.76V207H338.922V195.4C338.922 193.533 338.509 192.133 337.682 191.2C336.855 190.24 335.669 189.76 334.122 189.76C332.442 189.76 331.095 190.32 330.082 191.44C329.069 192.533 328.562 194.107 328.562 196.16V207H323.562V195.4C323.562 193.533 323.149 192.133 322.322 191.2C321.495 190.24 320.309 189.76 318.762 189.76C317.055 189.76 315.695 190.307 314.682 191.4C313.695 192.493 313.202 194.08 313.202 196.16V207H308.202V185.64H312.962V188.36C313.762 187.4 314.762 186.667 315.962 186.16C317.162 185.653 318.495 185.4 319.962 185.4C321.562 185.4 322.975 185.707 324.202 186.32C325.455 186.907 326.442 187.787 327.162 188.96C328.042 187.84 329.175 186.973 330.562 186.36C331.949 185.72 333.482 185.4 335.162 185.4ZM367.966 207.28C366.233 207.28 364.539 207.053 362.886 206.6C361.233 206.147 359.913 205.573 358.926 204.88L360.846 201.08C361.806 201.72 362.953 202.24 364.286 202.64C365.646 203.013 366.979 203.2 368.286 203.2C371.273 203.2 372.766 202.413 372.766 200.84C372.766 200.093 372.379 199.573 371.606 199.28C370.859 198.987 369.646 198.707 367.966 198.44C366.206 198.173 364.766 197.867 363.646 197.52C362.553 197.173 361.593 196.573 360.766 195.72C359.966 194.84 359.566 193.627 359.566 192.08C359.566 190.053 360.406 188.44 362.086 187.24C363.793 186.013 366.086 185.4 368.966 185.4C370.433 185.4 371.899 185.573 373.366 185.92C374.833 186.24 376.033 186.68 376.966 187.24L375.046 191.04C373.233 189.973 371.193 189.44 368.926 189.44C367.459 189.44 366.339 189.667 365.566 190.12C364.819 190.547 364.446 191.12 364.446 191.84C364.446 192.64 364.846 193.213 365.646 193.56C366.473 193.88 367.739 194.187 369.446 194.48C371.153 194.747 372.553 195.053 373.646 195.4C374.739 195.747 375.673 196.333 376.446 197.16C377.246 197.987 377.646 199.16 377.646 200.68C377.646 202.68 376.779 204.28 375.046 205.48C373.313 206.68 370.953 207.28 367.966 207.28ZM391.752 207.28C389.539 207.28 387.552 206.813 385.792 205.88C384.032 204.947 382.659 203.653 381.672 202C380.685 200.32 380.192 198.427 380.192 196.32C380.192 194.213 380.685 192.333 381.672 190.68C382.659 189.027 384.019 187.733 385.752 186.8C387.512 185.867 389.512 185.4 391.752 185.4C393.859 185.4 395.699 185.827 397.272 186.68C398.872 187.533 400.072 188.76 400.872 190.36L397.032 192.6C396.419 191.613 395.645 190.88 394.712 190.4C393.805 189.893 392.805 189.64 391.712 189.64C389.845 189.64 388.299 190.253 387.072 191.48C385.845 192.68 385.232 194.293 385.232 196.32C385.232 198.347 385.832 199.973 387.032 201.2C388.259 202.4 389.819 203 391.712 203C392.805 203 393.805 202.76 394.712 202.28C395.645 201.773 396.419 201.027 397.032 200.04L400.872 202.28C400.045 203.88 398.832 205.12 397.232 206C395.659 206.853 393.832 207.28 391.752 207.28ZM409.954 188.76C411.394 186.52 413.927 185.4 417.554 185.4V190.16C417.127 190.08 416.741 190.04 416.394 190.04C414.447 190.04 412.927 190.613 411.834 191.76C410.741 192.88 410.194 194.507 410.194 196.64V207H405.194V185.64H409.954V188.76ZM431.76 203.04C434.08 203.04 436.014 202.267 437.56 200.72L440.2 203.8C439.267 204.947 438.067 205.813 436.6 206.4C435.134 206.987 433.48 207.28 431.64 207.28C429.294 207.28 427.227 206.813 425.44 205.88C423.654 204.947 422.267 203.653 421.28 202C420.32 200.32 419.84 198.427 419.84 196.32C419.84 194.24 420.307 192.373 421.24 190.72C422.2 189.04 423.507 187.733 425.16 186.8C426.84 185.867 428.734 185.4 430.84 185.4C432.84 185.4 434.654 185.84 436.28 186.72C437.934 187.573 439.24 188.813 440.2 190.44C441.16 192.04 441.64 193.92 441.64 196.08L425.28 199.28C425.787 200.507 426.6 201.44 427.72 202.08C428.84 202.72 430.187 203.04 431.76 203.04ZM430.84 189.4C429 189.4 427.507 190 426.36 191.2C425.24 192.4 424.68 194.013 424.68 196.04V196.08L436.76 193.76C436.414 192.453 435.707 191.4 434.64 190.6C433.6 189.8 432.334 189.4 430.84 189.4ZM456.604 203.04C458.924 203.04 460.857 202.267 462.404 200.72L465.044 203.8C464.111 204.947 462.911 205.813 461.444 206.4C459.977 206.987 458.324 207.28 456.484 207.28C454.137 207.28 452.071 206.813 450.284 205.88C448.497 204.947 447.111 203.653 446.124 202C445.164 200.32 444.684 198.427 444.684 196.32C444.684 194.24 445.151 192.373 446.084 190.72C447.044 189.04 448.351 187.733 450.004 186.8C451.684 185.867 453.577 185.4 455.684 185.4C457.684 185.4 459.497 185.84 461.124 186.72C462.777 187.573 464.084 188.813 465.044 190.44C466.004 192.04 466.484 193.92 466.484 196.08L450.124 199.28C450.631 200.507 451.444 201.44 452.564 202.08C453.684 202.72 455.031 203.04 456.604 203.04ZM455.684 189.4C453.844 189.4 452.351 190 451.204 191.2C450.084 192.4 449.524 194.013 449.524 196.04V196.08L461.604 193.76C461.257 192.453 460.551 191.4 459.484 190.6C458.444 189.8 457.177 189.4 455.684 189.4ZM483.408 185.4C486.101 185.4 488.261 186.187 489.888 187.76C491.514 189.333 492.328 191.667 492.328 194.76V207H487.328V195.4C487.328 193.533 486.888 192.133 486.008 191.2C485.128 190.24 483.874 189.76 482.248 189.76C480.408 189.76 478.954 190.32 477.888 191.44C476.821 192.533 476.288 194.12 476.288 196.2V207H471.288V185.64H476.048V188.4C476.874 187.413 477.914 186.667 479.168 186.16C480.421 185.653 481.834 185.4 483.408 185.4ZM497.591 193.8H508.591V197.96H497.591V193.8ZM20.12 240.4C22.2 240.4 24.0533 240.853 25.68 241.76C27.3333 242.667 28.6267 243.947 29.56 245.6C30.4933 247.253 30.96 249.16 30.96 251.32C30.96 253.48 30.4933 255.4 29.56 257.08C28.6267 258.733 27.3333 260.013 25.68 260.92C24.0533 261.827 22.2 262.28 20.12 262.28C17.24 262.28 14.96 261.32 13.28 259.4V269.76H8.28V240.64H13.04V243.44C13.8667 242.427 14.88 241.667 16.08 241.16C17.3067 240.653 18.6533 240.4 20.12 240.4ZM19.56 258C21.4 258 22.9067 257.387 24.08 256.16C25.28 254.933 25.88 253.32 25.88 251.32C25.88 249.32 25.28 247.707 24.08 246.48C22.9067 245.253 21.4 244.64 19.56 244.64C18.36 244.64 17.28 244.92 16.32 245.48C15.36 246.013 14.6 246.787 14.04 247.8C13.48 248.813 13.2 249.987 13.2 251.32C13.2 252.653 13.48 253.827 14.04 254.84C14.6 255.853 15.36 256.64 16.32 257.2C17.28 257.733 18.36 258 19.56 258ZM40.4619 243.76C41.9019 241.52 44.4352 240.4 48.0619 240.4V245.16C47.6352 245.08 47.2485 245.04 46.9019 245.04C44.9552 245.04 43.4352 245.613 42.3419 246.76C41.2485 247.88 40.7019 249.507 40.7019 251.64V262H35.7019V240.64H40.4619V243.76ZM52.3034 240.64H57.3034V262H52.3034V240.64ZM54.8234 237.12C53.9168 237.12 53.1568 236.84 52.5434 236.28C51.9301 235.693 51.6234 234.973 51.6234 234.12C51.6234 233.267 51.9301 232.56 52.5434 232C53.1568 231.413 53.9168 231.12 54.8234 231.12C55.7301 231.12 56.4901 231.4 57.1034 231.96C57.7168 232.493 58.0234 233.173 58.0234 234C58.0234 234.88 57.7168 235.627 57.1034 236.24C56.5168 236.827 55.7568 237.12 54.8234 237.12ZM75.9859 240.4C78.6793 240.4 80.8393 241.187 82.4659 242.76C84.0926 244.333 84.9059 246.667 84.9059 249.76V262H79.9059V250.4C79.9059 248.533 79.4659 247.133 78.5859 246.2C77.7059 245.24 76.4526 244.76 74.8259 244.76C72.9859 244.76 71.5326 245.32 70.4659 246.44C69.3993 247.533 68.8659 249.12 68.8659 251.2V262H63.8659V240.64H68.6259V243.4C69.4526 242.413 70.4926 241.667 71.7459 241.16C72.9993 240.653 74.4126 240.4 75.9859 240.4ZM103.249 260.84C102.662 261.32 101.942 261.68 101.089 261.92C100.262 262.16 99.3821 262.28 98.4488 262.28C96.1021 262.28 94.2888 261.667 93.0088 260.44C91.7288 259.213 91.0888 257.427 91.0888 255.08V235.92H96.0888V240.8H101.809V244.8H96.0888V254.96C96.0888 256 96.3421 256.8 96.8488 257.36C97.3821 257.893 98.1154 258.16 99.0488 258.16C100.169 258.16 101.102 257.867 101.849 257.28L103.249 260.84ZM116.838 258.04C119.158 258.04 121.092 257.267 122.638 255.72L125.278 258.8C124.345 259.947 123.145 260.813 121.678 261.4C120.212 261.987 118.558 262.28 116.718 262.28C114.372 262.28 112.305 261.813 110.518 260.88C108.732 259.947 107.345 258.653 106.358 257C105.398 255.32 104.918 253.427 104.918 251.32C104.918 249.24 105.385 247.373 106.318 245.72C107.278 244.04 108.585 242.733 110.238 241.8C111.918 240.867 113.812 240.4 115.918 240.4C117.918 240.4 119.732 240.84 121.358 241.72C123.012 242.573 124.318 243.813 125.278 245.44C126.238 247.04 126.718 248.92 126.718 251.08L110.358 254.28C110.865 255.507 111.678 256.44 112.798 257.08C113.918 257.72 115.265 258.04 116.838 258.04ZM115.918 244.4C114.078 244.4 112.585 245 111.438 246.2C110.318 247.4 109.758 249.013 109.758 251.04V251.08L121.838 248.76C121.492 247.453 120.785 246.4 119.718 245.6C118.678 244.8 117.412 244.4 115.918 244.4ZM152.442 232.32V262H147.642V259.24C146.816 260.253 145.789 261.013 144.562 261.52C143.362 262.027 142.029 262.28 140.562 262.28C138.509 262.28 136.656 261.827 135.002 260.92C133.376 260.013 132.096 258.733 131.162 257.08C130.229 255.4 129.762 253.48 129.762 251.32C129.762 249.16 130.229 247.253 131.162 245.6C132.096 243.947 133.376 242.667 135.002 241.76C136.656 240.853 138.509 240.4 140.562 240.4C141.976 240.4 143.269 240.64 144.442 241.12C145.616 241.6 146.616 242.32 147.442 243.28V232.32H152.442ZM141.162 258C142.362 258 143.442 257.733 144.402 257.2C145.362 256.64 146.122 255.853 146.682 254.84C147.242 253.827 147.522 252.653 147.522 251.32C147.522 249.987 147.242 248.813 146.682 247.8C146.122 246.787 145.362 246.013 144.402 245.48C143.442 244.92 142.362 244.64 141.162 244.64C139.962 244.64 138.882 244.92 137.922 245.48C136.962 246.013 136.202 246.787 135.642 247.8C135.082 248.813 134.802 249.987 134.802 251.32C134.802 252.653 135.082 253.827 135.642 254.84C136.202 255.853 136.962 256.64 137.922 257.2C138.882 257.733 139.962 258 141.162 258ZM190.918 240.64V262H186.158V259.24C185.331 260.253 184.304 261.013 183.078 261.52C181.878 262.027 180.544 262.28 179.078 262.28C176.998 262.28 175.131 261.827 173.478 260.92C171.851 260.013 170.571 258.733 169.638 257.08C168.731 255.427 168.278 253.507 168.278 251.32C168.278 249.133 168.731 247.227 169.638 245.6C170.571 243.947 171.851 242.667 173.478 241.76C175.131 240.853 176.998 240.4 179.078 240.4C180.464 240.4 181.731 240.64 182.878 241.12C184.051 241.6 185.064 242.307 185.918 243.24V240.64H190.918ZM179.638 258C181.478 258 182.998 257.387 184.198 256.16C185.398 254.933 185.998 253.32 185.998 251.32C185.998 249.32 185.398 247.707 184.198 246.48C182.998 245.253 181.478 244.64 179.638 244.64C177.798 244.64 176.278 245.253 175.078 246.48C173.904 247.707 173.318 249.32 173.318 251.32C173.318 253.32 173.904 254.933 175.078 256.16C176.278 257.387 177.798 258 179.638 258ZM209.58 240.4C212.273 240.4 214.433 241.187 216.06 242.76C217.686 244.333 218.5 246.667 218.5 249.76V262H213.5V250.4C213.5 248.533 213.06 247.133 212.18 246.2C211.3 245.24 210.046 244.76 208.42 244.76C206.58 244.76 205.126 245.32 204.06 246.44C202.993 247.533 202.46 249.12 202.46 251.2V262H197.46V240.64H202.22V243.4C203.046 242.413 204.086 241.667 205.34 241.16C206.593 240.653 208.006 240.4 209.58 240.4ZM245.958 232.32V262H241.158V259.24C240.331 260.253 239.304 261.013 238.078 261.52C236.878 262.027 235.544 262.28 234.078 262.28C232.024 262.28 230.171 261.827 228.518 260.92C226.891 260.013 225.611 258.733 224.678 257.08C223.744 255.4 223.278 253.48 223.278 251.32C223.278 249.16 223.744 247.253 224.678 245.6C225.611 243.947 226.891 242.667 228.518 241.76C230.171 240.853 232.024 240.4 234.078 240.4C235.491 240.4 236.784 240.64 237.958 241.12C239.131 241.6 240.131 242.32 240.958 243.28V232.32H245.958ZM234.678 258C235.878 258 236.958 257.733 237.918 257.2C238.878 256.64 239.638 255.853 240.198 254.84C240.758 253.827 241.038 252.653 241.038 251.32C241.038 249.987 240.758 248.813 240.198 247.8C239.638 246.787 238.878 246.013 237.918 245.48C236.958 244.92 235.878 244.64 234.678 244.64C233.478 244.64 232.398 244.92 231.438 245.48C230.478 246.013 229.718 246.787 229.158 247.8C228.598 248.813 228.318 249.987 228.318 251.32C228.318 252.653 228.598 253.827 229.158 254.84C229.718 255.853 230.478 256.64 231.438 257.2C232.398 257.733 233.478 258 234.678 258ZM273.713 258.04C276.033 258.04 277.967 257.267 279.513 255.72L282.153 258.8C281.22 259.947 280.02 260.813 278.553 261.4C277.087 261.987 275.433 262.28 273.593 262.28C271.247 262.28 269.18 261.813 267.393 260.88C265.607 259.947 264.22 258.653 263.233 257C262.273 255.32 261.793 253.427 261.793 251.32C261.793 249.24 262.26 247.373 263.193 245.72C264.153 244.04 265.46 242.733 267.113 241.8C268.793 240.867 270.687 240.4 272.793 240.4C274.793 240.4 276.607 240.84 278.233 241.72C279.887 242.573 281.193 243.813 282.153 245.44C283.113 247.04 283.593 248.92 283.593 251.08L267.233 254.28C267.74 255.507 268.553 256.44 269.673 257.08C270.793 257.72 272.14 258.04 273.713 258.04ZM272.793 244.4C270.953 244.4 269.46 245 268.313 246.2C267.193 247.4 266.633 249.013 266.633 251.04V251.08L278.713 248.76C278.367 247.453 277.66 246.4 276.593 245.6C275.553 244.8 274.287 244.4 272.793 244.4ZM315.357 240.4C318.051 240.4 320.184 241.187 321.757 242.76C323.331 244.307 324.117 246.64 324.117 249.76V262H319.117V250.4C319.117 248.533 318.704 247.133 317.877 246.2C317.051 245.24 315.864 244.76 314.317 244.76C312.637 244.76 311.291 245.32 310.277 246.44C309.264 247.533 308.757 249.107 308.757 251.16V262H303.757V250.4C303.757 248.533 303.344 247.133 302.517 246.2C301.691 245.24 300.504 244.76 298.957 244.76C297.251 244.76 295.891 245.307 294.877 246.4C293.891 247.493 293.397 249.08 293.397 251.16V262H288.397V240.64H293.157V243.36C293.957 242.4 294.957 241.667 296.157 241.16C297.357 240.653 298.691 240.4 300.157 240.4C301.757 240.4 303.171 240.707 304.397 241.32C305.651 241.907 306.637 242.787 307.357 243.96C308.237 242.84 309.371 241.973 310.757 241.36C312.144 240.72 313.677 240.4 315.357 240.4ZM342.347 240.4C344.427 240.4 346.28 240.853 347.907 241.76C349.56 242.667 350.853 243.947 351.787 245.6C352.72 247.253 353.187 249.16 353.187 251.32C353.187 253.48 352.72 255.4 351.787 257.08C350.853 258.733 349.56 260.013 347.907 260.92C346.28 261.827 344.427 262.28 342.347 262.28C340.88 262.28 339.533 262.027 338.307 261.52C337.107 261.013 336.093 260.253 335.267 259.24V262H330.507V232.32H335.507V243.24C336.36 242.307 337.36 241.6 338.507 241.12C339.68 240.64 340.96 240.4 342.347 240.4ZM341.787 258C343.627 258 345.133 257.387 346.307 256.16C347.507 254.933 348.107 253.32 348.107 251.32C348.107 249.32 347.507 247.707 346.307 246.48C345.133 245.253 343.627 244.64 341.787 244.64C340.587 244.64 339.507 244.92 338.547 245.48C337.587 246.013 336.827 246.787 336.267 247.8C335.707 248.813 335.427 249.987 335.427 251.32C335.427 252.653 335.707 253.827 336.267 254.84C336.827 255.853 337.587 256.64 338.547 257.2C339.507 257.733 340.587 258 341.787 258ZM362.688 243.76C364.128 241.52 366.662 240.4 370.288 240.4V245.16C369.862 245.08 369.475 245.04 369.128 245.04C367.182 245.04 365.662 245.613 364.568 246.76C363.475 247.88 362.928 249.507 362.928 251.64V262H357.928V240.64H362.688V243.76ZM383.935 262.28C381.775 262.28 379.828 261.813 378.095 260.88C376.361 259.947 375.001 258.653 374.015 257C373.055 255.32 372.575 253.427 372.575 251.32C372.575 249.213 373.055 247.333 374.015 245.68C375.001 244.027 376.361 242.733 378.095 241.8C379.828 240.867 381.775 240.4 383.935 240.4C386.121 240.4 388.081 240.867 389.815 241.8C391.548 242.733 392.895 244.027 393.855 245.68C394.841 247.333 395.335 249.213 395.335 251.32C395.335 253.427 394.841 255.32 393.855 257C392.895 258.653 391.548 259.947 389.815 260.88C388.081 261.813 386.121 262.28 383.935 262.28ZM383.935 258C385.775 258 387.295 257.387 388.495 256.16C389.695 254.933 390.295 253.32 390.295 251.32C390.295 249.32 389.695 247.707 388.495 246.48C387.295 245.253 385.775 244.64 383.935 244.64C382.095 244.64 380.575 245.253 379.375 246.48C378.201 247.707 377.615 249.32 377.615 251.32C377.615 253.32 378.201 254.933 379.375 256.16C380.575 257.387 382.095 258 383.935 258ZM400.116 240.64H405.116V262H400.116V240.64ZM402.636 237.12C401.729 237.12 400.969 236.84 400.356 236.28C399.743 235.693 399.436 234.973 399.436 234.12C399.436 233.267 399.743 232.56 400.356 232C400.969 231.413 401.729 231.12 402.636 231.12C403.543 231.12 404.303 231.4 404.916 231.96C405.529 232.493 405.836 233.173 405.836 234C405.836 234.88 405.529 235.627 404.916 236.24C404.329 236.827 403.569 237.12 402.636 237.12ZM432.598 232.32V262H427.798V259.24C426.972 260.253 425.945 261.013 424.718 261.52C423.518 262.027 422.185 262.28 420.718 262.28C418.665 262.28 416.812 261.827 415.158 260.92C413.532 260.013 412.252 258.733 411.318 257.08C410.385 255.4 409.918 253.48 409.918 251.32C409.918 249.16 410.385 247.253 411.318 245.6C412.252 243.947 413.532 242.667 415.158 241.76C416.812 240.853 418.665 240.4 420.718 240.4C422.132 240.4 423.425 240.64 424.598 241.12C425.772 241.6 426.772 242.32 427.598 243.28V232.32H432.598ZM421.318 258C422.518 258 423.598 257.733 424.558 257.2C425.518 256.64 426.278 255.853 426.838 254.84C427.398 253.827 427.678 252.653 427.678 251.32C427.678 249.987 427.398 248.813 426.838 247.8C426.278 246.787 425.518 246.013 424.558 245.48C423.598 244.92 422.518 244.64 421.318 244.64C420.118 244.64 419.038 244.92 418.078 245.48C417.118 246.013 416.358 246.787 415.798 247.8C415.238 248.813 414.958 249.987 414.958 251.32C414.958 252.653 415.238 253.827 415.798 254.84C416.358 255.853 417.118 256.64 418.078 257.2C419.038 257.733 420.118 258 421.318 258ZM449.299 258.04C451.619 258.04 453.553 257.267 455.099 255.72L457.739 258.8C456.806 259.947 455.606 260.813 454.139 261.4C452.673 261.987 451.019 262.28 449.179 262.28C446.833 262.28 444.766 261.813 442.979 260.88C441.193 259.947 439.806 258.653 438.819 257C437.859 255.32 437.379 253.427 437.379 251.32C437.379 249.24 437.846 247.373 438.779 245.72C439.739 244.04 441.046 242.733 442.699 241.8C444.379 240.867 446.273 240.4 448.379 240.4C450.379 240.4 452.193 240.84 453.819 241.72C455.473 242.573 456.779 243.813 457.739 245.44C458.699 247.04 459.179 248.92 459.179 251.08L442.819 254.28C443.326 255.507 444.139 256.44 445.259 257.08C446.379 257.72 447.726 258.04 449.299 258.04ZM448.379 244.4C446.539 244.4 445.046 245 443.899 246.2C442.779 247.4 442.219 249.013 442.219 251.04V251.08L454.299 248.76C453.953 247.453 453.246 246.4 452.179 245.6C451.139 244.8 449.873 244.4 448.379 244.4ZM468.743 243.76C470.183 241.52 472.716 240.4 476.343 240.4V245.16C475.916 245.08 475.53 245.04 475.183 245.04C473.236 245.04 471.716 245.613 470.623 246.76C469.53 247.88 468.983 249.507 468.983 251.64V262H463.983V240.64H468.743V243.76ZM490.549 258.04C492.869 258.04 494.803 257.267 496.349 255.72L498.989 258.8C498.056 259.947 496.856 260.813 495.389 261.4C493.923 261.987 492.269 262.28 490.429 262.28C488.083 262.28 486.016 261.813 484.229 260.88C482.443 259.947 481.056 258.653 480.069 257C479.109 255.32 478.629 253.427 478.629 251.32C478.629 249.24 479.096 247.373 480.029 245.72C480.989 244.04 482.296 242.733 483.949 241.8C485.629 240.867 487.523 240.4 489.629 240.4C491.629 240.4 493.443 240.84 495.069 241.72C496.723 242.573 498.029 243.813 498.989 245.44C499.949 247.04 500.429 248.92 500.429 251.08L484.069 254.28C484.576 255.507 485.389 256.44 486.509 257.08C487.629 257.72 488.976 258.04 490.549 258.04ZM489.629 244.4C487.789 244.4 486.296 245 485.149 246.2C484.029 247.4 483.469 249.013 483.469 251.04V251.08L495.549 248.76C495.203 247.453 494.496 246.4 493.429 245.6C492.389 244.8 491.123 244.4 489.629 244.4ZM526.153 232.32V262H521.353V259.24C520.526 260.253 519.5 261.013 518.273 261.52C517.073 262.027 515.74 262.28 514.273 262.28C512.22 262.28 510.366 261.827 508.713 260.92C507.086 260.013 505.806 258.733 504.873 257.08C503.94 255.4 503.473 253.48 503.473 251.32C503.473 249.16 503.94 247.253 504.873 245.6C505.806 243.947 507.086 242.667 508.713 241.76C510.366 240.853 512.22 240.4 514.273 240.4C515.686 240.4 516.98 240.64 518.153 241.12C519.326 241.6 520.326 242.32 521.153 243.28V232.32H526.153ZM514.873 258C516.073 258 517.153 257.733 518.113 257.2C519.073 256.64 519.833 255.853 520.393 254.84C520.953 253.827 521.233 252.653 521.233 251.32C521.233 249.987 520.953 248.813 520.393 247.8C519.833 246.787 519.073 246.013 518.113 245.48C517.153 244.92 516.073 244.64 514.873 244.64C513.673 244.64 512.593 244.92 511.633 245.48C510.673 246.013 509.913 246.787 509.353 247.8C508.793 248.813 508.513 249.987 508.513 251.32C508.513 252.653 508.793 253.827 509.353 254.84C509.913 255.853 510.673 256.64 511.633 257.2C512.593 257.733 513.673 258 514.873 258ZM564.949 240.64V258.76C564.949 266.28 561.109 270.04 553.429 270.04C551.375 270.04 549.429 269.773 547.589 269.24C545.749 268.733 544.229 267.987 543.029 267L545.269 263.24C546.202 264.013 547.375 264.627 548.789 265.08C550.229 265.56 551.682 265.8 553.149 265.8C555.495 265.8 557.215 265.267 558.309 264.2C559.402 263.133 559.949 261.507 559.949 259.32V258.2C559.095 259.133 558.055 259.84 556.829 260.32C555.602 260.8 554.255 261.04 552.789 261.04C550.762 261.04 548.922 260.613 547.269 259.76C545.642 258.88 544.349 257.653 543.389 256.08C542.455 254.507 541.989 252.707 541.989 250.68C541.989 248.653 542.455 246.867 543.389 245.32C544.349 243.747 545.642 242.533 547.269 241.68C548.922 240.827 550.762 240.4 552.789 240.4C554.335 240.4 555.735 240.653 556.989 241.16C558.269 241.667 559.335 242.44 560.189 243.48V240.64H564.949ZM553.549 256.8C555.442 256.8 556.989 256.24 558.189 255.12C559.415 253.973 560.029 252.493 560.029 250.68C560.029 248.893 559.415 247.44 558.189 246.32C556.989 245.2 555.442 244.64 553.549 244.64C551.629 244.64 550.055 245.2 548.829 246.32C547.629 247.44 547.029 248.893 547.029 250.68C547.029 252.493 547.629 253.973 548.829 255.12C550.055 256.24 551.629 256.8 553.549 256.8ZM581.682 258.04C584.002 258.04 585.936 257.267 587.482 255.72L590.122 258.8C589.189 259.947 587.989 260.813 586.522 261.4C585.056 261.987 583.402 262.28 581.562 262.28C579.216 262.28 577.149 261.813 575.362 260.88C573.576 259.947 572.189 258.653 571.202 257C570.242 255.32 569.762 253.427 569.762 251.32C569.762 249.24 570.229 247.373 571.162 245.72C572.122 244.04 573.429 242.733 575.082 241.8C576.762 240.867 578.656 240.4 580.762 240.4C582.762 240.4 584.576 240.84 586.202 241.72C587.856 242.573 589.162 243.813 590.122 245.44C591.082 247.04 591.562 248.92 591.562 251.08L575.202 254.28C575.709 255.507 576.522 256.44 577.642 257.08C578.762 257.72 580.109 258.04 581.682 258.04ZM580.762 244.4C578.922 244.4 577.429 245 576.282 246.2C575.162 247.4 574.602 249.013 574.602 251.04V251.08L586.682 248.76C586.336 247.453 585.629 246.4 584.562 245.6C583.522 244.8 582.256 244.4 580.762 244.4ZM617.246 240.64V262H612.486V259.24C611.659 260.253 610.633 261.013 609.406 261.52C608.206 262.027 606.873 262.28 605.406 262.28C603.326 262.28 601.459 261.827 599.806 260.92C598.179 260.013 596.899 258.733 595.966 257.08C595.059 255.427 594.606 253.507 594.606 251.32C594.606 249.133 595.059 247.227 595.966 245.6C596.899 243.947 598.179 242.667 599.806 241.76C601.459 240.853 603.326 240.4 605.406 240.4C606.793 240.4 608.059 240.64 609.206 241.12C610.379 241.6 611.393 242.307 612.246 243.24V240.64H617.246ZM605.966 258C607.806 258 609.326 257.387 610.526 256.16C611.726 254.933 612.326 253.32 612.326 251.32C612.326 249.32 611.726 247.707 610.526 246.48C609.326 245.253 607.806 244.64 605.966 244.64C604.126 244.64 602.606 245.253 601.406 246.48C600.233 247.707 599.646 249.32 599.646 251.32C599.646 253.32 600.233 254.933 601.406 256.16C602.606 257.387 604.126 258 605.966 258ZM628.548 243.76C629.988 241.52 632.521 240.4 636.148 240.4V245.16C635.721 245.08 635.334 245.04 634.988 245.04C633.041 245.04 631.521 245.613 630.428 246.76C629.334 247.88 628.788 249.507 628.788 251.64V262H623.788V240.64H628.548V243.76Z" fill="black"/>
<path d="M584.567 42.3922C585.241 42.8727 586.048 43.1306 586.875 43.1298C587.703 43.129 588.509 42.8696 589.182 42.3878C589.854 41.8852 590.365 41.1973 590.652 40.4084L592.149 35.807C592.508 34.7229 593.115 33.7376 593.922 32.9298C594.729 32.1219 595.714 31.5137 596.798 31.1538L601.481 29.6315C602.266 29.3498 602.943 28.8283 603.416 28.1409C603.889 27.4535 604.134 26.6348 604.117 25.8006C604.099 24.9664 603.82 24.1588 603.318 23.492C602.817 22.8252 602.118 22.3329 601.321 22.0846L596.711 20.5925C595.627 20.2341 594.64 19.6271 593.832 18.82C593.023 18.0128 592.414 17.0278 592.054 15.9436L590.532 11.2688C590.255 10.4969 589.747 9.82946 589.076 9.35839C588.405 8.88731 587.604 8.63572 586.784 8.63822C585.952 8.63468 585.141 8.89257 584.464 9.37545C583.786 9.85833 583.278 10.5418 583.011 11.3292L581.475 16.0298C581.115 17.0819 580.521 18.0388 579.738 18.829C578.956 19.6191 578.004 20.222 576.956 20.5925L572.281 22.1062C571.5 22.3821 570.825 22.8949 570.349 23.5729C569.873 24.251 569.621 25.0605 569.627 25.8888C569.633 26.7171 569.898 27.5228 570.383 28.1937C570.869 28.8645 571.552 29.3671 572.337 29.6315L576.939 31.1279C578.025 31.4909 579.012 32.1019 579.821 32.9126C580.63 33.7233 581.239 34.7113 581.6 35.7983L583.118 40.4558C583.39 41.2321 583.899 41.9092 584.572 42.3878M606.436 59.7284C607.021 60.144 607.72 60.367 608.437 60.3667C609.161 60.3594 609.865 60.1272 610.452 59.7023C611.038 59.2773 611.478 58.6807 611.71 57.9948L612.78 54.7087C613.008 54.0273 613.396 53.402 613.901 52.8931C614.406 52.3842 615.031 52.0004 615.712 51.7762L619.042 50.6894C619.73 50.4533 620.326 50.0054 620.745 49.4099C621.164 48.8143 621.383 48.1016 621.372 47.3738C621.361 46.6459 621.12 45.9402 620.684 45.3575C620.247 44.7749 619.638 44.3453 618.942 44.1301L615.648 43.0563C614.966 42.8281 614.347 42.4454 613.839 41.9382C613.33 41.431 612.945 40.8129 612.715 40.1324L611.628 36.7945C611.395 36.109 610.951 35.5145 610.36 35.0952C609.77 34.6759 609.062 34.4531 608.338 34.4584C607.614 34.4636 606.91 34.6966 606.325 35.1245C605.741 35.5523 605.306 36.1532 605.082 36.842L604.017 40.1281C603.797 40.8037 603.424 41.4194 602.928 41.9273C602.431 42.4352 601.824 42.8216 601.153 43.0563L597.807 44.1473C597.3 44.3235 596.842 44.6153 596.468 44.9995C596.094 45.3838 595.814 45.8501 595.652 46.3612C595.489 46.8723 595.448 47.4142 595.532 47.944C595.616 48.4737 595.822 48.9767 596.134 49.4129C596.56 50.0167 597.164 50.4695 597.859 50.7067L601.149 51.7718C601.832 52.0022 602.453 52.3882 602.962 52.8993C603.471 53.4104 603.854 54.0328 604.081 54.7173L605.173 58.0552C605.409 58.7299 605.849 59.3146 606.432 59.7284" fill="#3EFFA1"/>
</svg>
