<svg width="88" height="88" viewBox="0 0 88 88" fill="none" xmlns="http://www.w3.org/2000/svg">
<path d="M62 3.49978H75.5M82.34 81.8628C83.726 80.1753 84.5 77.8848 84.5 75.4998V21.4998C84.5 19.1148 83.726 16.8198 82.34 15.1368C80.9675 13.4448 79.0955 12.4998 77.1425 12.4998H36.728C28.9655 12.4998 27.4625 4.71028 20.7215 3.61678C19.5335 3.42328 18.3005 3.49978 17.099 3.49978C12.8105 3.49978 10.6685 3.49978 8.981 4.21528C6.83441 5.12769 5.12589 6.83783 4.2155 8.98528C3.5 10.6638 3.5 12.8058 3.5 17.0943V75.4998C3.5 77.8848 4.274 80.1798 5.66 81.8628C7.037 83.5503 8.909 84.4998 10.862 84.4998H77.138C79.091 84.4998 80.9585 83.5548 82.34 81.8628Z" stroke="black" stroke-width="6.75" stroke-linecap="round" stroke-linejoin="round"/>
<path d="M50.75 66.5C55.5239 66.5 60.1023 64.6036 63.4779 61.2279C66.8536 57.8523 68.75 53.2739 68.75 48.5C68.75 43.7261 66.8536 39.1477 63.4779 35.7721C60.1023 32.3964 55.5239 30.5 50.75 30.5C45.9761 30.5 41.3977 32.3964 38.0221 35.7721C34.6464 39.1477 32.75 43.7261 32.75 48.5C32.75 53.2739 34.6464 57.8523 38.0221 61.2279C41.3977 64.6036 45.9761 66.5 50.75 66.5Z" stroke="black" stroke-width="6.75" stroke-linecap="round" stroke-linejoin="round"/>
</svg>
