<svg width="40" height="52" viewBox="0 0 40 52" fill="none" xmlns="http://www.w3.org/2000/svg">
<path d="M0 51.4286V11.4286H10V10C10 7.22286 10.9724 4.8619 12.9171 2.91714C14.8619 0.972381 17.2229 0 20 0C22.7771 0 25.1381 0.972381 27.0829 2.91714C29.0276 4.8619 30 7.22286 30 10V11.4286H40V51.4286H0ZM2.85714 48.5714H37.1429V14.2857H30V22.8571H27.1429V14.2857H12.8571V22.8571H10V14.2857H2.85714V48.5714ZM12.8571 11.4286H27.1429V10C27.1429 7.98857 26.4552 6.29524 25.08 4.92C23.7048 3.54476 22.0114 2.85714 20 2.85714C17.9886 2.85714 16.2952 3.54476 14.92 4.92C13.5448 6.29524 12.8571 7.98857 12.8571 10V11.4286Z" fill="black"/>
</svg>
