<svg width="73" height="73" viewBox="0 0 73 73" fill="none" xmlns="http://www.w3.org/2000/svg">
<g clip-path="url(#clip0_128_184)">
<g clip-path="url(#clip1_128_184)">
<path d="M58.9209 23.1906C57.6054 22.3686 56.0173 22.1029 54.5059 22.4518C52.9945 22.8007 51.6836 23.7358 50.8616 25.0512L32.2658 54.8108C31.4438 56.1263 31.178 57.7144 31.527 59.2258C31.8759 60.7372 32.8109 62.0481 34.1264 62.8701L44.0463 69.0687C45.3617 69.8907 46.9498 70.1564 48.4612 69.8075C49.9726 69.4586 51.2835 68.5235 52.1055 67.2081L70.7014 37.4485C71.5233 36.133 71.7891 34.5449 71.4402 33.0335C71.0912 31.5221 70.1562 30.2112 68.8407 29.3892L58.9209 23.1906ZM51.4821 30.3651L55.7335 33.0216C56.1093 33.2565 56.563 33.3324 56.9949 33.2327C57.4267 33.133 57.8012 32.8659 58.0361 32.49C58.2709 32.1142 58.3469 31.6604 58.2472 31.2286C58.1475 30.7968 57.8803 30.4222 57.5045 30.1874L53.2531 27.5308L53.6959 26.8223C54.0482 26.2585 54.61 25.8578 55.2577 25.7082C55.9054 25.5587 56.5861 25.6726 57.1498 26.0249L67.0697 32.2235C67.6335 32.5758 68.0342 33.1376 68.1837 33.7853C68.3333 34.4331 68.2194 35.1137 67.8671 35.6774L49.2713 65.437C48.919 66.0008 48.3572 66.4015 47.7094 66.5511C47.0617 66.7006 46.3811 66.5867 45.8173 66.2344L35.8974 60.0358C35.3337 59.6835 34.9329 59.1217 34.7834 58.474C34.6338 57.8263 34.7477 57.1456 35.1 56.5819L35.5428 55.8733L39.7941 58.5299C40.17 58.7647 40.6237 58.8406 41.0556 58.7409C41.4874 58.6413 41.8619 58.3741 42.0968 57.9982C42.3316 57.6224 42.4076 57.1687 42.3079 56.7368C42.2082 56.305 41.941 55.9305 41.5652 55.6956L37.3138 53.0391L39.5276 49.4962L46.6132 53.9238C46.9891 54.1587 47.4428 54.2346 47.8746 54.1349C48.3065 54.0352 48.681 53.7681 48.9159 53.3922C49.1507 53.0164 49.2266 52.5626 49.127 52.1308C49.0273 51.699 48.7601 51.3244 48.3843 51.0896L41.2986 46.662L43.5124 43.1192L47.7638 45.7757C48.1396 46.0106 48.5934 46.0865 49.0252 45.9868C49.457 45.8871 49.8316 45.62 50.0664 45.2441C50.3013 44.8683 50.3772 44.4145 50.2775 43.9827C50.1778 43.5509 49.9107 43.1764 49.5348 42.9415L45.2835 40.2849L47.4973 36.7421L54.5829 41.1697C54.9587 41.4046 55.4125 41.4805 55.8443 41.3808C56.2761 41.2811 56.6507 41.014 56.8855 40.6381C57.1204 40.2623 57.1963 39.8085 57.0966 39.3767C56.9969 38.9449 56.7298 38.5703 56.3539 38.3355L49.2683 33.9079L51.4821 30.3651Z" fill="white"/>
</g>
<g clip-path="url(#clip2_128_184)">
<path d="M28.549 16.3664C27.8984 14.1467 25.9509 13.2191 23.5744 13.96L18.4402 15.5016C18.257 13.1821 18.6775 9.11312 17.929 6.66666C16.7595 2.84142 13.3868 1.07009 9.46734 2.25344C5.55508 3.46449 3.73241 6.80986 4.90191 10.6351C5.65776 13.1074 8.29081 16.2284 9.41964 18.2452L4.26581 19.8632C1.91512 20.5969 0.827653 22.4374 1.5037 24.6487L2.40564 27.4602C2.98071 29.2474 4.34291 30.2113 6.12697 30.0927C5.9165 30.9392 5.97106 31.8616 6.24257 32.7028L9.97625 44.8213C10.8414 47.7002 13.0941 48.833 16.0873 47.9179L37.0334 41.5147C38.8906 40.9319 39.8944 39.3313 39.3612 37.5874C39.1232 36.807 38.6002 36.0278 37.7233 35.3C33.9978 32.1422 31.0587 28.2036 29.4452 24.5565C29.1512 23.921 28.8117 23.414 28.3817 23.0326C29.4811 22.1138 29.8767 20.754 29.416 19.2023L28.549 16.3664ZM8.91691 31.075C8.60023 29.9903 9.00372 29.3553 10.1128 29.0305L10.1219 29.0134L24.1219 24.7338L24.1292 24.7596C25.1273 24.4408 26.0039 24.5136 26.8738 26.197C28.6628 29.6758 31.5146 33.6978 35.2325 37.1571C35.3997 37.3328 35.525 37.5082 35.5964 37.7419C35.7403 38.1678 35.6273 38.5868 35.038 38.7527L22.408 42.6278C19.8059 40.6782 18.1873 36.9186 17.376 34.2651C17.2958 34.0048 17.1759 33.6576 16.7592 33.7844C15.4582 34.1827 16.401 41.2206 17.0823 44.2423L15.2522 44.8155C14.003 45.1975 13.1105 44.7449 12.7691 43.626L8.91691 31.075ZM25.7155 17.8017L26.2472 19.5878C26.4768 20.3857 26.1236 21.0913 25.2744 21.3366L6.98935 26.9126C6.14887 27.1415 5.49499 26.8148 5.24787 26.0086L4.67211 24.2639C4.41772 23.4319 4.79534 22.7612 5.64492 22.5151L12.1852 20.5012C13.113 20.2319 13.2369 19.4263 12.7637 18.39C11.6563 16.2109 8.31579 11.7544 7.75159 9.8642C7.10216 7.64418 8.0986 5.68935 10.3099 5.0133C12.5211 4.33725 14.4666 5.39266 15.1422 7.60466C15.7155 9.47779 15.4557 15.0487 15.7466 17.4924C15.9428 18.599 16.4869 19.2147 17.4159 18.9021L23.9307 16.8966C24.7456 16.6331 25.4684 16.9954 25.7151 17.8024M10.8263 6.74739C9.98475 7.01964 9.55109 7.83523 9.80548 8.6673C10.0941 9.51757 10.9013 9.92576 11.7254 9.68813C12.5666 9.41663 13.0264 8.59302 12.7462 7.76822C12.4387 6.95179 11.6755 6.5021 10.8263 6.74739Z" fill="white"/>
</g>
</g>
<defs>
<clipPath id="clip0_128_184">
<rect width="73" height="73" fill="white"/>
</clipPath>
<clipPath id="clip1_128_184">
<rect width="53.4733" height="53.4733" fill="white" transform="translate(42.9785 9.28711) rotate(32)"/>
</clipPath>
<clipPath id="clip2_128_184">
<rect width="47.197" height="47.197" fill="white" transform="translate(51.0176 18.4062) rotate(118)"/>
</clipPath>
</defs>
</svg>
