<svg width="73" height="73" viewBox="0 0 73 73" fill="none" xmlns="http://www.w3.org/2000/svg">
<path d="M66.9167 16.729H27.375C24.0292 16.729 21.2917 19.4665 21.2917 22.8123V50.1873C21.2917 51.8007 21.9326 53.3481 23.0734 54.4889C24.2143 55.6297 25.7616 56.2707 27.375 56.2707H66.9167C70.2929 56.2707 73 53.5636 73 50.1873V22.8123C73 21.1989 72.3591 19.6516 71.2182 18.5108C70.0774 17.3699 68.5301 16.729 66.9167 16.729ZM66.9167 50.1873H27.375V27.8919L47.1458 38.0207L66.9167 27.8919V50.1873ZM47.1458 32.8803L27.375 22.8123H66.9167L47.1458 32.8803ZM15.2083 50.1873C15.2083 50.7044 15.2996 51.1911 15.3604 51.7082H3.04167C1.36267 51.7082 0 50.3394 0 48.6665C0 46.9936 1.36267 45.6248 3.04167 45.6248H15.2083V50.1873ZM9.125 21.2915H15.3604C15.2996 21.8086 15.2083 22.2953 15.2083 22.8123V27.3748H9.125C7.45208 27.3748 6.08333 26.0061 6.08333 24.3332C6.08333 22.6603 7.45208 21.2915 9.125 21.2915ZM3.04167 36.4998C3.04167 34.8269 4.41042 33.4582 6.08333 33.4582H15.2083V39.5415H6.08333C4.41042 39.5415 3.04167 38.1728 3.04167 36.4998Z" fill="white"/>
</svg>
