<svg width="72" height="72" viewBox="0 0 72 72" fill="none" xmlns="http://www.w3.org/2000/svg">
<path d="M60.9374 37.9409L62.4884 32.1449C64.3004 25.3799 65.2094 21.9989 64.5284 19.0709C63.9886 16.7594 62.7755 14.6599 61.0424 13.0379C58.8494 10.9829 55.4654 10.0769 48.7004 8.26491C41.9354 6.44991 38.5514 5.54391 35.6264 6.22491C33.3149 6.76465 31.2153 7.9778 29.5934 9.71091C27.8324 11.5889 26.9144 14.3399 25.5494 19.3379L24.8174 22.0529L23.2664 27.8489C21.4514 34.6139 20.5454 37.9949 21.2264 40.9229C21.7661 43.2344 22.9793 45.334 24.7124 46.9559C26.9054 49.0109 30.2894 49.9169 37.0544 51.7319C43.1504 53.3639 46.5014 54.2609 49.2464 53.9219C49.5464 53.8839 49.8404 53.8319 50.1284 53.7659C52.4392 53.2278 54.5386 52.0168 56.1614 50.2859C58.2164 48.0899 59.1224 44.7059 60.9374 37.9409Z" stroke="#01472B" stroke-width="4.5"/>
<path opacity="0.5" d="M49.2464 53.9215C48.6193 55.8425 47.5172 57.574 46.0424 58.9555C43.8494 61.0105 40.4654 61.9165 33.7004 63.7285C26.9354 65.5405 23.5514 66.4495 20.6264 65.7655C18.3152 65.2266 16.2157 64.0145 14.5934 62.2825C12.5384 60.0895 11.6294 56.7055 9.81737 49.9405L8.26637 44.1445C6.45137 37.3795 5.54537 33.9955 6.22637 31.0705C6.76611 28.759 7.97926 26.6594 9.71237 25.0375C11.9054 22.9825 15.2894 22.0765 22.0544 20.2615C23.3304 19.9175 24.4954 19.6085 25.5494 19.3345" stroke="#01472B" stroke-width="4.5"/>
<path d="M35.332 30L49.822 33.882" stroke="#01472B" stroke-width="4.5" stroke-linecap="round"/>
<path opacity="0.5" d="M33 38.6938L41.694 41.0218" stroke="#01472B" stroke-width="4.5" stroke-linecap="round"/>
</svg>
