<svg width="385" height="412" viewBox="0 0 385 412" fill="none" xmlns="http://www.w3.org/2000/svg">
<path d="M384.205 166.847C383.157 165.662 382.57 163.649 381.147 162.85C379.934 162.17 378.842 163.029 377.621 162.496C378.401 162.833 377.995 161.772 378.265 161.527C378.558 161.26 379.377 161.248 379.526 160.802C379.364 160.603 379.174 160.442 378.952 160.316C378.749 159.892 378.861 159.539 379.286 159.257C379.217 158.281 378.344 156.64 377.746 155.939C376.504 154.476 376.749 155.263 375.357 155.722C374.902 154.201 377.921 152.986 376.287 152.056C375.232 151.455 373.66 153.736 373.103 152.662C372.868 152.206 373.634 151.197 373.544 150.508C373.526 150.356 372.998 149.786 372.928 149.524C372.848 149.216 373.086 148.769 372.956 148.474C372.1 146.529 371.01 148.477 370.186 149.562C369.373 150.634 367.694 152.456 367.503 150.111C367.444 149.398 368.367 147.797 367.258 147.474C366.571 147.273 365.71 148.532 364.931 148.432C363.278 148.217 366.509 136.81 364.236 137.488C363.574 137.685 361.372 139.746 361.03 139.121C360.411 137.989 358.858 137.81 359.172 136.271C359.431 134.995 360.945 134.758 361.906 134.217C363.317 133.429 364.371 132.211 365.503 131.078C363.804 129.893 364.857 126.154 362.158 126.544C360.235 126.822 357.621 130.775 356.215 127.372C356.435 127.909 357.404 132.233 359.126 130.714C358.238 131.497 352.823 137.737 351.477 138.232C349.526 138.944 350.803 136.761 351.115 135.899C351.341 135.278 351.67 131.718 351.843 131.731C352.148 131.751 352.067 132.833 352.591 132.503C352.634 132.122 352.655 131.739 352.652 131.357C352.974 132.588 353.678 130.456 353.788 130.107C354.235 128.681 354.408 127.512 352.925 126.712C351.673 126.037 344.318 127.349 344.328 125.779C344.34 124.138 347.003 121.431 348.09 120.336C349.27 119.144 350.512 118.441 350.659 116.601C350.693 116.148 350.417 113.266 349.535 113.761C350.698 112.307 351.578 113.652 352.876 113.129C353.739 112.779 354.826 110.683 354.626 109.823C352.589 110.231 353.441 103.648 353.864 102.709C354.272 101.797 354.339 100.813 354.892 99.9525C355.41 99.1451 358.39 97.0146 355.95 96.5069C356.265 96.571 354.297 96.9715 354.383 96.925C353.716 97.2861 354.235 98.7614 353.111 97.5351C352.692 97.0791 352.734 94.8299 353.111 94.2863C353.817 93.2654 355.096 93.8536 355.431 92.3172C355.747 90.8699 354.385 89.1244 353.05 88.7711C354.086 89.8993 353.056 91.1162 353.091 92.3793C352.453 91.9912 352.176 91.1865 351.524 90.8366C350.777 90.4328 350.042 90.8225 349.313 90.4714C349.218 90.8739 349.306 91.2374 349.568 91.5567C348.365 91.6072 344.196 99.3487 343.621 100.292C343.28 100.853 341.939 103.718 343.16 103.582C343.533 103.542 344.827 101.189 344.872 101.215C345.528 101.589 344.936 103.7 344.557 104.046C343.966 104.579 343.465 104.154 342.893 104.474C342.219 104.851 342.192 105.476 341.574 105.894C341.491 105.607 341.378 104.074 340.754 104.288C340.243 104.464 334.011 113.858 333.552 109.85C335.282 110.162 334.527 109.208 335.161 107.678C335.784 106.18 337.943 105.215 337.444 103.332C338.572 103.513 338.855 102.261 338.272 101.149C338.202 101.67 337.967 101.88 337.565 101.788C336.638 100.675 343.576 92.5367 343.823 90.2015C344.831 91.9336 345.781 88.858 346.254 88.322C346.914 87.5801 347.478 87.701 348.234 87.1616C349.122 86.5269 349.157 85.394 350.069 84.8039C350.395 84.5928 350.818 85.0162 351.428 84.5892C352.004 84.1871 352.728 82.7804 352.239 82.159C351.421 81.1259 348.519 83.0912 348.767 84.256C348.545 83.1988 348.084 84.1746 347.48 83.949C347.286 83.1339 348.885 81.8667 347.743 81.5539C348.017 81.6266 346.683 82.1471 346.605 82.2099C346.492 82.2974 346.11 82.1982 346.034 82.2887C345.895 82.4526 345.951 83.0814 345.843 83.1716C345.067 83.8178 344.346 83.741 343.944 84.8104C343.719 85.4031 344.014 86.105 343.885 86.7163C343.531 88.363 334.859 98.3816 334.108 99.7941C333.405 101.115 332.781 101.644 331.468 100.677C330.322 99.8309 330.598 98.5796 328.805 99.3358C328 99.6769 326.902 101.358 327.151 99.2627C327.182 98.9942 328.277 98.4005 328.538 98.1468C329.554 97.1521 330.657 95.7463 331.019 94.3494C331.444 92.6876 330.637 92.5547 330.024 91.3366C329.55 90.3897 330.395 89.7854 329.978 88.9893C329.912 88.8584 329.11 88.9651 328.957 88.7144C328.844 88.5297 329.113 87.7504 329.106 87.7484C327.841 86.9591 325.508 89.221 324.747 90.0694C324.16 90.7214 323.88 91.6869 323.298 92.2921C322.655 92.9632 321.595 92.9583 321.034 93.697C320.05 92.1825 320.527 90.1277 319.467 88.6542C320.978 88.1736 324.667 84.1797 323.985 82.4558C325.67 83.7541 323.439 84.1965 324.087 85.4814C324.748 86.792 326.202 84.7098 326.111 83.8655C326.351 84.6604 326.269 85.5413 325.892 86.2799C326.528 86.042 328.162 82.711 327.335 82.7455C327.014 82.9374 326.819 83.2337 326.754 83.6263C326.779 82.7786 323.838 82.1473 326.43 82.0034C328.41 81.894 328.474 84.5738 330.136 83.3391C330.705 82.9174 330.966 81.963 331.446 81.4256C331.937 80.8717 332.594 80.449 333.156 79.9792C333.937 79.3248 336.485 77.6258 335.746 76.2789C338.672 76.0107 334.97 68.8169 333.14 69.1458C330.535 69.6111 333.578 71.0274 333.665 71.469C333.981 73.09 330.093 73.8103 330.614 75.4798C329.992 73.8034 328.289 79.6583 327.603 79.4608C327.245 79.3599 328.361 76.0365 327.262 76.7266C327.006 75.7724 328.602 74.2051 329.086 73.5006C330.031 72.1212 331.392 70.5506 331.674 68.8593C330.923 69.1427 330.202 69.8446 329.377 69.8783C329.009 69.8929 328.299 69.5022 328.056 69.554C326.867 69.8067 327.082 70.9325 326.49 71.7306C325.775 72.6966 324.888 72.5667 323.913 73.1244C322.859 73.7271 323.367 73.7535 322.937 74.6943C322.32 76.0393 321.633 76.1678 320.549 77.113C320.109 75.1928 319.399 73.3688 318.794 71.5015C318.391 70.2564 318.187 68.4664 317.171 67.5287C317.403 68.541 316.155 68.3109 315.846 68.8721C315.282 69.9014 316.135 69.7485 316.169 70.7075C315.092 70.8053 313.445 70.5468 312.716 71.5971C312.806 70.5409 311.595 69.7862 312.047 68.6992C311.428 69.3157 310.703 70.2342 310.522 71.115C310.356 71.9324 310.867 72.8395 310.598 73.6222C310.224 74.7103 300.762 85.2049 298.812 86.3236C297.108 84.6508 305.971 75.5647 306.969 73.6822C307.61 72.47 307.491 69.7277 308.739 69.0025C309.119 70.0754 309.86 69.5675 310.185 68.8153C310.51 68.0632 309.852 67.382 309.861 66.6724C309.882 65.1424 311.461 64.6583 310.993 62.974C311.981 62.8453 311.381 64.7815 311.332 65.2023C312.775 63.8481 312.573 61.5658 313.02 59.7897C313.53 57.7772 314.504 55.882 314.071 53.7478C314.297 54.8573 315.033 55.6917 315.171 56.8408C315.3 57.8964 314.808 58.9106 315.218 59.9594C315.948 58.4949 315.65 56.8772 315.842 55.318C316.012 53.937 316.56 53.2826 317.148 52.1064C317.563 51.2785 317.509 49.7399 318.059 49.0991C318.935 48.0742 320.217 48.6121 320.377 49.831C321.552 49.3158 322.191 48.1572 322.049 46.892C323.628 49.2921 323.573 47.3679 324.651 46.0276C325.127 45.4379 325.669 45.0077 326.131 44.4814C327.245 43.2112 327.267 43.1498 328.993 43.5758C329.323 42.3803 329.621 37.5248 331.935 39.1706C332.181 38.2476 332.24 37.0071 332.712 36.167C332.726 36.1464 333.603 34.7603 333.617 35.0792C333.558 33.7329 333.182 34.0817 332.247 34.4433C331.806 34.6149 331.42 35.1641 330.983 35.3914C330.464 35.6611 329.924 35.6839 329.456 36.0629C328.629 36.7376 326.671 39.532 326.912 40.663C326.418 38.7577 330.176 30.4773 332.634 30.5176C330.843 29.3693 333.264 20.7608 329.38 23.6035C327.907 24.6811 327.355 26.6989 326.177 28.0323C323.975 30.5248 320.486 30.2966 317.718 31.7415C317.74 31.7297 316.946 32.1568 316.891 32.1792C316.841 32.427 316.723 32.6395 316.534 32.8143C316.33 32.6877 316.127 32.5646 315.923 32.438C316.045 32.3802 315.132 32.6947 315.205 32.6721C314.786 32.8 314.851 33.3383 314.117 33.3635C314.489 30.506 317.076 28.8698 317.153 25.9866C317.224 23.3562 316.963 20.5803 314.045 23.2532C311.338 25.7362 309.397 29.5108 307.522 32.6241C306.532 34.2641 305.601 35.9415 304.525 37.5256C303.509 39.0227 302.091 40.4568 301.589 42.2411C301.039 40.6874 301.069 42.3621 300.213 42.0628C301.752 40.4439 302.382 38.1829 303.968 36.6001C301.873 36.2173 301.777 37.9647 300.811 39.0159C300.447 39.4154 301.412 39.9286 300.152 39.7788C299.506 39.7038 299.19 39.049 299.288 38.4585C299.272 38.5503 300.42 37.0108 300.501 36.8734C300.7 36.5302 300.847 36.1875 301.051 35.8504C301.595 34.9598 302.353 34.1508 302.997 33.3311C304.721 31.1383 306.478 28.9635 308.126 26.7091C308.636 26.0098 310.955 23.5844 309.052 23.9074C306.856 24.2822 305.534 28.5165 303.835 29.7659C303.046 30.3478 301.149 30.1669 300.415 31.5262C301.107 30.2503 300.711 29.0356 301.038 27.6955C301.184 27.1017 302.515 24.9218 301.678 24.5299C300.484 24.9571 300.389 26.6088 299.121 26.9351C299.818 25.5837 300.78 24.3527 301.39 22.9596C301.996 21.5781 301.886 21.0776 303.042 20.2584C303.365 20.0305 303.948 20.289 304.311 19.9356C304.736 19.5197 304.788 18.7973 304.958 18.2657C305.04 18.0182 305.567 15.2376 306.141 15.8873C306.405 13.0033 310.224 11.7385 310.202 8.73508C310.192 7.62238 309.433 5.90084 308.126 5.86362C306.566 5.81656 306.12 7.96405 305.625 9.06721C304.47 11.6381 302.601 13.8686 300.708 15.9344C300.214 16.4747 297.09 19.5099 298.087 20.3704C296.327 20.1499 295.718 20.1165 296.181 18.199C296.368 17.4302 296.76 17.0248 296.737 16.1839C296.716 15.2859 296.039 14.9023 296.66 13.9775C296.722 13.8831 297.276 14.5438 297.417 14.4396C297.729 14.2104 297.9 13.9157 298.162 13.6478C299.038 12.7607 299.9 10.7691 299.994 9.54921C300.21 6.76762 297.546 7.65587 298.037 9.81653C297.321 8.16034 295.645 11.0824 296.424 11.699C294.816 12.3417 294.192 10.3721 294.443 9.14012C294.833 7.25945 296.958 6.40077 297.084 4.34607C297.302 4.55799 297.564 4.64377 297.867 4.60075C297.876 4.59521 297.818 2.68938 297.803 2.48723C298.596 3.38749 299.332 1.77287 298.932 1.10417C298.54 1.07426 298.546 1.75247 298.174 1.86694C297.706 2.01245 297.039 1.52416 296.695 1.4027C296.332 1.27468 296.186 0.923364 295.77 0.799367C295.37 0.679264 294.436 0.8813 294.035 0.941807C292.866 1.11952 291.156 1.41578 290.397 2.46169C289.762 3.33637 290.172 3.98188 289.324 4.55495C289.024 4.75683 288.332 4.51801 287.899 4.81179C287.429 5.12774 287.298 5.81032 286.882 6.20301C285.999 7.04199 284.751 7.48069 283.842 8.3675C283.399 8.79786 280.438 11.7347 282.298 11.9445C282.076 12.2466 281.416 13.2221 280.962 12.533C280.886 13.0445 280.056 13.2989 280.013 13.7292C279.924 14.5797 280.521 14.1237 280.565 14.6772C280.669 16.0176 279.73 16.3765 279.03 17.5799C278.291 18.8483 278.609 20.4475 277.756 21.6446C276.958 22.7663 275.324 22.9401 274.858 24.3627C274.977 23.9729 275.001 23.5857 274.925 23.1948C273.209 23.8781 273.911 26.6344 273.216 28.0068C272.475 29.4667 270.657 30.4724 271.539 32.3378C270.622 31.7717 270.007 32.9428 270.209 33.6927C269.835 32.2999 269.147 34.9235 268.956 35.0243C267.621 34.3207 265.373 35.8992 264.489 37.0532C263.271 38.6465 262.898 42.5693 260.997 43.4191C259.915 43.904 260.094 43.0803 259.393 43.3285C258.889 43.5063 240.291 67.0343 238.566 68.1408C236.781 69.288 234.734 71.4928 232.55 71.6243C232.742 70.8297 232.723 69.9595 232.497 69.176C233.924 69.6972 233.527 68.6632 233.925 67.8036C234.428 66.7091 237.999 63.5789 239.153 62.7781C239.711 62.3904 241.587 61.1919 241.453 60.2613C241.125 58.0056 232.786 66.1592 230.455 65.2497C232.578 64.9614 233.856 62.1344 235.628 61.0464C236.022 60.8033 239.829 58.5855 237.879 58.4019C238.609 58.4698 239.973 57.7303 240.225 57.0007C240.27 56.8637 239.178 54.7212 239.068 54.6207C237.78 53.3903 236.773 54.5777 236.032 55.7049C235.711 56.1942 235.556 56.9103 235.119 57.3216C234.457 57.9508 233.885 57.7113 233.388 58.0011C232.068 58.7665 233.259 59.7272 232.291 60.6513C230.167 62.6778 228.58 55.098 228.432 54.135C228.153 52.3187 227.745 50.5332 227.607 48.701C227.489 47.1652 227.707 44.9424 226.214 43.9644C225.294 46.0816 224.333 46.5725 222.317 45.2952C221.181 44.5777 221.359 44.069 220.834 43.2144C220.487 42.6476 221.634 42.4464 220.177 42.2711C218.528 42.073 217.624 44.5268 216.629 45.1736C215.32 46.0286 213.704 45.8518 212.45 47.1766C213.679 47.7152 211.942 48.8489 211.663 49.4002C211.346 50.0266 211.656 50.7996 211.312 51.3965C211.115 51.7357 210.162 52.0798 209.84 52.3784C208.561 53.5704 206.216 56.9249 206.972 58.7993C206.359 57.2837 204.385 61.2319 204.105 61.6807C202.561 64.1571 200.055 62.938 201.84 60.2299C201.128 59.698 200.269 59.5196 200.973 58.549C201.446 57.8962 202.384 58.5639 202.775 57.8191C203.11 57.1816 202.366 57.3114 202.324 56.6337C202.263 55.6628 202.812 54.4137 203.325 53.6145C202.601 54.2709 201.82 53.5274 201.018 53.7333C201.45 50.6048 204.453 48.8835 206.709 47.1086C207.728 46.3081 209.12 45.3965 209.735 44.2253C210.571 42.6319 209.838 32.3259 211.476 31.0223C213.005 29.8089 215.786 26.4892 212.146 26.2825C210.835 26.2073 210.438 26.4545 209.735 27.3083C208.724 28.5317 208.77 29.4457 207.522 27.7396C206.35 26.1378 205.507 24.788 204.104 23.3947C203.166 22.4615 203.195 21.3864 202.438 20.3723C200.648 17.9747 196.439 19.6515 195.439 21.8247C195.132 22.4951 195.217 22.8804 194.657 23.4419C194.357 23.7429 193.804 23.6233 193.47 24.1155C193.049 24.7323 193.609 26.4678 192.814 26.7747C192.068 27.0641 192.066 26.2046 191.628 25.9756C190.82 25.5528 190.483 25.4476 189.557 25.8532C187.659 26.6847 162.479 54.6096 162.887 57.0639C161.683 55.975 151.742 67.0668 153.345 68.3504C152.05 69.3159 150.403 67.8434 149.076 68.6456C148.248 69.1471 148.536 69.7513 148.222 70.5047C147.79 71.5378 143.91 74.0438 143.159 74.0759C141.456 74.1548 142.683 72.4358 141.387 71.6496C140.724 72.194 140.421 72.0815 140.48 71.3115C138.877 71.3125 137.806 74.0637 136.924 75.0934C135.614 76.6246 134.045 76.983 135.617 74.5714C132.673 76.0429 133.187 79.8586 131.214 82.2315C130.932 80.0867 129.129 82.3313 128.507 83.0015C127.929 83.627 126.728 84.5051 126.877 85.5034C126.981 86.1927 128.001 86.4608 127.957 86.9902C127.906 87.5992 127.01 87.9597 126.6 87.8662C126.147 87.7643 126.613 87.1273 126.299 86.9993C125.698 86.7486 125.231 86.9009 124.702 87.208C123.7 87.7891 122.865 89.4565 122.155 90.3613C121.111 91.6944 120.05 93.0135 119.082 94.4014C120.351 92.5815 118.782 93.591 118.294 92.8418C117.61 91.7909 126.116 84.6707 126.428 83.1569C126.594 82.3571 127.435 80.9008 127.2 80.0658C127.769 80.5784 128.789 79.4451 129.254 79.339C129.386 79.3109 129.521 79.9122 129.95 79.7821C130.273 79.6852 131.002 79.2012 131.129 78.9192C131.583 77.9381 130.565 77.5776 130.265 76.6823C130.05 76.0378 130.622 74.5997 130.332 74.2542C129.874 74.3622 129.165 75.5216 129.304 74.3453C129.368 73.8292 130.198 73.1891 130.53 72.8531C132.016 71.3517 133.794 70.1278 135.451 68.8308C136.793 67.7846 138.162 66.5521 138.976 65.0343C140.681 61.8512 137.022 63.4005 137.065 63.6037C136.759 61.7789 139.124 60.7204 140.194 59.7108C141.713 58.2803 141.839 55.8114 139.448 57.8805C137.693 59.3967 136.643 61.7328 135.168 63.5043C134.661 64.1147 133.853 65.3092 133.058 65.517C132.807 65.5812 131.427 65.0852 131.404 65.4582C131.394 65.5948 131.931 65.9726 131.803 66.1059C131.133 66.8146 129.056 64.2548 128.509 63.9926C126.519 63.0388 125.462 64.9269 124.426 66.3821C123.86 67.1786 121.608 69.9895 121.289 68.2735C121.189 67.7356 122.582 66.9122 122.257 66.1849C121.724 64.9889 121.015 66.318 120.279 66.4321C120.34 63.9097 115.878 68.2911 114.586 67.0262C113.111 65.5774 116.966 62.9033 117.829 61.9519C118.629 61.0671 119.948 58.6667 117.599 59.3712C115.945 59.8644 114.504 62.5243 113.568 63.7848C112.823 64.7892 111.929 65.9949 110.812 66.6181C108.641 67.8263 110.226 66.2931 109.777 65.2631C107.349 65.2272 105.534 68.6954 104.596 70.5087C103.852 71.9516 103.586 72.3161 102.354 73.183C101.006 74.1314 100.698 75.3967 99.6826 76.6141C98.8567 77.6071 94.6954 78.6261 94.6738 80.1561C94.6687 80.5819 95.0447 81.185 95.559 81.1571C96.1819 81.1238 95.9668 80.3449 96.3506 80.1359C97.8824 79.3007 96.9836 79.7005 98.0474 80.8759C98.6736 79.0936 100.015 78.8758 101.8 79.2677C104.02 79.755 103.156 80.6182 101.834 81.7238C102.069 81.5288 99.9185 82.7857 100.055 82.8947C100.144 82.8475 100.213 82.8575 100.256 82.9262C100.09 83.1102 99.7353 83.3555 99.4979 83.4378C99.6562 83.3829 99.1627 82.4933 98.9543 82.4952C98.5739 85.5843 103.997 83.2105 105.005 82.239C105.627 81.636 110.277 75.8557 110.372 78.2173C110.386 78.5825 105.981 85.3158 109.297 82.1017C110.467 80.9646 111.029 79.7765 112.395 78.7925C112.944 78.3962 113.795 77.9887 114.206 77.4555C114.583 76.9649 114.07 77.1836 114.581 76.4095C115.873 77.2392 111.447 80.944 110.994 81.4295C110.148 82.342 109.622 83.8305 108.638 84.5458C106.963 85.7582 106.604 84.1324 107.331 82.7602C104.812 83.9149 106.245 86.3603 105.465 88.6816C104.887 90.3934 103.896 92.009 103.03 93.5946C102.536 94.4995 99.2091 101.843 98.3322 101.763C99.43 101.866 101.035 99.0443 102.101 98.5806C102.17 98.9729 104.227 100.043 103.571 100.6C103.301 100.831 102.937 100.098 102.566 100.467C102.311 100.72 102.325 101.198 102.089 101.453C102.309 101.906 102.202 102.254 101.768 102.491C101.376 102.511 101.012 102.631 100.682 102.843C99.8719 103.496 96.8003 107.61 99.4079 107.19C99.5799 109.465 82.9344 125.694 80.4465 127.876C80.0433 128.227 76.1164 131.231 75.9319 131.079C74.941 130.264 81.5753 124.812 82.0576 123.867C82.3474 123.299 82.6569 122.841 82.0426 122.564C81.7299 122.425 81.1159 122.917 80.8485 122.924C80.6938 122.929 79.7009 122.687 79.7788 122.67C77.8792 123.074 76.4367 125.412 75.8307 127.356C72.9537 124.91 71.3888 132.583 69.3633 132.911C69.2373 132.201 68.9261 132.069 68.6187 132.705C68.7944 132.016 71.1068 129.408 70.6831 128.847C70.1104 128.084 69.0633 129.934 68.8601 130.027C68.0059 130.421 67.6073 130.078 66.7899 130.361C65.3795 130.852 65.1547 133.441 63.3581 133.097C63.8285 132.13 64.0446 130.966 64.6735 130.078C64.562 130.237 65.6888 130.209 65.7983 130.108C66.2843 129.647 65.4689 129.541 65.6182 129.028C67.1797 129.298 66.9319 127.549 67.6305 126.707C67.7095 126.612 69.0157 126.547 69.364 126.204C69.9343 125.64 70.2748 124.312 70.1107 123.54C71.112 123.306 70.8035 123.902 71.6206 123.084C72.0205 122.684 72.1158 121.185 72.8753 121.161C74.4254 121.111 72.1323 124.193 72.0002 124.72C73.4519 125.572 77.4785 121.322 78.2502 120.224C79.2521 118.794 79.6464 117.202 79.2348 115.499C78.9704 114.405 78.1775 112.606 77.2721 114.44C76.5605 114.156 77.3514 113.698 76.9733 113.534C76.4157 113.291 75.3376 115.163 74.9339 115.411C74.9509 115.241 74.9136 115.083 74.8264 114.939C74.3749 114.663 74.2055 117.23 74.6431 117.59C73.1151 116.329 71.2219 119.46 70.5433 120.446C70.1703 120.989 68.3164 124.006 68.3479 121.724C67.8731 122.72 67.4485 125.351 66.4676 125.931C65.327 126.609 65.5158 125.199 64.7448 126.751C64.0898 128.065 63.9757 129.076 62.9608 130.329C61.7974 131.766 60.5092 133.098 59.2668 134.462C58.1652 135.673 50.5302 145.709 49.8262 139.566C50.3539 140.034 51.0042 140.979 51.8367 140.816C51.2774 140.549 50.9052 140.03 50.8347 139.415C51.9018 140.073 52.0287 138.039 52.3428 137.169C53.3697 138.271 53.5813 135.204 54.9262 135.587C54.9834 135.04 61.285 129.921 61.6795 127.448C61.802 126.675 61.1836 125.281 62.1175 124.747C62.5815 124.482 62.93 125.123 63.4928 125.056C64.2193 122.414 65.7207 120.452 67.7169 118.655C68.3557 118.08 71.2591 115.839 69.8977 114.879C68.6323 113.987 66.7349 117.282 66.1728 118.084C65.8571 118.53 65.9123 119.056 65.3394 119.291C65.0333 119.416 64.6625 118.904 64.4343 119.013C63.1192 119.636 63.1132 120.656 62.1757 121.74C63.0456 120.738 64.6721 115.586 62.9433 114.729C61.7405 114.132 60.0231 118.506 59.3363 119.205C58.7567 119.791 57.9225 120.096 57.4166 120.763C57.0296 121.273 56.9882 122.061 56.6127 122.509C55.679 123.627 55.4872 122.358 54.4589 123.115C54.0611 123.408 52.7157 125.853 52.1245 126.319C51.0147 127.192 50.6119 126.279 48.9315 125.883C48.3527 127.322 47.876 128.443 49.6027 129.24C48.6712 129.636 49.499 130.218 49.1974 130.88C48.8858 131.562 48.3657 132.062 48.0746 132.757C47.7809 133.457 47.2416 134.966 47.2719 135.674C47.4451 139.569 48.5812 134.175 49.5988 134.833C50.3378 135.313 49.0228 137.634 48.464 137.919C46.7885 138.778 47.0664 136.988 45.6566 136.8C45.6278 135.981 46.9611 136.027 46.8657 135.095C46.6875 133.374 44.411 134.12 44.731 131.712C44.9705 129.892 46.3148 128.707 46.973 127.092C47.7591 125.162 46.7997 123.979 45.387 125.691C44.7961 126.408 44.9488 126.793 44.0311 127.437C43.3417 127.924 42.8888 128.091 42.3432 128.787C41.7748 129.509 41.5051 130.289 40.8089 130.943C40.0832 131.624 39.4687 131.847 39.1652 132.867C38.9335 133.642 39.3683 134.505 38.9408 135.258C38.5751 135.902 37.7827 136.07 37.3164 136.59C36.7477 137.228 35.9059 139.495 37.2053 139.93C38.3949 140.332 38.9353 137.397 39.7451 138.792C40.7963 140.607 37.6172 140.703 36.7656 141.025C35.0684 141.666 35.4972 142.65 34.6386 143.972C33.6966 145.418 32.5411 146.443 31.7372 148.072C29.9458 151.716 27.1075 153.214 24.2293 155.857C21.1315 158.7 20.0562 163.115 17.8147 166.589C17.4021 167.229 15.1384 170.832 13.9794 169.475C13.447 168.852 15.0058 166.645 14.9506 165.835C14.7908 163.452 13.1916 166.135 12.5408 167.968C12.5109 167.961 12.4824 167.96 12.4504 167.959C12.419 167.945 12.4087 167.929 12.3705 167.916C11.8374 167.739 10.7758 168.839 10.8376 169.346C10.8355 169.336 11.5634 169.514 11.6369 169.693C11.3262 170.562 9.73309 170.71 9.51688 171.474C10.1717 171.891 10.3752 170.75 11.0182 171.095C11.0807 171.772 10.0768 171.794 9.89211 172.357C9.6401 173.136 8.66624 178.079 10.0582 180.281C11.1137 181.95 11.5099 182.266 10.8454 184.251C10.5066 185.272 10.1108 186.457 9.38533 187.273C8.73226 188.013 7.95522 187.987 7.64616 189.047C7.11145 190.877 8.73724 192.316 7.69722 194.133C7.45255 194.564 5.25401 196.475 6.53845 196.857C7.6791 197.195 7.51442 195.021 8.10914 194.622C9.39347 193.755 9.91273 195.998 11.2735 195.839C10.8572 197.411 12.956 197.195 13.8673 196.92C14.4125 196.754 15.0581 196.129 15.6359 196.183C16.3829 196.25 16.6907 197.116 17.4452 197.186C17.0871 196.483 17.2339 194.81 17.6812 194.233C17.5235 194.44 19.0434 193.682 18.7017 193.673C20.5225 193.714 18.0476 195.624 19.9583 195.122C21.3586 194.75 22.8617 191.582 24.4839 193.736C23.4485 193.744 22.1651 195.248 23.095 196.126C23.7989 196.791 25.418 195.983 26.0848 195.707C27.2138 195.24 28.107 194.597 29.0809 193.884C29.5708 193.525 29.8138 193.236 30.3901 193.001C30.882 192.801 31.0243 193.453 31.5769 192.773C32.6987 196.336 25.7892 195.681 26.223 198.554C26.6825 201.582 32.3441 195.7 31.9529 195.241C33.3627 196.895 32.3659 193.954 33.1028 192.958C33.0767 193.835 33.9035 194.161 34.5772 194.4C33.6993 193.667 33.7127 192.132 34.9181 191.759C35.0473 191.717 35.9539 192.069 36.0532 192.087C36.8253 192.206 37.567 191.833 38.3461 191.918C38.0324 193.156 36.9664 193.836 36.1852 194.756C35.4969 195.564 35.6561 195.813 35.412 196.63C34.7422 198.857 33.1922 200.722 31.8613 202.686C30.3077 204.984 28.3384 206.875 26.688 209.084C25.1311 211.166 24.254 213.717 23.0493 216.008C20.2203 221.38 16.8798 226.461 13.9018 231.748C12.4679 234.293 11.1109 236.85 9.48622 239.28C8.91929 240.126 8.13053 241.044 7.95158 242.084C7.81461 242.888 8.50255 244.309 7.89307 245.005C5.92404 243.367 5.18655 249.105 4.74482 249.974C4.15319 251.137 -1.28989 255.716 1.98349 256.514C1.52043 256.4 3.43229 256.054 3.03307 256.224C3.66868 255.951 3.39731 256.589 3.83487 256.05C4.23293 255.558 3.39703 255.155 3.52364 254.619C3.55457 254.481 4.25164 254.914 4.33126 254.872C3.84127 253.199 5.42749 253.269 5.93311 252.068C5.63384 251.743 5.36216 251.397 5.11469 251.032C5.45642 250.542 5.88551 250.146 6.40536 249.844C7.0035 248.546 5.95374 246.904 7.88543 246.118C9.33202 245.531 9.78089 247.06 11.2009 246.914C9.6255 247.744 9.57623 249.91 8.97806 251.375C8.17085 253.355 6.86443 255.151 5.65312 256.895C4.43647 258.647 3.17394 260.366 2.17758 262.256C1.66386 263.236 1.00603 264.37 0.900693 265.489C0.797093 266.584 1.46161 267.695 0.899898 268.749C7.26631 267.998 7.75767 259.92 11.5157 256.137C12.1604 255.491 12.8949 255.483 13.4127 254.672C13.8951 253.911 13.6805 252.835 14.219 252.055C14.9357 251.015 16.2925 250.638 17.0562 249.619C17.9056 248.486 17.9562 246.943 18.9326 245.876C19.8146 247.96 19.4884 252.503 22.0943 253.407C20.2415 255.047 22.0396 256.93 22.8254 258.529C23.7922 260.496 22.3043 261.489 22.6549 263.421C23.5701 262.348 30.3027 252.88 31.3896 253.831C30.4133 255.182 28.3024 256.873 28.4775 258.729C29.5354 258.511 34.0915 254.754 34.3648 258.338C34.4393 259.337 32.8179 260.517 32.2525 261.204C31.3016 262.358 30.5072 263.599 29.8041 264.92C29.1766 266.097 28.1292 267.697 28.3668 269.097C28.538 270.119 30.1213 271.074 29.3186 272.193C28.9714 272.674 27.6651 272.74 26.9672 273.252C25.6791 274.202 24.9954 275.664 23.8178 276.718C25.5977 276.067 26.6617 276.694 28.1031 275.05C28.8385 274.214 29.3983 273.167 30.0158 272.243C30.4921 271.537 31.2308 270.067 32.0064 269.637C33.5361 268.791 32.0173 269.804 32.8732 270.235C34.2463 269.635 37.382 266.955 36.9186 265.457C36.694 264.733 35.4488 265.185 36.4334 264.406C36.4179 264.417 37.5554 264.49 37.808 264.33C38.2043 264.079 38.369 263.273 38.6185 262.898C39.3541 261.796 40.3473 260.941 41.1706 259.903C41.7458 259.179 42.2852 257.687 43.0416 257.183C43.7792 256.69 45.3501 256.788 45.0707 258.171C44.7604 259.692 44.2502 258.14 43.547 258.162C43.2419 260.34 45.6135 261.241 44.4168 263.686C43.662 265.23 41.5875 266.443 43.2381 267.748C44.374 268.647 46.41 268.401 45.8405 270.334C45.0374 273.05 43.8544 270.431 42.7797 269.987C42.8155 270.822 42.2427 271.29 41.4433 270.993C40.9841 271.929 42.109 272.71 41.614 273.661C41.1611 272.646 40.1328 271.038 39.3597 272.696C38.9303 273.622 40.0517 275.352 40.5824 276.067C40.5493 275.179 40.9673 274.364 41.9787 274.461C41.8222 275.839 40.7602 276.787 40.4464 278.074C40.042 279.735 40.8168 280.133 41.8507 281.251C43.1137 282.614 42.1018 282.932 42.3502 284.5C42.6045 286.113 43.32 285.083 42.8884 284.934C43.7649 284.596 44.8937 285.527 45.7065 285.755C45.9072 285.001 45.7259 283.931 45.0606 283.432C46.7906 284.728 48.0554 281.787 49.0165 280.464C49.5889 279.677 50.0503 278.634 50.9785 278.189C51.2708 278.049 53.124 277.627 52.8823 278.471C54.2077 278.197 53.7328 275.746 55.7419 276.373C57.1254 276.805 56.7597 278.181 56.1104 279.172C55.5996 279.95 49.0577 284.338 50.1516 285.755C49.5371 284.962 49.1608 288.22 49.2119 288.626C49.2883 289.219 49.5065 290.146 50.0332 290.526C51.0366 291.25 51.0071 290.712 51.6094 289.932C52.0788 289.327 52.6485 288.827 53.141 288.23C53.8739 287.349 53.4668 286.582 53.9466 285.659C54.7669 284.091 57.2762 283.858 57.6519 281.963C58.5625 282.817 58.6162 284.118 58.719 285.268C59.7801 284.182 60.4574 283.09 62.1001 283.059C63.119 283.041 64.9757 283.634 65.1889 284.82C65.6591 284.118 65.2009 283.561 65.8153 282.822C66.2744 282.268 66.7983 282.418 66.9108 281.665C66.9729 281.241 66.3925 280.459 66.471 280.212C66.7031 279.473 67.8793 279.212 68.5354 279.734C69.4285 280.44 68.7485 280.521 68.7106 281.258C68.6614 282.192 68.6388 283.535 68.3982 284.467C67.839 286.631 65.5143 287.649 64.785 289.73C64.2474 291.263 64.2954 292.654 62.6325 291.574C61.905 291.099 61.784 290.297 60.7833 290.584C60.2129 290.747 59.5052 291.747 59.4156 292.308C59.2751 293.212 59.888 294.331 59.8784 295.334C59.8704 296.529 59.6841 297.467 60.2509 298.586C60.9853 300.026 62.7101 301.23 60.3902 302.254C60.144 301.096 59.7833 299.166 58.5833 300.547C57.2345 302.093 59.5214 303.579 59.374 305.15C60.74 304.749 60.579 303.159 62.1306 304.415C63.6226 305.623 62.6826 307.012 61.8633 308.269C59.3293 312.149 56.8781 316.085 54.546 320.099C52.3097 323.947 34.4175 356.173 31.0578 363.827C30.621 364.819 26.7471 374.932 26.6342 374.918C26.3378 375.055 26.1808 375.265 26.1433 375.539C25.9174 374.875 24.67 376.949 24.4755 377.316C23.8461 378.501 22.5961 380.695 23.2061 382.017C24.2891 381.401 25.0797 381.257 25.8448 380.178C26.732 378.924 27.2319 377.247 27.7974 375.828C28.2494 374.691 28.9344 373.501 29.3272 372.402C29.3962 372.211 29.919 372.439 29.9435 372.154C29.9858 371.671 29.4937 371.454 29.3834 371.035C30.1116 370.898 30.223 370.056 31.0163 370.075C31.4612 370.087 32.438 371.086 32.6868 371.391C34.0954 373.123 32.5676 376.042 34.8149 377.273C36.6616 378.286 37.8729 376.142 39.2873 375.254C40.3985 374.554 40.4195 374.153 41.1317 373.192C41.7363 372.373 42.2283 372.689 42.7752 372.099C42.874 372.014 42.2646 369.73 43.5812 370.979C44.3346 371.693 43.2948 373.694 43.2707 374.513C45.1399 372.934 45.6117 370.225 46.8892 368.227C47.7999 370.213 45.8702 371.841 44.8602 373.333C43.508 375.33 41.9334 377.58 41.0984 379.845C40.7256 380.855 39.9836 384.524 42.2929 383.75C43.5777 383.317 43.3364 380.134 44.7092 379.966C45.7167 379.844 45.0614 381.473 45.3954 382.145C46.3635 384.102 47.4694 382.179 48.1015 381.106C49.3211 379.035 51.2029 373.319 54.0163 373.135C53.2564 374.589 53.394 376.817 53.7998 378.377C53.9002 378.766 54.8941 380.961 55.1284 380.965C57.2844 380.984 53.3393 385.918 53.1026 386.902C53.3975 386.691 53.8533 385.472 54.3404 385.666C55.2922 386.048 50.1904 392.699 53.0317 392.513C54.1837 392.438 54.9283 389.83 55.3164 388.959C55.6197 388.271 56.0085 386.787 57.0484 386.984C58.2617 387.214 56.9157 388.258 57.6537 388.933C59.0986 386.905 60.8035 385.053 61.9794 382.842C62.4263 384.945 63.2448 385.366 61.7094 387.317C61.1129 388.073 57.8229 390.744 58.7847 392.022C59.777 393.344 61.1889 390.329 61.5382 389.675C62.4278 387.999 63.8144 387.163 64.9208 385.675C66.2485 383.896 66.9972 381.907 67.8223 379.895C68.1039 379.205 69.2589 377.745 70.1645 377.56C73.219 376.928 68.4644 381.966 68.6072 383.387C70.7492 382.875 69.996 380.031 71.4597 378.891C72.1336 378.366 73.3819 378.111 73.656 379.168C73.9037 380.117 72.6486 380.306 72.248 380.869C70.8358 382.85 73.4274 380.706 73.9631 380.03C74.5771 379.255 76.2558 375.897 77.329 377.849C78.1085 379.269 76.1529 379.309 75.742 379.807C75.2917 380.353 75.1851 381.317 74.9732 381.985C74.6057 383.153 73.3113 385.838 73.9201 387.053C75.2843 389.775 78.5141 381.543 79.5849 380.987C81.2597 382.322 79.2558 385.116 78.4616 386.375C77.9666 387.159 77.2196 387.991 76.9364 388.89C76.4231 390.521 77.1251 391.925 76.3573 393.575C75.9436 394.459 73.3807 397.57 74.3654 398.489C75.7861 399.812 77.356 395.093 77.3926 394.183C79.0037 396.035 78.4259 397.446 78.4131 399.65C79.7133 398.69 80.8368 397.266 81.4727 395.779C81.921 394.724 81.7842 393.681 82.1254 392.639C82.7084 390.869 85.1335 388.043 84.4111 386.126C85.1658 388.128 87.0072 385.319 87.0471 384.291C87.1121 382.749 84.758 381.214 87.2226 380.421C86.1276 382.413 88.1087 384.657 88.8135 386.408C89.7605 388.765 89.5648 391.341 88.0944 393.448C89.8078 392.351 89.451 395.534 91.1246 395.083C90.2992 396.228 91.4186 396.832 91.6183 397.905C91.8092 398.936 91.0466 399.544 91.0825 400.496C91.1274 401.739 92.9872 403.945 94.2797 403.982C95.3338 404.013 95.8875 402.805 97.0655 403.085C97.4495 403.177 97.2197 403.877 98.062 403.911C99.8581 403.985 100.549 400.243 100.584 398.993C100.66 396.138 101.862 396.831 104.19 395.827C106.871 394.67 106.255 392.673 107.428 390.499C108.513 388.492 110.76 387.342 112.016 385.443C112.678 384.442 112.512 383.943 112.644 383.016C112.802 381.914 113.008 381.736 113.796 380.729C114.398 382.279 115.203 380.321 115.355 379.605C115.42 379.294 115.279 378.4 115.409 378.228C115.82 377.694 116.888 377.995 117.443 377.724C117.162 377.731 116.989 377.634 116.927 377.427C118.181 376.867 119.209 374.012 118.356 372.845C119.93 374.623 120.883 373.578 120.866 371.582C122.395 372.499 122.318 370.488 122.655 369.641C122.476 370.097 122.08 369.218 122.098 369.268C122.004 368.994 123.127 368.582 123.3 369.631C125.24 368.918 126.378 366.443 127.668 364.955C129.688 362.621 131.755 360.324 133.762 357.976C137.754 353.312 141.535 348.46 145.98 344.213C147.998 342.283 149.949 340.34 151.625 338.101C153.147 336.068 154.218 333.681 155.771 331.698C156.422 330.866 157.996 329.162 158.223 331.096C158.402 332.619 156.246 334.068 155.713 335.388C155.546 335.469 155.384 335.553 155.217 335.635C155.163 335.997 155.212 336.344 155.364 336.676C154.965 338.113 154.132 339.221 153.771 340.589C153.355 342.178 152.216 342.763 151.551 344.246C151.615 344.466 151.681 344.689 151.742 344.91C151.747 345.401 151.54 345.774 151.12 346.033C150.458 348.095 149.298 350.013 148.278 351.91C147.213 353.892 146.289 356.435 144.595 357.906C142.991 359.302 142.515 360.713 141.48 362.617C140.374 364.657 138.995 366.561 137.829 368.568C136.669 370.569 135.556 372.643 134.797 374.836C134.137 376.742 133.888 378.78 133.127 380.648C132.723 381.643 128.798 386.356 129.941 387.186C130.862 385.776 131.673 387.494 132.835 387.201C134.122 386.874 135.012 384.519 135.197 383.358C136.632 384.235 134.846 386.618 134.356 387.529C133.863 388.455 133.543 389.414 133.104 390.364C132.789 391.047 132.512 392.175 132.159 392.724C131.976 392.897 131.748 392.939 131.474 392.852C131.349 393.126 131.227 393.403 131.101 393.678C130.279 394.985 129.694 398.443 132.056 396.904C132.914 396.347 132.83 396.05 133.804 395.768C135.074 395.399 135.913 395.334 137.05 394.441C138.672 393.166 139.254 391.856 139.989 390.037C140.114 389.727 141.737 385.755 142.24 386.373C142.631 384.517 144.268 383.359 144.926 381.644C145.6 379.887 144.89 379.892 146.467 379.069C147.662 378.447 149.224 377.888 150.535 377.578C152.173 377.191 152.859 377.275 152.635 379.134C152.523 380.071 152.064 380.774 152.403 381.753C152.807 382.92 153.689 382.991 154.465 383.746C155.961 385.205 154.36 386.833 155.258 388.377C156.775 390.985 158.93 384.422 159.084 383.217C158.499 383.243 158.674 384.083 157.985 383.787C158.4 383.243 160.524 380.268 161.631 381.077C161.71 381.134 160.768 386.441 160.44 387.063C159.357 389.127 157.038 389.807 156.418 392.367C156.129 393.557 156.106 395.215 156.19 396.425C156.267 397.537 156.993 398.604 156.425 399.659C158.177 398.445 161.105 391.243 161.383 391.552C161.587 391.778 162.124 395.719 162.604 395.415C162.31 397.562 161.278 398.798 161.732 401.186C162.057 402.897 162.875 404.298 164.392 402.542C165.298 401.493 165.541 399.523 165.967 398.215C166.264 397.299 166.632 394.949 167.516 394.414C168.933 393.554 169.061 395.306 170.252 395.729C171.944 396.332 172.246 394.789 172.454 393.534C172.803 391.429 173.53 391.352 175.266 390.264C175.925 389.852 178.479 388.396 177.415 387.468C180.399 389.304 176.204 392.73 175.984 394.858C176.823 394.06 176.542 394.421 177.285 394.334C176.95 394.373 179.118 394.701 178.693 394.565C178.888 394.467 179.083 394.369 179.278 394.271C179.485 394.329 179.553 394.467 179.483 394.684C179.894 394.805 179.339 395.408 180.498 395.314C180.298 395.937 178.037 400.07 178.004 398.484C176.81 399.492 173.657 404.207 174.932 405.876C175.874 407.109 176.069 404.282 177.019 403.655C177.246 404.092 177.33 404.768 178.028 404.524C177.598 403.065 179.529 402.658 180.02 401.609C180.39 400.816 181.795 394.688 182.979 393.382C183.377 392.943 183.855 392.99 184.263 392.397C184.506 392.041 184.579 391.389 184.776 390.965C185.038 390.399 185.856 388.403 186.369 388.219C188.382 387.501 186.592 392.115 186.828 392.925C187.15 392.36 189.228 391.147 189.941 391.272C191.536 391.549 190.718 393.329 190.326 394.382C189.675 396.149 188.749 397.786 188.215 399.602C187.534 401.926 187.247 404.355 186.6 406.69C186.309 407.736 185.076 409.991 185.971 410.873C187.068 411.956 188.124 410.146 188.533 409.306C189.016 408.315 193.476 395.864 195.446 395.609C193.522 394.216 195.746 391.875 197.574 392.466C200.515 393.416 197.745 397.233 198.522 399.159C197.63 399.023 196.676 402.726 196.808 403.229C198.066 405.152 200.173 400.015 200.596 400.371C201.31 400.97 199.489 402.988 200.104 403.668C201.55 405.261 202.713 399.695 202.925 399.059C203.562 397.129 205.509 395.579 204.451 398.713C204.047 399.91 202.192 402.686 202.657 403.89C203.317 405.6 208.834 394.738 209.579 393.132C210.081 392.048 210.487 390.345 211.526 389.607C212.871 388.656 213.077 389.744 214.411 390.041C216.517 390.51 216.975 388.399 218.714 387.676C218.389 387.426 218.083 387.152 217.797 386.855C219.17 386.075 220.575 384.725 220.961 383.146C221.097 382.586 221.36 381.189 220.667 380.827C220.018 380.487 219.713 381.284 219.442 381.143C218.304 380.55 219.63 379.062 220.232 378.399C220.642 377.947 223.101 377.262 223.189 377.19C224.114 376.417 224.126 375.172 224.771 374.245C225.503 373.191 226.417 373.496 227.108 372.768C227.701 372.143 227.704 371.308 226.756 371.13C225.924 370.978 225.178 372.23 224.325 372.146C224.814 371.069 225.766 370.3 226.26 369.229C226.68 368.322 226.683 367.306 227.062 366.39C227.583 365.129 229.067 363.954 226.953 363.529C228.816 363.904 228.075 363.113 228.864 362.217C230.231 360.67 230.064 362.184 231.22 362.477C232.786 362.869 232.562 361.466 233.98 361.207C235.053 361.011 236.761 362.669 237.57 361.265C237.218 361.874 236.644 360.556 236.586 360.313C236.385 359.471 236.911 358.28 237.521 357.687C237.716 357.858 237.554 359.541 237.466 359.528C238.639 359.682 238.854 358.465 239.832 358.335C239.943 358.857 240.563 359.426 240.568 359.948C240.572 360.637 240.236 360.603 240.157 361.03C239.887 362.492 240.229 363.768 240.148 365.318C239.984 368.411 237.018 371.621 239.395 374.811C240.113 375.776 240.258 375.958 241.153 374.773C242.189 373.403 241.198 372.605 241.366 371.281C241.433 370.764 242.143 370.04 242.333 369.536C242.631 368.726 242.575 367.828 243.012 367.056C243.314 366.524 243.795 366.256 244.004 365.659C244.275 364.887 243.764 363.983 244.444 363.315C244.828 364.206 243.126 372.333 242.851 373.453C242.58 374.562 243.673 374.443 244.249 374.671C246.201 375.445 246.115 375.29 245.654 377.32C245.482 378.075 245.138 380.035 246.221 380.452C247.508 380.947 247.618 377.95 248.187 377.348C250.849 379.929 252.273 374.193 249.15 374.832C249.678 373.789 251.038 373.26 251.748 372.32C252.507 371.312 252.763 370.072 254.076 369.57C254.35 371.126 256.467 371.38 255.874 373.233C255.3 373.164 255.729 372.404 255.072 372.374C254.819 374.264 252.487 375.213 253.772 377.163C255.079 379.15 256.937 378.787 257.855 376.942C258.321 376.005 260.213 368.722 262.021 370.051C261.112 370.97 260.973 372.415 260.515 373.571C259.883 375.163 258.92 376.61 258.735 378.352C258.458 380.93 259.892 383.248 262.644 383.357C262.495 384.17 262.286 388.083 261.325 387.856C259.856 387.506 261.474 385.761 258.995 386.585C257.729 387.006 256.594 388.044 256.151 389.292C256.996 389.452 257.6 388.863 257.828 388.107C258.575 388.89 257.984 390.272 258.133 391.203C258.347 392.544 259.248 393.471 260.134 394.444C260.642 392.803 262.105 393.359 263.251 392.673C264.957 391.656 263.905 390.489 264.744 389.058C264.654 389.215 265.123 390.924 265.351 391.031C266.451 391.54 265.905 390.404 266.524 389.854C267.476 390.785 268.169 390.549 268.435 389.788C268.21 390.225 268.041 387.699 268.168 388.666C268.294 388.292 268.405 387.915 268.502 387.537C268.47 387.19 268.297 387.007 267.984 386.982C267.967 386.518 267.605 386.464 268.08 385.804C268.871 384.712 271.091 385.649 271.748 384.143C272.696 381.963 270.153 383.969 269.488 382.918C268.929 382.038 270.354 382.496 270.66 382.123C271.349 381.283 271.953 381.544 272.317 380.313C271.126 380.403 269.714 380.753 269.28 379.26C271.817 378.958 269.05 378.58 269.981 377.812C269.827 377.937 270.963 377.055 270.707 377.431C271.008 377.516 271.218 377.439 271.348 377.199C271.602 377.014 271.544 376.843 271.168 376.689C271.237 375.496 269.39 372.636 271.714 372.347C273.053 372.183 274.753 374.058 275.414 375.001C275.549 374.452 275.055 374.245 274.944 373.823C274.806 373.29 274.896 372.796 274.772 372.295C274.479 371.084 274.721 367.397 274.544 367.577C276.537 365.564 275.507 370.044 275.547 370.63C275.585 371.21 278.083 375.021 278.584 374.083C278.449 374.511 279.095 374.969 279.146 375.393C279.235 376.11 278.768 376.826 278.784 377.551C278.809 378.601 279.036 379.819 280.387 379.631C281.82 379.429 281.726 378.09 281.164 377.229C280.939 376.884 280.435 376.712 280.18 376.313C279.697 375.556 279.97 374.556 279.429 373.794C280.677 373.939 282.076 373.21 283.181 374.114C283.186 372.719 283.53 371.69 283.376 370.268C283.213 368.753 283.531 367.882 284.619 366.791C286.617 364.784 287.187 362.504 288.469 359.963C291.321 354.299 307.921 330.828 309.676 327.995C311.144 325.627 313.211 323.563 314.224 320.937C314.348 320.621 314.029 320.105 314.26 319.776C314.591 319.302 315.161 319.319 315.537 318.938C316.638 317.823 321.486 310.228 322.553 308.291C322.32 308.044 322.067 308.019 321.797 308.229C331.108 295.672 360.329 258.104 365.218 251.565C367.508 248.502 369.772 245.419 372.129 242.405C373.053 241.225 374.145 240.299 373.334 238.798C372.878 237.953 371.167 236.929 370.207 236.857C371.455 236.953 370.698 235.886 371.066 235.22C371.709 234.05 373.272 233.895 373.846 232.534C374.761 230.375 373.131 228.103 372.463 226.111C372.024 224.792 371.761 222.275 369.881 223.354C368.212 224.31 364.661 229.1 364.676 229.953C363.472 228.765 363.583 230.002 362.664 230.508C361.714 231.032 361.025 230.273 360.183 230.675C360.989 230.287 366.682 222.671 367.264 221.529C368.125 219.838 367.187 218.986 367.225 217.251C367.131 217.26 366.29 218.012 366.174 217.718C365.116 215.002 369.897 214.301 369.758 211.917C369.582 208.957 367.342 213.422 366.988 214.07C366.119 212.913 365.439 214.626 364.982 215.172C363.97 216.375 362.699 217.219 361.614 218.341C359.69 220.328 353.61 227.308 353.019 227.423C351.952 227.632 351.847 226.058 351.304 225.565C349.88 224.279 348.978 225.596 347.955 226.613C347.838 225.976 347.734 221.606 348.939 221.849C347.629 220.514 347.888 220.717 346.587 222.059C346.652 220.732 345.814 219.25 346.096 217.966C346.117 217.866 346.866 217.009 346.863 217.013C347.216 216.326 347.206 215.663 347.418 214.942C348.234 212.171 351.639 211.21 351.527 208.049C350.59 209.469 348.876 210.516 347.791 211.922C347.222 212.658 345.598 214.939 344.447 214.703C341.476 214.096 345.931 209.995 345.145 208.729C344.22 207.241 343.203 210.83 342.201 211.347C340.454 212.25 341.455 210.416 341.863 209.604C342.664 208.011 343.763 206.521 343.035 204.647C344.16 206.327 343.954 203.309 345.035 205.415C345.121 205.188 346.255 202.215 346.079 202.298C345.674 202.494 345.555 202.763 345.012 202.543C345.986 201.394 349.066 192.893 348.436 191.162C348.223 190.577 347.794 188.672 348.874 188.991C349.773 189.257 349.012 191.422 349.485 191.633C350.094 191.903 364.29 172.089 362.325 171.102C363.082 171.004 363.607 170.16 364.386 170.161C364.158 171.268 365.263 171.422 366.067 171.311C365.312 170.87 364.966 169.592 364.796 168.793C366.481 169.992 367.634 169.258 367.978 167.412C368.071 166.918 368.22 164.49 367.215 165.27C366.704 162.969 372.417 158.693 373.337 156.792C373.904 157.195 372.754 162.125 374.84 160.033C375.517 161.456 373.144 162.195 372.851 163.329C372.589 164.347 374.118 166.111 372.5 166.508C372.893 166.41 371.984 164.713 371.008 165.402C370.71 165.614 370.59 167.462 370.168 168.008C369.425 168.973 367.886 169.343 368.633 170.893C369.153 171.975 371.018 172.259 372.019 172.488C371.866 172.967 370.254 173.458 371.259 173.956C371.938 174.289 373.222 172.969 373.692 172.614C374.582 171.94 375.305 171.128 376.127 170.419C377.805 168.972 376.428 170.036 377.466 170.626C379.83 169.526 376.877 165.358 378.691 164.048C380.252 162.92 379.697 167.069 382.235 165.369C382.444 166.836 385.23 167.04 383.267 168.576C384.198 168.264 384.748 167.419 384.002 166.572C384.085 166.664 384.165 166.76 384.249 166.852L384.205 166.847ZM107.908 67.9893C107.908 67.9893 107.921 67.9864 107.929 67.9883C107.902 67.9941 107.879 68.0059 107.853 68.015C107.762 68.0555 107.664 68.0906 107.542 68.1199C107.602 68.0506 107.663 68.0058 107.726 67.9853C107.849 67.8956 107.959 67.8155 108.053 67.7424C108.033 67.7786 107.994 67.8151 107.964 67.8535C108.257 67.7026 108.199 67.8459 107.908 67.9893ZM75.4007 118.823C75.1307 118.785 74.8641 118.746 74.5933 118.704C74.6615 118.442 74.9315 118.48 75.4007 118.823ZM24.8718 168.387C27.5518 165.245 29.9692 161.882 32.7878 158.859C32.1097 159.665 31.292 160.546 30.7339 161.451C30.8437 161.317 30.9427 161.201 30.9984 161.147C31.0038 161.138 31.0098 161.134 31.0159 161.129C31.0193 161.128 31.0219 161.124 31.0246 161.12C31.0367 161.11 31.0428 161.105 31.0401 161.109C31.0401 161.109 31.0401 161.109 31.0408 161.113C31.0422 161.12 31.0335 161.128 31.0209 161.152C31.0209 161.152 31.0209 161.152 31.0236 161.148C31.0369 161.128 31.0408 161.113 31.0435 161.109L31.0427 161.105C31.042 161.102 31.036 161.107 31.0273 161.116C31.0239 161.116 31.0205 161.117 31.0185 161.125C31.0152 161.125 31.0072 161.138 31.0011 161.142C30.9086 161.24 30.7126 161.483 30.6432 161.59C30.6432 161.59 30.6432 161.59 30.6399 161.591C30.6685 161.542 30.7046 161.496 30.7366 161.446C30.5592 161.661 30.378 161.891 30.3695 161.917C30.0764 162.27 29.9889 162.391 30.9436 161.271C29.3849 163.096 27.3998 167.843 24.8771 168.379L24.8718 168.387ZM256.405 377.732C256.695 377.529 256.751 377.329 256.571 377.13C256.751 377.329 256.698 377.528 256.405 377.732Z" fill="url(#paint0_linear_42_2969)"/>
<defs>
<linearGradient id="paint0_linear_42_2969" x1="89.1549" y1="342.331" x2="353.161" y2="-17.273" gradientUnits="userSpaceOnUse">
<stop stop-color="#01472B"/>
<stop offset="1" stop-color="#02AD69"/>
</linearGradient>
</defs>
</svg>
