<svg width="619" height="235" viewBox="0 0 619 235" fill="none" xmlns="http://www.w3.org/2000/svg">
<path d="M312.351 195.156L312.36 195.156C312.36 195.156 312.356 195.155 312.351 195.156Z" fill="url(#paint0_linear_1_704)"/>
<path d="M64.8589 56.6784L64.8534 56.6798L64.8588 56.6801L64.8589 56.6784Z" fill="url(#paint1_linear_1_704)"/>
<path d="M598.588 155.245C598.544 155.268 598.522 155.277 598.483 155.295C598.527 155.274 598.566 155.254 598.588 155.245C597.848 155.603 596.058 155.553 594.905 155.698C593.608 155.862 593.479 156.193 592.619 156.393C590.978 156.773 588.941 157.379 586.924 157.623C584.571 157.908 582.337 158.457 580.396 158.973C579.701 159.159 578.984 159.415 579.148 159.794C579.298 160.151 580.714 160.409 580.339 160.774C580.997 160.821 581.124 161.12 581.825 161.167C582.635 161.224 584.334 160.692 584.797 160.572C586.673 160.087 588.794 159.482 589.199 158.611C590.976 159.005 592.811 158.712 594.033 158.257C595.565 157.685 593.44 156.826 594.569 156.036C595.506 157.016 597.465 156.69 599.03 156.25C599.716 156.058 600.611 156.114 600.178 155.647C600.046 155.504 599.162 154.969 598.593 155.245L598.588 155.245ZM598.33 155.369C598.232 155.416 598.188 155.439 598.33 155.369Z" fill="url(#paint2_linear_1_704)"/>
<path d="M598.593 155.243C598.618 155.236 598.612 155.237 598.593 155.243Z" fill="url(#paint3_linear_1_704)"/>
<path d="M576.539 51.8238C576.539 51.8238 576.55 51.8246 576.556 51.8249C576.556 51.8249 576.556 51.8226 576.556 51.8203C576.556 51.8203 576.545 51.8218 576.539 51.8214L576.539 51.8238Z" fill="url(#paint4_linear_1_704)"/>
<path d="M565.47 55.4486C566.109 55.5423 565.913 55.0248 566.345 54.9746C566.633 54.9422 567.231 55.2429 567.624 55.2232C568.202 55.1937 568.611 55.0281 569.189 55.0021C570.118 54.9586 571.012 54.9616 571.956 54.9349C572.618 54.9165 572.951 54.7771 573.655 54.7774C574.401 54.777 575.549 55.0777 576.204 55.0203C579.956 54.6968 573.843 53.9755 574.453 53.4969C574.632 53.3555 576.023 53.4353 576.109 53.3486C576.353 53.1068 575.852 53.1662 575.829 52.9582C575.782 52.4267 573.915 52.0373 576.533 51.8216C575.858 50.9663 574.307 50.7494 573.305 51.5346C573.064 51.7207 573.304 52.2306 572.814 52.352C571.985 52.553 571.276 52.1746 570.518 52.4137C570.356 52.4636 570.884 52.7769 570.767 52.8718C570.593 53.0171 570.103 53.0563 569.851 53.1751C569.101 53.5337 568.12 53.6452 567.041 53.8619C565.727 54.1285 562.318 54.9851 565.47 55.4504L565.47 55.4486Z" fill="url(#paint5_linear_1_704)"/>
<path d="M46.0812 77.9951C48.4392 77.7927 45.996 78.0031 46.0812 77.9951C45.996 78.0031 46.0061 78.086 45.9535 78.1576C46.894 78.1761 47.7298 78.1016 48.5973 78.2567C46.9203 78.7831 50.1763 78.6015 50.5104 78.5899C51.1058 78.9289 53.9433 80.3429 55.2617 79.8002C56.1714 79.4265 53.8946 79.2988 55.4203 78.8178C57.6161 78.8926 57.9831 77.7289 55.4563 77.6222C55.4599 77.57 55.469 77.5164 55.4779 77.4645C55.938 77.3918 56.4972 77.3399 56.0722 77.0618C55.6247 77.1057 55.1825 77.1483 54.7457 77.1912C54.5439 76.5212 47.0064 74.8275 46.4743 75.6281C46.3323 75.842 48.0798 76.1234 48.4199 76.4043C49.24 77.0861 47.7792 77.8497 46.0759 77.9964L46.0812 77.9951ZM53.1076 77.5402C53.0051 77.568 52.9178 77.6056 52.8456 77.6548C52.9178 77.6056 53.0104 77.5683 53.1076 77.5402Z" fill="url(#paint6_linear_1_704)"/>
<path d="M408.273 42.1726C408.273 42.1726 408.273 42.1719 408.276 42.1713C408.276 42.1713 408.276 42.1713 408.273 42.1711C408.273 42.1711 408.273 42.1711 408.273 42.1719L408.273 42.1726Z" fill="url(#paint7_linear_1_704)"/>
<path d="M407.607 40.1627C407.494 40.1417 407.437 40.1312 407.607 40.1627Z" fill="url(#paint8_linear_1_704)"/>
<path d="M407.611 40.1624C408.551 40.34 407.887 40.215 407.611 40.1624C406.937 40.0348 406.91 40.4212 406.521 40.4674C405.502 40.5886 405.8 40.4818 404.873 40.4239C404.025 40.3699 403.834 39.9158 402.695 40.2454C402.063 40.4286 402.731 40.7184 402.524 40.7984C401.724 41.1133 402.079 40.8023 400.496 40.8193C398.717 40.8383 398.011 41.3976 398.7 41.918C399.725 41.8568 400.643 41.5887 401.614 41.4764C402.057 41.4251 404.545 40.9537 404.571 40.9555C407.76 40.9756 403.088 42.0325 406.311 42.2509C407.686 42.3435 413.485 41.3567 413.695 41.0041C414.218 40.1014 409.229 40.4697 407.616 40.1645L407.611 40.1624Z" fill="url(#paint9_linear_1_704)"/>
<path d="M556.087 150.475C557.599 150.193 558.912 149.802 560.73 149.682C560.765 149.711 560.8 149.739 560.835 149.768C560.868 149.744 560.902 149.719 560.941 149.695C561.378 149.488 561.821 149.279 562.259 149.072C564.396 149.076 569.986 147.979 571.103 147.366C568.62 146.932 567.946 147.044 566.084 147.487C564.744 147.808 562.205 148.026 561.849 148.66C559.416 148.422 556.601 149.409 554.816 149.737C552.999 150.074 548.679 150.256 548.489 151.089C547.111 151.117 543.267 151.314 544.766 152.199C545.579 152.677 548.21 152.049 548.814 151.737C549.563 151.691 554.457 151.313 554.482 151.26C553.034 151.461 553.035 150.774 553.998 150.836C555.105 150.907 554.85 151.137 555.522 151.217C556.912 151.386 555.589 150.568 556.082 150.475C556.044 150.481 556.028 150.485 556.082 150.475L556.087 150.475Z" fill="url(#paint10_linear_1_704)"/>
<path d="M556.088 150.476C556.189 150.456 556.525 150.392 556.648 150.369C556.584 150.381 556.429 150.41 556.088 150.476Z" fill="url(#paint11_linear_1_704)"/>
<path d="M556.658 150.368C556.697 150.36 556.697 150.358 556.658 150.368Z" fill="url(#paint12_linear_1_704)"/>
<path d="M312.351 195.16L312.359 195.161C312.359 195.161 312.36 195.158 312.36 195.156L312.351 195.16Z" fill="url(#paint13_linear_1_704)"/>
<path d="M317.84 195.617C317.762 194.917 313.639 195.245 312.359 195.162C312.319 196.043 308.207 196.576 309.621 197.467C311.03 198.356 312.721 196.865 314.057 196.992C314.064 196.128 317.905 196.213 317.84 195.617Z" fill="url(#paint14_linear_1_704)"/>
<path d="M35.1067 64.53C35.0552 64.435 34.9974 64.3554 34.9268 64.3065C33.6692 64.2309 34.9756 64.6667 35.1067 64.53Z" fill="url(#paint15_linear_1_704)"/>
<path d="M34.9239 64.3052C35.0953 64.4256 35.1328 64.4947 35.1041 64.5277C35.4173 65.118 35.4211 66.4248 36.0002 66.4671C37.2637 66.5572 36.7331 64.9144 36.7433 64.693C36.7677 64.5705 36.7921 64.4481 36.8166 64.3256C38.3444 64.3432 39.717 63.932 39.8807 63.4082C40.6348 63.1408 42.4928 63.3547 42.3708 62.7533C43.3231 62.9056 43.2972 63.2763 44.2145 63.3999C44.2669 63.1045 43.7385 62.7912 44.3652 62.5307C45.8879 63.1514 47.789 62.2191 49.31 62.1068C50.23 62.04 50.4775 62.2847 51.2425 62.0881C51.6306 61.9858 52.1725 61.1211 52.5569 60.9206C51.9751 60.9184 50.6815 60.8805 50.2419 60.8864C49.2356 60.9018 48.9455 60.3585 48.3445 61.0091L48.3392 61.0088C47.5926 61.093 47.3446 61.31 47.1797 61.5504L47.1689 61.5531C46.1124 61.6804 46.7812 61.2724 46.2527 61.1882C45.6195 61.0879 45.3245 61.2212 44.7332 61.2026C44.0204 61.1808 41.1224 61.3122 40.9481 61.6113C40.6409 62.146 42.1182 61.7509 42.3805 62.0858C43.0998 62.9966 40.4579 62.1892 39.9658 62.1146C39.6255 62.0628 38.8732 62.6066 38.761 62.6985C38.6551 62.6998 38.5493 62.6994 38.4384 62.6969C36.3958 62.171 34.7432 61.592 33.3745 62.6279C32.7153 63.1275 32.5634 64.1646 34.9236 64.3087L34.9239 64.3052ZM39.4008 62.8552C39.3352 62.8104 39.2322 62.7699 39.0652 62.7372C39.2269 62.7695 39.3299 62.81 39.4008 62.8552Z" fill="url(#paint16_linear_1_704)"/>
<path d="M188.106 190.01C187.384 190.126 187.052 189.805 186.373 189.829C188.082 191.495 194.632 188.77 194.326 188.677C192.28 188.049 186.607 189.276 188.106 190.01Z" fill="url(#paint17_linear_1_704)"/>
<path d="M601.342 136.924C601.801 136.93 601.507 136.764 601.232 136.764C601.081 136.804 600.962 136.846 600.943 136.894C601.084 136.911 601.21 136.918 601.342 136.922L601.342 136.924Z" fill="url(#paint18_linear_1_704)"/>
<path d="M601.339 136.922C601.244 136.921 601.112 136.913 600.939 136.894C600.983 136.794 601.102 136.762 601.229 136.764C601.93 136.575 603.664 136.443 603.279 136.12C603.364 136.191 599.459 135.817 599.162 135.824C598.606 135.836 595.551 136.402 595.403 136.541C595.007 136.91 598.951 136.507 599.173 136.507C599.504 136.845 599.184 137.1 598.608 137.464C600.832 137.221 603.16 137.373 604.615 136.842C604.558 136.815 604.497 136.79 604.44 136.763C603.318 136.695 602.484 136.98 601.344 136.926L601.339 136.922Z" fill="url(#paint19_linear_1_704)"/>
<path d="M51.4193 74.7985C51.3972 74.8111 51.3915 74.816 51.3805 74.8223C51.4578 74.7782 51.7228 74.6249 51.4193 74.7985Z" fill="url(#paint20_linear_1_704)"/>
<path d="M51.377 74.8213C51.3578 74.8333 51.3578 74.8333 51.377 74.8213Z" fill="url(#paint21_linear_1_704)"/>
<path d="M53.4127 73.7719C54.1012 73.6854 57.1223 74.1398 58.1314 74.2366C57.5286 73.7012 56.329 73.9077 55.3067 73.6228C54.1234 73.2934 53.947 72.94 53.6084 72.4861C52.506 72.9669 50.7671 73.6219 50.062 74.1725C49.6311 74.508 50.3349 75.4142 51.4202 74.7992C51.7839 74.592 52.9108 73.8365 53.4179 73.7723L53.4127 73.7719Z" fill="url(#paint22_linear_1_704)"/>
<path d="M316.584 204.077C316.616 204.074 316.68 204.068 316.793 204.057C316.696 204.066 316.621 204.075 316.584 204.077Z" fill="url(#paint23_linear_1_704)"/>
<path d="M316.579 204.077C316.554 204.081 316.554 204.081 316.579 204.077Z" fill="url(#paint24_linear_1_704)"/>
<path d="M316.785 204.057C317.872 203.947 317.19 204.015 316.785 204.057C315.751 204.161 316.887 204.333 317.036 204.475C319.3 204.252 318.424 205.352 320.499 205.425C322.948 205.511 321.451 203.841 322.2 203.419C319.875 203.452 318.517 203.881 316.785 204.057Z" fill="url(#paint25_linear_1_704)"/>
<path d="M65.5547 123.306C65.7108 123.496 65.67 123.851 66.0017 124.027C66.8233 124.458 66.9236 124.159 67.939 124.468C68.9233 124.768 69.69 125.532 70.2144 124.463C67.645 124.435 69.1687 123.604 68.3383 123.071C67.3914 122.462 64.9002 122.528 65.5546 123.308L65.5547 123.306Z" fill="url(#paint26_linear_1_704)"/>
<path d="M312.571 205.706C312.641 205.688 312.625 205.694 312.571 205.706C311.134 206.048 309.594 206.28 308.579 206.655C308.887 206.861 310.089 206.918 310.662 206.973C312.359 207.143 311.427 207.233 312.922 206.885C314.159 206.597 314.685 205.203 312.576 205.706L312.571 205.706Z" fill="url(#paint27_linear_1_704)"/>
<path d="M604.44 136.76C604.502 136.785 604.558 136.812 604.615 136.839C606.38 136.794 611.45 136.091 608.952 135.188C607.817 134.778 605.073 136.649 604.44 136.762L604.44 136.76Z" fill="url(#paint28_linear_1_704)"/>
<path d="M581.128 136.678C581.096 136.688 581.132 136.705 581.373 136.734C581.422 136.723 581.438 136.714 581.444 136.705C581.741 136.623 581.908 136.505 581.955 136.36C583.3 136.19 585.396 135.429 584.716 134.856C585.328 134.649 585.167 134.386 584.86 134.011C583.695 134.325 580.647 134.867 582.013 135.6C581.979 135.713 581.939 135.824 581.905 135.937C581.462 135.839 581.019 135.745 580.511 135.753L580.459 135.736C580.044 134.64 578.702 136.036 577.592 136.41C576.909 136.334 577.227 136.108 576.834 135.969C576.557 136.143 575.745 136.944 574.933 136.98C573.245 137.054 574.315 136.737 573.646 136.701C573.646 136.701 573.114 136.057 572.535 136.541C572.181 136.84 573.441 137.363 574.142 137.542C574.189 137.627 574.231 137.712 574.278 137.798C573.397 137.689 573.148 137.922 572.73 138.062C571.471 137.913 572.431 137.571 571.745 137.318C570.907 137.655 569.778 137.84 569.052 138.148C568.376 138.435 568.316 139.069 566.747 139.116C565.787 139.145 565.424 138.737 564.806 138.799C564.3 138.849 564.249 139.654 563.669 139.853C562.802 140.149 561.194 140.134 560.237 140.426C559.756 140.573 559.333 140.723 559.122 140.943C559.013 141.056 559.584 141.365 559.459 141.419C558.852 141.695 557.53 141.309 556.974 141.62C556.732 141.753 557.831 142.002 557.75 142.094C557.52 142.361 556.904 142.313 556.566 142.538C556.632 142.343 556.465 142.17 556.063 142.018C554.944 141.905 553.778 142.691 554.001 142.976C554.007 143.343 552.474 143.7 554.225 143.864C554.239 143.659 556.451 143.121 556.979 142.988C558.131 142.699 559.809 142.623 560.786 142.268C563.194 142.634 563.498 141.917 564.553 141.585C564.88 141.454 565.206 141.323 565.533 141.192C568.581 141.482 571.714 139.201 573.854 138.79C574.416 138.626 575.505 138.641 575.425 138.261C576.22 138.322 576.57 138.154 576.921 137.986C577.208 137.961 577.324 137.888 577.352 137.792C577.725 137.612 577.688 137.149 576.872 137.474C576.147 137.405 576.211 137.235 576.234 137.069L576.261 137.062C577.934 137.336 577.444 136.707 578.167 136.586C579.014 136.658 578.178 136.948 579.345 136.984C580.311 137.013 580.51 136.514 580.648 136.291C581.313 136.388 580.866 136.567 581.129 136.676L581.128 136.678Z" fill="url(#paint29_linear_1_704)"/>
<path d="M39.0829 61.2214C40.1077 60.8663 39.0069 60.4167 37.5738 60.4809C36.3159 60.5381 35.9698 61.1751 34.8056 61.3298C37.5074 61.7339 37.6246 61.7228 39.0777 61.2193L39.0829 61.2214Z" fill="url(#paint30_linear_1_704)"/>
<path d="M173.77 43.9986C173.715 43.9869 173.705 43.9842 173.77 43.9986Z" fill="url(#paint31_linear_1_704)"/>
<path d="M173.881 44.0231C173.824 44.0102 173.798 44.0049 173.771 43.9995C173.939 44.0342 174.425 44.1371 173.881 44.0231Z" fill="url(#paint32_linear_1_704)"/>
<path d="M173.882 44.0219C174.962 44.2478 177.578 43.2239 177.025 42.8214C176.032 42.1031 173.49 43.05 173.671 43.5629C173.751 43.6384 173.246 43.89 173.882 44.0219Z" fill="url(#paint33_linear_1_704)"/>
<path d="M159.515 44.0931C159.497 44.1199 159.486 44.1384 159.474 44.1533C159.486 44.1366 159.498 44.1164 159.515 44.0931Z" fill="url(#paint34_linear_1_704)"/>
<path d="M159.479 44.1535C159.455 44.1919 159.444 44.205 159.479 44.1535Z" fill="url(#paint35_linear_1_704)"/>
<path d="M159.587 43.9955C159.569 44.0223 159.545 44.0574 159.522 44.0924C159.54 44.0657 159.563 44.0358 159.587 43.9955C159.628 43.9389 159.616 43.9556 159.587 43.9955C159.947 43.4662 158.651 43.3074 157.598 43.4577C156.722 43.5818 156.803 44.7698 156.676 45.0723C157.914 44.7636 159.233 44.5165 159.587 43.9955Z" fill="url(#paint36_linear_1_704)"/>
<path d="M180.718 47.2893C180.599 47.2547 180.5 47.2268 180.718 47.2893C180.765 47.303 180.786 47.308 180.817 47.3172C180.786 47.308 180.755 47.2988 180.718 47.2893C181.958 47.6453 184.238 46.8935 185.155 46.7215C184.606 46.6184 181.919 46.6124 181.347 46.6248C179.709 46.6625 178.908 46.7674 180.723 47.2896L180.718 47.2893Z" fill="url(#paint37_linear_1_704)"/>
<path d="M180.824 47.3174C180.969 47.3609 180.923 47.3465 180.824 47.3174Z" fill="url(#paint38_linear_1_704)"/>
<path d="M90.2272 184.803C90.3277 184.803 90.5289 184.801 90.6664 184.802C90.5764 184.803 90.4494 184.803 90.2272 184.803C90.1583 184.804 90.1319 184.803 90.2272 184.803C88.7984 184.806 89.032 184.947 89.8676 185.254C91.1986 185.74 92.8162 185.61 94.2009 185.48C92.7975 185.196 91.7088 184.8 90.2272 184.803Z" fill="url(#paint39_linear_1_704)"/>
<path d="M90.6675 184.799C90.8446 184.802 90.7977 184.802 90.6675 184.799Z" fill="url(#paint40_linear_1_704)"/>
<path d="M394.719 43.0363C394.806 43.012 394.779 43.0191 394.719 43.0363Z" fill="url(#paint41_linear_1_704)"/>
<path d="M394.711 43.0378C394.01 43.2284 389.948 43.5915 390.619 44.053C391.406 44.5978 395.346 43.2676 395.675 43.1752C395.533 43.0061 395.035 42.9502 394.716 43.0364C394.549 43.0824 394.096 43.2047 394.716 43.0364L394.711 43.0378Z" fill="url(#paint42_linear_1_704)"/>
<path d="M85.4994 53.8633C86.7513 53.8931 85.9707 53.1774 87.7361 53.8833C87.7724 52.8346 84.9691 53.1248 83.9026 53.6222C83.5745 53.7742 82.3548 53.6627 83.1601 54.0251C83.8937 54.3545 84.7917 53.8453 85.5047 53.8637L85.4994 53.8633Z" fill="url(#paint43_linear_1_704)"/>
<path d="M541.202 146.421C542.303 147.093 543.609 146.429 543.635 145.978C544.615 145.366 540.345 145.901 541.202 146.421Z" fill="url(#paint44_linear_1_704)"/>
<path d="M563.664 159.508C563.646 159.461 563.592 159.415 563.475 159.368C563.524 159.417 563.588 159.462 563.664 159.508Z" fill="url(#paint45_linear_1_704)"/>
<path d="M192.749 173.406C192.647 173.445 192.608 173.47 192.607 173.49C192.656 173.461 192.695 173.427 192.749 173.406Z" fill="url(#paint46_linear_1_704)"/>
<path d="M549.563 47.7763C549.512 47.7559 549.508 47.7371 549.478 47.7165C549.445 47.7462 549.464 47.7677 549.563 47.7763Z" fill="url(#paint47_linear_1_704)"/>
<path d="M539.452 53.6372C539.37 53.6349 539.38 53.6357 539.437 53.6361C539.437 53.6361 539.447 53.6369 539.452 53.6372Z" fill="url(#paint48_linear_1_704)"/>
<path d="M580.559 103.759C580.559 103.759 580.569 103.749 580.571 103.714C580.57 103.728 580.56 103.745 580.559 103.759Z" fill="url(#paint49_linear_1_704)"/>
<path d="M61.4184 115.165C61.9449 115.225 60.95 115.11 61.4184 115.165Z" fill="url(#paint50_linear_1_704)"/>
<path d="M59.2372 116.669C59.8385 116.695 59.3283 116.425 59.7742 116.404C60.0178 116.627 60.2619 116.843 60.5007 117.061C61.4822 116.644 61.216 116.744 61.3821 116.108C61.4188 115.962 62.5496 115.302 61.4321 115.166C59.8425 114.972 59.0178 116.324 59.2423 116.671L59.2372 116.669Z" fill="url(#paint51_linear_1_704)"/>
<path d="M171.326 44.5205C172.488 44.6833 171.656 44.5674 171.326 44.5205Z" fill="url(#paint52_linear_1_704)"/>
<path d="M171.28 44.5123C171.28 44.5123 171.296 44.5134 171.301 44.5138C171.291 44.513 171.286 44.5127 171.28 44.5123C173.266 44.7946 171.947 43.2961 169.46 43.7641C168.017 44.0358 168.261 44.9483 167.221 45.2832C167.8 45.0963 170.337 44.3782 171.275 44.5119L171.28 44.5123Z" fill="url(#paint53_linear_1_704)"/>
<path d="M68.941 170.784C68.941 170.784 68.9516 170.785 68.9568 170.786C68.9568 170.786 68.9571 170.782 68.9572 170.78L68.9467 170.779C68.9466 170.781 68.9464 170.783 68.9463 170.785L68.941 170.784Z" fill="url(#paint54_linear_1_704)"/>
<path d="M200.405 200.713C200.801 200.801 200.289 201.463 201.969 200.97C203.293 200.583 201.762 200.457 201.515 200.053C200.709 200.149 200.195 200.317 200.4 200.713L200.405 200.713Z" fill="url(#paint55_linear_1_704)"/>
<path d="M32.2593 99.8018C32.5729 99.5544 28.9353 99.0639 30.4395 100.252C31.3184 100.168 31.968 100.033 32.2593 99.8018Z" fill="url(#paint56_linear_1_704)"/>
<path d="M583.681 133.219C583.681 133.219 583.65 133.217 583.635 133.214C583.645 133.219 583.65 133.223 583.66 133.225L583.686 133.22L583.681 133.219Z" fill="url(#paint57_linear_1_704)"/>
<path d="M64.2595 78.4368C64.1281 78.4308 64.0755 78.4282 64.2595 78.4368Z" fill="url(#paint58_linear_1_704)"/>
<path d="M63.7598 77.9654C63.9339 78.1245 63.4112 78.4115 64.4723 78.4455C68.6005 78.5768 63.4287 76.7984 63.7598 77.9654Z" fill="url(#paint59_linear_1_704)"/>
<path d="M64.4716 78.4426C64.3659 78.4384 64.3131 78.4363 64.2549 78.4355C64.4768 78.443 64.873 78.4579 64.4716 78.4426Z" fill="url(#paint60_linear_1_704)"/>
<path d="M162.292 50.1185C162.292 50.1185 162.312 50.1144 162.322 50.1114C162.312 50.1144 162.302 50.1155 162.292 50.1185Z" fill="url(#paint61_linear_1_704)"/>
<path d="M162.292 50.1166C162.092 50.1539 161.914 50.1876 162.292 50.1166Z" fill="url(#paint62_linear_1_704)"/>
<path d="M159.884 51.0077C160.526 50.8988 163.207 50.6244 163.399 50.3772C163.59 50.137 163.491 49.8835 162.461 50.0843C162.515 50.0741 162.499 50.0765 162.461 50.0843C162.397 50.0973 162.37 50.1024 162.322 50.1113C162.381 50.0997 162.429 50.0908 162.461 50.0843C161.41 50.2872 160.395 50.5117 159.884 51.0077Z" fill="url(#paint63_linear_1_704)"/>
<path d="M69.6909 121.719C70.0113 120.694 65.3997 122.026 68.1071 122.2C69.3712 122.281 68.7867 121.712 69.6909 121.719Z" fill="url(#paint64_linear_1_704)"/>
<path d="M68.3999 122.218C68.3316 122.214 68.2422 122.207 68.1002 122.198C67.6532 122.167 68.1581 122.202 68.3999 122.218Z" fill="url(#paint65_linear_1_704)"/>
<path d="M7.21466 163.838C6.08265 163.758 5.0173 163.18 4.33049 163.393C3.90862 163.524 4.30336 164.689 4.45809 164.897C4.79683 165.349 4.50244 165.549 6.4974 165.318C8.64173 165.069 8.28063 164.71 7.22598 163.978C8.83428 164.056 10.5289 163.882 10.0421 163.278C9.66002 163.748 7.52925 163.349 7.21478 163.836L7.21466 163.838Z" fill="url(#paint66_linear_1_704)"/>
<path d="M63.5895 172.539C63.5505 172.534 63.5462 172.533 63.5895 172.539Z" fill="url(#paint67_linear_1_704)"/>
<path d="M556.476 90.8026C556.476 90.8026 556.47 90.8067 556.47 90.8081C556.481 90.8089 556.481 90.8089 556.492 90.8097C556.492 90.8082 556.493 90.8067 556.487 90.8049C556.487 90.8049 556.487 90.8049 556.482 90.8045L556.476 90.8026Z" fill="url(#paint68_linear_1_704)"/>
<path d="M71.7665 111.686C71.3161 111.766 71.114 112.233 72.0349 112.238C72.9399 112.244 72.5248 111.744 71.7665 111.686Z" fill="url(#paint69_linear_1_704)"/>
<path d="M93.5332 180.476C93.5332 180.476 93.5329 180.481 93.5326 180.484C93.5326 180.484 93.5464 180.483 93.5556 180.482C93.5556 180.482 93.5557 180.48 93.5558 180.479C93.5513 180.479 93.5422 180.478 93.5376 180.478L93.5332 180.476Z" fill="url(#paint70_linear_1_704)"/>
<path d="M568.406 65.5909C568.406 65.5909 568.417 65.5901 568.421 65.5889C568.417 65.5871 568.41 65.585 568.406 65.5833C568.406 65.5833 568.406 65.5893 568.406 65.5924L568.406 65.5909Z" fill="url(#paint71_linear_1_704)"/>
<path d="M224.302 203.463L224.302 203.458C224.302 203.458 224.291 203.457 224.285 203.457L224.296 203.462L224.302 203.463Z" fill="url(#paint72_linear_1_704)"/>
<path d="M223.539 203.532C223.539 203.532 223.539 203.532 223.533 203.532C223.533 203.532 223.533 203.532 223.533 203.534C223.533 203.534 223.533 203.534 223.538 203.534L223.539 203.532Z" fill="url(#paint73_linear_1_704)"/>
<path d="M541.851 49.6795C541.873 49.6669 541.895 49.6526 541.912 49.6397C541.878 49.5915 541.811 49.5797 541.713 49.6081C541.759 49.6325 541.805 49.6569 541.851 49.6795Z" fill="url(#paint74_linear_1_704)"/>
<path d="M605.451 127.528C605.409 127.515 605.363 127.501 605.322 127.485C605.287 127.524 605.258 127.563 605.224 127.601C605.3 127.576 605.375 127.551 605.451 127.526L605.451 127.528Z" fill="url(#paint75_linear_1_704)"/>
<path d="M605.185 127.628C605.185 127.628 605.195 127.629 605.201 127.629C605.206 127.619 605.218 127.61 605.224 127.599C605.202 127.605 605.186 127.611 605.164 127.618C605.169 127.622 605.175 127.624 605.185 127.628Z" fill="url(#paint76_linear_1_704)"/>
<path d="M53.1777 103.904C53.2041 103.89 53.2355 103.879 53.2619 103.866C53.2619 103.866 53.2619 103.866 53.2621 103.864C53.2621 103.864 53.257 103.864 53.2519 103.863C53.2255 103.877 53.1991 103.89 53.1726 103.903L53.1777 103.904Z" fill="url(#paint77_linear_1_704)"/>
<path d="M122.227 45.2318C122.253 45.2185 122.279 45.2052 122.306 45.192C122.279 45.2052 122.253 45.2168 122.222 45.2297C122.222 45.2297 122.222 45.2298 122.221 45.2314L122.227 45.2318Z" fill="url(#paint78_linear_1_704)"/>
<path d="M583.818 133.262C583.792 133.253 583.755 133.246 583.719 133.24C583.754 133.261 583.79 133.28 583.831 133.301C583.832 133.288 583.844 133.27 583.823 133.264L583.818 133.262Z" fill="url(#paint79_linear_1_704)"/>
<path d="M583.686 133.221L583.659 133.226C583.659 133.226 583.695 133.236 583.716 133.24C583.706 133.233 583.696 133.227 583.681 133.218L583.686 133.221Z" fill="url(#paint80_linear_1_704)"/>
<path d="M574.171 135.203C574.722 135.224 574.048 135.214 574.171 135.203Z" fill="url(#paint81_linear_1_704)"/>
<path d="M574.169 135.203C574.913 135.229 578.861 134.989 576.148 134.586C575.08 134.428 574.744 134.845 573.942 135.112C573.897 135.156 573.846 135.198 573.796 135.242C573.918 135.23 574.041 135.215 574.163 135.203L574.169 135.203Z" fill="url(#paint82_linear_1_704)"/>
<path d="M554.575 151.226C554.549 151.234 554.523 151.244 554.497 151.252C554.497 151.253 554.497 151.255 554.492 151.256C554.492 151.256 554.502 151.257 554.507 151.256C554.528 151.246 554.554 151.236 554.575 151.226Z" fill="url(#paint83_linear_1_704)"/>
<path d="M202.535 194.183C202.581 194.196 202.633 194.208 202.679 194.221C202.679 194.221 202.679 194.221 202.684 194.221C202.633 194.209 202.581 194.197 202.535 194.184L202.535 194.183Z" fill="url(#paint84_linear_1_704)"/>
<path d="M537.898 146.104C537.924 146.091 537.95 146.076 537.977 146.063C537.945 146.076 537.919 146.089 537.887 146.102C537.887 146.102 537.887 146.102 537.887 146.104L537.898 146.104Z" fill="url(#paint85_linear_1_704)"/>
<path d="M382.916 210.808C382.869 210.797 382.818 210.785 382.771 210.773C382.818 210.785 382.864 210.798 382.91 210.809C382.91 210.809 382.91 210.809 382.921 210.81C382.921 210.81 382.921 210.81 382.921 210.807L382.916 210.808Z" fill="url(#paint86_linear_1_704)"/>
<path d="M225.698 200.642C225.666 200.656 225.64 200.669 225.608 200.682C225.608 200.684 225.608 200.686 225.608 200.688C225.608 200.688 225.613 200.688 225.618 200.687C225.645 200.671 225.671 200.658 225.698 200.642Z" fill="url(#paint87_linear_1_704)"/>
<path d="M362.659 215.402C362.62 215.425 362.572 215.443 362.522 215.464C362.56 215.451 362.604 215.433 362.659 215.402Z" fill="url(#paint88_linear_1_704)"/>
<path d="M237.882 30.8038C237.781 30.8054 237.659 30.8108 237.506 30.8191C237.5 30.8187 237.49 30.8163 237.485 30.8159C237.378 30.8241 237.283 30.8313 237.166 30.8404C237.329 30.8449 237.498 30.8515 237.661 30.856C237.693 30.8565 237.725 30.8553 237.751 30.8554C237.71 30.8455 237.668 30.8426 237.626 30.8362C237.727 30.8294 237.807 30.8176 237.882 30.8038Z" fill="url(#paint89_linear_1_704)"/>
<path d="M612.117 134.914C610.981 134.139 610.817 133.071 608.991 132.399C607.433 131.827 605.516 132.002 603.896 131.497C604.931 131.818 604.702 131.235 605.188 131.177C605.716 131.112 606.932 131.278 607.31 131.099C607.139 130.972 606.914 130.856 606.63 130.751C606.478 130.509 606.768 130.367 607.496 130.323C607.735 129.85 607.019 128.898 606.379 128.444C605.054 127.498 605.141 127.918 602.918 127.843C602.779 127.034 607.674 127.093 605.581 126.315C604.23 125.813 601.104 126.557 600.655 125.936C600.467 125.673 601.955 125.359 602.063 125.016C602.09 124.941 601.508 124.563 601.496 124.426C601.486 124.264 601.995 124.104 601.906 123.939C601.321 122.846 599.024 123.534 597.424 123.872C595.845 124.206 592.72 124.711 593.26 123.57C593.422 123.223 595.35 122.663 593.821 122.28C592.875 122.042 591.158 122.454 590.04 122.245C587.669 121.799 596.452 117.115 592.849 116.96C591.799 116.914 587.817 117.423 587.53 117.058C587.01 116.397 584.774 115.989 585.778 115.332C586.61 114.786 588.934 114.991 590.546 114.938C592.911 114.862 594.899 114.509 596.972 114.213C594.872 113.302 597.741 111.766 593.609 111.386C590.665 111.115 585.41 112.427 584.521 110.535C584.659 110.834 584.576 113.067 587.659 112.712C586.07 112.895 575.865 114.696 573.699 114.648C570.561 114.575 573.217 113.817 573.982 113.477C574.533 113.232 576.27 111.629 576.521 111.671C576.965 111.744 576.465 112.235 577.358 112.189C577.555 112.019 577.72 111.844 577.849 111.664C577.894 112.309 579.684 111.455 579.969 111.314C581.131 110.737 581.796 110.224 579.881 109.539C578.266 108.961 566.918 108.043 567.482 107.308C568.076 106.54 572.967 105.823 574.96 105.536C577.125 105.222 579.209 105.151 580.072 104.318C580.282 104.112 580.883 102.7 579.404 102.749C581.636 102.309 582.468 103.124 584.572 103.149C585.973 103.165 588.316 102.407 588.321 101.961C585.163 101.728 588.732 98.8136 589.688 98.4607C590.611 98.1177 591.055 97.6696 592.176 97.3806C593.226 97.1095 598.385 96.7304 594.951 95.983C595.394 96.0787 592.341 95.8565 592.484 95.8525C591.37 95.8831 591.621 96.6842 590.387 95.8738C589.927 95.5722 590.778 94.5246 591.525 94.3477C592.93 94.0156 594.616 94.5586 595.651 93.9069C596.626 93.2929 595.221 92.1889 593.369 91.7446C594.507 92.4906 592.556 92.8474 592.165 93.448C591.356 93.1325 591.228 92.6968 590.387 92.3966C589.422 92.051 588.197 92.0808 587.241 91.7638C586.959 91.933 586.962 92.1221 587.238 92.3269C585.439 92.0996 576.553 94.8662 575.372 95.1894C574.67 95.3817 571.681 96.4477 573.535 96.6386C574.102 96.6975 576.843 95.8624 576.9 95.8839C577.74 96.1963 576.124 97.0645 575.441 97.1479C574.379 97.2748 573.787 96.971 572.827 97.0019C571.698 97.0383 571.439 97.3263 570.376 97.3937C570.355 97.2418 570.725 96.498 569.727 96.4685C568.908 96.4445 556.39 99.557 557.115 97.5788C559.566 98.086 558.783 97.4803 560.258 96.8943C561.706 96.3204 565.24 96.3174 565.161 95.3289C566.768 95.6494 567.625 95.1199 567.152 94.4764C566.866 94.7065 566.445 94.7558 565.882 94.629C564.9 93.9132 578.024 91.5373 579.208 90.492C580.094 91.5159 582.578 90.2694 583.467 90.1164C584.704 89.9056 585.496 90.0799 586.804 89.9842C588.341 89.8713 588.791 89.3465 590.347 89.2595C590.905 89.2285 591.382 89.5155 592.435 89.4422C593.429 89.3735 594.993 88.8638 594.487 88.4698C593.638 87.814 588.653 88.1318 588.611 88.7306C588.655 88.1879 587.629 88.55 586.815 88.3181C586.813 87.8947 589.625 87.6331 588.043 87.2479C588.423 87.3391 586.267 87.3055 586.128 87.3186C585.931 87.3363 585.4 87.21 585.256 87.2366C584.993 87.2847 584.855 87.5916 584.663 87.6115C583.288 87.7532 582.249 87.5668 581.278 87.9851C580.738 88.2167 580.927 88.6078 580.523 88.8681C579.421 89.5676 563.071 92.4647 561.464 92.9715C559.96 93.4452 558.851 93.5636 557.246 92.8357C555.846 92.1991 556.693 91.6688 553.773 91.6501C552.462 91.6424 550.248 92.2029 551.35 91.2708C551.491 91.1512 553.32 91.1007 553.795 91.036C555.649 90.7808 557.774 90.3505 558.799 89.7697C560.011 89.0779 558.863 88.8472 558.383 88.1473C558.014 87.6037 559.476 87.4961 559.138 87.0352C559.085 86.9598 557.861 86.8426 557.723 86.6931C557.62 86.5827 558.292 86.2729 558.282 86.2704C556.686 85.6358 552.439 86.2117 551.015 86.4514C549.918 86.6353 549.165 87.0304 548.09 87.1931C546.903 87.3742 545.337 87.151 544.247 87.3809C543.321 86.4644 544.747 85.5986 543.694 84.6854C546.101 84.775 552.961 83.6683 552.557 82.7165C554.595 83.6776 551.137 83.4201 551.646 84.1588C552.165 84.9122 555.048 84.2375 555.21 83.822C555.286 84.2454 554.856 84.6421 554.038 84.9102C555.063 84.9312 558.651 83.7076 557.414 83.5511C556.872 83.5745 556.479 83.6729 556.245 83.8437C556.579 83.4508 552.447 82.5409 556.335 83.0139C559.304 83.3755 558.459 84.6474 561.353 84.4143C562.343 84.3348 563.063 83.9409 563.963 83.7887C564.884 83.631 566.005 83.5694 567.001 83.4659C568.387 83.3215 572.755 83.055 572.133 82.2681C576.559 82.7525 573.601 78.6015 570.775 78.3742C566.756 78.0494 570.765 79.3495 570.739 79.575C570.639 80.4023 564.63 79.9296 564.816 80.8224C564.483 79.9054 559.908 82.3001 558.962 82.0642C558.468 81.9422 561.286 80.6141 559.417 80.709C559.372 80.2074 562.284 79.8041 563.247 79.5741C565.13 79.1234 567.696 78.6696 568.706 77.9339C567.496 77.9105 566.182 78.0897 564.949 77.9336C564.398 77.8636 563.485 77.5321 563.106 77.5056C561.258 77.3764 561.181 77.9499 560.026 78.2014C558.629 78.5061 557.36 78.2599 555.721 78.3185C553.95 78.3818 554.693 78.5002 553.726 78.8524C552.342 79.3555 551.279 79.2724 549.343 79.4904C549.365 78.4967 548.954 77.492 548.712 76.4886C548.552 75.8197 548.879 74.9365 547.702 74.2841C547.692 74.8081 545.924 74.4396 545.27 74.6387C544.075 75.0047 545.39 75.1106 545.104 75.5681C543.477 75.3896 541.128 74.9246 539.681 75.2659C540.185 74.7887 538.657 74.1815 539.707 73.7652C538.574 73.9256 537.179 74.2059 536.602 74.5818C536.07 74.9311 536.509 75.4638 535.836 75.7753C534.901 76.2084 517.213 79.1641 513.935 79.283C511.999 78.1419 528.306 75.7228 530.443 75.0466C531.817 74.611 532.602 73.2981 534.703 73.2177C534.89 73.8009 536.165 73.717 536.91 73.4315C537.655 73.146 536.92 72.6888 537.181 72.3572C537.749 71.6431 540.255 71.7449 540.154 70.8563C541.662 71.002 540.094 71.7861 539.874 71.9736C542.485 71.6385 542.986 70.5244 544.271 69.7834C545.732 68.9445 547.838 68.2575 547.946 67.1649C547.89 67.733 548.688 68.2785 548.49 68.8471C548.31 69.3697 547.226 69.7434 547.466 70.3217C549.059 69.7859 549.185 68.9639 550.017 68.2717C550.753 67.6585 551.793 67.4654 553.077 67.0357C553.981 66.7334 554.44 65.9994 555.479 65.8132C557.135 65.5145 558.845 66.0345 558.654 66.6404C560.575 66.6435 561.926 66.2325 562.16 65.6087C563.656 67.0654 564.249 66.1501 566.315 65.7453C567.226 65.5677 568.18 65.4787 569.047 65.3277C571.142 64.9634 571.196 64.9393 573.601 65.4993C574.509 65.0065 576.653 62.7882 579.502 64.0439C580.19 63.6617 580.711 63.0912 581.706 62.7952C581.733 62.7883 583.517 62.3202 583.427 62.473C583.81 61.8282 583.132 61.9137 581.621 61.8885C580.907 61.8771 580.144 62.0546 579.418 62.0703C578.554 62.0886 577.746 61.9866 576.921 62.0671C575.461 62.2116 571.583 63.1158 571.542 63.6972C571.48 62.6993 579.945 59.5937 583.57 60.1253C581.321 59.2125 587.923 55.674 581.178 56.1993C578.619 56.3981 577.095 57.2308 574.883 57.6114C570.749 58.3227 565.664 57.488 561.06 57.5892C561.097 57.5883 559.772 57.6234 559.682 57.6223C559.521 57.7283 559.272 57.8036 558.931 57.8461C558.673 57.7442 558.416 57.644 558.158 57.542C558.359 57.5403 556.897 57.4975 557.013 57.5022C556.348 57.4749 556.256 57.7413 555.16 57.5999C556.714 56.3356 561.116 56.1065 562.241 54.7684C563.268 53.5477 563.855 52.1894 558.598 52.8363C553.721 53.438 549.524 54.8062 545.656 55.8772C543.617 56.4412 541.649 57.0347 539.502 57.5545C537.473 58.0458 534.87 58.4234 533.501 59.1568C533.232 58.3124 532.69 59.1053 531.527 58.7861C534.372 58.3467 536.099 57.4162 539.001 57.0035C536.033 56.3867 535.279 57.1875 533.481 57.4798C532.801 57.5914 534.05 58.0338 532.238 57.7007C531.308 57.5307 531.069 57.1572 531.421 56.9002C531.365 56.94 533.605 56.4565 533.772 56.4087C534.188 56.2892 534.525 56.1588 534.946 56.0431C536.063 55.7381 537.47 55.5164 538.709 55.2655C542.031 54.5953 545.395 53.9402 548.624 53.225C549.624 53.0028 553.908 52.3474 550.978 52.1023C547.596 51.8203 544.153 53.5333 541.201 53.7658C539.828 53.8745 537.084 53.394 535.521 53.8794C536.992 53.4243 536.831 52.7712 537.786 52.21C538.21 51.9616 540.945 51.2153 539.843 50.8567C537.926 50.8083 537.206 51.5643 535.214 51.453C536.719 50.9636 538.576 50.5862 539.968 50.0591C541.348 49.5364 541.361 49.2784 543.36 49.1349C543.919 49.0952 544.69 49.3381 545.352 49.248C546.127 49.1412 546.457 48.8127 546.895 48.5985C547.103 48.4994 548.859 47.3033 549.48 47.728C550.883 46.4286 556.98 46.6311 557.999 45.2157C558.374 44.691 557.855 43.7241 555.933 43.4341C553.64 43.0866 552.227 44.0022 551.108 44.4172C548.495 45.3837 544.947 46.0416 541.42 46.617C540.499 46.7678 534.811 47.5418 535.985 48.1539C533.457 47.6833 532.567 47.5406 533.925 46.7366C534.471 46.4144 535.193 46.3058 535.454 45.906C535.738 45.4798 534.871 45.1586 536.115 44.8538C536.239 44.8222 536.828 45.2482 537.073 45.2286C537.615 45.1861 537.972 45.0833 538.453 45.012C540.062 44.7782 542.035 44.0224 542.603 43.4692C543.898 42.2077 539.643 42.0693 539.612 43.1866C539.132 42.2592 535.627 43.2822 536.563 43.7342C533.957 43.7007 533.724 42.6454 534.528 42.1192C535.764 41.3171 539.211 41.357 540.118 40.4182C540.367 40.5633 540.726 40.6583 541.188 40.7012C541.204 40.7005 541.786 39.7932 541.835 39.6952C542.694 40.2835 544.35 39.6786 543.991 39.281C543.421 39.1852 543.192 39.505 542.602 39.4812C541.858 39.4519 541.042 39.0836 540.575 38.9547C540.082 38.8188 539.99 38.6234 539.418 38.4785C538.867 38.3385 537.413 38.2386 536.798 38.1834C535.005 38.023 532.37 37.8055 530.881 38.1386C529.634 38.417 530.014 38.8056 528.558 38.898C528.043 38.9301 527.103 38.6738 526.359 38.7214C525.551 38.7717 525.118 39.0649 524.365 39.1627C522.763 39.3725 520.762 39.3183 519.106 39.5453C518.299 39.6551 512.886 40.4169 515.566 40.9034C515.131 40.9989 513.812 41.3195 513.381 40.9011C513.09 41.1256 511.771 41.0719 511.557 41.265C511.128 41.646 512.171 41.5563 512.042 41.8254C511.726 42.4767 510.21 42.4494 508.752 42.8686C507.213 43.3102 507.124 44.1278 505.441 44.5121C503.866 44.8725 501.387 44.6134 500.198 45.1845C500.511 45.0262 500.682 44.8493 500.707 44.6498C497.926 44.6128 498 46.054 496.489 46.5535C494.88 47.0847 491.837 47.1779 492.488 48.2379C491.329 47.7808 490.009 48.2027 490.045 48.597C489.98 47.8649 488.041 48.9537 487.723 48.9612C485.993 48.3522 482.112 48.6247 480.399 48.9825C478.036 49.4767 476.109 51.2414 472.998 51.2442C471.225 51.2462 471.779 50.8966 470.654 50.8669C469.846 50.8454 434.065 58.0174 431.122 58.1772C428.079 58.344 424.275 58.9525 420.995 58.5588C421.558 58.2256 421.836 57.813 421.775 57.3977C423.705 57.9402 423.48 57.3718 424.371 57.051C425.5 56.6419 431.884 55.9165 433.872 55.7809C434.834 55.7152 438.031 55.5435 438.159 55.0785C438.465 53.9507 423.261 56.0411 420.13 55.1278C423.372 55.435 426.256 54.3738 429.261 54.2323C429.93 54.2004 436.344 53.9528 433.521 53.4598C434.577 53.6438 436.856 53.5811 437.485 53.291C437.6 53.2361 436.734 52.0019 436.607 51.9318C435.131 51.0853 433.224 51.4328 431.732 51.8078C431.085 51.9707 430.604 52.2746 429.814 52.3768C428.612 52.5341 427.851 52.3025 427.012 52.3348C424.79 52.419 426.217 53.1187 424.46 53.3509C420.604 53.8597 420.914 49.9686 421.032 49.4854C421.254 48.574 421.277 47.6502 421.715 46.7609C422.079 46.015 423.18 45.0163 421.314 44.2456C419.21 45.0483 417.615 45.0785 415.078 44.058C413.648 43.484 414.09 43.2823 413.613 42.7714C413.298 42.4328 415.065 42.5774 412.971 42.1913C410.599 41.7543 408.4 42.7182 406.7 42.8145C404.463 42.9432 402.133 42.5231 399.812 42.8837C401.443 43.3931 398.473 43.5632 397.867 43.7639C397.179 43.9922 397.366 44.4198 396.647 44.6284C396.237 44.7467 394.705 44.7095 394.123 44.7825C391.812 45.0756 387.165 46.1622 387.626 47.2002C387.251 46.3606 382.944 47.8033 382.373 47.9557C379.219 48.7968 375.936 47.7015 379.528 46.8018C378.661 46.4036 377.452 46.1407 378.834 45.8315C379.763 45.6236 380.918 46.1329 381.757 45.8645C382.477 45.635 381.33 45.5408 381.506 45.2138C381.756 44.745 383.006 44.2727 384.046 44.0044C382.744 44.1617 381.848 43.6496 380.589 43.579C382.325 42.1997 387.375 42.0176 391.337 41.6545C393.126 41.491 395.506 41.3531 396.827 40.9312C398.623 40.3572 401.152 35.3638 404.034 35.093C406.723 34.8421 412.003 33.8627 406.687 33.0065C404.772 32.6977 404.098 32.731 402.758 32.9854C400.833 33.3493 400.58 33.7881 399.331 32.7265C398.158 31.7297 397.384 30.92 395.794 29.9728C394.732 29.3388 395.154 28.8401 394.388 28.2059C392.578 26.7062 385.759 26.616 383.517 27.4282C382.828 27.6791 382.819 27.8779 381.793 28.0247C381.242 28.1034 380.466 27.932 379.799 28.0934C378.959 28.2953 379.18 29.2273 377.896 29.2057C376.691 29.1861 376.989 28.782 376.421 28.5831C375.372 28.2159 374.91 28.0961 373.397 28.0935C370.297 28.0884 323.229 35.9527 322.974 37.1906C321.572 36.428 302.967 39.5644 304.891 40.5017C302.635 40.685 300.712 39.6498 298.467 39.75C297.066 39.8129 297.28 40.1567 296.551 40.445C295.55 40.8403 288.926 41.2079 287.804 41.0665C285.255 40.7483 287.674 40.1969 286.031 39.5572C284.859 39.6747 284.449 39.5586 284.807 39.2093C282.434 38.8754 279.883 39.9441 278.216 40.2439C275.741 40.6899 273.292 40.5309 276.464 39.726C271.591 39.8033 271.014 41.7027 267.261 42.4057C267.595 41.3394 264.14 42.0178 262.984 42.2029C261.909 42.376 259.823 42.5381 259.693 43.0379C259.606 43.3834 261.021 43.722 260.772 43.9616C260.482 44.237 259.029 44.2193 258.456 44.09C257.82 43.9477 258.734 43.7457 258.314 43.6201C257.511 43.3768 256.767 43.351 255.875 43.3849C254.189 43.4488 252.368 44.0579 251 44.3348C248.987 44.7432 246.954 45.1415 245.034 45.5914C247.551 45.0014 244.874 45.1483 244.414 44.6945C243.77 44.0584 258.859 42.4881 259.851 41.8421C260.377 41.5011 262.133 40.9924 262.079 40.5514C262.741 40.9108 264.647 40.5911 265.374 40.6384C265.579 40.6528 265.568 40.9633 266.249 40.9917C266.761 41.0135 268.009 40.9381 268.297 40.8323C269.312 40.466 267.931 40.0844 267.801 39.6013C267.709 39.2538 269.06 38.6976 268.753 38.475C268.036 38.4301 266.58 38.8268 267.199 38.3033C267.474 38.0742 268.927 37.9467 269.537 37.8581C272.263 37.4628 275.325 37.2589 278.232 36.9952C280.585 36.7837 283.045 36.4904 284.781 35.9472C288.422 34.8077 282.461 34.7723 282.454 34.8767C282.64 33.9557 286.513 33.9519 288.451 33.7009C291.201 33.3457 292.254 32.2125 287.988 32.6855C284.858 33.0316 282.484 33.9098 279.681 34.4344C278.716 34.6153 277.101 35.0079 275.852 34.9397C275.457 34.9174 273.588 34.3967 273.423 34.567C273.36 34.6291 274.023 34.9185 273.787 34.9546C272.546 35.1476 270.37 33.5122 269.651 33.2748C267.039 32.4118 264.813 33.0782 262.77 33.5457C261.651 33.8016 257.333 34.6522 257.462 33.7798C257.503 33.5062 259.853 33.41 259.628 33.0007C259.257 32.3276 257.742 32.8041 256.612 32.7041C257.588 31.5322 249.446 32.6595 247.977 31.7959C246.3 30.8076 252.945 30.3558 254.557 30.0889C256.05 29.8401 258.845 28.9878 255.121 28.8288C252.499 28.7155 249.433 29.6642 247.606 30.0612C246.15 30.3774 244.404 30.7573 242.532 30.817C238.895 30.9317 241.779 30.5422 241.476 29.9648C237.893 29.4414 233.991 30.692 231.966 31.348C230.359 31.8705 229.837 31.9862 227.71 32.1366C225.381 32.3008 224.482 32.8308 222.552 33.1909C220.981 33.4851 214.464 33.0958 213.895 33.8099C213.739 34.0088 214.084 34.3705 214.855 34.4647C215.789 34.5789 215.743 34.1682 216.385 34.1501C218.945 34.0773 217.474 34.0776 218.637 34.8516C220.189 34.145 222.251 34.3224 224.757 34.879C227.872 35.5708 226.29 35.796 223.945 36.0396C224.361 35.9969 220.738 36.1389 220.901 36.2185C221.05 36.2149 221.149 36.2341 221.188 36.2753C220.878 36.3271 220.266 36.3683 219.886 36.3574C220.14 36.3647 219.721 35.8439 219.412 35.8013C217.766 37.1729 226.627 37.1891 228.459 36.9429C229.591 36.7895 238.501 35.0443 237.814 36.1733C237.707 36.3477 228.825 38.5916 234.861 37.7736C236.992 37.4836 238.24 37.0427 240.607 36.8653C241.559 36.7937 242.962 36.7799 243.757 36.6151C244.487 36.4633 243.651 36.4591 244.68 36.2022C246.3 36.8612 238.45 37.6782 237.61 37.8119C236.036 38.0639 234.736 38.6534 233.028 38.7841C230.124 39.0043 230.162 38.1656 231.72 37.6729C227.587 37.69 228.85 39.1374 226.881 40.0648C225.426 40.7484 223.392 41.3006 221.554 41.8647C220.505 42.1866 213.006 44.9417 211.735 44.7217C213.325 44.999 216.69 44.0082 218.43 44.0128C218.395 44.2114 221.066 45.1433 219.898 45.268C219.418 45.3202 219.136 44.8999 218.457 44.9958C217.992 45.0613 217.844 45.2888 217.405 45.3595C217.572 45.6179 217.292 45.7592 216.566 45.7801C215.979 45.7076 215.398 45.688 214.835 45.7185C213.407 45.8566 207.418 47.1483 211.425 47.495C210.882 48.5992 180.551 52.7504 176.103 53.2562C175.383 53.337 168.516 53.929 168.296 53.8192C167.115 53.2294 178.848 52.0524 179.893 51.7092C180.521 51.503 181.14 51.3521 180.328 51.0942C179.914 50.9638 178.832 51.0666 178.434 51.0142C178.203 50.9841 176.818 50.6634 176.939 50.6718C173.986 50.4653 171.03 51.2626 169.452 52.0495C166.05 50.3004 161.043 53.5779 157.93 53.3095C157.992 52.95 157.578 52.8231 156.9 53.0573C157.402 52.7705 161.739 52.0279 161.309 51.676C160.728 51.1981 158.529 51.8489 158.196 51.8501C156.793 51.857 156.324 51.6125 155.014 51.5751C152.754 51.5116 151.514 52.6806 148.975 52.1445C150.01 51.7884 150.738 51.2866 151.98 51.0009C151.76 51.052 153.437 51.2742 153.635 51.2496C154.516 51.1345 153.346 50.9145 153.747 50.7047C155.964 51.1571 156.21 50.284 157.54 50.0342C157.69 50.0062 159.647 50.248 160.282 50.1595C161.324 50.0137 162.294 49.4606 162.322 49.0638C163.886 49.1627 163.221 49.3785 164.717 49.1648C165.449 49.0603 166.116 48.3758 167.249 48.5232C169.561 48.8231 165.086 49.7922 164.705 50.0122C166.556 50.7153 174.007 49.559 175.534 49.2041C177.519 48.7412 178.661 48.0759 178.648 47.19C178.641 46.621 178.097 45.6106 176.114 46.2834C175.16 46.0016 176.492 45.9513 175.989 45.7955C175.249 45.5653 172.997 46.2194 172.312 46.2519C172.397 46.1757 172.397 46.0935 172.319 46.0075C171.747 45.7839 170.596 46.954 171.118 47.2144C169.298 46.3035 165.397 47.3793 164.047 47.7012C163.304 47.8784 159.502 48.9086 160.349 47.8431C159.297 48.2121 157.746 49.3594 156.09 49.4273C154.164 49.5078 154.938 48.885 153.253 49.4528C151.822 49.9334 151.299 50.3848 149.357 50.7615C147.131 51.1936 144.757 51.5505 142.439 51.9324C140.384 52.2714 125.563 55.3926 126.674 52.3605C127.291 52.6905 127.923 53.2698 129.212 53.367C128.478 53.125 128.109 52.8036 128.22 52.5C129.569 53.0316 130.47 52.1029 131.24 51.7597C132.374 52.4914 133.763 51.0948 135.619 51.5552C135.896 51.3104 147.019 50.2203 148.47 49.1411C148.923 48.8037 148.496 48.02 150.066 47.9636C150.846 47.9359 151.137 48.3096 151.993 48.3957C153.995 47.3061 156.906 46.6981 160.491 46.2701C161.638 46.1335 166.722 45.6861 165.043 44.9513C163.483 44.2685 159.519 45.4203 158.405 45.68C157.781 45.8236 157.679 46.0822 156.748 46.0731C156.251 46.0681 155.882 45.7502 155.506 45.7536C153.341 45.7719 152.974 46.25 151.206 46.5636C152.845 46.2742 157.06 44.1937 154.801 43.4305C153.229 42.8991 149.153 44.5958 147.892 44.7804C146.828 44.9352 145.486 44.9043 144.504 45.112C143.752 45.271 143.414 45.6322 142.701 45.7643C140.927 46.095 141.088 45.459 139.3 45.5999C138.609 45.6547 135.76 46.5224 134.721 46.6177C132.772 46.7963 132.496 46.2837 130.147 45.7469C128.786 46.3024 127.687 46.7293 129.964 47.4639C128.446 47.4558 129.468 47.9015 128.789 48.1496C128.088 48.405 127.143 48.5313 126.469 48.7972C125.788 49.0645 124.461 49.6608 124.257 49.9999C123.148 51.8655 126.721 49.5687 127.997 50.09C128.923 50.4695 126.162 51.2857 125.235 51.3031C122.454 51.3569 123.492 50.5743 121.472 50.1916C121.716 49.8011 123.674 50.1007 123.859 49.6432C124.199 48.7976 120.567 48.6731 121.885 47.6091C122.878 46.804 125.283 46.528 126.824 45.9064C128.664 45.164 127.659 44.4081 124.967 44.9177C123.841 45.1311 123.932 45.3438 122.348 45.4552C121.157 45.5398 120.428 45.5238 119.376 45.7371C118.281 45.9579 117.609 46.2677 116.349 46.4297C115.035 46.5984 114.048 46.5749 113.241 46.9907C112.626 47.3063 112.967 47.8024 112.07 48.0667C111.303 48.2929 110.071 48.2068 109.198 48.3539C108.133 48.5347 106.092 49.424 107.863 49.8994C109.483 50.3363 111.312 49.0702 112.022 49.8946C112.942 50.9664 108.202 50.3481 106.828 50.322C104.091 50.2688 104.38 50.8208 102.646 51.2627C100.744 51.7454 98.6748 51.9854 96.9135 52.5829C92.9841 53.9208 88.2568 54.0327 83.0693 54.6739C77.4868 55.3628 74.347 57.2123 69.8107 58.3766C68.9756 58.5911 64.3613 59.8111 63.1212 58.932C62.5516 58.5284 65.633 57.8169 65.835 57.4252C66.4341 56.2725 63.126 57.199 61.5197 57.9245C61.4781 57.9146 61.4362 57.9082 61.3891 57.9014C61.3477 57.888 61.3378 57.8786 61.2858 57.8644C60.5587 57.6702 58.6016 57.9653 58.5153 58.2164C58.5156 58.2112 59.5309 58.4466 59.5769 58.546C58.8121 58.8896 56.402 58.6266 55.8139 58.9405C56.6372 59.2727 57.3384 58.7795 58.1695 59.0755C58.0247 59.4065 56.5307 59.2075 56.0599 59.4335C55.4136 59.7469 52.2391 61.8651 53.5274 63.19C54.5048 64.1941 54.9807 64.4251 53.3009 65.2189C52.4416 65.6275 51.4402 66.1015 50.0801 66.3335C48.8537 66.545 47.7125 66.3708 46.8833 66.8043C45.4501 67.5524 47.3526 68.5669 45.1759 69.2036C44.6627 69.3548 40.7379 69.794 42.5055 70.2412C44.0756 70.6378 44.5938 69.5826 45.6141 69.5193C47.8196 69.3797 47.8018 70.5416 49.8718 70.751C48.7046 71.4023 51.8873 71.7385 53.3328 71.7994C54.198 71.8354 55.3731 71.6762 56.2094 71.8221C57.2915 72.0097 57.4438 72.4804 58.5363 72.6705C58.2524 72.2658 59.0565 71.5105 59.9208 71.333C59.6147 71.3973 62.1306 71.3581 61.6279 71.2828C64.309 71.6819 59.9756 72.0627 62.98 72.2256C65.1833 72.3429 68.5194 71.1682 70.1657 72.5182C68.6303 72.3059 66.2028 72.7448 67.2715 73.3512C68.0807 73.8101 70.7608 73.7684 71.8447 73.7777C73.6795 73.7941 75.2273 73.6784 76.919 73.5466C77.7702 73.4802 78.2311 73.3953 79.1669 73.4047C79.9653 73.4133 79.947 73.7496 81.0036 73.5454C81.4152 75.4527 71.416 73.704 71.0508 75.1442C70.6695 76.662 81.1132 75.08 80.6948 74.7831C82.2019 75.854 81.7575 74.2645 83.1974 73.9507C82.8516 74.3568 83.9611 74.6827 84.8746 74.9355C83.8321 74.4078 84.3903 73.6895 86.3055 73.7657C86.5114 73.7731 87.7299 74.1277 87.8707 74.1568C88.9719 74.3737 90.2009 74.353 91.3242 74.5557C90.4257 75.0718 88.6095 75.1687 87.1304 75.4378C85.8282 75.6738 85.9764 75.8241 85.3288 76.1566C83.5565 77.0629 80.6079 77.6158 77.9491 78.2607C74.8434 79.016 71.2652 79.4934 68.0475 80.1867C65.0124 80.8402 62.8198 81.8553 60.2331 82.6801C54.1616 84.6133 47.4351 86.303 41.1728 88.1652C38.1578 89.0615 35.2524 89.9795 31.9953 90.7819C30.8594 91.0611 29.3699 91.3277 28.7405 91.7787C28.2558 92.1278 28.7758 92.939 27.6295 93.1387C25.2888 91.9588 22.1853 94.5001 21.2267 94.8161C19.9432 95.2388 10.2798 96.2545 14.846 97.3119C14.2004 97.1618 17.1521 97.3979 16.5015 97.3944C17.5383 97.3987 16.9128 97.6418 17.7495 97.4799C18.5111 97.332 17.4149 96.9685 17.7905 96.7429C17.8845 96.6848 18.7648 97.0332 18.8973 97.0302C18.7583 96.1425 21.0821 96.5061 22.2517 96.0474C21.9228 95.832 21.6419 95.613 21.4035 95.3899C22.0813 95.2309 22.8552 95.1346 23.7305 95.1014C25.0713 94.6162 24.0929 93.626 27.228 93.6599C29.5754 93.6858 29.7038 94.4976 31.8571 94.7252C29.2338 94.7866 28.4015 95.7936 27.0024 96.3569C25.1132 97.1186 22.5495 97.6896 20.1449 98.2561C17.7295 98.8253 15.2576 99.3696 13.1202 100.049C12.0162 100.402 10.6446 100.798 10.0962 101.302C9.55913 101.794 10.1531 102.455 8.95214 102.833C18.6403 103.807 22.2 100.116 29.0893 99.1229C30.2705 98.9537 31.3605 99.1033 32.4113 98.8305C33.3922 98.5738 33.4518 98.0235 34.5225 97.7695C35.9483 97.4302 38.089 97.5362 39.5769 97.2169C41.2313 96.8621 41.8473 96.1479 43.667 95.8501C44.2418 97.0132 42.1662 99.0789 45.7068 100.047C42.3891 100.431 44.3909 101.69 44.9936 102.605C45.735 103.731 43.1845 103.887 43.0259 104.867C44.7568 104.554 58.0433 101.511 59.3189 102.185C57.3999 102.616 53.6822 102.97 53.2906 103.878C54.9331 103.996 62.9951 103.182 62.1433 104.922C61.903 105.407 59.0891 105.623 58.0113 105.828C56.1989 106.171 54.5878 106.589 53.0838 107.062C51.7421 107.485 49.6309 108.017 49.4915 108.725C49.3866 109.24 51.3956 110.019 49.815 110.378C49.1324 110.531 47.1758 110.289 45.9628 110.384C43.7229 110.562 42.1981 111.106 40.0855 111.355C42.9486 111.421 44.304 111.937 47.0142 111.465C48.3959 111.226 49.5914 110.852 50.8297 110.546C51.7824 110.314 53.3913 109.778 54.6904 109.737C57.2513 109.659 54.6477 109.818 55.7639 110.199C58.0069 110.203 63.5887 109.599 63.4277 108.798C63.349 108.412 61.347 108.364 63.0778 108.204C63.0512 108.205 64.7095 108.477 65.1396 108.455C65.814 108.42 66.3407 108.075 66.8414 107.951C68.3166 107.587 70.0867 107.393 71.6696 107.077C72.775 106.856 74.0965 106.269 75.393 106.19C76.6576 106.112 78.9489 106.485 78.0504 107.077C77.0579 107.726 76.8465 106.891 75.7979 106.755C74.5827 107.714 77.7777 108.632 75.1487 109.531C73.49 110.099 69.9938 110.235 71.9797 111.193C73.3463 111.852 76.4463 112.161 74.9255 112.95C72.7846 114.058 71.9514 112.581 70.5161 112.149C70.2765 112.548 69.2642 112.649 68.1851 112.342C67.1769 112.686 68.5687 113.288 67.5024 113.631C67.1879 113.06 66.2292 112.09 64.5036 112.708C63.5429 113.053 64.5967 114.099 65.1316 114.546C65.3941 114.122 66.2983 113.827 67.7618 114.083C67.0469 114.698 65.1424 114.921 64.2264 115.461C63.0455 116.156 64.0529 116.505 65.1915 117.246C66.5833 118.149 64.9739 118.087 64.7918 118.876C64.6028 119.686 66.023 119.352 65.4363 119.192C66.8526 119.216 68.1971 119.889 69.3206 120.165C69.8821 119.853 69.9886 119.313 69.1788 118.939C71.2855 119.909 74.189 118.791 76.0755 118.371C77.1988 118.12 78.2475 117.727 79.7776 117.711C80.2594 117.706 83.151 117.895 82.4971 118.241C84.5556 118.388 84.7118 117.138 87.466 117.852C89.3628 118.343 88.3389 118.913 87.0301 119.243C86.0015 119.502 74.7784 120.199 75.9011 121.092C75.2695 120.591 73.5701 122.043 73.5031 122.245C73.4084 122.539 73.4065 123.02 74.053 123.308C75.2844 123.858 75.4295 123.599 76.5944 123.358C77.5017 123.172 78.5203 123.056 79.4586 122.878C80.8525 122.617 80.5186 122.172 81.5524 121.839C83.3168 121.273 87.1132 121.687 88.3339 120.875C89.3825 121.466 89.0057 122.089 88.7548 122.65C90.7061 122.362 92.0919 121.99 94.5345 122.318C96.0493 122.522 98.59 123.188 98.4897 123.789C99.4318 123.558 98.9488 123.201 100.118 122.981C100.991 122.817 101.714 122.997 102.145 122.667C102.385 122.481 101.8 121.992 102.003 121.892C102.606 121.594 104.439 121.716 105.227 122.099C106.302 122.616 105.267 122.512 104.952 122.851C104.552 123.279 104.048 123.905 103.364 124.293C101.778 125.193 97.9793 125.186 96.1704 126.011C94.8369 126.619 94.4201 127.283 92.337 126.429C91.4268 126.054 91.529 125.652 89.9469 125.578C89.0451 125.536 87.6469 125.858 87.3177 126.102C86.7927 126.498 87.3078 127.151 86.9417 127.62C86.511 128.18 85.9062 128.582 86.3533 129.225C86.9355 130.055 89.0664 130.98 85.2731 130.977C85.3147 130.382 85.4574 129.4 83.1968 129.798C80.6578 130.244 83.5227 131.418 82.7537 132.125C84.9162 132.222 85.2353 131.442 87.092 132.355C88.8771 133.234 86.9987 133.69 85.345 134.11C80.2335 135.403 75.2248 136.741 70.3652 138.14C65.7054 139.481 27.9194 150.885 20.2622 153.78C19.2678 154.155 9.98703 158.097 9.82515 158.066C9.3382 158.069 9.032 158.135 8.88071 158.256C8.77881 157.897 6.20515 158.611 5.78854 158.743C4.44138 159.168 1.82146 159.938 2.26122 160.686C4.08042 160.622 5.30108 160.72 6.8121 160.373C8.56517 159.969 9.89337 159.285 11.228 158.736C12.2957 158.297 13.7269 157.881 14.6938 157.447C14.8631 157.371 15.5569 157.587 15.6929 157.459C15.9251 157.241 15.2727 157.036 15.2564 156.816C16.3825 156.903 16.8423 156.532 18.01 156.706C18.6645 156.804 19.7603 157.477 20.0218 157.672C21.4999 158.78 18.2147 159.832 21.1097 160.879C23.4886 161.74 26.0333 160.986 28.4386 160.863C30.3289 160.766 30.5005 160.583 31.8921 160.279C33.0741 160.021 33.6915 160.272 34.7081 160.109C34.8841 160.09 34.7828 158.89 36.294 159.751C37.159 160.244 34.918 160.967 34.5952 161.346C37.916 160.994 39.5642 159.821 42.1561 159.148C42.8077 160.271 39.3803 160.633 37.362 161.124C34.6601 161.779 31.5405 162.508 29.51 163.397C28.604 163.794 26.2193 165.362 29.9093 165.481C31.963 165.545 32.7218 164 34.8131 164.207C36.3473 164.36 34.8061 164.989 35.0648 165.374C35.8118 166.495 38.1233 165.822 39.435 165.451C41.9667 164.732 46.7565 162.44 50.9859 162.94C49.3514 163.464 48.7736 164.54 48.8276 165.357C48.8398 165.561 49.5415 166.799 49.8872 166.85C53.0719 167.308 45.502 168.803 44.8065 169.216C45.3171 169.178 46.4192 168.701 47.0724 168.893C48.3475 169.271 38.463 171.331 42.7344 171.836C44.4661 172.041 46.4826 170.972 47.3627 170.643C48.0528 170.384 49.1487 169.768 50.6191 170.077C52.3346 170.438 49.9761 170.648 50.832 171.119C53.6817 170.468 56.8551 169.953 59.3709 169.16C59.2953 170.241 60.3594 170.61 57.4025 171.206C56.2541 171.437 50.4473 172.005 51.423 172.806C52.4286 173.634 55.5757 172.512 56.3223 172.277C58.2267 171.676 60.5725 171.572 62.7322 171.104C65.3215 170.545 67.1272 169.767 69.0542 168.994C69.7129 168.729 71.9344 168.285 73.34 168.386C78.0832 168.727 69.2783 170.102 68.9915 170.799C72.3421 171.005 72.2243 169.512 74.7905 169.282C75.9725 169.176 77.9097 169.316 77.9451 169.87C77.9791 170.367 76.0548 170.194 75.2643 170.375C72.4792 171.011 77.0672 170.545 78.0975 170.339C79.278 170.103 82.9404 168.876 83.8448 170.016C84.501 170.846 81.5918 170.457 80.809 170.605C79.9511 170.767 79.4554 171.198 78.9074 171.467C77.9538 171.94 75.0962 172.931 75.5712 173.629C76.6365 175.192 84.304 171.999 86.0844 171.961C88.0954 172.937 84.1494 173.831 82.5324 174.257C81.5244 174.522 80.1271 174.757 79.3927 175.12C78.061 175.779 78.6078 176.585 76.8929 177.2C75.9704 177.529 71.0856 178.456 72.2209 179.093C73.8604 180.01 77.839 178.121 78.2123 177.702C79.948 178.907 78.5979 179.45 77.8062 180.482C80.0674 180.303 82.23 179.868 83.6928 179.302C84.7261 178.9 84.8894 178.382 85.7599 177.963C87.2433 177.254 91.8245 176.432 91.4271 175.381C91.8424 176.479 95.5532 175.544 95.9726 175.069C96.6096 174.358 93.6627 173.146 97.5892 173.288C95.27 173.995 97.416 175.462 97.8455 176.432C98.421 177.736 97.2281 178.905 94.3127 179.588C97.2337 179.43 95.5895 180.851 98.2253 180.988C96.6019 181.354 98.0471 181.871 97.9667 182.417C97.8877 182.941 96.5456 183.068 96.2651 183.522C95.8956 184.115 97.8753 185.539 99.7759 185.826C101.326 186.06 102.569 185.609 104.214 185.986C104.751 186.109 104.165 186.39 105.4 186.582C108.033 186.991 110.368 185.377 110.858 184.798C111.972 183.473 113.508 184.049 117.306 184.063C121.681 184.078 121.469 183.012 123.968 182.236C126.277 181.519 130.007 181.448 132.533 180.818C133.863 180.486 133.792 180.217 134.312 179.809C134.933 179.324 135.301 179.283 136.82 178.975C137.168 179.828 139.046 179.076 139.522 178.772C139.727 178.64 139.833 178.19 140.085 178.136C140.88 177.972 142.357 178.336 143.273 178.324C142.854 178.269 142.632 178.187 142.613 178.077C144.666 178.075 147.189 176.949 146.335 176.223C148.042 177.386 149.819 177.094 150.493 176.153C152.436 176.903 153.027 175.942 153.822 175.615C153.397 175.791 153.119 175.296 153.128 175.323C153.085 175.175 154.892 175.215 154.781 175.745C157.903 175.814 160.454 174.889 162.887 174.459C166.696 173.785 170.561 173.137 174.355 172.452C181.899 171.094 189.199 169.604 197.268 168.536C200.932 168.051 204.501 167.545 207.767 166.842C210.732 166.205 213.155 165.307 216.15 164.7C217.406 164.445 220.333 163.973 219.991 164.928C219.721 165.681 216.023 165.912 214.77 166.421C214.495 166.424 214.225 166.43 213.949 166.433C213.742 166.592 213.693 166.765 213.802 166.953C212.707 167.545 211.085 167.891 210.072 168.459C208.899 169.118 207.008 169.156 205.503 169.714C205.521 169.83 205.54 169.949 205.553 170.065C205.388 170.297 204.95 170.429 204.239 170.463C202.536 171.294 200.146 171.952 197.971 172.631C195.699 173.339 193.439 174.341 190.416 174.679C187.552 175 186.354 175.563 184.153 176.242C181.801 176.969 179.092 177.576 176.662 178.275C174.243 178.974 171.868 179.715 169.976 180.587C168.331 181.345 167.246 182.25 165.466 182.969C164.519 183.352 157.056 184.747 158.457 185.375C160.315 184.905 160.913 185.881 162.737 185.986C164.755 186.1 166.899 185.18 167.58 184.673C169.398 185.384 165.917 186.131 164.873 186.457C163.818 186.789 163.008 187.173 162.026 187.527C161.32 187.782 160.515 188.254 159.798 188.439C159.467 188.482 159.114 188.454 158.74 188.356C158.458 188.459 158.181 188.563 157.899 188.666C156.222 189.109 154.144 190.611 158.181 190.381C159.647 190.298 159.626 190.141 161.166 190.212C163.175 190.303 164.44 190.448 166.437 190.265C169.286 190.005 170.606 189.511 172.333 188.81C172.627 188.69 176.421 187.163 176.949 187.558C178.179 186.768 181.008 186.565 182.584 185.897C184.198 185.212 183.144 185.067 185.767 185.009C187.754 184.966 190.263 185.03 192.312 185.157C194.873 185.317 195.86 185.5 194.876 186.326C194.381 186.743 193.455 186.977 193.614 187.508C193.802 188.14 195.083 188.358 195.968 188.874C197.67 189.871 194.73 190.302 195.518 191.215C196.85 192.756 202.341 190.123 202.992 189.589C202.116 189.479 202.08 189.91 201.164 189.628C201.969 189.458 206.157 188.504 207.511 189.115C207.609 189.158 204.353 191.455 203.65 191.678C201.323 192.422 197.652 192.258 195.836 193.33C194.992 193.829 194.377 194.603 194.076 195.189C193.801 195.728 194.501 196.38 193.29 196.757C196.309 196.552 203.169 193.78 203.473 193.983C203.695 194.132 203.108 196.095 203.926 196.053C202.738 197 200.776 197.365 200.612 198.581C200.492 199.452 201.212 200.281 204.073 199.773C205.782 199.469 206.833 198.594 207.922 198.069C208.683 197.701 210.052 196.673 211.548 196.607C213.947 196.498 213.523 197.348 215.137 197.795C217.431 198.431 218.419 197.769 219.166 197.223C220.421 196.307 221.524 196.423 224.476 196.274C225.596 196.218 229.887 196.067 228.637 195.409C232.411 196.894 225 197.628 223.928 198.581C225.45 198.382 224.908 198.492 226.038 198.606C225.528 198.555 228.623 199.161 228.041 199.009C228.364 199.003 228.687 198.998 229.011 198.993C229.297 199.063 229.349 199.142 229.169 199.229C229.735 199.372 228.703 199.54 230.451 199.737C229.936 199.988 225.14 201.458 225.647 200.706C223.526 200.93 217.206 202.487 218.508 203.537C219.469 204.313 220.75 203.026 222.376 202.929C222.559 203.182 222.446 203.517 223.565 203.548C223.439 202.773 226.44 202.984 227.537 202.594C228.361 202.299 232.59 199.713 234.8 199.347C235.545 199.224 236.234 199.346 237.047 199.152C237.531 199.036 237.869 198.745 238.309 198.586C238.895 198.376 240.806 197.608 241.629 197.629C244.862 197.712 240.593 199.505 240.659 199.935C241.334 199.737 244.835 199.601 245.847 199.808C248.111 200.271 246.276 200.936 245.327 201.349C243.744 202.043 241.799 202.619 240.372 203.36C238.549 204.31 237.272 205.391 235.496 206.353C234.698 206.784 232.082 207.585 233.098 208.186C234.342 208.924 236.54 208.294 237.44 207.985C238.502 207.62 249.47 202.702 252.476 202.993C250.116 201.938 254.229 201.302 256.728 201.961C260.749 203.021 255.31 204.235 255.786 205.302C254.512 205.052 251.801 206.593 251.82 206.856C253.008 208.022 257.929 206.049 258.43 206.304C259.278 206.734 255.873 207.302 256.546 207.75C258.128 208.8 261.802 206.428 262.338 206.173C263.958 205.4 267.383 205.078 264.719 206.329C263.701 206.807 259.981 207.724 260.247 208.387C260.626 209.328 272.6 205.376 274.266 204.777C275.39 204.373 276.588 203.658 278.385 203.528C280.709 203.362 280.633 203.916 282.503 204.334C285.457 204.993 286.874 204.097 289.703 204.12C289.309 203.935 288.952 203.742 288.633 203.543C290.94 203.463 293.493 203.122 294.618 202.461C295.016 202.226 295.894 201.625 294.995 201.31C294.153 201.015 293.422 201.326 293.071 201.204C291.594 200.688 294.079 200.265 295.203 200.079C295.968 199.953 299.849 200.144 300.003 200.128C301.645 199.958 302.098 199.376 303.379 199.075C304.831 198.733 306.078 199.066 307.356 198.869C308.452 198.699 308.75 198.307 307.41 198.026C306.231 197.781 304.687 198.213 303.454 197.996C304.556 197.592 306.234 197.43 307.342 197.03C308.281 196.691 308.642 196.214 309.524 195.863C310.737 195.38 313.347 195.137 310.365 194.497C312.992 195.062 312.172 194.536 313.656 194.279C316.221 193.837 315.443 194.514 317.052 194.893C319.233 195.404 319.393 194.698 321.582 194.872C323.24 195.003 325.187 196.138 326.877 195.648C326.142 195.861 325.755 195.122 325.753 194.996C325.752 194.558 326.948 194.108 328.059 193.957C328.288 194.078 327.458 194.835 327.332 194.81C329.014 195.127 329.76 194.601 331.252 194.743C331.233 195.011 331.952 195.408 331.776 195.655C331.541 195.979 331.055 195.893 330.789 196.077C329.877 196.708 329.936 197.378 329.272 198.089C327.946 199.508 322.429 200.397 324.829 202.391C325.554 202.994 325.704 203.11 327.444 202.74C329.458 202.312 328.272 201.731 328.985 201.144C329.265 200.915 330.57 200.723 331.028 200.526C331.754 200.208 331.985 199.774 332.903 199.503C333.536 199.316 334.342 199.29 334.861 199.054C335.533 198.747 335.094 198.216 336.333 198.044C336.59 198.543 331.221 202.005 330.421 202.474C329.632 202.938 331.291 203.11 332.064 203.337C334.682 204.108 334.609 204.017 333.216 204.875C332.696 205.194 331.499 206.042 332.956 206.464C334.689 206.965 335.902 205.58 336.955 205.416C339.991 207.183 344.11 204.787 339.262 204.435C340.41 204.056 342.609 204.091 343.989 203.797C345.466 203.482 346.281 202.953 348.4 202.991C348.26 203.779 351.305 204.34 349.777 205.087C348.952 204.935 349.854 204.667 348.891 204.516C347.854 205.351 344.069 205.31 345.287 206.494C346.526 207.7 349.405 207.917 351.409 207.242C352.428 206.899 357.782 203.873 359.993 204.874C358.325 205.116 357.613 205.766 356.529 206.213C355.036 206.829 353.103 207.308 352.218 208.087C350.905 209.241 352.215 210.629 356.251 211.254C355.744 211.605 354.063 213.399 352.72 213.092C350.668 212.621 353.675 212.139 349.716 212.009C347.695 211.943 345.651 212.193 344.558 212.687C345.752 212.938 346.852 212.788 347.456 212.48C348.287 213.004 346.928 213.53 346.821 213.998C346.668 214.673 347.677 215.296 348.648 215.938C349.975 215.273 351.946 215.84 353.883 215.756C356.764 215.634 355.617 214.867 357.361 214.369C357.172 214.424 357.267 215.325 357.567 215.423C359.016 215.891 358.606 215.244 359.716 215.115C360.798 215.75 361.907 215.784 362.568 215.482C362.081 215.64 362.717 214.419 362.567 214.9C362.884 214.75 363.181 214.596 363.456 214.439C363.532 214.269 363.339 214.147 362.884 214.07C363.021 213.849 362.504 213.748 363.44 213.537C364.993 213.189 367.951 214.092 369.451 213.522C371.62 212.696 367.152 213.107 366.535 212.475C366.017 211.945 367.965 212.458 368.549 212.346C369.863 212.095 370.666 212.344 371.638 211.842C369.842 211.636 367.629 211.505 367.51 210.713C371.372 211.101 367.409 210.346 369.055 210.18C368.784 210.206 370.775 210.029 370.264 210.152C370.68 210.255 371.018 210.263 371.294 210.177C371.735 210.143 371.71 210.05 371.207 209.9C371.727 209.354 369.996 207.625 373.538 207.974C375.576 208.176 377.437 209.412 378.084 209.992C378.476 209.763 377.818 209.563 377.802 209.341C377.784 209.062 378.09 208.849 378.082 208.588C378.073 207.957 379.725 206.277 379.399 206.324C383.055 205.794 379.96 207.684 379.813 207.967C379.666 208.247 382.029 210.559 383.1 210.222C382.749 210.396 383.545 210.745 383.472 210.955C383.352 211.31 382.409 211.549 382.179 211.893C381.848 212.391 381.757 213.011 383.822 213.204C386.014 213.408 386.345 212.76 385.816 212.238C385.603 212.029 384.918 211.843 384.68 211.603C384.231 211.146 384.985 210.734 384.451 210.263C386.248 210.591 388.575 210.541 389.894 211.196C390.389 210.541 391.259 210.13 391.531 209.43C391.821 208.684 392.596 208.342 394.59 208.056C398.251 207.53 399.894 206.578 402.683 205.652C408.891 203.587 441.694 196.024 445.285 195.06C448.289 194.254 452.072 193.716 454.493 192.694C454.787 192.571 454.497 192.262 454.954 192.156C455.61 192.002 456.448 192.129 457.137 192.029C459.158 191.734 468.998 189.178 471.257 188.491C470.999 188.326 470.633 188.262 470.159 188.304C488.346 184.348 544.776 172.797 554.306 170.745C558.77 169.784 563.203 168.809 567.749 167.885C569.531 167.523 571.471 167.316 570.797 166.441C570.418 165.95 568.244 165.112 566.848 164.878C568.663 165.183 567.915 164.524 568.693 164.288C570.056 163.873 572.424 164.126 573.752 163.606C575.862 162.783 574.246 161.376 573.956 160.301C573.768 159.59 574.262 158.353 571.1 158.468C568.294 158.569 561.358 160.078 561.081 160.482C559.715 159.672 559.445 160.276 557.907 160.323C556.317 160.371 555.564 159.87 554.176 159.883C555.505 159.87 566.603 157.48 567.865 157.064C569.734 156.45 568.643 155.854 569.308 155.047C569.166 155.032 567.656 155.21 567.588 155.047C566.973 153.551 574.297 154.219 574.927 153.07C575.704 151.643 570.823 153.273 570.072 153.504C569.191 152.779 567.584 153.442 566.716 153.603C564.797 153.957 562.619 154.088 560.619 154.389C557.074 154.921 545.626 156.931 544.711 156.862C543.058 156.738 543.455 155.977 542.823 155.632C541.167 154.73 539.369 155.161 537.499 155.425C537.548 155.102 538.926 153.027 540.625 153.393C539.154 152.492 539.466 152.642 537.071 153.001C537.632 152.391 536.91 151.52 537.779 150.976C537.845 150.933 539.254 150.687 539.248 150.689C540.012 150.44 540.229 150.126 540.795 149.831C542.975 148.7 548.353 148.959 549.295 147.451C547.41 147.922 544.506 148.057 542.407 148.491C541.307 148.718 538.102 149.451 536.481 149.1C532.296 148.195 540.328 147.198 539.609 146.439C538.761 145.547 535.997 147.021 534.333 147.055C531.43 147.114 533.555 146.462 534.443 146.165C536.187 145.584 538.337 145.114 537.917 144.082C538.993 145.105 539.746 143.645 540.608 144.86C540.815 144.771 543.537 143.611 543.246 143.613C542.578 143.621 542.307 143.723 541.581 143.506C543.425 143.169 550.966 139.819 550.64 138.875C550.53 138.556 550.562 137.571 552.049 137.946C553.287 138.259 551.401 139.117 552.028 139.314C552.835 139.569 580.797 133.223 578.234 132.349C579.39 132.461 580.463 132.174 581.615 132.337C580.889 132.809 582.471 133.112 583.701 133.228C582.737 132.863 582.673 132.191 582.702 131.78C584.775 132.695 586.74 132.591 587.896 131.795C588.207 131.583 589.28 130.473 587.517 130.63C587.569 129.443 597.525 128.626 599.553 127.925C600.251 128.232 596.82 130.308 600.641 129.76C601.146 130.57 597.373 130.422 596.541 130.894C595.797 131.317 597.442 132.464 594.908 132.313C595.524 132.35 594.773 131.363 593.087 131.483C592.571 131.52 591.745 132.363 590.929 132.532C589.491 132.83 587.083 132.683 587.645 133.567C588.036 134.184 590.698 134.706 592.099 135.022C591.705 135.215 589.146 135.11 590.459 135.553C591.348 135.851 593.711 135.499 594.531 135.43C596.085 135.299 597.44 135.069 598.906 134.907C601.897 134.578 599.486 134.79 600.816 135.284C604.701 135.26 601.791 132.686 604.935 132.45C607.642 132.245 605.366 134.078 609.718 133.809C609.513 134.542 613.566 135.219 610.121 135.53C611.61 135.579 612.72 135.296 611.912 134.743C612.003 134.803 612.088 134.865 612.179 134.926L612.117 134.914ZM237.752 30.8553C237.752 30.8553 237.773 30.8568 237.784 30.8593C237.741 30.8563 237.704 30.8572 237.662 30.856C237.514 30.8561 237.356 30.8521 237.166 30.8406C237.278 30.8204 237.385 30.8121 237.485 30.8156C237.698 30.799 237.889 30.7845 238.054 30.7698C238.011 30.7825 237.942 30.7916 237.883 30.8032C238.37 30.7936 238.234 30.8488 237.752 30.8553ZM171.807 47.9517C171.421 47.8775 171.04 47.8036 170.653 47.7276C170.846 47.6187 171.232 47.6929 171.807 47.9517ZM79.6273 60.6932C84.6966 59.7761 89.4542 58.7008 94.6868 57.8686C93.4004 58.1057 91.8808 58.3492 90.7376 58.6576C90.9467 58.618 91.1342 58.5839 91.2357 58.57C91.2465 58.5672 91.2572 58.5662 91.2678 58.5652C91.2731 58.5656 91.2785 58.5642 91.2839 58.5628C91.3052 58.5608 91.3158 58.5598 91.3104 58.5612C91.3104 58.5612 91.3104 58.5612 91.3103 58.563C91.3101 58.5664 91.294 58.5688 91.267 58.5774C91.267 58.5774 91.267 58.5774 91.2724 58.576C91.2993 58.5692 91.3103 58.563 91.3157 58.5616L91.3158 58.5598C91.3159 58.5581 91.3053 58.5591 91.2893 58.5615C91.284 58.5611 91.2787 58.5607 91.2732 58.5639C91.268 58.5635 91.2518 58.5676 91.2411 58.5686C91.07 58.5951 90.6945 58.6686 90.5544 58.7042C90.5544 58.7042 90.5544 58.7042 90.5492 58.7039C90.6085 58.687 90.6783 58.6727 90.743 58.6562C90.4052 58.72 90.0564 58.7901 90.0345 58.8008C89.4769 58.9052 89.3049 58.9439 91.1108 58.6172C88.1636 59.1492 83.5606 60.9647 79.638 60.6904L79.6273 60.6932ZM348.987 207.311C349.487 207.276 349.64 207.194 349.443 207.063C349.64 207.194 349.492 207.276 348.987 207.311Z" fill="url(#paint90_linear_1_704)"/>
<defs>
<linearGradient id="paint0_linear_1_704" x1="312.354" y1="195.156" x2="312.355" y2="195.154" gradientUnits="userSpaceOnUse">
<stop stop-color="#01472B"/>
<stop offset="1" stop-color="#02AD69"/>
</linearGradient>
<linearGradient id="paint1_linear_1_704" x1="64.8552" y1="56.679" x2="64.8563" y2="56.6766" gradientUnits="userSpaceOnUse">
<stop stop-color="#01472B"/>
<stop offset="1" stop-color="#02AD69"/>
</linearGradient>
<linearGradient id="paint2_linear_1_704" x1="586.092" y1="157.85" x2="590.504" y2="148.442" gradientUnits="userSpaceOnUse">
<stop stop-color="#01472B"/>
<stop offset="1" stop-color="#02AD69"/>
</linearGradient>
<linearGradient id="paint3_linear_1_704" x1="598.599" y1="155.24" x2="598.603" y2="155.232" gradientUnits="userSpaceOnUse">
<stop stop-color="#01472B"/>
<stop offset="1" stop-color="#02AD69"/>
</linearGradient>
<linearGradient id="paint4_linear_1_704" x1="576.544" y1="51.8218" x2="576.547" y2="51.8153" gradientUnits="userSpaceOnUse">
<stop stop-color="#01472B"/>
<stop offset="1" stop-color="#02AD69"/>
</linearGradient>
<linearGradient id="paint5_linear_1_704" x1="568.632" y1="53.1325" x2="571.92" y2="46.7331" gradientUnits="userSpaceOnUse">
<stop stop-color="#01472B"/>
<stop offset="1" stop-color="#02AD69"/>
</linearGradient>
<linearGradient id="paint6_linear_1_704" x1="49.6813" y1="77.5673" x2="52.2055" y2="72.3605" gradientUnits="userSpaceOnUse">
<stop stop-color="#01472B"/>
<stop offset="1" stop-color="#02AD69"/>
</linearGradient>
<linearGradient id="paint7_linear_1_704" x1="408.274" y1="42.1719" x2="408.275" y2="42.1705" gradientUnits="userSpaceOnUse">
<stop stop-color="#01472B"/>
<stop offset="1" stop-color="#02AD69"/>
</linearGradient>
<linearGradient id="paint8_linear_1_704" x1="407.535" y1="40.1514" x2="407.539" y2="40.1328" gradientUnits="userSpaceOnUse">
<stop stop-color="#01472B"/>
<stop offset="1" stop-color="#02AD69"/>
</linearGradient>
<linearGradient id="paint9_linear_1_704" x1="403.464" y1="41.0163" x2="404.386" y2="37.3877" gradientUnits="userSpaceOnUse">
<stop stop-color="#01472B"/>
<stop offset="1" stop-color="#02AD69"/>
</linearGradient>
<linearGradient id="paint10_linear_1_704" x1="553.22" y1="149.437" x2="556.795" y2="139.818" gradientUnits="userSpaceOnUse">
<stop stop-color="#01472B"/>
<stop offset="1" stop-color="#02AD69"/>
</linearGradient>
<linearGradient id="paint11_linear_1_704" x1="556.273" y1="150.415" x2="556.348" y2="150.213" gradientUnits="userSpaceOnUse">
<stop stop-color="#01472B"/>
<stop offset="1" stop-color="#02AD69"/>
</linearGradient>
<linearGradient id="paint12_linear_1_704" x1="556.667" y1="150.364" x2="556.673" y2="150.352" gradientUnits="userSpaceOnUse">
<stop stop-color="#01472B"/>
<stop offset="1" stop-color="#02AD69"/>
</linearGradient>
<linearGradient id="paint13_linear_1_704" x1="312.354" y1="195.158" x2="312.358" y2="195.153" gradientUnits="userSpaceOnUse">
<stop stop-color="#01472B"/>
<stop offset="1" stop-color="#02AD69"/>
</linearGradient>
<linearGradient id="paint14_linear_1_704" x1="312.129" y1="196.368" x2="313.978" y2="192.513" gradientUnits="userSpaceOnUse">
<stop stop-color="#01472B"/>
<stop offset="1" stop-color="#02AD69"/>
</linearGradient>
<linearGradient id="paint15_linear_1_704" x1="34.6212" y1="64.4081" x2="34.7702" y2="64.0834" gradientUnits="userSpaceOnUse">
<stop stop-color="#01472B"/>
<stop offset="1" stop-color="#02AD69"/>
</linearGradient>
<linearGradient id="paint16_linear_1_704" x1="39.3119" y1="63.3325" x2="43.4224" y2="54.5772" gradientUnits="userSpaceOnUse">
<stop stop-color="#01472B"/>
<stop offset="1" stop-color="#02AD69"/>
</linearGradient>
<linearGradient id="paint17_linear_1_704" x1="188.988" y1="189.32" x2="190.191" y2="186.273" gradientUnits="userSpaceOnUse">
<stop stop-color="#01472B"/>
<stop offset="1" stop-color="#02AD69"/>
</linearGradient>
<linearGradient id="paint18_linear_1_704" x1="601.155" y1="136.835" x2="601.233" y2="136.614" gradientUnits="userSpaceOnUse">
<stop stop-color="#01472B"/>
<stop offset="1" stop-color="#02AD69"/>
</linearGradient>
<linearGradient id="paint19_linear_1_704" x1="598.403" y1="136.604" x2="599.087" y2="134.145" gradientUnits="userSpaceOnUse">
<stop stop-color="#01472B"/>
<stop offset="1" stop-color="#02AD69"/>
</linearGradient>
<linearGradient id="paint20_linear_1_704" x1="51.4412" y1="74.7677" x2="51.5364" y2="74.6587" gradientUnits="userSpaceOnUse">
<stop stop-color="#01472B"/>
<stop offset="1" stop-color="#02AD69"/>
</linearGradient>
<linearGradient id="paint21_linear_1_704" x1="51.3674" y1="74.8256" x2="51.3756" y2="74.8168" gradientUnits="userSpaceOnUse">
<stop stop-color="#01472B"/>
<stop offset="1" stop-color="#02AD69"/>
</linearGradient>
<linearGradient id="paint22_linear_1_704" x1="52.6568" y1="73.7775" x2="54.2952" y2="70.181" gradientUnits="userSpaceOnUse">
<stop stop-color="#01472B"/>
<stop offset="1" stop-color="#02AD69"/>
</linearGradient>
<linearGradient id="paint23_linear_1_704" x1="316.652" y1="204.064" x2="316.666" y2="204.013" gradientUnits="userSpaceOnUse">
<stop stop-color="#01472B"/>
<stop offset="1" stop-color="#02AD69"/>
</linearGradient>
<linearGradient id="paint24_linear_1_704" x1="316.567" y1="204.078" x2="316.569" y2="204.072" gradientUnits="userSpaceOnUse">
<stop stop-color="#01472B"/>
<stop offset="1" stop-color="#02AD69"/>
</linearGradient>
<linearGradient id="paint25_linear_1_704" x1="318.248" y1="204.203" x2="319.601" y2="201.476" gradientUnits="userSpaceOnUse">
<stop stop-color="#01472B"/>
<stop offset="1" stop-color="#02AD69"/>
</linearGradient>
<linearGradient id="paint26_linear_1_704" x1="66.9902" y1="123.756" x2="68.5054" y2="121.179" gradientUnits="userSpaceOnUse">
<stop stop-color="#01472B"/>
<stop offset="1" stop-color="#02AD69"/>
</linearGradient>
<linearGradient id="paint27_linear_1_704" x1="310.371" y1="206.199" x2="311.3" y2="203.992" gradientUnits="userSpaceOnUse">
<stop stop-color="#01472B"/>
<stop offset="1" stop-color="#02AD69"/>
</linearGradient>
<linearGradient id="paint28_linear_1_704" x1="606.171" y1="135.949" x2="607.477" y2="133.448" gradientUnits="userSpaceOnUse">
<stop stop-color="#01472B"/>
<stop offset="1" stop-color="#02AD69"/>
</linearGradient>
<linearGradient id="paint29_linear_1_704" x1="563.922" y1="138.52" x2="571.756" y2="123.397" gradientUnits="userSpaceOnUse">
<stop stop-color="#01472B"/>
<stop offset="1" stop-color="#02AD69"/>
</linearGradient>
<linearGradient id="paint30_linear_1_704" x1="36.3531" y1="60.9568" x2="36.9731" y2="59.2748" gradientUnits="userSpaceOnUse">
<stop stop-color="#01472B"/>
<stop offset="1" stop-color="#02AD69"/>
</linearGradient>
<linearGradient id="paint31_linear_1_704" x1="173.739" y1="43.9931" x2="173.742" y2="43.9832" gradientUnits="userSpaceOnUse">
<stop stop-color="#01472B"/>
<stop offset="1" stop-color="#02AD69"/>
</linearGradient>
<linearGradient id="paint32_linear_1_704" x1="173.889" y1="44.0329" x2="173.906" y2="43.9575" gradientUnits="userSpaceOnUse">
<stop stop-color="#01472B"/>
<stop offset="1" stop-color="#02AD69"/>
</linearGradient>
<linearGradient id="paint33_linear_1_704" x1="174.734" y1="43.2762" x2="175.907" y2="41.3765" gradientUnits="userSpaceOnUse">
<stop stop-color="#01472B"/>
<stop offset="1" stop-color="#02AD69"/>
</linearGradient>
<linearGradient id="paint34_linear_1_704" x1="159.488" y1="44.1227" x2="159.529" y2="44.1048" gradientUnits="userSpaceOnUse">
<stop stop-color="#01472B"/>
<stop offset="1" stop-color="#02AD69"/>
</linearGradient>
<linearGradient id="paint35_linear_1_704" x1="159.464" y1="44.1701" x2="159.487" y2="44.1605" gradientUnits="userSpaceOnUse">
<stop stop-color="#01472B"/>
<stop offset="1" stop-color="#02AD69"/>
</linearGradient>
<linearGradient id="paint36_linear_1_704" x1="157.678" y1="44.2393" x2="159.112" y2="42.466" gradientUnits="userSpaceOnUse">
<stop stop-color="#01472B"/>
<stop offset="1" stop-color="#02AD69"/>
</linearGradient>
<linearGradient id="paint37_linear_1_704" x1="181.468" y1="46.9185" x2="181.836" y2="45.5375" gradientUnits="userSpaceOnUse">
<stop stop-color="#01472B"/>
<stop offset="1" stop-color="#02AD69"/>
</linearGradient>
<linearGradient id="paint38_linear_1_704" x1="180.854" y1="47.3299" x2="180.864" y2="47.2999" gradientUnits="userSpaceOnUse">
<stop stop-color="#01472B"/>
<stop offset="1" stop-color="#02AD69"/>
</linearGradient>
<linearGradient id="paint39_linear_1_704" x1="90.8301" y1="185.17" x2="91.077" y2="184.105" gradientUnits="userSpaceOnUse">
<stop stop-color="#01472B"/>
<stop offset="1" stop-color="#02AD69"/>
</linearGradient>
<linearGradient id="paint40_linear_1_704" x1="90.7055" y1="184.799" x2="90.7068" y2="184.789" gradientUnits="userSpaceOnUse">
<stop stop-color="#01472B"/>
<stop offset="1" stop-color="#02AD69"/>
</linearGradient>
<linearGradient id="paint41_linear_1_704" x1="394.738" y1="43.0278" x2="394.75" y2="43.0026" gradientUnits="userSpaceOnUse">
<stop stop-color="#01472B"/>
<stop offset="1" stop-color="#02AD69"/>
</linearGradient>
<linearGradient id="paint42_linear_1_704" x1="392.235" y1="43.524" x2="393.039" y2="41.5258" gradientUnits="userSpaceOnUse">
<stop stop-color="#01472B"/>
<stop offset="1" stop-color="#02AD69"/>
</linearGradient>
<linearGradient id="paint43_linear_1_704" x1="84.4923" y1="53.6136" x2="85.0541" y2="51.9793" gradientUnits="userSpaceOnUse">
<stop stop-color="#01472B"/>
<stop offset="1" stop-color="#02AD69"/>
</linearGradient>
<linearGradient id="paint44_linear_1_704" x1="541.968" y1="146.147" x2="542.703" y2="144.802" gradientUnits="userSpaceOnUse">
<stop stop-color="#01472B"/>
<stop offset="1" stop-color="#02AD69"/>
</linearGradient>
<linearGradient id="paint45_linear_1_704" x1="563.535" y1="159.435" x2="563.636" y2="159.312" gradientUnits="userSpaceOnUse">
<stop stop-color="#01472B"/>
<stop offset="1" stop-color="#02AD69"/>
</linearGradient>
<linearGradient id="paint46_linear_1_704" x1="192.655" y1="173.446" x2="192.731" y2="173.36" gradientUnits="userSpaceOnUse">
<stop stop-color="#01472B"/>
<stop offset="1" stop-color="#02AD69"/>
</linearGradient>
<linearGradient id="paint47_linear_1_704" x1="549.496" y1="47.7446" x2="549.537" y2="47.6855" gradientUnits="userSpaceOnUse">
<stop stop-color="#01472B"/>
<stop offset="1" stop-color="#02AD69"/>
</linearGradient>
<linearGradient id="paint48_linear_1_704" x1="539.412" y1="53.6357" x2="539.412" y2="53.6317" gradientUnits="userSpaceOnUse">
<stop stop-color="#01472B"/>
<stop offset="1" stop-color="#02AD69"/>
</linearGradient>
<linearGradient id="paint49_linear_1_704" x1="580.564" y1="103.736" x2="580.576" y2="103.735" gradientUnits="userSpaceOnUse">
<stop stop-color="#01472B"/>
<stop offset="1" stop-color="#02AD69"/>
</linearGradient>
<linearGradient id="paint50_linear_1_704" x1="61.383" y1="115.163" x2="61.3855" y2="115.143" gradientUnits="userSpaceOnUse">
<stop stop-color="#01472B"/>
<stop offset="1" stop-color="#02AD69"/>
</linearGradient>
<linearGradient id="paint51_linear_1_704" x1="60.1032" y1="116.047" x2="61.719" y2="114.363" gradientUnits="userSpaceOnUse">
<stop stop-color="#01472B"/>
<stop offset="1" stop-color="#02AD69"/>
</linearGradient>
<linearGradient id="paint52_linear_1_704" x1="171.521" y1="44.5551" x2="171.531" y2="44.4908" gradientUnits="userSpaceOnUse">
<stop stop-color="#01472B"/>
<stop offset="1" stop-color="#02AD69"/>
</linearGradient>
<linearGradient id="paint53_linear_1_704" x1="168.9" y1="44.4745" x2="170.081" y2="42.1213" gradientUnits="userSpaceOnUse">
<stop stop-color="#01472B"/>
<stop offset="1" stop-color="#02AD69"/>
</linearGradient>
<linearGradient id="paint54_linear_1_704" x1="68.9464" y1="170.782" x2="68.9499" y2="170.775" gradientUnits="userSpaceOnUse">
<stop stop-color="#01472B"/>
<stop offset="1" stop-color="#02AD69"/>
</linearGradient>
<linearGradient id="paint55_linear_1_704" x1="201.058" y1="200.585" x2="201.914" y2="199.341" gradientUnits="userSpaceOnUse">
<stop stop-color="#01472B"/>
<stop offset="1" stop-color="#02AD69"/>
</linearGradient>
<linearGradient id="paint56_linear_1_704" x1="30.7879" y1="99.8724" x2="31.2969" y2="98.8398" gradientUnits="userSpaceOnUse">
<stop stop-color="#01472B"/>
<stop offset="1" stop-color="#02AD69"/>
</linearGradient>
<linearGradient id="paint57_linear_1_704" x1="583.651" y1="133.22" x2="583.655" y2="133.206" gradientUnits="userSpaceOnUse">
<stop stop-color="#01472B"/>
<stop offset="1" stop-color="#02AD69"/>
</linearGradient>
<linearGradient id="paint58_linear_1_704" x1="64.1794" y1="78.4326" x2="64.1799" y2="78.4283" gradientUnits="userSpaceOnUse">
<stop stop-color="#01472B"/>
<stop offset="1" stop-color="#02AD69"/>
</linearGradient>
<linearGradient id="paint59_linear_1_704" x1="64.5052" y1="78.0113" x2="65.0659" y2="76.8928" gradientUnits="userSpaceOnUse">
<stop stop-color="#01472B"/>
<stop offset="1" stop-color="#02AD69"/>
</linearGradient>
<linearGradient id="paint60_linear_1_704" x1="64.3824" y1="78.4376" x2="64.3846" y2="78.417" gradientUnits="userSpaceOnUse">
<stop stop-color="#01472B"/>
<stop offset="1" stop-color="#02AD69"/>
</linearGradient>
<linearGradient id="paint61_linear_1_704" x1="162.302" y1="50.1146" x2="162.307" y2="50.1023" gradientUnits="userSpaceOnUse">
<stop stop-color="#01472B"/>
<stop offset="1" stop-color="#02AD69"/>
</linearGradient>
<linearGradient id="paint62_linear_1_704" x1="162.144" y1="50.1346" x2="162.173" y2="50.0551" gradientUnits="userSpaceOnUse">
<stop stop-color="#01472B"/>
<stop offset="1" stop-color="#02AD69"/>
</linearGradient>
<linearGradient id="paint63_linear_1_704" x1="161.078" y1="50.4773" x2="161.829" y2="48.8812" gradientUnits="userSpaceOnUse">
<stop stop-color="#01472B"/>
<stop offset="1" stop-color="#02AD69"/>
</linearGradient>
<linearGradient id="paint64_linear_1_704" x1="68.0628" y1="121.725" x2="68.6764" y2="120.541" gradientUnits="userSpaceOnUse">
<stop stop-color="#01472B"/>
<stop offset="1" stop-color="#02AD69"/>
</linearGradient>
<linearGradient id="paint65_linear_1_704" x1="68.0783" y1="122.196" x2="68.0783" y2="122.196" gradientUnits="userSpaceOnUse">
<stop stop-color="#01472B"/>
<stop offset="1" stop-color="#02AD69"/>
</linearGradient>
<linearGradient id="paint66_linear_1_704" x1="6.06033" y1="164.232" x2="7.7419" y2="161.194" gradientUnits="userSpaceOnUse">
<stop stop-color="#01472B"/>
<stop offset="1" stop-color="#02AD69"/>
</linearGradient>
<linearGradient id="paint67_linear_1_704" x1="63.5687" y1="172.536" x2="63.5692" y2="172.533" gradientUnits="userSpaceOnUse">
<stop stop-color="#01472B"/>
<stop offset="1" stop-color="#02AD69"/>
</linearGradient>
<linearGradient id="paint68_linear_1_704" x1="556.478" y1="90.8057" x2="556.481" y2="90.7975" gradientUnits="userSpaceOnUse">
<stop stop-color="#01472B"/>
<stop offset="1" stop-color="#02AD69"/>
</linearGradient>
<linearGradient id="paint69_linear_1_704" x1="71.7705" y1="111.954" x2="72.1555" y2="111.322" gradientUnits="userSpaceOnUse">
<stop stop-color="#01472B"/>
<stop offset="1" stop-color="#02AD69"/>
</linearGradient>
<linearGradient id="paint70_linear_1_704" x1="93.5404" y1="180.48" x2="93.5456" y2="180.47" gradientUnits="userSpaceOnUse">
<stop stop-color="#01472B"/>
<stop offset="1" stop-color="#02AD69"/>
</linearGradient>
<linearGradient id="paint71_linear_1_704" x1="568.411" y1="65.5882" x2="568.418" y2="65.5788" gradientUnits="userSpaceOnUse">
<stop stop-color="#01472B"/>
<stop offset="1" stop-color="#02AD69"/>
</linearGradient>
<linearGradient id="paint72_linear_1_704" x1="224.29" y1="203.46" x2="224.293" y2="203.453" gradientUnits="userSpaceOnUse">
<stop stop-color="#01472B"/>
<stop offset="1" stop-color="#02AD69"/>
</linearGradient>
<linearGradient id="paint73_linear_1_704" x1="223.535" y1="203.533" x2="223.536" y2="203.531" gradientUnits="userSpaceOnUse">
<stop stop-color="#01472B"/>
<stop offset="1" stop-color="#02AD69"/>
</linearGradient>
<linearGradient id="paint74_linear_1_704" x1="541.777" y1="49.6321" x2="541.835" y2="49.5293" gradientUnits="userSpaceOnUse">
<stop stop-color="#01472B"/>
<stop offset="1" stop-color="#02AD69"/>
</linearGradient>
<linearGradient id="paint75_linear_1_704" x1="605.3" y1="127.545" x2="605.394" y2="127.414" gradientUnits="userSpaceOnUse">
<stop stop-color="#01472B"/>
<stop offset="1" stop-color="#02AD69"/>
</linearGradient>
<linearGradient id="paint76_linear_1_704" x1="605.184" y1="127.612" x2="605.208" y2="127.578" gradientUnits="userSpaceOnUse">
<stop stop-color="#01472B"/>
<stop offset="1" stop-color="#02AD69"/>
</linearGradient>
<linearGradient id="paint77_linear_1_704" x1="53.2024" y1="103.883" x2="53.2366" y2="103.833" gradientUnits="userSpaceOnUse">
<stop stop-color="#01472B"/>
<stop offset="1" stop-color="#02AD69"/>
</linearGradient>
<linearGradient id="paint78_linear_1_704" x1="122.25" y1="45.2106" x2="122.285" y2="45.1624" gradientUnits="userSpaceOnUse">
<stop stop-color="#01472B"/>
<stop offset="1" stop-color="#02AD69"/>
</linearGradient>
<linearGradient id="paint79_linear_1_704" x1="583.756" y1="133.269" x2="583.794" y2="133.205" gradientUnits="userSpaceOnUse">
<stop stop-color="#01472B"/>
<stop offset="1" stop-color="#02AD69"/>
</linearGradient>
<linearGradient id="paint80_linear_1_704" x1="583.678" y1="133.228" x2="583.69" y2="133.202" gradientUnits="userSpaceOnUse">
<stop stop-color="#01472B"/>
<stop offset="1" stop-color="#02AD69"/>
</linearGradient>
<linearGradient id="paint81_linear_1_704" x1="574.233" y1="135.208" x2="574.235" y2="135.191" gradientUnits="userSpaceOnUse">
<stop stop-color="#01472B"/>
<stop offset="1" stop-color="#02AD69"/>
</linearGradient>
<linearGradient id="paint82_linear_1_704" x1="574.888" y1="134.901" x2="575.309" y2="133.739" gradientUnits="userSpaceOnUse">
<stop stop-color="#01472B"/>
<stop offset="1" stop-color="#02AD69"/>
</linearGradient>
<linearGradient id="paint83_linear_1_704" x1="554.519" y1="151.24" x2="554.545" y2="151.197" gradientUnits="userSpaceOnUse">
<stop stop-color="#01472B"/>
<stop offset="1" stop-color="#02AD69"/>
</linearGradient>
<linearGradient id="paint84_linear_1_704" x1="202.584" y1="194.2" x2="202.595" y2="194.16" gradientUnits="userSpaceOnUse">
<stop stop-color="#01472B"/>
<stop offset="1" stop-color="#02AD69"/>
</linearGradient>
<linearGradient id="paint85_linear_1_704" x1="537.917" y1="146.082" x2="537.953" y2="146.031" gradientUnits="userSpaceOnUse">
<stop stop-color="#01472B"/>
<stop offset="1" stop-color="#02AD69"/>
</linearGradient>
<linearGradient id="paint86_linear_1_704" x1="382.82" y1="210.79" x2="382.83" y2="210.752" gradientUnits="userSpaceOnUse">
<stop stop-color="#01472B"/>
<stop offset="1" stop-color="#02AD69"/>
</linearGradient>
<linearGradient id="paint87_linear_1_704" x1="225.638" y1="200.664" x2="225.678" y2="200.611" gradientUnits="userSpaceOnUse">
<stop stop-color="#01472B"/>
<stop offset="1" stop-color="#02AD69"/>
</linearGradient>
<linearGradient id="paint88_linear_1_704" x1="362.568" y1="215.431" x2="362.623" y2="215.354" gradientUnits="userSpaceOnUse">
<stop stop-color="#01472B"/>
<stop offset="1" stop-color="#02AD69"/>
</linearGradient>
<linearGradient id="paint89_linear_1_704" x1="237.401" y1="30.8134" x2="237.428" y2="30.6833" gradientUnits="userSpaceOnUse">
<stop stop-color="#01472B"/>
<stop offset="1" stop-color="#02AD69"/>
</linearGradient>
<linearGradient id="paint90_linear_1_704" x1="204.774" y1="109.853" x2="316.778" y2="-147.31" gradientUnits="userSpaceOnUse">
<stop stop-color="#01472B"/>
<stop offset="1" stop-color="#02AD69"/>
</linearGradient>
</defs>
</svg>
