<svg width="59" height="59" viewBox="0 0 59 59" fill="none" xmlns="http://www.w3.org/2000/svg">
<path d="M53.378 24.3198C54.3244 29.1475 53.8058 34.148 51.8888 38.6788C50.3101 42.4274 47.8321 45.7291 44.6738 48.2921C41.5155 50.8551 37.7743 52.6004 33.781 53.3735C29.7889 54.1526 25.6663 53.9359 21.7779 52.7427C17.8895 51.5494 14.355 49.4163 11.4871 46.5321C8.75659 43.7878 6.70706 40.442 5.50274 36.7629C4.29841 33.0838 3.97281 29.1737 4.55203 25.346C5.13125 21.5184 6.59917 17.8797 8.83813 14.7216C11.0771 11.5636 14.0248 8.97398 17.445 7.16046C20.8651 5.34695 24.6626 4.35995 28.533 4.2786C32.4033 4.19725 36.2389 5.0238 39.7323 6.692C43.2256 8.36019 46.2795 10.8236 48.6492 13.8848C51.0189 16.946 52.6384 20.5198 53.378 24.3198Z" stroke="black" stroke-width="2.7534"/>
<path d="M20.7929 38.685H37.3134V35.9316H20.7929V38.685ZM20.7929 35.9316C18.1245 35.9312 15.5272 36.7923 13.3875 38.3867C11.2478 39.9812 9.95268 43.5125 9.19009 46.0696L11.5553 45.5657C12.1488 43.577 13.3685 41.8331 15.033 40.5933C16.6974 39.3536 18.7175 38.6843 20.7929 38.685V35.9316ZM29.0532 52.452C25.6755 52.4556 22.3372 51.7263 19.2687 50.3145C16.2003 48.9027 13.4746 46.8419 11.2799 44.2744L9.19009 46.0696C11.6435 48.938 14.6898 51.2402 18.119 52.8174C21.5482 54.3946 25.2787 55.2093 29.0532 55.2054V52.452ZM37.3134 38.685C39.3891 38.6845 41.4095 39.3542 43.074 40.5944C44.7385 41.8347 45.958 43.5793 46.551 45.5685L48.9162 46.0696C48.1536 43.5125 46.8585 39.9812 44.7188 38.3867C42.5791 36.7923 39.9818 35.9312 37.3134 35.9316V38.685ZM46.8264 44.2744C44.6317 46.8419 41.9061 48.9027 38.8376 50.3145C35.7691 51.7263 32.4308 52.4556 29.0532 52.452V55.2054C32.8277 55.2093 36.5581 54.3946 39.9873 52.8174C43.4165 51.2402 46.4628 48.938 48.9162 46.0696L46.8264 44.2744Z" fill="black"/>
<circle cx="29" cy="24" r="7.75" stroke="black" stroke-width="2.5"/>
</svg>
