<svg width="50" height="49" viewBox="0 0 50 49" fill="none" xmlns="http://www.w3.org/2000/svg">
<path d="M32.1971 21.7578L24.1325 13.6932C23.7606 13.3081 23.5548 12.7924 23.5594 12.2571C23.5641 11.7218 23.7788 11.2097 24.1574 10.8311C24.5359 10.4526 25.048 10.2379 25.5833 10.2332C26.1186 10.2286 26.6343 10.4344 27.0194 10.8063L38.5691 22.356C38.7594 22.5451 38.9103 22.7701 39.0134 23.0178C39.1164 23.2655 39.1694 23.5312 39.1694 23.7994C39.1694 24.0677 39.1164 24.3334 39.0134 24.5811C38.9103 24.8288 38.7594 25.0537 38.5691 25.2429L27.0194 36.7926C26.8311 36.9876 26.6058 37.1431 26.3567 37.2501C26.1076 37.3572 25.8397 37.4135 25.5686 37.4158C25.2975 37.4182 25.0287 37.3665 24.7777 37.2639C24.5268 37.1612 24.2989 37.0096 24.1072 36.8179C23.9155 36.6262 23.7639 36.3983 23.6612 36.1473C23.5586 35.8964 23.5069 35.6276 23.5093 35.3565C23.5116 35.0854 23.5679 34.8175 23.6749 34.5684C23.7819 34.3193 23.9375 34.094 24.1325 33.9057L32.1971 25.8411H12.6257C12.0842 25.8411 11.5649 25.626 11.182 25.2431C10.7991 24.8602 10.584 24.3409 10.584 23.7994C10.584 23.258 10.7991 22.7387 11.182 22.3558C11.5649 21.9729 12.0842 21.7578 12.6257 21.7578H32.1971Z" fill="black"/>
</svg>
