<svg width="73" height="73" viewBox="0 0 73 73" fill="none" xmlns="http://www.w3.org/2000/svg">
<path d="M32.8948 11.9958L28.7331 13.6498C28.4019 13.7789 28.1812 14.119 28.1812 14.4944C28.1812 14.8698 28.4019 15.21 28.7331 15.339L32.8948 16.993L34.4513 21.4155C34.5727 21.7674 34.8929 22.002 35.2461 22.002C35.5994 22.002 35.9195 21.7674 36.0409 21.4155L37.5974 16.993L41.7591 15.339C42.0903 15.21 42.311 14.8698 42.311 14.4944C42.311 14.119 42.0903 13.7789 41.7591 13.6498L37.5974 11.9958L36.0409 7.57335C35.9195 7.22143 35.5994 6.98682 35.2461 6.98682C34.8929 6.98682 34.5727 7.22143 34.4513 7.57335L32.8948 11.9958ZM12.0753 53.3697C10.011 55.5634 10.011 59.1295 12.0753 61.3348L15.8948 65.3936C17.9591 67.5873 21.3149 67.5873 23.3902 65.3936L65.4819 20.653C67.5462 18.4594 67.5462 14.8933 65.4819 12.6879L61.6624 8.64084C59.5981 6.44721 56.2422 6.44721 54.1669 8.64084L12.0753 53.3697ZM60.4812 16.6763L48.8903 28.9935L46.3182 26.2602L57.9091 13.9431L60.4812 16.6763ZM7.81425 20.7351C7.3175 20.9345 6.98633 21.439 6.98633 22.002C6.98633 22.5651 7.3175 23.0695 7.81425 23.2689L14.0513 25.7558L16.3915 32.3836C16.5792 32.9115 17.0539 33.2634 17.5837 33.2634C18.1136 33.2634 18.5883 32.9115 18.776 32.3836L21.1162 25.7558L27.3532 23.2689C27.85 23.0695 28.1812 22.5651 28.1812 22.002C28.1812 21.439 27.85 20.9345 27.3532 20.7351L21.1162 18.2482L18.776 11.6204C18.5883 11.0925 18.1136 10.7406 17.5837 10.7406C17.0539 10.7406 16.5792 11.0925 16.3915 11.6204L14.0513 18.2482L7.81425 20.7351ZM46.6714 50.7655C46.1747 50.9649 45.8435 51.4694 45.8435 52.0324C45.8435 52.5955 46.1747 53.0999 46.6714 53.2993L52.9085 55.7862L55.2487 62.414C55.4364 62.9419 55.9111 63.2938 56.4409 63.2938C56.9708 63.2938 57.4455 62.9419 57.6331 62.414L59.9734 55.7862L66.2104 53.2993C66.7072 53.0999 67.0384 52.5955 67.0384 52.0324C67.0384 51.4694 66.7072 50.9649 66.2104 50.7655L59.9734 48.2786L57.6331 41.6508C57.4455 41.1229 56.9708 40.771 56.4409 40.771C55.9111 40.771 55.4364 41.1229 55.2487 41.6508L52.9085 48.2786L46.6714 50.7655Z" fill="white"/>
</svg>
