<svg width="13" height="13" viewBox="0 0 13 13" fill="none" xmlns="http://www.w3.org/2000/svg">
<path d="M4.20984 4.21089C4.33174 4.08903 4.49704 4.02058 4.66939 4.02058C4.84175 4.02058 5.00705 4.08903 5.12894 4.21089L6.52904 5.61034L7.92849 4.21089C7.98845 4.14881 8.06018 4.09929 8.13948 4.06522C8.21878 4.03116 8.30408 4.01323 8.39038 4.01248C8.47669 4.01173 8.56228 4.02817 8.64216 4.06085C8.72205 4.09354 8.79462 4.1418 8.85565 4.20283C8.91668 4.26386 8.96494 4.33644 8.99763 4.41632C9.03031 4.4962 9.04676 4.58179 9.04601 4.6681C9.04526 4.75441 9.02732 4.8397 8.99326 4.919C8.95919 4.9983 8.90967 5.07003 8.84759 5.12999L7.44814 6.53009L8.84759 7.92954C8.966 8.05213 9.03151 8.21632 9.03003 8.38675C9.02855 8.55718 8.96019 8.72021 8.83968 8.84072C8.71916 8.96124 8.55613 9.0296 8.3857 9.03108C8.21528 9.03256 8.05108 8.96704 7.92849 8.84864L6.52904 7.44919L5.12894 8.84864C5.00588 8.9642 4.84269 9.02735 4.67389 9.02473C4.5051 9.02211 4.34394 8.95392 4.22453 8.83459C4.10512 8.71526 4.03681 8.55416 4.03407 8.38536C4.03133 8.21657 4.09437 8.05333 4.20984 7.93019L5.60929 6.53074L4.20984 5.13064C4.08799 5.00875 4.01953 4.84345 4.01953 4.67109C4.01953 4.49873 4.08799 4.33343 4.20984 4.21154" fill="#01472B"/>
<path fill-rule="evenodd" clip-rule="evenodd" d="M6.5 0C2.91005 0 0 2.91005 0 6.5C0 10.0899 2.91005 13 6.5 13C10.0899 13 13 10.0899 13 6.5C13 2.91005 10.0899 0 6.5 0ZM1.3 6.5C1.3 5.12087 1.84786 3.79823 2.82304 2.82304C3.79823 1.84786 5.12087 1.3 6.5 1.3C7.87913 1.3 9.20177 1.84786 10.177 2.82304C11.1521 3.79823 11.7 5.12087 11.7 6.5C11.7 7.87913 11.1521 9.20177 10.177 10.177C9.20177 11.1521 7.87913 11.7 6.5 11.7C5.12087 11.7 3.79823 11.1521 2.82304 10.177C1.84786 9.20177 1.3 7.87913 1.3 6.5Z" fill="#01472B"/>
</svg>
