<svg width="560" height="560" viewBox="0 0 560 560" fill="none" xmlns="http://www.w3.org/2000/svg">
<path d="M433.969 360.289C451.914 344.131 479.559 345.58 495.717 363.525V363.525C511.874 381.469 510.425 409.115 492.481 425.272L481.544 435.12L423.032 370.136L433.969 360.289Z" fill="#02AD69"/>
<path d="M381.999 5.90213C382.121 4.21665 384.325 3.66705 385.224 5.09799L394.967 20.6058C395.537 21.5132 396.781 21.6992 397.592 20.9981L411.443 9.01636C412.721 7.91078 414.668 9.08083 414.292 10.7283L410.215 28.583C409.977 29.6277 410.725 30.6393 411.794 30.7166L430.06 32.0382C431.746 32.1602 432.296 34.3645 430.865 35.2635L415.357 45.006C414.449 45.576 414.263 46.8206 414.964 47.631L426.946 61.4819C428.052 62.7599 426.882 64.7072 425.234 64.3311L407.38 60.2544C406.335 60.0159 405.323 60.7644 405.246 61.8332L403.924 80.0996C403.802 81.7851 401.598 82.3347 400.699 80.9037L390.957 65.3959C390.387 64.4886 389.142 64.3026 388.332 65.0036L374.481 76.9854C373.203 78.0909 371.255 76.9209 371.631 75.2734L375.708 57.4187C375.947 56.374 375.198 55.3624 374.129 55.2851L355.863 53.9635C354.177 53.8415 353.628 51.6372 355.059 50.7382L370.567 40.9957C371.474 40.4257 371.66 39.1811 370.959 38.3707L358.977 24.5198C357.872 23.2418 359.042 21.2945 360.689 21.6706L378.544 25.7473C379.589 25.9858 380.6 25.2373 380.677 24.1685L381.999 5.90213Z" fill="#02AD69"/>
<circle cx="107.588" cy="426.506" r="8.30721" transform="rotate(45 107.588 426.506)" fill="#02AD69"/>
<circle cx="103.484" cy="452.417" r="8.30721" transform="rotate(45 103.484 452.417)" fill="#02AD69"/>
<circle cx="99.3789" cy="478.327" r="8.30721" transform="rotate(45 99.3789 478.327)" fill="#02AD69"/>
<circle cx="95.2754" cy="504.237" r="8.30721" transform="rotate(45 95.2754 504.237)" fill="#02AD69"/>
<circle cx="135.225" cy="430.884" r="8.30721" transform="rotate(45 135.225 430.884)" fill="#02AD69"/>
<circle cx="131.121" cy="456.794" r="8.30721" transform="rotate(45 131.121 456.794)" fill="#02AD69"/>
<circle cx="127.016" cy="482.704" r="8.30721" transform="rotate(45 127.016 482.704)" fill="#02AD69"/>
<circle cx="122.912" cy="508.615" r="8.30721" transform="rotate(45 122.912 508.615)" fill="#02AD69"/>
<circle cx="162.861" cy="435.261" r="8.30721" transform="rotate(45 162.861 435.261)" fill="#02AD69"/>
<circle cx="158.758" cy="461.172" r="8.30721" transform="rotate(45 158.758 461.172)" fill="#02AD69"/>
<circle cx="154.654" cy="487.082" r="8.30721" transform="rotate(45 154.654 487.082)" fill="#02AD69"/>
<circle cx="150.551" cy="512.992" r="8.30721" transform="rotate(45 150.551 512.992)" fill="#02AD69"/>
</svg>
