<svg width="1487" height="273" viewBox="0 0 1487 273" fill="none" xmlns="http://www.w3.org/2000/svg">
<path fill-rule="evenodd" clip-rule="evenodd" d="M1126.88 272H821.924C862.427 248.611 927.145 215.993 992.856 202.416C1057.74 189.011 1101.96 234.041 1126.88 272Z" fill="#00955A"/>
<path fill-rule="evenodd" clip-rule="evenodd" d="M303.115 272H0.925781C41.5393 248.704 105.216 216.924 169.855 203.569C234.082 190.299 278.062 234.29 303.115 272Z" fill="#02AD69"/>
<path fill-rule="evenodd" clip-rule="evenodd" d="M1487 269.771V272H1069.41C1072.4 257.767 1084.88 225.208 1136.62 185.333C1195.33 140.079 1417.39 237.433 1487 269.771Z" fill="#02AD69"/>
<path fill-rule="evenodd" clip-rule="evenodd" d="M625.328 272H231.412C238.001 255.049 254.396 228.188 295.136 196.79C349.004 155.273 540.342 233.78 625.328 272Z" fill="#00955A"/>
<path d="M187.778 119.875C187.461 119.399 187.03 119.008 186.525 118.738C186.02 118.468 185.457 118.326 184.884 118.326C184.311 118.326 183.747 118.468 183.242 118.738C182.738 119.008 182.307 119.399 181.989 119.875L161.116 151.186C160.767 151.709 160.567 152.318 160.537 152.947C160.507 153.575 160.648 154.2 160.945 154.755C161.242 155.31 161.684 155.774 162.224 156.097C162.764 156.421 163.381 156.592 164.01 156.592H164.692L150.623 179.101C150.294 179.627 150.112 180.232 150.096 180.853C150.079 181.474 150.23 182.088 150.531 182.631C150.832 183.174 151.273 183.627 151.808 183.942C152.343 184.257 152.952 184.423 153.573 184.423H154.902L143.505 207.217C143.24 207.748 143.114 208.337 143.14 208.93C143.166 209.523 143.344 210.099 143.655 210.604C143.967 211.108 144.403 211.525 144.921 211.814C145.439 212.103 146.022 212.255 146.616 212.255H177.926V229.65H191.842V212.255H223.152C223.746 212.255 224.329 212.103 224.847 211.814C225.365 211.525 225.801 211.108 226.112 210.604C226.424 210.099 226.601 209.523 226.628 208.93C226.654 208.337 226.528 207.748 226.262 207.217L214.872 184.423H216.201C216.822 184.423 217.432 184.257 217.967 183.942C218.502 183.627 218.943 183.174 219.244 182.631C219.545 182.088 219.695 181.474 219.679 180.853C219.663 180.232 219.481 179.627 219.151 179.101L205.076 156.592H205.758C206.387 156.592 207.004 156.421 207.544 156.097C208.084 155.774 208.526 155.31 208.823 154.755C209.12 154.2 209.261 153.575 209.231 152.947C209.201 152.318 209.001 151.709 208.652 151.186L187.778 119.875Z" fill="#0A7121"/>
<path d="M1309.95 134.125C1309.63 133.648 1309.2 133.258 1308.69 132.988C1308.19 132.717 1307.62 132.576 1307.05 132.576C1306.48 132.576 1305.92 132.717 1305.41 132.988C1304.91 133.258 1304.48 133.648 1304.16 134.125L1283.28 165.435C1282.94 165.959 1282.74 166.568 1282.71 167.196C1282.67 167.825 1282.82 168.45 1283.11 169.005C1283.41 169.559 1283.85 170.023 1284.39 170.347C1284.93 170.67 1285.55 170.841 1286.18 170.842H1286.86L1272.79 193.35C1272.46 193.877 1272.28 194.482 1272.26 195.103C1272.25 195.724 1272.4 196.338 1272.7 196.881C1273 197.424 1273.44 197.877 1273.98 198.192C1274.51 198.507 1275.12 198.673 1275.74 198.673H1277.07L1265.67 221.467C1265.41 221.998 1265.28 222.587 1265.31 223.18C1265.33 223.772 1265.51 224.349 1265.82 224.853C1266.14 225.358 1266.57 225.775 1267.09 226.064C1267.61 226.353 1268.19 226.505 1268.78 226.505H1300.09V243.899H1314.01V226.505H1345.32C1345.91 226.505 1346.5 226.353 1347.01 226.064C1347.53 225.775 1347.97 225.358 1348.28 224.853C1348.59 224.349 1348.77 223.772 1348.8 223.18C1348.82 222.587 1348.7 221.998 1348.43 221.467L1337.04 198.673H1338.37C1338.99 198.673 1339.6 198.507 1340.14 198.192C1340.67 197.877 1341.11 197.424 1341.41 196.881C1341.71 196.338 1341.86 195.724 1341.85 195.103C1341.83 194.482 1341.65 193.877 1341.32 193.35L1327.24 170.842H1327.93C1328.55 170.841 1329.17 170.67 1329.71 170.347C1330.25 170.023 1330.69 169.559 1330.99 169.005C1331.29 168.45 1331.43 167.825 1331.4 167.196C1331.37 166.568 1331.17 165.959 1330.82 165.435L1309.95 134.125Z" fill="#0A7121"/>
<path d="M1170.12 99.3912C1169.8 98.9147 1169.37 98.5241 1168.87 98.2539C1168.36 97.9837 1167.8 97.8423 1167.23 97.8423C1166.65 97.8423 1166.09 97.9837 1165.58 98.2539C1165.08 98.5241 1164.65 98.9147 1164.33 99.3912L1143.46 130.702C1143.11 131.226 1142.91 131.834 1142.88 132.463C1142.85 133.091 1142.99 133.716 1143.29 134.271C1143.58 134.826 1144.03 135.29 1144.57 135.613C1145.11 135.937 1145.72 136.108 1146.35 136.108H1147.03L1132.97 158.617C1132.64 159.143 1132.45 159.748 1132.44 160.369C1132.42 160.99 1132.57 161.604 1132.87 162.147C1133.17 162.69 1133.61 163.143 1134.15 163.458C1134.68 163.773 1135.29 163.939 1135.92 163.939H1137.24L1125.85 186.734C1125.58 187.264 1125.46 187.853 1125.48 188.446C1125.51 189.039 1125.69 189.615 1126 190.12C1126.31 190.625 1126.74 191.041 1127.26 191.33C1127.78 191.619 1128.36 191.771 1128.96 191.771H1160.27V209.166H1174.18V191.771H1205.49C1206.09 191.771 1206.67 191.619 1207.19 191.33C1207.71 191.041 1208.14 190.625 1208.45 190.12C1208.77 189.615 1208.94 189.039 1208.97 188.446C1209 187.853 1208.87 187.264 1208.6 186.734L1197.21 163.939H1198.54C1199.16 163.939 1199.77 163.773 1200.31 163.458C1200.84 163.143 1201.28 162.69 1201.59 162.147C1201.89 161.604 1202.04 160.99 1202.02 160.369C1202 159.748 1201.82 159.143 1201.49 158.617L1187.42 136.108H1188.1C1188.73 136.108 1189.35 135.937 1189.89 135.613C1190.43 135.29 1190.87 134.826 1191.16 134.271C1191.46 133.716 1191.6 133.091 1191.57 132.463C1191.54 131.834 1191.34 131.226 1190.99 130.702L1170.12 99.3912Z" fill="#0A7121"/>
<path d="M350.642 146.549C350.324 146.072 349.894 145.682 349.389 145.412C348.884 145.141 348.32 145 347.747 145C347.175 145 346.611 145.141 346.106 145.412C345.601 145.682 345.17 146.072 344.853 146.549L323.979 177.859C323.63 178.383 323.43 178.992 323.4 179.62C323.37 180.249 323.511 180.874 323.808 181.429C324.105 181.984 324.547 182.447 325.087 182.771C325.627 183.094 326.244 183.265 326.874 183.266H327.555L313.487 205.774C313.157 206.301 312.975 206.906 312.959 207.527C312.943 208.148 313.093 208.762 313.394 209.305C313.695 209.848 314.136 210.301 314.671 210.616C315.206 210.931 315.816 211.097 316.437 211.097H317.766L306.369 233.891C306.103 234.422 305.977 235.011 306.003 235.604C306.03 236.197 306.207 236.773 306.519 237.277C306.83 237.782 307.266 238.199 307.784 238.488C308.302 238.777 308.886 238.929 309.479 238.929H340.789V256.323H354.705V238.929H386.016C386.609 238.929 387.192 238.777 387.71 238.488C388.228 238.199 388.664 237.782 388.976 237.277C389.287 236.773 389.465 236.197 389.491 235.604C389.517 235.011 389.392 234.422 389.126 233.891L377.736 211.097H379.065C379.686 211.097 380.295 210.931 380.83 210.616C381.365 210.301 381.806 209.848 382.107 209.305C382.409 208.762 382.559 208.148 382.542 207.527C382.526 206.906 382.344 206.301 382.015 205.774L367.939 183.266H368.621C369.25 183.265 369.868 183.094 370.407 182.771C370.947 182.447 371.389 181.984 371.686 181.429C371.983 180.874 372.124 180.249 372.094 179.62C372.064 178.992 371.864 178.383 371.515 177.859L350.642 146.549Z" fill="#0A7121"/>
<path d="M1020.64 139.549C1020.32 139.072 1019.89 138.682 1019.39 138.412C1018.88 138.141 1018.32 138 1017.75 138C1017.17 138 1016.61 138.141 1016.11 138.412C1015.6 138.682 1015.17 139.072 1014.85 139.549L993.979 170.859C993.63 171.383 993.43 171.992 993.4 172.62C993.37 173.249 993.511 173.874 993.808 174.429C994.105 174.984 994.547 175.447 995.087 175.771C995.627 176.094 996.244 176.265 996.874 176.266H997.555L983.487 198.774C983.157 199.301 982.975 199.906 982.959 200.527C982.943 201.148 983.093 201.762 983.394 202.305C983.695 202.848 984.136 203.301 984.671 203.616C985.206 203.931 985.816 204.097 986.437 204.097H987.766L976.369 226.891C976.103 227.422 975.977 228.011 976.003 228.604C976.03 229.197 976.207 229.773 976.519 230.277C976.83 230.782 977.266 231.199 977.784 231.488C978.302 231.777 978.886 231.929 979.479 231.929H1010.79V249.323H1024.71V231.929H1056.02C1056.61 231.929 1057.19 231.777 1057.71 231.488C1058.23 231.199 1058.66 230.782 1058.98 230.277C1059.29 229.773 1059.46 229.197 1059.49 228.604C1059.52 228.011 1059.39 227.422 1059.13 226.891L1047.74 204.097H1049.06C1049.69 204.097 1050.3 203.931 1050.83 203.616C1051.37 203.301 1051.81 202.848 1052.11 202.305C1052.41 201.762 1052.56 201.148 1052.54 200.527C1052.53 199.906 1052.34 199.301 1052.01 198.774L1037.94 176.266H1038.62C1039.25 176.265 1039.87 176.094 1040.41 175.771C1040.95 175.447 1041.39 174.984 1041.69 174.429C1041.98 173.874 1042.12 173.249 1042.09 172.62C1042.06 171.992 1041.86 171.383 1041.52 170.859L1020.64 139.549Z" fill="#0A7121"/>
<path d="M691.049 167.279H774.673V226.092H691.049V167.279Z" fill="white"/>
<path d="M706.395 88.7747C706.395 75.8925 716.838 65.4495 729.72 65.4495H735.402C748.285 65.4495 758.728 75.8925 758.728 88.7747V88.7747H706.395V88.7747Z" fill="black"/>
<path d="M722.881 49.4097C722.881 44.6928 726.705 40.8689 731.422 40.8689H733.502C738.219 40.8689 742.043 44.6928 742.043 49.4097V49.4097H722.881V49.4097Z" fill="black"/>
<path d="M729.223 36.0756C729.223 34.4897 730.508 33.2041 732.094 33.2041H732.794C734.38 33.2041 735.665 34.4897 735.665 36.0756V36.0756H729.223V36.0756Z" fill="black"/>
<rect x="702.044" y="141.131" width="60.8141" height="17.3468" fill="white" stroke="black" stroke-width="0.330386"/>
<mask id="path-15-inside-1_358_2115" fill="white">
<path fill-rule="evenodd" clip-rule="evenodd" d="M701.879 91.6391V141.965H763.023V91.5402L751.008 87.5886L751.287 86.7205H713.643L713.892 87.4521L701.879 91.6391Z"/>
</mask>
<path fill-rule="evenodd" clip-rule="evenodd" d="M701.879 91.6391V141.965H763.023V91.5402L751.008 87.5886L751.287 86.7205H713.643L713.892 87.4521L701.879 91.6391Z" fill="white"/>
<path d="M701.879 91.6391L701.77 91.3271L701.549 91.4044V91.6391H701.879ZM701.879 141.965H701.549V142.295H701.879V141.965ZM763.023 141.965V142.295H763.354V141.965H763.023ZM763.023 91.5402H763.354V91.301L763.127 91.2263L763.023 91.5402ZM751.008 87.5886L750.694 87.4876L750.594 87.8L750.905 87.9025L751.008 87.5886ZM751.287 86.7205L751.602 86.8214L751.74 86.3901H751.287V86.7205ZM713.643 86.7205V86.3901H713.182L713.33 86.8269L713.643 86.7205ZM713.892 87.4521L714.001 87.7641L714.311 87.6562L714.205 87.3457L713.892 87.4521ZM701.549 91.6391V141.965H702.209V91.6391H701.549ZM701.879 142.295H763.023V141.634H701.879V142.295ZM763.354 141.965V91.5402H762.693V141.965H763.354ZM763.127 91.2263L751.112 87.2748L750.905 87.9025L762.92 91.854L763.127 91.2263ZM751.323 87.6896L751.602 86.8214L750.973 86.6195L750.694 87.4876L751.323 87.6896ZM751.287 86.3901H713.643V87.0508H751.287V86.3901ZM713.33 86.8269L713.579 87.5585L714.205 87.3457L713.956 86.6141L713.33 86.8269ZM713.783 87.1402L701.77 91.3271L701.988 91.9511L714.001 87.7641L713.783 87.1402Z" fill="black" mask="url(#path-15-inside-1_358_2115)"/>
<path d="M674.31 256.947H790.573C793.765 256.947 796.373 259.448 796.544 262.597H668.339C668.511 259.448 671.119 256.947 674.31 256.947Z" fill="#D8D8D8" stroke="black" stroke-width="0.660773"/>
<rect x="688.39" y="229.351" width="88.2131" height="27.5872" fill="white" stroke="black" stroke-width="0.330386"/>
<rect x="685.479" y="226.179" width="93.9319" height="3.36445" fill="white" stroke="black" stroke-width="0.660773"/>
<rect x="685.479" y="163.769" width="93.9319" height="3.36445" fill="white" stroke="black" stroke-width="0.660773"/>
<rect x="702.959" y="170.906" width="8.02839" height="55.2736" fill="white" stroke="black" stroke-width="0.660773"/>
<rect x="701.5" y="221.95" width="11.4314" height="4.22894" fill="white" stroke="black" stroke-width="0.660773"/>
<rect x="689.973" y="170.906" width="8.02839" height="55.2736" fill="white" stroke="black" stroke-width="0.660773"/>
<rect x="688.287" y="221.95" width="11.4314" height="4.22894" fill="white" stroke="black" stroke-width="0.660773"/>
<rect x="701.276" y="167.271" width="11.4314" height="4.22894" fill="white" stroke="black" stroke-width="0.660773"/>
<rect x="688.287" y="167.271" width="11.4314" height="4.22894" fill="white" stroke="black" stroke-width="0.660773"/>
<rect x="766.688" y="170.906" width="8.02839" height="55.2736" fill="white" stroke="black" stroke-width="0.660773"/>
<rect x="765.235" y="221.95" width="11.4314" height="4.22894" fill="white" stroke="black" stroke-width="0.660773"/>
<rect x="753.703" y="170.906" width="8.02839" height="55.2736" fill="white" stroke="black" stroke-width="0.660773"/>
<rect x="752.022" y="221.95" width="11.4314" height="4.22894" fill="white" stroke="black" stroke-width="0.660773"/>
<rect x="765.004" y="167.238" width="11.4314" height="4.22894" fill="white" stroke="black" stroke-width="0.660773"/>
<rect x="752.022" y="167.238" width="11.4314" height="4.22894" fill="white" stroke="black" stroke-width="0.660773"/>
<circle cx="732.476" cy="196.676" r="15.9081" fill="#DBDDE5" stroke="black" stroke-width="0.330466"/>
<circle cx="732.459" cy="196.659" r="9.31689" stroke="white" stroke-width="0.792927"/>
<rect x="676.179" y="251.121" width="6.79339" height="5.83931" fill="white" stroke="black" stroke-width="0.330386"/>
<rect x="676.179" y="249.15" width="6.79339" height="1.89579" fill="white" stroke="black" stroke-width="0.330386"/>
<path d="M678.65 242.484C678.561 243.112 677.541 244.83 677.541 244.83C677.799 246.601 678.242 247.089 679.568 247.089C680.894 247.089 681.4 246.608 681.659 244.83C681.659 244.83 680.669 243.145 680.576 242.484C680.483 241.823 680.729 241.344 680.729 241.344C679.838 241.18 679.348 241.189 678.485 241.344C678.485 241.344 678.74 241.856 678.65 242.484Z" fill="white"/>
<path d="M677.541 244.83L677.399 244.746L677.369 244.796L677.378 244.854L677.541 244.83ZM678.65 242.484L678.814 242.507L678.814 242.507L678.65 242.484ZM678.485 241.344L678.455 241.182L678.239 241.221L678.337 241.418L678.485 241.344ZM680.729 241.344L680.876 241.42L680.977 241.222L680.759 241.182L680.729 241.344ZM680.576 242.484L680.739 242.461L680.739 242.461L680.576 242.484ZM681.659 244.83L681.823 244.854L681.831 244.796L681.802 244.746L681.659 244.83ZM677.541 244.83C677.683 244.914 677.683 244.914 677.683 244.914C677.683 244.914 677.683 244.914 677.683 244.914C677.683 244.914 677.683 244.914 677.683 244.914C677.683 244.914 677.684 244.913 677.684 244.913C677.684 244.912 677.685 244.911 677.686 244.909C677.688 244.906 677.691 244.901 677.695 244.894C677.702 244.881 677.714 244.862 677.728 244.838C677.756 244.789 677.797 244.719 677.845 244.633C677.943 244.461 678.074 244.225 678.209 243.969C678.343 243.713 678.48 243.436 678.591 243.181C678.699 242.931 678.788 242.688 678.814 242.507L678.487 242.461C678.468 242.594 678.396 242.801 678.288 243.05C678.182 243.294 678.048 243.564 677.916 243.816C677.784 244.068 677.655 244.3 677.558 244.47C677.51 244.555 677.47 244.624 677.442 244.672C677.428 244.696 677.417 244.714 677.41 244.727C677.406 244.733 677.404 244.738 677.402 244.741C677.401 244.743 677.4 244.744 677.4 244.745C677.399 244.745 677.399 244.745 677.399 244.745C677.399 244.745 677.399 244.746 677.399 244.746C677.399 244.746 677.399 244.746 677.399 244.746C677.399 244.746 677.399 244.746 677.541 244.83ZM678.814 242.507C678.862 242.166 678.817 241.859 678.761 241.638C678.733 241.527 678.702 241.437 678.677 241.374C678.665 241.343 678.654 241.318 678.646 241.3C678.642 241.292 678.639 241.285 678.637 241.28C678.636 241.277 678.635 241.275 678.634 241.274C678.634 241.273 678.633 241.272 678.633 241.272C678.633 241.272 678.633 241.271 678.633 241.271C678.633 241.271 678.633 241.271 678.633 241.271C678.633 241.271 678.632 241.271 678.632 241.271C678.632 241.271 678.632 241.271 678.485 241.344C678.337 241.418 678.337 241.418 678.337 241.418C678.337 241.418 678.337 241.418 678.337 241.418C678.337 241.418 678.337 241.418 678.337 241.418C678.337 241.418 678.337 241.418 678.337 241.418C678.337 241.418 678.337 241.418 678.337 241.418C678.337 241.419 678.337 241.419 678.338 241.421C678.339 241.424 678.342 241.428 678.344 241.435C678.35 241.448 678.359 241.468 678.369 241.494C678.39 241.547 678.416 241.624 678.441 241.72C678.49 241.912 678.528 242.174 678.487 242.461L678.814 242.507ZM678.514 241.507C679.359 241.355 679.829 241.346 680.699 241.507L680.759 241.182C679.848 241.014 679.337 241.023 678.455 241.182L678.514 241.507ZM680.729 241.344C680.582 241.269 680.582 241.269 680.582 241.269C680.582 241.269 680.582 241.269 680.582 241.269C680.582 241.269 680.582 241.269 680.581 241.269C680.581 241.27 680.581 241.27 680.581 241.27C680.581 241.271 680.581 241.271 680.58 241.272C680.579 241.273 680.578 241.275 680.577 241.278C680.575 241.283 680.572 241.289 680.568 241.298C680.56 241.315 680.55 241.339 680.538 241.369C680.514 241.43 680.484 241.518 680.457 241.627C680.403 241.845 680.362 242.152 680.412 242.507L680.739 242.461C680.696 242.156 680.732 241.893 680.778 241.706C680.801 241.613 680.826 241.539 680.845 241.49C680.855 241.465 680.863 241.447 680.869 241.435C680.871 241.429 680.873 241.424 680.875 241.422C680.875 241.421 680.876 241.42 680.876 241.42C680.876 241.419 680.876 241.419 680.876 241.419C680.876 241.419 680.876 241.419 680.876 241.42C680.876 241.42 680.876 241.42 680.876 241.42C680.876 241.42 680.876 241.42 680.876 241.42C680.876 241.42 680.876 241.42 680.729 241.344ZM680.412 242.507C680.439 242.695 680.525 242.941 680.632 243.194C680.74 243.45 680.875 243.727 681.006 243.98C681.136 244.235 681.264 244.468 681.359 244.637C681.407 244.722 681.446 244.791 681.474 244.839C681.487 244.863 681.498 244.881 681.506 244.894C681.509 244.9 681.512 244.905 681.514 244.909C681.515 244.91 681.516 244.911 681.516 244.912C681.516 244.913 681.517 244.913 681.517 244.913C681.517 244.913 681.517 244.914 681.517 244.914C681.517 244.914 681.517 244.914 681.517 244.914C681.517 244.914 681.517 244.914 681.659 244.83C681.802 244.746 681.802 244.746 681.802 244.746C681.802 244.746 681.802 244.746 681.802 244.746C681.802 244.746 681.802 244.746 681.802 244.746C681.802 244.746 681.801 244.746 681.801 244.745C681.801 244.744 681.8 244.743 681.799 244.742C681.797 244.739 681.795 244.734 681.791 244.728C681.784 244.715 681.773 244.697 681.76 244.674C681.733 244.627 681.694 244.559 681.647 244.476C681.554 244.308 681.428 244.079 681.299 243.829C681.171 243.579 681.04 243.311 680.936 243.065C680.831 242.816 680.759 242.604 680.739 242.461L680.412 242.507ZM677.378 244.854C677.507 245.74 677.686 246.35 678.031 246.734C678.387 247.13 678.889 247.254 679.568 247.254V246.924C678.921 246.924 678.538 246.804 678.277 246.513C678.004 246.21 677.834 245.691 677.704 244.806L677.378 244.854ZM679.568 247.254C680.247 247.254 680.762 247.132 681.134 246.74C681.496 246.357 681.693 245.747 681.823 244.854L681.496 244.806C681.367 245.691 681.181 246.21 680.894 246.512C680.616 246.805 680.215 246.924 679.568 246.924V247.254Z" fill="black"/>
<path d="M677.886 247.14C677.945 248.531 676.268 249.112 676.268 249.112H682.819C682.819 249.112 681.122 248.51 681.201 247.14H677.886Z" fill="white" stroke="black" stroke-width="0.330386"/>
<rect x="782.019" y="251.121" width="6.79339" height="5.83931" fill="white" stroke="black" stroke-width="0.330386"/>
<rect x="782.019" y="249.15" width="6.79339" height="1.89579" fill="white" stroke="black" stroke-width="0.330386"/>
<path d="M784.49 242.484C784.401 243.112 783.381 244.83 783.381 244.83C783.639 246.601 784.082 247.089 785.408 247.089C786.734 247.089 787.24 246.608 787.499 244.83C787.499 244.83 786.509 243.145 786.415 242.484C786.322 241.823 786.569 241.344 786.569 241.344C785.678 241.18 785.188 241.189 784.324 241.344C784.324 241.344 784.579 241.856 784.49 242.484Z" fill="white"/>
<path d="M783.381 244.83L783.239 244.746L783.209 244.796L783.217 244.854L783.381 244.83ZM784.49 242.484L784.654 242.507L784.654 242.507L784.49 242.484ZM784.324 241.344L784.295 241.182L784.078 241.221L784.177 241.418L784.324 241.344ZM786.569 241.344L786.715 241.42L786.817 241.222L786.598 241.182L786.569 241.344ZM786.415 242.484L786.579 242.461L786.579 242.461L786.415 242.484ZM787.499 244.83L787.663 244.854L787.671 244.796L787.642 244.746L787.499 244.83ZM783.381 244.83C783.523 244.914 783.523 244.914 783.523 244.914C783.523 244.914 783.523 244.914 783.523 244.914C783.523 244.914 783.523 244.914 783.523 244.914C783.523 244.914 783.523 244.913 783.524 244.913C783.524 244.912 783.525 244.911 783.526 244.909C783.528 244.906 783.531 244.901 783.535 244.894C783.542 244.881 783.553 244.862 783.568 244.838C783.596 244.789 783.636 244.719 783.685 244.633C783.783 244.461 783.914 244.225 784.048 243.969C784.182 243.713 784.32 243.436 784.431 243.181C784.539 242.931 784.628 242.688 784.654 242.507L784.327 242.461C784.308 242.594 784.236 242.801 784.128 243.05C784.022 243.294 783.888 243.564 783.756 243.816C783.624 244.068 783.494 244.3 783.398 244.47C783.35 244.555 783.31 244.624 783.282 244.672C783.268 244.696 783.257 244.714 783.25 244.727C783.246 244.733 783.243 244.738 783.242 244.741C783.241 244.743 783.24 244.744 783.239 244.745C783.239 244.745 783.239 244.745 783.239 244.745C783.239 244.745 783.239 244.746 783.239 244.746C783.239 244.746 783.239 244.746 783.239 244.746C783.239 244.746 783.239 244.746 783.381 244.83ZM784.654 242.507C784.702 242.166 784.657 241.859 784.601 241.638C784.573 241.527 784.541 241.437 784.517 241.374C784.504 241.343 784.494 241.318 784.486 241.3C784.482 241.292 784.479 241.285 784.477 241.28C784.475 241.277 784.474 241.275 784.474 241.274C784.473 241.273 784.473 241.272 784.473 241.272C784.473 241.272 784.473 241.271 784.473 241.271C784.472 241.271 784.472 241.271 784.472 241.271C784.472 241.271 784.472 241.271 784.472 241.271C784.472 241.271 784.472 241.271 784.324 241.344C784.177 241.418 784.177 241.418 784.176 241.418C784.176 241.418 784.176 241.418 784.176 241.418C784.176 241.418 784.176 241.418 784.176 241.418C784.176 241.418 784.176 241.418 784.176 241.418C784.176 241.418 784.176 241.418 784.177 241.418C784.177 241.419 784.177 241.419 784.178 241.421C784.179 241.424 784.181 241.428 784.184 241.435C784.19 241.448 784.199 241.468 784.209 241.494C784.229 241.547 784.256 241.624 784.281 241.72C784.33 241.912 784.367 242.174 784.327 242.461L784.654 242.507ZM784.354 241.507C785.199 241.355 785.669 241.346 786.539 241.507L786.598 241.182C785.688 241.014 785.177 241.023 784.295 241.182L784.354 241.507ZM786.569 241.344C786.422 241.269 786.422 241.269 786.422 241.269C786.421 241.269 786.421 241.269 786.421 241.269C786.421 241.269 786.421 241.269 786.421 241.269C786.421 241.27 786.421 241.27 786.421 241.27C786.421 241.271 786.42 241.271 786.42 241.272C786.419 241.273 786.418 241.275 786.417 241.278C786.415 241.283 786.412 241.289 786.408 241.298C786.4 241.315 786.39 241.339 786.378 241.369C786.354 241.43 786.324 241.518 786.297 241.627C786.243 241.845 786.202 242.152 786.252 242.507L786.579 242.461C786.536 242.156 786.571 241.893 786.617 241.706C786.64 241.613 786.666 241.539 786.685 241.49C786.695 241.465 786.703 241.447 786.708 241.435C786.711 241.429 786.713 241.424 786.714 241.422C786.715 241.421 786.715 241.42 786.716 241.42C786.716 241.419 786.716 241.419 786.716 241.419C786.716 241.419 786.716 241.419 786.716 241.42C786.716 241.42 786.716 241.42 786.716 241.42C786.716 241.42 786.715 241.42 786.715 241.42C786.715 241.42 786.715 241.42 786.569 241.344ZM786.252 242.507C786.278 242.695 786.365 242.941 786.472 243.194C786.58 243.45 786.715 243.727 786.845 243.98C786.976 244.235 787.104 244.468 787.199 244.637C787.246 244.722 787.286 244.791 787.313 244.839C787.327 244.863 787.338 244.881 787.345 244.894C787.349 244.9 787.352 244.905 787.354 244.909C787.355 244.91 787.356 244.911 787.356 244.912C787.356 244.913 787.357 244.913 787.357 244.913C787.357 244.913 787.357 244.914 787.357 244.914C787.357 244.914 787.357 244.914 787.357 244.914C787.357 244.914 787.357 244.914 787.499 244.83C787.642 244.746 787.642 244.746 787.642 244.746C787.642 244.746 787.642 244.746 787.642 244.746C787.642 244.746 787.642 244.746 787.642 244.746C787.641 244.746 787.641 244.746 787.641 244.745C787.641 244.744 787.64 244.743 787.639 244.742C787.637 244.739 787.634 244.734 787.631 244.728C787.624 244.715 787.613 244.697 787.6 244.674C787.573 244.627 787.534 244.559 787.487 244.476C787.393 244.308 787.268 244.079 787.139 243.829C787.011 243.579 786.88 243.311 786.776 243.065C786.671 242.816 786.599 242.604 786.579 242.461L786.252 242.507ZM783.217 244.854C783.347 245.74 783.526 246.35 783.871 246.734C784.227 247.13 784.728 247.254 785.408 247.254V246.924C784.761 246.924 784.378 246.804 784.117 246.513C783.844 246.21 783.673 245.691 783.544 244.806L783.217 244.854ZM785.408 247.254C786.087 247.254 786.602 247.132 786.974 246.74C787.336 246.357 787.533 245.747 787.663 244.854L787.336 244.806C787.207 245.691 787.021 246.21 786.734 246.512C786.456 246.805 786.055 246.924 785.408 246.924V247.254Z" fill="black"/>
<path d="M783.726 247.14C783.785 248.531 782.107 249.112 782.107 249.112H788.659C788.659 249.112 786.962 248.51 787.041 247.14H783.726Z" fill="white" stroke="black" stroke-width="0.330386"/>
<rect x="767.306" y="148.435" width="6.78331" height="10.0428" fill="white" stroke="black" stroke-width="0.330386"/>
<rect x="767.306" y="146.559" width="6.79339" height="1.89579" fill="white" stroke="black" stroke-width="0.330386"/>
<path d="M769.777 139.894C769.688 140.521 768.668 142.239 768.668 142.239C768.926 144.01 769.369 144.498 770.695 144.498C772.021 144.498 772.527 144.017 772.786 142.239C772.786 142.239 771.796 140.554 771.703 139.894C771.61 139.233 771.856 138.754 771.856 138.754C770.965 138.59 770.475 138.598 769.612 138.754C769.612 138.754 769.867 139.266 769.777 139.894Z" fill="white"/>
<path d="M768.668 142.239L768.526 142.155L768.496 142.205L768.505 142.263L768.668 142.239ZM769.777 139.894L769.941 139.917L769.941 139.917L769.777 139.894ZM769.612 138.754L769.582 138.591L769.365 138.63L769.464 138.827L769.612 138.754ZM771.856 138.754L772.003 138.829L772.104 138.632L771.886 138.591L771.856 138.754ZM771.703 139.894L771.866 139.871L771.866 139.871L771.703 139.894ZM772.786 142.239L772.95 142.263L772.958 142.206L772.929 142.156L772.786 142.239ZM768.668 142.239C768.81 142.324 768.81 142.324 768.81 142.324C768.81 142.324 768.81 142.324 768.81 142.324C768.81 142.324 768.81 142.323 768.81 142.323C768.81 142.323 768.811 142.323 768.811 142.322C768.811 142.321 768.812 142.32 768.813 142.318C768.815 142.315 768.818 142.31 768.822 142.304C768.829 142.291 768.841 142.272 768.855 142.247C768.883 142.199 768.924 142.129 768.972 142.043C769.07 141.871 769.201 141.635 769.335 141.379C769.469 141.123 769.607 140.845 769.718 140.591C769.826 140.341 769.915 140.098 769.941 139.917L769.614 139.87C769.595 140.003 769.523 140.211 769.415 140.459C769.309 140.703 769.175 140.973 769.043 141.225C768.911 141.477 768.782 141.71 768.685 141.88C768.637 141.964 768.597 142.033 768.569 142.081C768.555 142.105 768.544 142.124 768.537 142.136C768.533 142.142 768.531 142.147 768.529 142.15C768.528 142.152 768.527 142.153 768.527 142.154C768.526 142.154 768.526 142.155 768.526 142.155C768.526 142.155 768.526 142.155 768.526 142.155C768.526 142.155 768.526 142.155 768.526 142.155C768.526 142.155 768.526 142.155 768.668 142.239ZM769.941 139.917C769.989 139.576 769.944 139.268 769.888 139.048C769.86 138.937 769.828 138.847 769.804 138.784C769.792 138.752 769.781 138.727 769.773 138.71C769.769 138.701 769.766 138.694 769.764 138.689C769.763 138.687 769.762 138.685 769.761 138.683C769.76 138.682 769.76 138.682 769.76 138.681C769.76 138.681 769.76 138.681 769.76 138.681C769.76 138.681 769.76 138.68 769.759 138.68C769.759 138.68 769.759 138.68 769.759 138.68C769.759 138.68 769.759 138.68 769.612 138.754C769.464 138.827 769.464 138.827 769.464 138.827C769.464 138.827 769.464 138.827 769.464 138.827C769.464 138.827 769.464 138.827 769.464 138.827C769.463 138.827 769.463 138.827 769.463 138.827C769.463 138.827 769.464 138.827 769.464 138.827C769.464 138.828 769.464 138.829 769.465 138.83C769.466 138.833 769.469 138.838 769.471 138.844C769.477 138.857 769.486 138.877 769.496 138.904C769.516 138.956 769.543 139.033 769.568 139.129C769.617 139.321 769.654 139.584 769.614 139.87L769.941 139.917ZM769.641 138.916C770.486 138.764 770.956 138.756 771.826 138.916L771.886 138.591C770.975 138.423 770.464 138.432 769.582 138.591L769.641 138.916ZM771.856 138.754C771.709 138.678 771.709 138.678 771.709 138.678C771.709 138.678 771.709 138.679 771.709 138.679C771.709 138.679 771.708 138.679 771.708 138.679C771.708 138.679 771.708 138.679 771.708 138.679C771.708 138.68 771.707 138.681 771.707 138.681C771.706 138.683 771.705 138.685 771.704 138.687C771.702 138.692 771.699 138.699 771.695 138.707C771.687 138.724 771.677 138.748 771.665 138.779C771.641 138.84 771.611 138.927 771.584 139.036C771.53 139.254 771.489 139.561 771.539 139.917L771.866 139.871C771.823 139.566 771.859 139.302 771.905 139.115C771.928 139.022 771.953 138.949 771.972 138.899C771.982 138.875 771.99 138.856 771.996 138.844C771.998 138.838 772 138.834 772.002 138.831C772.002 138.83 772.003 138.829 772.003 138.829C772.003 138.829 772.003 138.829 772.003 138.829C772.003 138.829 772.003 138.829 772.003 138.829C772.003 138.829 772.003 138.829 772.003 138.829C772.003 138.829 772.003 138.829 772.003 138.829C772.003 138.829 772.003 138.829 771.856 138.754ZM771.539 139.917C771.566 140.105 771.652 140.351 771.759 140.603C771.867 140.859 772.002 141.136 772.133 141.39C772.263 141.644 772.391 141.877 772.486 142.047C772.534 142.131 772.573 142.2 772.6 142.248C772.614 142.272 772.625 142.291 772.632 142.303C772.636 142.31 772.639 142.315 772.641 142.318C772.642 142.32 772.643 142.321 772.643 142.322C772.643 142.322 772.644 142.322 772.644 142.323C772.644 142.323 772.644 142.323 772.644 142.323C772.644 142.323 772.644 142.323 772.644 142.323C772.644 142.323 772.644 142.323 772.786 142.239C772.929 142.156 772.929 142.156 772.929 142.156C772.929 142.156 772.929 142.156 772.929 142.156C772.929 142.156 772.929 142.156 772.929 142.155C772.929 142.155 772.928 142.155 772.928 142.155C772.928 142.154 772.927 142.153 772.926 142.151C772.924 142.148 772.922 142.143 772.918 142.137C772.911 142.125 772.9 142.107 772.887 142.083C772.86 142.036 772.821 141.969 772.774 141.885C772.681 141.718 772.555 141.488 772.426 141.239C772.298 140.989 772.167 140.72 772.063 140.475C771.958 140.225 771.886 140.013 771.866 139.871L771.539 139.917ZM768.505 142.263C768.634 143.149 768.813 143.76 769.158 144.143C769.514 144.539 770.016 144.663 770.695 144.663V144.333C770.048 144.333 769.665 144.213 769.404 143.922C769.131 143.619 768.961 143.1 768.831 142.216L768.505 142.263ZM770.695 144.663C771.374 144.663 771.889 144.541 772.261 144.149C772.623 143.767 772.82 143.156 772.95 142.263L772.623 142.216C772.494 143.1 772.308 143.619 772.021 143.922C771.743 144.215 771.342 144.333 770.695 144.333V144.663Z" fill="black"/>
<path d="M769.013 144.549C769.072 145.94 767.395 146.521 767.395 146.521H773.946C773.946 146.521 772.249 145.919 772.328 144.549H769.013Z" fill="white" stroke="black" stroke-width="0.330386"/>
<rect x="690.601" y="148.435" width="6.78331" height="10.0428" fill="white" stroke="black" stroke-width="0.330386"/>
<rect x="690.601" y="146.559" width="6.79339" height="1.89579" fill="white" stroke="black" stroke-width="0.330386"/>
<path d="M693.072 139.894C692.983 140.521 691.963 142.239 691.963 142.239C692.221 144.01 692.664 144.498 693.99 144.498C695.316 144.498 695.822 144.017 696.081 142.239C696.081 142.239 695.091 140.554 694.998 139.894C694.904 139.233 695.151 138.754 695.151 138.754C694.26 138.59 693.77 138.598 692.906 138.754C692.906 138.754 693.161 139.266 693.072 139.894Z" fill="white"/>
<path d="M691.963 142.239L691.821 142.155L691.791 142.205L691.799 142.263L691.963 142.239ZM693.072 139.894L693.236 139.917L693.236 139.917L693.072 139.894ZM692.906 138.754L692.877 138.591L692.66 138.63L692.759 138.827L692.906 138.754ZM695.151 138.754L695.297 138.829L695.399 138.632L695.181 138.591L695.151 138.754ZM694.998 139.894L695.161 139.871L695.161 139.871L694.998 139.894ZM696.081 142.239L696.245 142.263L696.253 142.206L696.224 142.156L696.081 142.239ZM691.963 142.239C692.105 142.324 692.105 142.324 692.105 142.324C692.105 142.324 692.105 142.324 692.105 142.324C692.105 142.324 692.105 142.323 692.105 142.323C692.105 142.323 692.105 142.323 692.106 142.322C692.106 142.321 692.107 142.32 692.108 142.318C692.11 142.315 692.113 142.31 692.117 142.304C692.124 142.291 692.135 142.272 692.15 142.247C692.178 142.199 692.218 142.129 692.267 142.043C692.365 141.871 692.496 141.635 692.63 141.379C692.764 141.123 692.902 140.845 693.013 140.591C693.121 140.341 693.21 140.098 693.236 139.917L692.909 139.87C692.89 140.003 692.818 140.211 692.71 140.459C692.604 140.703 692.47 140.973 692.338 141.225C692.206 141.477 692.076 141.71 691.98 141.88C691.932 141.964 691.892 142.033 691.864 142.081C691.85 142.105 691.839 142.124 691.832 142.136C691.828 142.142 691.825 142.147 691.824 142.15C691.823 142.152 691.822 142.153 691.822 142.154C691.821 142.154 691.821 142.155 691.821 142.155C691.821 142.155 691.821 142.155 691.821 142.155C691.821 142.155 691.821 142.155 691.821 142.155C691.821 142.155 691.821 142.155 691.963 142.239ZM693.236 139.917C693.284 139.576 693.239 139.268 693.183 139.048C693.155 138.937 693.123 138.847 693.099 138.784C693.087 138.752 693.076 138.727 693.068 138.71C693.064 138.701 693.061 138.694 693.059 138.689C693.057 138.687 693.056 138.685 693.056 138.683C693.055 138.682 693.055 138.682 693.055 138.681C693.055 138.681 693.055 138.681 693.055 138.681C693.054 138.681 693.054 138.68 693.054 138.68C693.054 138.68 693.054 138.68 693.054 138.68C693.054 138.68 693.054 138.68 692.906 138.754C692.759 138.827 692.759 138.827 692.759 138.827C692.759 138.827 692.758 138.827 692.758 138.827C692.758 138.827 692.758 138.827 692.758 138.827C692.758 138.827 692.758 138.827 692.758 138.827C692.758 138.827 692.758 138.827 692.759 138.827C692.759 138.828 692.759 138.829 692.76 138.83C692.761 138.833 692.763 138.838 692.766 138.844C692.772 138.857 692.781 138.877 692.791 138.904C692.811 138.956 692.838 139.033 692.863 139.129C692.912 139.321 692.949 139.584 692.909 139.87L693.236 139.917ZM692.936 138.916C693.781 138.764 694.251 138.756 695.121 138.916L695.181 138.591C694.27 138.423 693.759 138.432 692.877 138.591L692.936 138.916ZM695.151 138.754C695.004 138.678 695.004 138.678 695.004 138.678C695.004 138.678 695.003 138.679 695.003 138.679C695.003 138.679 695.003 138.679 695.003 138.679C695.003 138.679 695.003 138.679 695.003 138.679C695.003 138.68 695.002 138.681 695.002 138.681C695.001 138.683 695 138.685 694.999 138.687C694.997 138.692 694.994 138.699 694.99 138.707C694.982 138.724 694.972 138.748 694.96 138.779C694.936 138.84 694.906 138.927 694.879 139.036C694.825 139.254 694.784 139.561 694.834 139.917L695.161 139.871C695.118 139.566 695.153 139.302 695.2 139.115C695.223 139.022 695.248 138.949 695.267 138.899C695.277 138.875 695.285 138.856 695.291 138.844C695.293 138.838 695.295 138.834 695.296 138.831C695.297 138.83 695.297 138.829 695.298 138.829C695.298 138.829 695.298 138.829 695.298 138.829C695.298 138.829 695.298 138.829 695.298 138.829C695.298 138.829 695.298 138.829 695.298 138.829C695.298 138.829 695.298 138.829 695.298 138.829C695.297 138.829 695.297 138.829 695.151 138.754ZM694.834 139.917C694.86 140.105 694.947 140.351 695.054 140.603C695.162 140.859 695.297 141.136 695.427 141.39C695.558 141.644 695.686 141.877 695.781 142.047C695.828 142.131 695.868 142.2 695.895 142.248C695.909 142.272 695.92 142.291 695.927 142.303C695.931 142.31 695.934 142.315 695.936 142.318C695.937 142.32 695.938 142.321 695.938 142.322C695.938 142.322 695.939 142.322 695.939 142.323C695.939 142.323 695.939 142.323 695.939 142.323C695.939 142.323 695.939 142.323 695.939 142.323C695.939 142.323 695.939 142.323 696.081 142.239C696.224 142.156 696.224 142.156 696.224 142.156C696.224 142.156 696.224 142.156 696.224 142.156C696.224 142.156 696.224 142.156 696.224 142.155C696.223 142.155 696.223 142.155 696.223 142.155C696.223 142.154 696.222 142.153 696.221 142.151C696.219 142.148 696.217 142.143 696.213 142.137C696.206 142.125 696.195 142.107 696.182 142.083C696.155 142.036 696.116 141.969 696.069 141.885C695.975 141.718 695.85 141.488 695.721 141.239C695.593 140.989 695.462 140.72 695.358 140.475C695.253 140.225 695.181 140.013 695.161 139.871L694.834 139.917ZM691.799 142.263C691.929 143.149 692.108 143.76 692.453 144.143C692.809 144.539 693.311 144.663 693.99 144.663V144.333C693.343 144.333 692.96 144.213 692.699 143.922C692.426 143.619 692.255 143.1 692.126 142.216L691.799 142.263ZM693.99 144.663C694.669 144.663 695.184 144.541 695.556 144.149C695.918 143.767 696.115 143.156 696.245 142.263L695.918 142.216C695.789 143.1 695.603 143.619 695.316 143.922C695.038 144.215 694.637 144.333 693.99 144.333V144.663Z" fill="black"/>
<path d="M692.308 144.549C692.367 145.94 690.689 146.521 690.689 146.521H697.241C697.241 146.521 695.544 145.919 695.623 144.549H692.308Z" fill="white" stroke="black" stroke-width="0.330386"/>
<rect x="746.78" y="251.121" width="6.79339" height="5.83931" fill="white" stroke="black" stroke-width="0.330386"/>
<rect x="746.78" y="249.149" width="6.79339" height="1.89579" fill="white" stroke="black" stroke-width="0.330386"/>
<path d="M749.25 242.484C749.161 243.112 748.141 244.83 748.141 244.83C748.399 246.601 748.842 247.089 750.168 247.089C751.494 247.089 752 246.608 752.259 244.83C752.259 244.83 751.268 243.145 751.175 242.484C751.082 241.823 751.328 241.344 751.328 241.344C750.438 241.18 749.947 241.189 749.084 241.344C749.084 241.344 749.339 241.856 749.25 242.484Z" fill="white"/>
<path d="M748.141 244.83L747.999 244.746L747.969 244.796L747.977 244.854L748.141 244.83ZM749.25 242.484L749.413 242.507L749.413 242.507L749.25 242.484ZM749.084 241.344L749.055 241.182L748.838 241.221L748.936 241.418L749.084 241.344ZM751.328 241.344L751.475 241.42L751.577 241.222L751.358 241.182L751.328 241.344ZM751.175 242.484L751.339 242.461L751.339 242.461L751.175 242.484ZM752.259 244.83L752.423 244.854L752.431 244.796L752.401 244.746L752.259 244.83ZM748.141 244.83C748.283 244.914 748.283 244.914 748.283 244.914C748.283 244.914 748.283 244.914 748.283 244.914C748.283 244.914 748.283 244.914 748.283 244.914C748.283 244.914 748.283 244.913 748.283 244.913C748.284 244.912 748.285 244.911 748.286 244.909C748.288 244.906 748.291 244.901 748.294 244.894C748.302 244.881 748.313 244.862 748.327 244.838C748.356 244.789 748.396 244.719 748.445 244.633C748.543 244.461 748.674 244.225 748.808 243.969C748.942 243.713 749.08 243.436 749.19 243.181C749.299 242.931 749.388 242.688 749.413 242.507L749.086 242.461C749.067 242.594 748.995 242.801 748.887 243.05C748.781 243.294 748.648 243.564 748.515 243.816C748.384 244.068 748.254 244.3 748.158 244.47C748.11 244.555 748.07 244.624 748.042 244.672C748.028 244.696 748.017 244.714 748.01 244.727C748.006 244.733 748.003 244.738 748.001 244.741C748 244.743 748 244.744 747.999 244.745C747.999 244.745 747.999 244.745 747.999 244.745C747.999 244.745 747.999 244.746 747.999 244.746C747.999 244.746 747.999 244.746 747.999 244.746C747.999 244.746 747.999 244.746 748.141 244.83ZM749.413 242.507C749.462 242.166 749.417 241.859 749.361 241.638C749.332 241.527 749.301 241.437 749.277 241.374C749.264 241.343 749.254 241.318 749.246 241.3C749.242 241.292 749.239 241.285 749.236 241.28C749.235 241.277 749.234 241.275 749.233 241.274C749.233 241.273 749.233 241.272 749.233 241.272C749.232 241.272 749.232 241.271 749.232 241.271C749.232 241.271 749.232 241.271 749.232 241.271C749.232 241.271 749.232 241.271 749.232 241.271C749.232 241.271 749.232 241.271 749.084 241.344C748.936 241.418 748.936 241.418 748.936 241.418C748.936 241.418 748.936 241.418 748.936 241.418C748.936 241.418 748.936 241.418 748.936 241.418C748.936 241.418 748.936 241.418 748.936 241.418C748.936 241.418 748.936 241.418 748.936 241.418C748.937 241.419 748.937 241.419 748.938 241.421C748.939 241.424 748.941 241.428 748.944 241.435C748.95 241.448 748.958 241.468 748.969 241.494C748.989 241.547 749.016 241.624 749.04 241.72C749.089 241.912 749.127 242.174 749.086 242.461L749.413 242.507ZM749.113 241.507C749.958 241.355 750.429 241.346 751.298 241.507L751.358 241.182C750.447 241.014 749.937 241.023 749.055 241.182L749.113 241.507ZM751.328 241.344C751.181 241.269 751.181 241.269 751.181 241.269C751.181 241.269 751.181 241.269 751.181 241.269C751.181 241.269 751.181 241.269 751.181 241.269C751.181 241.27 751.181 241.27 751.181 241.27C751.18 241.271 751.18 241.271 751.18 241.272C751.179 241.273 751.178 241.275 751.177 241.278C751.175 241.283 751.171 241.289 751.168 241.298C751.16 241.315 751.149 241.339 751.137 241.369C751.114 241.43 751.083 241.518 751.056 241.627C751.003 241.845 750.962 242.152 751.012 242.507L751.339 242.461C751.296 242.156 751.331 241.893 751.377 241.706C751.4 241.613 751.426 241.539 751.445 241.49C751.455 241.465 751.463 241.447 751.468 241.435C751.471 241.429 751.473 241.424 751.474 241.422C751.475 241.421 751.475 241.42 751.475 241.42C751.475 241.419 751.475 241.419 751.475 241.419C751.475 241.419 751.475 241.419 751.475 241.42C751.475 241.42 751.475 241.42 751.475 241.42C751.475 241.42 751.475 241.42 751.475 241.42C751.475 241.42 751.475 241.42 751.328 241.344ZM751.012 242.507C751.038 242.695 751.125 242.941 751.232 243.194C751.34 243.45 751.475 243.727 751.605 243.98C751.736 244.235 751.864 244.468 751.959 244.637C752.006 244.722 752.046 244.791 752.073 244.839C752.087 244.863 752.098 244.881 752.105 244.894C752.109 244.9 752.112 244.905 752.114 244.909C752.115 244.91 752.115 244.911 752.116 244.912C752.116 244.913 752.116 244.913 752.116 244.913C752.116 244.913 752.117 244.914 752.117 244.914C752.117 244.914 752.117 244.914 752.117 244.914C752.117 244.914 752.117 244.914 752.259 244.83C752.401 244.746 752.401 244.746 752.401 244.746C752.401 244.746 752.401 244.746 752.401 244.746C752.401 244.746 752.401 244.746 752.401 244.746C752.401 244.746 752.401 244.746 752.401 244.745C752.4 244.744 752.4 244.743 752.399 244.742C752.397 244.739 752.394 244.734 752.391 244.728C752.384 244.715 752.373 244.697 752.359 244.674C752.332 244.627 752.294 244.559 752.247 244.476C752.153 244.308 752.027 244.079 751.899 243.829C751.77 243.579 751.64 243.311 751.536 243.065C751.431 242.816 751.359 242.604 751.339 242.461L751.012 242.507ZM747.977 244.854C748.106 245.74 748.286 246.35 748.631 246.734C748.987 247.13 749.488 247.254 750.168 247.254V246.924C749.521 246.924 749.138 246.804 748.877 246.513C748.604 246.21 748.433 245.691 748.304 244.806L747.977 244.854ZM750.168 247.254C750.847 247.254 751.362 247.132 751.733 246.74C752.096 246.357 752.292 245.747 752.423 244.854L752.096 244.806C751.967 245.691 751.78 246.21 751.494 246.512C751.216 246.805 750.815 246.924 750.168 246.924V247.254Z" fill="black"/>
<path d="M748.487 247.14C748.546 248.531 746.869 249.111 746.869 249.111H753.42C753.42 249.111 751.723 248.509 751.802 247.14H748.487Z" fill="white" stroke="black" stroke-width="0.330386"/>
<rect x="711.48" y="251.121" width="6.79339" height="5.83931" fill="white" stroke="black" stroke-width="0.330386"/>
<rect x="711.48" y="249.149" width="6.79339" height="1.89579" fill="white" stroke="black" stroke-width="0.330386"/>
<path d="M713.949 242.484C713.86 243.112 712.84 244.83 712.84 244.83C713.098 246.601 713.541 247.089 714.867 247.089C716.193 247.089 716.699 246.608 716.958 244.83C716.958 244.83 715.968 243.145 715.874 242.484C715.781 241.823 716.027 241.344 716.027 241.344C715.137 241.18 714.647 241.189 713.783 241.344C713.783 241.344 714.038 241.856 713.949 242.484Z" fill="white"/>
<path d="M712.84 244.83L712.698 244.746L712.668 244.796L712.676 244.854L712.84 244.83ZM713.949 242.484L714.113 242.507L714.113 242.507L713.949 242.484ZM713.783 241.344L713.754 241.182L713.537 241.221L713.636 241.418L713.783 241.344ZM716.027 241.344L716.174 241.42L716.276 241.222L716.057 241.182L716.027 241.344ZM715.874 242.484L716.038 242.461L716.038 242.461L715.874 242.484ZM716.958 244.83L717.122 244.854L717.13 244.796L717.101 244.746L716.958 244.83ZM712.84 244.83C712.982 244.914 712.982 244.914 712.982 244.914C712.982 244.914 712.982 244.914 712.982 244.914C712.982 244.914 712.982 244.914 712.982 244.914C712.982 244.914 712.982 244.913 712.983 244.913C712.983 244.912 712.984 244.911 712.985 244.909C712.987 244.906 712.99 244.901 712.994 244.894C713.001 244.881 713.012 244.862 713.027 244.838C713.055 244.789 713.095 244.719 713.144 244.633C713.242 244.461 713.373 244.225 713.507 243.969C713.641 243.713 713.779 243.436 713.89 243.181C713.998 242.931 714.087 242.688 714.113 242.507L713.786 242.461C713.767 242.594 713.694 242.801 713.587 243.05C713.481 243.294 713.347 243.564 713.215 243.816C713.083 244.068 712.953 244.3 712.857 244.47C712.809 244.555 712.769 244.624 712.741 244.672C712.727 244.696 712.716 244.714 712.709 244.727C712.705 244.733 712.702 244.738 712.701 244.741C712.7 244.743 712.699 244.744 712.698 244.745C712.698 244.745 712.698 244.745 712.698 244.745C712.698 244.745 712.698 244.746 712.698 244.746C712.698 244.746 712.698 244.746 712.698 244.746C712.698 244.746 712.698 244.746 712.84 244.83ZM714.113 242.507C714.161 242.166 714.116 241.859 714.06 241.638C714.032 241.527 714 241.437 713.976 241.374C713.963 241.343 713.953 241.318 713.945 241.3C713.941 241.292 713.938 241.285 713.936 241.28C713.934 241.277 713.933 241.275 713.933 241.274C713.932 241.273 713.932 241.272 713.932 241.272C713.932 241.272 713.932 241.271 713.931 241.271C713.931 241.271 713.931 241.271 713.931 241.271C713.931 241.271 713.931 241.271 713.931 241.271C713.931 241.271 713.931 241.271 713.783 241.344C713.636 241.418 713.635 241.418 713.635 241.418C713.635 241.418 713.635 241.418 713.635 241.418C713.635 241.418 713.635 241.418 713.635 241.418C713.635 241.418 713.635 241.418 713.635 241.418C713.635 241.418 713.635 241.418 713.636 241.418C713.636 241.419 713.636 241.419 713.637 241.421C713.638 241.424 713.64 241.428 713.643 241.435C713.649 241.448 713.658 241.468 713.668 241.494C713.688 241.547 713.715 241.624 713.74 241.72C713.789 241.912 713.826 242.174 713.786 242.461L714.113 242.507ZM713.813 241.507C714.657 241.355 715.128 241.346 715.998 241.507L716.057 241.182C715.147 241.014 714.636 241.023 713.754 241.182L713.813 241.507ZM716.027 241.344C715.881 241.269 715.881 241.269 715.88 241.269C715.88 241.269 715.88 241.269 715.88 241.269C715.88 241.269 715.88 241.269 715.88 241.269C715.88 241.27 715.88 241.27 715.88 241.27C715.88 241.271 715.879 241.271 715.879 241.272C715.878 241.273 715.877 241.275 715.876 241.278C715.874 241.283 715.871 241.289 715.867 241.298C715.859 241.315 715.849 241.339 715.837 241.369C715.813 241.43 715.783 241.518 715.756 241.627C715.702 241.845 715.661 242.152 715.711 242.507L716.038 242.461C715.995 242.156 716.03 241.893 716.076 241.706C716.099 241.613 716.125 241.539 716.144 241.49C716.154 241.465 716.162 241.447 716.167 241.435C716.17 241.429 716.172 241.424 716.173 241.422C716.174 241.421 716.174 241.42 716.175 241.42C716.175 241.419 716.175 241.419 716.175 241.419C716.175 241.419 716.175 241.419 716.175 241.42C716.175 241.42 716.175 241.42 716.175 241.42C716.175 241.42 716.174 241.42 716.174 241.42C716.174 241.42 716.174 241.42 716.027 241.344ZM715.711 242.507C715.737 242.695 715.824 242.941 715.931 243.194C716.039 243.45 716.174 243.727 716.304 243.98C716.435 244.235 716.563 244.468 716.658 244.637C716.705 244.722 716.745 244.791 716.772 244.839C716.786 244.863 716.797 244.881 716.804 244.894C716.808 244.9 716.811 244.905 716.813 244.909C716.814 244.91 716.815 244.911 716.815 244.912C716.815 244.913 716.816 244.913 716.816 244.913C716.816 244.913 716.816 244.914 716.816 244.914C716.816 244.914 716.816 244.914 716.816 244.914C716.816 244.914 716.816 244.914 716.958 244.83C717.101 244.746 717.101 244.746 717.101 244.746C717.101 244.746 717.101 244.746 717.101 244.746C717.101 244.746 717.101 244.746 717.101 244.746C717.1 244.746 717.1 244.746 717.1 244.745C717.1 244.744 717.099 244.743 717.098 244.742C717.096 244.739 717.093 244.734 717.09 244.728C717.083 244.715 717.072 244.697 717.059 244.674C717.032 244.627 716.993 244.559 716.946 244.476C716.852 244.308 716.727 244.079 716.598 243.829C716.469 243.579 716.339 243.311 716.235 243.065C716.13 242.816 716.058 242.604 716.038 242.461L715.711 242.507ZM712.676 244.854C712.806 245.74 712.985 246.35 713.33 246.734C713.686 247.13 714.187 247.254 714.867 247.254V246.924C714.22 246.924 713.837 246.804 713.576 246.513C713.303 246.21 713.132 245.691 713.003 244.806L712.676 244.854ZM714.867 247.254C715.546 247.254 716.061 247.132 716.433 246.74C716.795 246.357 716.992 245.747 717.122 244.854L716.795 244.806C716.666 245.691 716.48 246.21 716.193 246.512C715.915 246.805 715.514 246.924 714.867 246.924V247.254Z" fill="black"/>
<path d="M713.186 247.14C713.246 248.531 711.568 249.111 711.568 249.111H718.12C718.12 249.111 716.423 248.509 716.502 247.14H713.186Z" fill="white" stroke="black" stroke-width="0.330386"/>
<rect x="688.39" y="229.714" width="7.63192" height="3.50209" fill="white" stroke="black" stroke-width="0.330386"/>
<rect x="688.39" y="232.886" width="11.96" height="3.83248" fill="white" stroke="black" stroke-width="0.330386"/>
<rect x="688.39" y="236.719" width="7.63192" height="3.50209" fill="white" stroke="black" stroke-width="0.330386"/>
<rect x="688.39" y="239.89" width="11.96" height="3.83248" fill="white" stroke="black" stroke-width="0.330386"/>
<rect x="688.39" y="249.835" width="7.63192" height="3.83248" fill="white" stroke="black" stroke-width="0.330386"/>
<rect x="688.39" y="253.337" width="11.96" height="3.50209" fill="white" stroke="black" stroke-width="0.330386"/>
<rect x="688.39" y="243.723" width="7.63192" height="3.50209" fill="white" stroke="black" stroke-width="0.330386"/>
<rect x="702.044" y="141.797" width="7.63192" height="3.50209" fill="white" stroke="black" stroke-width="0.330386"/>
<rect x="702.044" y="144.969" width="11.96" height="3.83248" fill="white" stroke="black" stroke-width="0.330386"/>
<rect x="702.044" y="148.801" width="7.63192" height="3.50209" fill="white" stroke="black" stroke-width="0.330386"/>
<rect x="702.044" y="151.973" width="11.96" height="3.83248" fill="white" stroke="black" stroke-width="0.330386"/>
<rect x="702.044" y="155.805" width="7.63192" height="3.50209" fill="white" stroke="black" stroke-width="0.330386"/>
<rect x="-0.165193" y="0.165193" width="7.63192" height="3.50209" transform="matrix(-1 0 0 1 762.683 141.632)" fill="white" stroke="black" stroke-width="0.330386"/>
<rect x="-0.165193" y="0.165193" width="11.96" height="3.83248" transform="matrix(-1 0 0 1 762.683 144.803)" fill="white" stroke="black" stroke-width="0.330386"/>
<rect x="-0.165193" y="0.165193" width="7.63192" height="3.50209" transform="matrix(-1 0 0 1 762.683 148.636)" fill="white" stroke="black" stroke-width="0.330386"/>
<rect x="-0.165193" y="0.165193" width="11.96" height="3.83248" transform="matrix(-1 0 0 1 762.683 151.807)" fill="white" stroke="black" stroke-width="0.330386"/>
<rect x="-0.165193" y="0.165193" width="7.63192" height="3.50209" transform="matrix(-1 0 0 1 762.683 155.64)" fill="white" stroke="black" stroke-width="0.330386"/>
<rect x="688.39" y="246.894" width="11.96" height="3.83248" fill="white" stroke="black" stroke-width="0.330386"/>
<rect x="-0.165193" y="0.165193" width="7.63192" height="3.50209" transform="matrix(-1 0 0 1 776.402 229.549)" fill="white" stroke="black" stroke-width="0.330386"/>
<rect x="-0.165193" y="0.165193" width="11.96" height="3.83248" transform="matrix(-1 0 0 1 776.402 232.721)" fill="white" stroke="black" stroke-width="0.330386"/>
<rect x="-0.165193" y="0.165193" width="7.63192" height="3.50209" transform="matrix(-1 0 0 1 776.402 236.553)" fill="white" stroke="black" stroke-width="0.330386"/>
<rect x="-0.165193" y="0.165193" width="11.96" height="3.83248" transform="matrix(-1 0 0 1 776.402 239.725)" fill="white" stroke="black" stroke-width="0.330386"/>
<rect x="-0.165193" y="0.165193" width="7.63192" height="3.83248" transform="matrix(-1 0 0 1 776.402 249.669)" fill="white" stroke="black" stroke-width="0.330386"/>
<rect x="-0.165193" y="0.165193" width="11.96" height="3.50209" transform="matrix(-1 0 0 1 776.402 253.172)" fill="white" stroke="black" stroke-width="0.330386"/>
<rect x="-0.165193" y="0.165193" width="7.63192" height="3.50209" transform="matrix(-1 0 0 1 776.402 243.557)" fill="white" stroke="black" stroke-width="0.330386"/>
<rect x="-0.165193" y="0.165193" width="11.96" height="3.83248" transform="matrix(-1 0 0 1 776.402 246.729)" fill="white" stroke="black" stroke-width="0.330386"/>
<path d="M683.5 158.714L685.51 163.736L779.422 163.769L781.902 158.714H683.5Z" fill="white" stroke="black" stroke-width="0.660773"/>
<mask id="mask0_358_2115" style="mask-type:alpha" maskUnits="userSpaceOnUse" x="725" y="94" width="15" height="45">
<path d="M725.646 101.995C725.646 98.0527 728.842 94.8572 732.784 94.8572V94.8572C736.726 94.8572 739.921 98.0527 739.921 101.995V138.848H725.646V101.995Z" fill="black"/>
</mask>
<g mask="url(#mask0_358_2115)">
<path d="M725.646 101.995C725.646 98.0527 728.842 94.8572 732.784 94.8572V94.8572C736.726 94.8572 739.921 98.0527 739.921 101.995V138.848H725.646V101.995Z" fill="black"/>
<rect x="725.646" y="102.732" width="14.275" height="0.832707" fill="#353839"/>
<rect x="725.646" y="105.54" width="14.275" height="0.832707" fill="#353839"/>
<rect x="725.646" y="104.136" width="14.275" height="0.832707" fill="#353839"/>
<rect x="725.646" y="112.558" width="14.275" height="0.832707" fill="#353839"/>
<rect x="725.646" y="113.962" width="14.275" height="0.832707" fill="#353839"/>
<rect x="725.646" y="116.769" width="14.275" height="0.832707" fill="#353839"/>
<rect x="725.646" y="115.365" width="14.275" height="0.832707" fill="#353839"/>
<rect x="725.646" y="106.943" width="14.275" height="0.832707" fill="#353839"/>
<rect x="725.646" y="108.347" width="14.275" height="0.832707" fill="#353839"/>
<rect x="725.646" y="111.154" width="14.275" height="0.832707" fill="#353839"/>
<rect x="725.646" y="109.751" width="14.275" height="0.832707" fill="#353839"/>
<rect x="725.646" y="94.3101" width="14.275" height="0.832707" fill="#353839"/>
<rect x="725.646" y="97.1174" width="14.275" height="0.832707" fill="#353839"/>
<rect x="725.646" y="95.7139" width="14.275" height="0.832707" fill="#353839"/>
<rect x="725.646" y="98.521" width="14.275" height="0.832707" fill="#353839"/>
<rect x="725.646" y="99.925" width="14.275" height="0.832707" fill="#353839"/>
<rect x="725.646" y="101.329" width="14.275" height="0.832707" fill="#353839"/>
<rect x="725.646" y="118.173" width="14.275" height="0.832707" fill="#353839"/>
<rect x="725.646" y="119.577" width="14.275" height="0.832707" fill="#353839"/>
<rect x="725.646" y="122.384" width="14.275" height="0.832707" fill="#353839"/>
<rect x="725.646" y="120.98" width="14.275" height="0.832707" fill="#353839"/>
<rect x="725.646" y="129.403" width="14.275" height="0.832707" fill="#353839"/>
<rect x="725.646" y="130.806" width="14.275" height="0.832707" fill="#353839"/>
<rect x="725.646" y="133.614" width="14.275" height="0.832707" fill="#353839"/>
<rect x="725.646" y="132.21" width="14.275" height="0.832707" fill="#353839"/>
<rect x="725.646" y="135.018" width="14.275" height="0.832707" fill="#353839"/>
<rect x="725.646" y="136.421" width="14.275" height="0.832707" fill="#353839"/>
<rect x="725.646" y="137.825" width="14.275" height="0.832707" fill="#353839"/>
<rect x="725.646" y="123.788" width="14.275" height="0.832707" fill="#353839"/>
<rect x="725.646" y="125.192" width="14.275" height="0.832707" fill="#353839"/>
<rect x="725.646" y="127.999" width="14.275" height="0.832707" fill="#353839"/>
<rect x="725.646" y="126.595" width="14.275" height="0.832707" fill="#353839"/>
</g>
<mask id="path-126-inside-2_358_2115" fill="white">
<path fill-rule="evenodd" clip-rule="evenodd" d="M721.658 49.7021V66.9363H743.232V49.6921L738.851 48.5181L738.882 48.4016H726.046L726.077 48.5182L721.658 49.7021Z"/>
</mask>
<path fill-rule="evenodd" clip-rule="evenodd" d="M721.658 49.7021V66.9363H743.232V49.6921L738.851 48.5181L738.882 48.4016H726.046L726.077 48.5182L721.658 49.7021Z" fill="white"/>
<path d="M721.658 49.7021L721.487 49.0639L720.997 49.1951V49.7021H721.658ZM721.658 66.9363H720.997V67.597H721.658V66.9363ZM743.232 66.9363V67.597H743.893V66.9363H743.232ZM743.232 49.6921H743.893V49.185L743.403 49.0538L743.232 49.6921ZM738.851 48.5181L738.213 48.3471L738.042 48.9853L738.68 49.1564L738.851 48.5181ZM738.882 48.4016L739.521 48.5726L739.744 47.7408H738.882V48.4016ZM726.046 48.4016V47.7408H725.184L725.407 48.5726L726.046 48.4016ZM726.077 48.5182L726.248 49.1564L726.886 48.9854L726.715 48.3472L726.077 48.5182ZM720.997 49.7021V66.9363H722.319V49.7021H720.997ZM721.658 67.597H743.232V66.2755H721.658V67.597ZM743.893 66.9363V49.6921H742.572V66.9363H743.893ZM743.403 49.0538L739.022 47.8799L738.68 49.1564L743.061 50.3303L743.403 49.0538ZM739.489 48.6891L739.521 48.5726L738.244 48.2306L738.213 48.3471L739.489 48.6891ZM738.882 47.7408H726.046V49.0624H738.882V47.7408ZM725.407 48.5726L725.439 48.6892L726.715 48.3472L726.684 48.2306L725.407 48.5726ZM725.906 47.8799L721.487 49.0639L721.829 50.3404L726.248 49.1564L725.906 47.8799Z" fill="black" mask="url(#path-126-inside-2_358_2115)"/>
<mask id="mask1_358_2115" style="mask-type:alpha" maskUnits="userSpaceOnUse" x="710" y="100" width="11" height="39">
<path d="M720.77 100.092V100.092C714.857 100.092 710.063 104.885 710.063 110.798V138.848H720.77V100.092Z" fill="black"/>
</mask>
<g mask="url(#mask1_358_2115)">
<path d="M720.77 100.092V100.092C714.857 100.092 710.063 104.885 710.063 110.798V138.848H720.77V100.092Z" fill="black"/>
<rect x="710.064" y="102.732" width="14.275" height="0.832707" fill="#353839"/>
<rect x="710.064" y="105.54" width="14.275" height="0.832707" fill="#353839"/>
<rect x="710.064" y="104.136" width="14.275" height="0.832707" fill="#353839"/>
<rect x="710.064" y="112.558" width="14.275" height="0.832707" fill="#353839"/>
<rect x="710.064" y="113.962" width="14.275" height="0.832707" fill="#353839"/>
<rect x="710.064" y="116.769" width="14.275" height="0.832707" fill="#353839"/>
<rect x="710.064" y="115.365" width="14.275" height="0.832707" fill="#353839"/>
<rect x="710.064" y="106.943" width="14.275" height="0.832707" fill="#353839"/>
<rect x="710.064" y="108.347" width="14.275" height="0.832707" fill="#353839"/>
<rect x="710.064" y="111.154" width="14.275" height="0.832707" fill="#353839"/>
<rect x="710.064" y="109.751" width="14.275" height="0.832707" fill="#353839"/>
<rect x="710.064" y="99.925" width="14.275" height="0.832707" fill="#353839"/>
<rect x="710.064" y="101.329" width="14.275" height="0.832707" fill="#353839"/>
<rect x="710.064" y="118.173" width="14.275" height="0.832707" fill="#353839"/>
<rect x="710.064" y="119.577" width="14.275" height="0.832707" fill="#353839"/>
<rect x="710.064" y="122.384" width="14.275" height="0.832707" fill="#353839"/>
<rect x="710.064" y="120.98" width="14.275" height="0.832707" fill="#353839"/>
<rect x="710.064" y="129.403" width="14.275" height="0.832707" fill="#353839"/>
<rect x="710.064" y="130.806" width="14.275" height="0.832707" fill="#353839"/>
<rect x="710.064" y="133.614" width="14.275" height="0.832707" fill="#353839"/>
<rect x="710.064" y="132.21" width="14.275" height="0.832707" fill="#353839"/>
<rect x="710.064" y="135.017" width="14.275" height="0.832707" fill="#353839"/>
<rect x="710.064" y="136.421" width="14.275" height="0.832707" fill="#353839"/>
<rect x="710.064" y="137.825" width="14.275" height="0.832707" fill="#353839"/>
<rect x="710.064" y="123.788" width="14.275" height="0.832707" fill="#353839"/>
<rect x="710.064" y="125.192" width="14.275" height="0.832707" fill="#353839"/>
<rect x="710.064" y="127.999" width="14.275" height="0.832707" fill="#353839"/>
<rect x="710.064" y="126.595" width="14.275" height="0.832707" fill="#353839"/>
</g>
<rect x="700.285" y="90.3093" width="20.9588" height="2.44486" transform="rotate(-15 700.285 90.3093)" fill="white" stroke="black" stroke-width="0.660773"/>
<rect x="-0.404639" y="0.233618" width="20.9588" height="2.44486" transform="matrix(-0.965926 -0.258819 -0.258819 0.965926 764.285 89.9789)" fill="white" stroke="black" stroke-width="0.660773"/>
<rect x="0.330386" y="-0.330386" width="22.6975" height="2.44486" transform="matrix(1 0 0 -1 720.764 86.9249)" fill="white" stroke="black" stroke-width="0.660773"/>
<rect x="719.738" y="50.0473" width="8.2925" height="0.967325" transform="rotate(-15 719.738 50.0473)" fill="white" stroke="black" stroke-width="0.261439"/>
<rect x="-0.160098" y="0.0924327" width="8.2925" height="0.967325" transform="matrix(-0.965926 -0.258819 -0.258819 0.965926 745.055 49.9165)" fill="white" stroke="black" stroke-width="0.261439"/>
<rect x="0.13072" y="-0.13072" width="8.98044" height="0.967325" transform="matrix(1 0 0 -1 727.838 48.7083)" fill="white" stroke="black" stroke-width="0.261439"/>
<rect x="729.223" y="36.6067" width="6.44253" height="5.05491" fill="black"/>
<rect x="728.629" y="36.0781" width="7.59888" height="0.528618" fill="black"/>
<path d="M732.461 0L733.863 33.8481H731.059L732.461 0Z" fill="black"/>
<path d="M732.179 0.792969L717.791 3.94816L732.179 5.96351V0.792969Z" fill="black" stroke="black" stroke-width="0.660773"/>
<rect x="668.33" y="262.8" width="128.218" height="8.97468" fill="#8C796B" stroke="black" stroke-width="0.660936"/>
<rect x="726.621" y="143.963" width="11.6579" height="11.6579" stroke="black" stroke-width="0.237916"/>
<rect x="728.312" y="145.724" width="3.56874" height="3.56874" fill="black"/>
<rect x="732.998" y="145.724" width="3.56874" height="3.56874" fill="black"/>
<rect x="732.998" y="150.316" width="3.56874" height="3.56874" fill="black"/>
<rect x="728.312" y="150.316" width="3.56874" height="3.56874" fill="black"/>
<mask id="mask2_358_2115" style="mask-type:alpha" maskUnits="userSpaceOnUse" x="745" y="100" width="12" height="39">
<path d="M745.371 100.092V100.092C751.284 100.092 756.077 104.885 756.077 110.798V138.848H745.371V100.092Z" fill="black"/>
</mask>
<g mask="url(#mask2_358_2115)">
<path d="M745.371 100.092V100.092C751.284 100.092 756.077 104.885 756.077 110.798V138.848H745.371V100.092Z" fill="black"/>
<rect width="14.275" height="0.832707" transform="matrix(-1 0 0 1 756.078 102.732)" fill="#353839"/>
<rect width="14.275" height="0.832707" transform="matrix(-1 0 0 1 756.078 105.54)" fill="#353839"/>
<rect width="14.275" height="0.832707" transform="matrix(-1 0 0 1 756.078 104.136)" fill="#353839"/>
<rect width="14.275" height="0.832707" transform="matrix(-1 0 0 1 756.078 112.558)" fill="#353839"/>
<rect width="14.275" height="0.832707" transform="matrix(-1 0 0 1 756.078 113.962)" fill="#353839"/>
<rect width="14.275" height="0.832707" transform="matrix(-1 0 0 1 756.078 116.769)" fill="#353839"/>
<rect width="14.275" height="0.832707" transform="matrix(-1 0 0 1 756.078 115.365)" fill="#353839"/>
<rect width="14.275" height="0.832707" transform="matrix(-1 0 0 1 756.078 106.943)" fill="#353839"/>
<rect width="14.275" height="0.832707" transform="matrix(-1 0 0 1 756.078 108.347)" fill="#353839"/>
<rect width="14.275" height="0.832707" transform="matrix(-1 0 0 1 756.078 111.154)" fill="#353839"/>
<rect width="14.275" height="0.832707" transform="matrix(-1 0 0 1 756.078 109.751)" fill="#353839"/>
<rect width="14.275" height="0.832707" transform="matrix(-1 0 0 1 756.078 99.925)" fill="#353839"/>
<rect width="14.275" height="0.832707" transform="matrix(-1 0 0 1 756.078 101.329)" fill="#353839"/>
<rect width="14.275" height="0.832707" transform="matrix(-1 0 0 1 756.078 118.173)" fill="#353839"/>
<rect width="14.275" height="0.832707" transform="matrix(-1 0 0 1 756.078 119.577)" fill="#353839"/>
<rect width="14.275" height="0.832707" transform="matrix(-1 0 0 1 756.078 122.384)" fill="#353839"/>
<rect width="14.275" height="0.832707" transform="matrix(-1 0 0 1 756.078 120.98)" fill="#353839"/>
<rect width="14.275" height="0.832707" transform="matrix(-1 0 0 1 756.078 129.403)" fill="#353839"/>
<rect width="14.275" height="0.832707" transform="matrix(-1 0 0 1 756.078 130.806)" fill="#353839"/>
<rect width="14.275" height="0.832707" transform="matrix(-1 0 0 1 756.078 133.614)" fill="#353839"/>
<rect width="14.275" height="0.832707" transform="matrix(-1 0 0 1 756.078 132.21)" fill="#353839"/>
<rect width="14.275" height="0.832707" transform="matrix(-1 0 0 1 756.078 135.017)" fill="#353839"/>
<rect width="14.275" height="0.832707" transform="matrix(-1 0 0 1 756.078 136.421)" fill="#353839"/>
<rect width="14.275" height="0.832707" transform="matrix(-1 0 0 1 756.078 137.825)" fill="#353839"/>
<rect width="14.275" height="0.832707" transform="matrix(-1 0 0 1 756.078 123.788)" fill="#353839"/>
<rect width="14.275" height="0.832707" transform="matrix(-1 0 0 1 756.078 125.192)" fill="#353839"/>
<rect width="14.275" height="0.832707" transform="matrix(-1 0 0 1 756.078 127.999)" fill="#353839"/>
<rect width="14.275" height="0.832707" transform="matrix(-1 0 0 1 756.078 126.595)" fill="#353839"/>
</g>
<rect x="732.049" y="187.44" width="0.790834" height="18.4433" fill="white"/>
<rect x="741.672" y="196.263" width="0.790834" height="18.4433" transform="rotate(90 741.672 196.263)" fill="white"/>
<circle cx="732.45" cy="196.662" r="0.737541" fill="black"/>
<g filter="url(#filter0_d_358_2115)">
<path d="M731.805 191.56C731.539 193.493 731.105 195.186 732.477 196.084C733.745 195.176 733.381 193.435 733.149 191.56C732.836 189.025 732.477 186.36 732.477 186.36C732.477 186.36 732.156 189.001 731.805 191.56Z" fill="black"/>
<path d="M732.477 196.084L732.386 196.224C732.443 196.261 732.518 196.26 732.574 196.22L732.477 196.084ZM731.805 191.56L731.64 191.537L731.64 191.537L731.805 191.56ZM732.477 186.36L732.642 186.338C732.631 186.255 732.56 186.193 732.476 186.193C732.392 186.194 732.322 186.257 732.312 186.34L732.477 186.36ZM733.149 191.56L733.315 191.539L733.315 191.539L733.149 191.56ZM732.568 195.945C731.942 195.535 731.722 194.947 731.693 194.203C731.664 193.446 731.835 192.564 731.97 191.582L731.64 191.537C731.509 192.488 731.33 193.42 731.36 194.216C731.391 195.027 731.64 195.735 732.386 196.224L732.568 195.945ZM731.97 191.582C732.146 190.302 732.314 189.002 732.438 188.021C732.5 187.531 732.551 187.121 732.587 186.833C732.605 186.689 732.619 186.576 732.628 186.499C732.633 186.46 732.636 186.43 732.639 186.41C732.64 186.4 732.641 186.393 732.642 186.388C732.642 186.385 732.642 186.383 732.642 186.382C732.642 186.381 732.642 186.381 732.642 186.38C732.642 186.38 732.642 186.38 732.642 186.38C732.642 186.38 732.642 186.38 732.642 186.38C732.642 186.38 732.642 186.38 732.477 186.36C732.312 186.34 732.312 186.34 732.312 186.34C732.312 186.34 732.312 186.34 732.312 186.34C732.312 186.34 732.312 186.34 732.312 186.34C732.311 186.341 732.311 186.341 732.311 186.342C732.311 186.343 732.311 186.345 732.311 186.347C732.31 186.352 732.309 186.36 732.308 186.37C732.305 186.39 732.302 186.42 732.297 186.458C732.288 186.535 732.274 186.648 732.256 186.792C732.221 187.08 732.169 187.489 732.107 187.979C731.983 188.959 731.815 190.258 731.64 191.537L731.97 191.582ZM732.574 196.22C733.265 195.725 733.502 195.004 733.542 194.193C733.581 193.391 733.429 192.465 733.315 191.539L732.984 191.58C733.101 192.53 733.247 193.412 733.209 194.176C733.172 194.932 732.957 195.535 732.38 195.949L732.574 196.22ZM733.315 191.539C733.158 190.271 732.99 188.971 732.861 187.988C732.796 187.496 732.742 187.083 732.703 186.794C732.684 186.649 732.669 186.535 732.658 186.457C732.653 186.418 732.649 186.388 732.646 186.368C732.645 186.358 732.644 186.35 732.643 186.345C732.643 186.343 732.643 186.341 732.642 186.34C732.642 186.339 732.642 186.338 732.642 186.338C732.642 186.338 732.642 186.338 732.642 186.338C732.642 186.338 732.642 186.338 732.642 186.338C732.642 186.338 732.642 186.338 732.477 186.36C732.312 186.382 732.312 186.382 732.312 186.382C732.312 186.382 732.312 186.382 732.312 186.382C732.312 186.382 732.312 186.382 732.312 186.383C732.312 186.383 732.312 186.383 732.312 186.384C732.312 186.385 732.313 186.387 732.313 186.39C732.314 186.395 732.315 186.403 732.316 186.413C732.319 186.433 732.323 186.463 732.328 186.501C732.338 186.579 732.354 186.693 732.373 186.838C732.411 187.127 732.466 187.539 732.53 188.031C732.659 189.014 732.827 190.313 732.984 191.58L733.315 191.539Z" fill="black"/>
</g>
<g filter="url(#filter1_d_358_2115)">
<path d="M735.117 198.969C733.923 198.382 732.8 197.982 732.815 196.864C733.812 196.493 734.658 197.363 735.63 198.209C736.943 199.353 738.313 200.572 738.313 200.572C738.313 200.572 736.697 199.746 735.117 198.969Z" fill="black"/>
<path d="M732.815 196.864L732.702 196.862C732.702 196.815 732.732 196.774 732.776 196.757L732.815 196.864ZM735.117 198.969L735.067 199.071L735.067 199.071L735.117 198.969ZM738.313 200.572L738.388 200.487C738.431 200.525 738.439 200.589 738.407 200.636C738.374 200.683 738.312 200.699 738.261 200.673L738.313 200.572ZM735.63 198.209L735.555 198.295L735.555 198.295L735.63 198.209ZM732.929 196.865C732.922 197.376 733.17 197.724 733.58 198.024C733.997 198.329 734.561 198.569 735.167 198.867L735.067 199.071C734.479 198.782 733.884 198.528 733.445 198.207C732.999 197.881 732.693 197.47 732.702 196.862L732.929 196.865ZM735.167 198.867C735.958 199.256 736.757 199.657 737.359 199.96C737.66 200.112 737.911 200.24 738.087 200.329C738.175 200.374 738.245 200.41 738.292 200.434C738.316 200.446 738.334 200.455 738.346 200.461C738.352 200.464 738.357 200.467 738.36 200.468C738.361 200.469 738.363 200.47 738.363 200.47C738.364 200.47 738.364 200.471 738.364 200.471C738.364 200.471 738.364 200.471 738.365 200.471C738.365 200.471 738.365 200.471 738.365 200.471C738.365 200.471 738.365 200.471 738.313 200.572C738.261 200.673 738.261 200.673 738.261 200.673C738.261 200.673 738.261 200.673 738.261 200.673C738.261 200.673 738.261 200.673 738.261 200.673C738.261 200.673 738.26 200.673 738.26 200.673C738.259 200.672 738.258 200.672 738.256 200.671C738.253 200.669 738.249 200.667 738.243 200.664C738.23 200.657 738.212 200.648 738.189 200.636C738.141 200.612 738.072 200.577 737.984 200.532C737.808 200.443 737.557 200.315 737.256 200.163C736.655 199.86 735.857 199.459 735.067 199.071L735.167 198.867ZM732.776 196.757C733.319 196.555 733.817 196.696 734.291 196.983C734.759 197.266 735.224 197.706 735.704 198.123L735.555 198.295C735.063 197.866 734.619 197.448 734.173 197.177C733.732 196.91 733.308 196.802 732.855 196.97L732.776 196.757ZM735.704 198.123C736.361 198.696 737.032 199.286 737.539 199.734C737.792 199.958 738.005 200.146 738.154 200.279C738.228 200.345 738.287 200.397 738.327 200.432C738.347 200.45 738.362 200.464 738.373 200.473C738.378 200.478 738.382 200.481 738.384 200.484C738.386 200.485 738.387 200.486 738.387 200.486C738.388 200.486 738.388 200.487 738.388 200.487C738.388 200.487 738.388 200.487 738.388 200.487C738.388 200.487 738.388 200.487 738.388 200.487C738.388 200.487 738.388 200.487 738.313 200.572C738.237 200.657 738.237 200.657 738.237 200.657C738.237 200.657 738.237 200.657 738.237 200.657C738.237 200.657 738.237 200.657 738.237 200.657C738.237 200.657 738.237 200.656 738.236 200.656C738.236 200.655 738.235 200.655 738.233 200.653C738.231 200.651 738.227 200.648 738.222 200.643C738.211 200.634 738.196 200.62 738.176 200.602C738.136 200.567 738.077 200.515 738.003 200.449C737.854 200.316 737.642 200.128 737.389 199.905C736.882 199.457 736.211 198.866 735.555 198.295L735.704 198.123Z" fill="black"/>
</g>
<defs>
<filter id="filter0_d_358_2115" x="731.28" y="186.193" width="2.34615" height="10.2124" filterUnits="userSpaceOnUse" color-interpolation-filters="sRGB">
<feFlood flood-opacity="0" result="BackgroundImageFix"/>
<feColorMatrix in="SourceAlpha" type="matrix" values="0 0 0 0 0 0 0 0 0 0 0 0 0 0 0 0 0 0 127 0" result="hardAlpha"/>
<feOffset dy="0.0773723"/>
<feGaussianBlur stdDeviation="0.0386862"/>
<feComposite in2="hardAlpha" operator="out"/>
<feColorMatrix type="matrix" values="0 0 0 0 0 0 0 0 0 0 0 0 0 0 0 0 0 0 0.25 0"/>
<feBlend mode="normal" in2="BackgroundImageFix" result="effect1_dropShadow_358_2115"/>
<feBlend mode="normal" in="SourceGraphic" in2="effect1_dropShadow_358_2115" result="shape"/>
</filter>
<filter id="filter1_d_358_2115" x="732.648" y="196.662" width="5.83014" height="4.12896" filterUnits="userSpaceOnUse" color-interpolation-filters="sRGB">
<feFlood flood-opacity="0" result="BackgroundImageFix"/>
<feColorMatrix in="SourceAlpha" type="matrix" values="0 0 0 0 0 0 0 0 0 0 0 0 0 0 0 0 0 0 127 0" result="hardAlpha"/>
<feOffset dy="0.0527634"/>
<feGaussianBlur stdDeviation="0.0263817"/>
<feComposite in2="hardAlpha" operator="out"/>
<feColorMatrix type="matrix" values="0 0 0 0 0 0 0 0 0 0 0 0 0 0 0 0 0 0 0.25 0"/>
<feBlend mode="normal" in2="BackgroundImageFix" result="effect1_dropShadow_358_2115"/>
<feBlend mode="normal" in="SourceGraphic" in2="effect1_dropShadow_358_2115" result="shape"/>
</filter>
</defs>
</svg>
