<svg width="1487" height="273" viewBox="0 0 1487 273" fill="none" xmlns="http://www.w3.org/2000/svg">
<path fill-rule="evenodd" clip-rule="evenodd" d="M1139.95 272H835C875.503 248.611 940.221 215.993 1005.93 202.416C1070.81 189.011 1115.04 234.041 1139.95 272Z" fill="#00955A"/>
<path fill-rule="evenodd" clip-rule="evenodd" d="M302.189 272H0C40.6135 248.704 104.291 216.924 168.929 203.569C233.156 190.299 277.136 234.29 302.189 272Z" fill="#02AD69"/>
<path fill-rule="evenodd" clip-rule="evenodd" d="M1486.07 269.771V272H1068.49C1071.48 257.767 1083.95 225.208 1135.69 185.333C1194.41 140.079 1416.47 237.433 1486.07 269.771Z" fill="#02AD69"/>
<path fill-rule="evenodd" clip-rule="evenodd" d="M651.916 272H258C264.589 255.049 280.984 228.188 321.723 196.79C375.592 155.273 566.93 233.78 651.916 272Z" fill="#00955A"/>
<path d="M186.853 119.875C186.535 119.399 186.104 119.008 185.6 118.738C185.095 118.468 184.531 118.326 183.958 118.326C183.385 118.326 182.822 118.468 182.317 118.738C181.812 119.008 181.381 119.399 181.064 119.875L160.19 151.186C159.841 151.709 159.641 152.318 159.611 152.947C159.581 153.575 159.722 154.2 160.019 154.755C160.316 155.31 160.758 155.774 161.298 156.097C161.838 156.421 162.455 156.592 163.084 156.592H163.766L149.698 179.101C149.368 179.627 149.186 180.232 149.17 180.853C149.154 181.474 149.304 182.088 149.605 182.631C149.906 183.174 150.347 183.627 150.882 183.942C151.417 184.257 152.027 184.423 152.648 184.423H153.977L142.58 207.217C142.314 207.748 142.188 208.337 142.214 208.93C142.241 209.523 142.418 210.099 142.73 210.604C143.041 211.108 143.477 211.525 143.995 211.814C144.513 212.103 145.097 212.255 145.69 212.255H177V229.65H190.916V212.255H222.226C222.82 212.255 223.403 212.103 223.921 211.814C224.439 211.525 224.875 211.108 225.187 210.604C225.498 210.099 225.676 209.523 225.702 208.93C225.728 208.337 225.602 207.748 225.337 207.217L213.947 184.423H215.276C215.897 184.423 216.506 184.257 217.041 183.942C217.576 183.627 218.017 183.174 218.318 182.631C218.619 182.088 218.77 181.474 218.753 180.853C218.737 180.232 218.555 179.627 218.226 179.101L204.15 156.592H204.832C205.461 156.592 206.078 156.421 206.618 156.097C207.158 155.774 207.6 155.31 207.897 154.755C208.194 154.2 208.335 153.575 208.305 152.947C208.275 152.318 208.075 151.709 207.726 151.186L186.853 119.875Z" fill="#0A7121"/>
<path d="M1309.02 134.125C1308.7 133.648 1308.27 133.258 1307.77 132.988C1307.26 132.717 1306.7 132.576 1306.13 132.576C1305.55 132.576 1304.99 132.717 1304.48 132.988C1303.98 133.258 1303.55 133.648 1303.23 134.125L1282.36 165.435C1282.01 165.959 1281.81 166.568 1281.78 167.196C1281.75 167.825 1281.89 168.45 1282.19 169.005C1282.48 169.559 1282.93 170.023 1283.47 170.347C1284.01 170.67 1284.62 170.841 1285.25 170.842H1285.93L1271.87 193.35C1271.54 193.877 1271.35 194.482 1271.34 195.103C1271.32 195.724 1271.47 196.338 1271.77 196.881C1272.07 197.424 1272.51 197.877 1273.05 198.192C1273.58 198.507 1274.19 198.673 1274.82 198.673H1276.14L1264.75 221.467C1264.48 221.998 1264.36 222.587 1264.38 223.18C1264.41 223.772 1264.59 224.349 1264.9 224.853C1265.21 225.358 1265.64 225.775 1266.16 226.064C1266.68 226.353 1267.26 226.505 1267.86 226.505H1299.17V243.899H1313.08V226.505H1344.39C1344.99 226.505 1345.57 226.353 1346.09 226.064C1346.61 225.775 1347.04 225.358 1347.35 224.853C1347.67 224.349 1347.84 223.772 1347.87 223.18C1347.9 222.587 1347.77 221.998 1347.5 221.467L1336.11 198.673H1337.44C1338.06 198.673 1338.67 198.507 1339.21 198.192C1339.74 197.877 1340.19 197.424 1340.49 196.881C1340.79 196.338 1340.94 195.724 1340.92 195.103C1340.9 194.482 1340.72 193.877 1340.39 193.35L1326.32 170.842H1327C1327.63 170.841 1328.25 170.67 1328.79 170.347C1329.33 170.023 1329.77 169.559 1330.06 169.005C1330.36 168.45 1330.5 167.825 1330.47 167.196C1330.44 166.568 1330.24 165.959 1329.89 165.435L1309.02 134.125Z" fill="#0A7121"/>
<path d="M1169.19 99.3912C1168.88 98.9147 1168.45 98.5241 1167.94 98.2539C1167.44 97.9837 1166.87 97.8423 1166.3 97.8423C1165.73 97.8423 1165.16 97.9837 1164.66 98.2539C1164.15 98.5241 1163.72 98.9147 1163.41 99.3912L1142.53 130.702C1142.18 131.226 1141.98 131.834 1141.95 132.463C1141.92 133.091 1142.06 133.716 1142.36 134.271C1142.66 134.826 1143.1 135.29 1143.64 135.613C1144.18 135.937 1144.8 136.108 1145.43 136.108H1146.11L1132.04 158.617C1131.71 159.143 1131.53 159.748 1131.51 160.369C1131.5 160.99 1131.65 161.604 1131.95 162.147C1132.25 162.69 1132.69 163.143 1133.22 163.458C1133.76 163.773 1134.37 163.939 1134.99 163.939H1136.32L1124.92 186.734C1124.66 187.264 1124.53 187.853 1124.56 188.446C1124.58 189.039 1124.76 189.615 1125.07 190.12C1125.38 190.625 1125.82 191.041 1126.34 191.33C1126.85 191.619 1127.44 191.771 1128.03 191.771H1159.34V209.166H1173.26V191.771H1204.57C1205.16 191.771 1205.74 191.619 1206.26 191.33C1206.78 191.041 1207.22 190.625 1207.53 190.12C1207.84 189.615 1208.02 189.039 1208.04 188.446C1208.07 187.853 1207.94 187.264 1207.68 186.734L1196.29 163.939H1197.62C1198.24 163.939 1198.85 163.773 1199.38 163.458C1199.92 163.143 1200.36 162.69 1200.66 162.147C1200.96 161.604 1201.11 160.99 1201.1 160.369C1201.08 159.748 1200.9 159.143 1200.57 158.617L1186.49 136.108H1187.17C1187.8 136.108 1188.42 135.937 1188.96 135.613C1189.5 135.29 1189.94 134.826 1190.24 134.271C1190.54 133.716 1190.68 133.091 1190.65 132.463C1190.62 131.834 1190.42 131.226 1190.07 130.702L1169.19 99.3912Z" fill="#0A7121"/>
<path d="M468.642 152.549C468.324 152.072 467.894 151.682 467.389 151.412C466.884 151.141 466.32 151 465.747 151C465.175 151 464.611 151.141 464.106 151.412C463.601 151.682 463.17 152.072 462.853 152.549L441.979 183.859C441.63 184.383 441.43 184.992 441.4 185.62C441.37 186.249 441.511 186.874 441.808 187.429C442.105 187.984 442.547 188.447 443.087 188.771C443.627 189.094 444.244 189.265 444.874 189.266H445.555L431.487 211.774C431.157 212.301 430.975 212.906 430.959 213.527C430.943 214.148 431.093 214.762 431.394 215.305C431.695 215.848 432.136 216.301 432.671 216.616C433.206 216.931 433.816 217.097 434.437 217.097H435.766L424.369 239.891C424.103 240.422 423.977 241.011 424.003 241.604C424.03 242.197 424.207 242.773 424.519 243.277C424.83 243.782 425.266 244.199 425.784 244.488C426.302 244.777 426.886 244.929 427.479 244.929H458.789V262.323H472.705V244.929H504.016C504.609 244.929 505.192 244.777 505.71 244.488C506.228 244.199 506.664 243.782 506.976 243.277C507.287 242.773 507.465 242.197 507.491 241.604C507.517 241.011 507.392 240.422 507.126 239.891L495.736 217.097H497.065C497.686 217.097 498.295 216.931 498.83 216.616C499.365 216.301 499.806 215.848 500.107 215.305C500.409 214.762 500.559 214.148 500.542 213.527C500.526 212.906 500.344 212.301 500.015 211.774L485.939 189.266H486.621C487.25 189.265 487.868 189.094 488.407 188.771C488.947 188.447 489.389 187.984 489.686 187.429C489.983 186.874 490.124 186.249 490.094 185.62C490.064 184.992 489.864 184.383 489.515 183.859L468.642 152.549Z" fill="#0A7121"/>
<path d="M989.642 139.549C989.324 139.072 988.894 138.682 988.389 138.412C987.884 138.141 987.32 138 986.747 138C986.175 138 985.611 138.141 985.106 138.412C984.601 138.682 984.17 139.072 983.853 139.549L962.979 170.859C962.63 171.383 962.43 171.992 962.4 172.62C962.37 173.249 962.511 173.874 962.808 174.429C963.105 174.984 963.547 175.447 964.087 175.771C964.627 176.094 965.244 176.265 965.874 176.266H966.555L952.487 198.774C952.157 199.301 951.975 199.906 951.959 200.527C951.943 201.148 952.093 201.762 952.394 202.305C952.695 202.848 953.136 203.301 953.671 203.616C954.206 203.931 954.816 204.097 955.437 204.097H956.766L945.369 226.891C945.103 227.422 944.977 228.011 945.003 228.604C945.03 229.197 945.207 229.773 945.519 230.277C945.83 230.782 946.266 231.199 946.784 231.488C947.302 231.777 947.886 231.929 948.479 231.929H979.789V249.323H993.705V231.929H1025.02C1025.61 231.929 1026.19 231.777 1026.71 231.488C1027.23 231.199 1027.66 230.782 1027.98 230.277C1028.29 229.773 1028.46 229.197 1028.49 228.604C1028.52 228.011 1028.39 227.422 1028.13 226.891L1016.74 204.097H1018.06C1018.69 204.097 1019.3 203.931 1019.83 203.616C1020.37 203.301 1020.81 202.848 1021.11 202.305C1021.41 201.762 1021.56 201.148 1021.54 200.527C1021.53 199.906 1021.34 199.301 1021.01 198.774L1006.94 176.266H1007.62C1008.25 176.265 1008.87 176.094 1009.41 175.771C1009.95 175.447 1010.39 174.984 1010.69 174.429C1010.98 173.874 1011.12 173.249 1011.09 172.62C1011.06 171.992 1010.86 171.383 1010.52 170.859L989.642 139.549Z" fill="#0A7121"/>
<path d="M702.049 167.279H785.673V226.092H702.049V167.279Z" fill="white"/>
<path d="M717.395 88.7748C717.395 75.8926 727.838 65.4495 740.72 65.4495H746.402C759.285 65.4495 769.728 75.8926 769.728 88.7748V88.7748H717.395V88.7748Z" fill="black"/>
<path d="M733.881 49.4097C733.881 44.6927 737.705 40.8688 742.422 40.8688H744.502C749.219 40.8688 753.043 44.6927 753.043 49.4097V49.4097H733.881V49.4097Z" fill="black"/>
<path d="M740.223 36.0756C740.223 34.4897 741.508 33.2041 743.094 33.2041H743.794C745.38 33.2041 746.665 34.4897 746.665 36.0756V36.0756H740.223V36.0756Z" fill="black"/>
<rect x="713.044" y="141.131" width="60.8141" height="17.3468" fill="white" stroke="black" stroke-width="0.330386"/>
<mask id="path-15-inside-1_359_2353" fill="white">
<path fill-rule="evenodd" clip-rule="evenodd" d="M712.879 91.6392V141.965H774.023V91.5402L762.008 87.5887L762.287 86.7205H724.643L724.892 87.4522L712.879 91.6392Z"/>
</mask>
<path fill-rule="evenodd" clip-rule="evenodd" d="M712.879 91.6392V141.965H774.023V91.5402L762.008 87.5887L762.287 86.7205H724.643L724.892 87.4522L712.879 91.6392Z" fill="white"/>
<path d="M712.879 91.6392L712.77 91.3272L712.549 91.4045V91.6392H712.879ZM712.879 141.965H712.549V142.295H712.879V141.965ZM774.023 141.965V142.295H774.354V141.965H774.023ZM774.023 91.5402H774.354V91.3011L774.127 91.2264L774.023 91.5402ZM762.008 87.5887L761.694 87.4877L761.594 87.8001L761.905 87.9025L762.008 87.5887ZM762.287 86.7205L762.602 86.8215L762.74 86.3901H762.287V86.7205ZM724.643 86.7205V86.3901H724.182L724.33 86.8269L724.643 86.7205ZM724.892 87.4522L725.001 87.7642L725.311 87.6562L725.205 87.3458L724.892 87.4522ZM712.549 91.6392V141.965H713.209V91.6392H712.549ZM712.879 142.295H774.023V141.634H712.879V142.295ZM774.354 141.965V91.5402H773.693V141.965H774.354ZM774.127 91.2264L762.112 87.2748L761.905 87.9025L773.92 91.8541L774.127 91.2264ZM762.323 87.6897L762.602 86.8215L761.973 86.6195L761.694 87.4877L762.323 87.6897ZM762.287 86.3901H724.643V87.0509H762.287V86.3901ZM724.33 86.8269L724.579 87.5586L725.205 87.3458L724.956 86.6141L724.33 86.8269ZM724.783 87.1402L712.77 91.3272L712.988 91.9512L725.001 87.7642L724.783 87.1402Z" fill="black" mask="url(#path-15-inside-1_359_2353)"/>
<path d="M685.31 256.947H801.573C804.765 256.947 807.373 259.448 807.544 262.597H679.339C679.511 259.448 682.119 256.947 685.31 256.947Z" fill="#D8D8D8" stroke="black" stroke-width="0.660773"/>
<rect x="699.39" y="229.351" width="88.2131" height="27.5872" fill="white" stroke="black" stroke-width="0.330386"/>
<rect x="696.479" y="226.179" width="93.9319" height="3.36445" fill="white" stroke="black" stroke-width="0.660773"/>
<rect x="696.479" y="163.769" width="93.9319" height="3.36445" fill="white" stroke="black" stroke-width="0.660773"/>
<rect x="713.959" y="170.906" width="8.02839" height="55.2736" fill="white" stroke="black" stroke-width="0.660773"/>
<rect x="712.5" y="221.95" width="11.4314" height="4.22894" fill="white" stroke="black" stroke-width="0.660773"/>
<rect x="700.973" y="170.906" width="8.02839" height="55.2736" fill="white" stroke="black" stroke-width="0.660773"/>
<rect x="699.287" y="221.95" width="11.4314" height="4.22894" fill="white" stroke="black" stroke-width="0.660773"/>
<rect x="712.276" y="167.271" width="11.4314" height="4.22894" fill="white" stroke="black" stroke-width="0.660773"/>
<rect x="699.287" y="167.271" width="11.4314" height="4.22894" fill="white" stroke="black" stroke-width="0.660773"/>
<rect x="777.688" y="170.906" width="8.02839" height="55.2736" fill="white" stroke="black" stroke-width="0.660773"/>
<rect x="776.235" y="221.95" width="11.4314" height="4.22894" fill="white" stroke="black" stroke-width="0.660773"/>
<rect x="764.703" y="170.906" width="8.02839" height="55.2736" fill="white" stroke="black" stroke-width="0.660773"/>
<rect x="763.022" y="221.95" width="11.4314" height="4.22894" fill="white" stroke="black" stroke-width="0.660773"/>
<rect x="776.004" y="167.238" width="11.4314" height="4.22894" fill="white" stroke="black" stroke-width="0.660773"/>
<rect x="763.022" y="167.238" width="11.4314" height="4.22894" fill="white" stroke="black" stroke-width="0.660773"/>
<circle cx="743.476" cy="196.676" r="15.9081" fill="#DBDDE5" stroke="black" stroke-width="0.330466"/>
<circle cx="743.459" cy="196.659" r="9.31689" stroke="white" stroke-width="0.792927"/>
<rect x="687.179" y="251.121" width="6.79339" height="5.83931" fill="white" stroke="black" stroke-width="0.330386"/>
<rect x="687.179" y="249.149" width="6.79339" height="1.89579" fill="white" stroke="black" stroke-width="0.330386"/>
<path d="M689.65 242.484C689.561 243.112 688.541 244.83 688.541 244.83C688.799 246.601 689.242 247.089 690.568 247.089C691.894 247.089 692.4 246.608 692.659 244.83C692.659 244.83 691.669 243.145 691.576 242.484C691.483 241.823 691.729 241.344 691.729 241.344C690.838 241.18 690.348 241.188 689.485 241.344C689.485 241.344 689.74 241.856 689.65 242.484Z" fill="white"/>
<path d="M688.541 244.83L688.399 244.745L688.369 244.796L688.378 244.854L688.541 244.83ZM689.65 242.484L689.814 242.507L689.814 242.507L689.65 242.484ZM689.485 241.344L689.455 241.182L689.239 241.221L689.337 241.418L689.485 241.344ZM691.729 241.344L691.876 241.42L691.977 241.222L691.759 241.182L691.729 241.344ZM691.576 242.484L691.739 242.461L691.739 242.461L691.576 242.484ZM692.659 244.83L692.823 244.854L692.831 244.796L692.802 244.746L692.659 244.83ZM688.541 244.83C688.683 244.914 688.683 244.914 688.683 244.914C688.683 244.914 688.683 244.914 688.683 244.914C688.683 244.914 688.683 244.914 688.683 244.914C688.683 244.914 688.684 244.913 688.684 244.913C688.684 244.912 688.685 244.911 688.686 244.909C688.688 244.906 688.691 244.901 688.695 244.894C688.702 244.881 688.714 244.862 688.728 244.838C688.756 244.789 688.797 244.719 688.845 244.633C688.943 244.461 689.074 244.225 689.209 243.969C689.343 243.713 689.48 243.436 689.591 243.181C689.699 242.931 689.788 242.688 689.814 242.507L689.487 242.461C689.468 242.594 689.396 242.801 689.288 243.05C689.182 243.294 689.048 243.563 688.916 243.816C688.784 244.068 688.655 244.3 688.558 244.47C688.51 244.555 688.47 244.624 688.442 244.672C688.428 244.696 688.417 244.714 688.41 244.727C688.406 244.733 688.404 244.738 688.402 244.741C688.401 244.742 688.4 244.744 688.4 244.744C688.399 244.745 688.399 244.745 688.399 244.745C688.399 244.745 688.399 244.745 688.399 244.745C688.399 244.745 688.399 244.745 688.399 244.745C688.399 244.745 688.399 244.745 688.541 244.83ZM689.814 242.507C689.862 242.166 689.817 241.859 689.761 241.638C689.733 241.527 689.702 241.437 689.677 241.374C689.665 241.343 689.654 241.318 689.646 241.3C689.642 241.291 689.639 241.284 689.637 241.28C689.636 241.277 689.635 241.275 689.634 241.274C689.634 241.273 689.633 241.272 689.633 241.272C689.633 241.271 689.633 241.271 689.633 241.271C689.633 241.271 689.633 241.271 689.633 241.271C689.633 241.271 689.632 241.271 689.632 241.271C689.632 241.271 689.632 241.271 689.485 241.344C689.337 241.418 689.337 241.418 689.337 241.418C689.337 241.418 689.337 241.418 689.337 241.418C689.337 241.418 689.337 241.418 689.337 241.418C689.337 241.418 689.337 241.418 689.337 241.418C689.337 241.418 689.337 241.418 689.337 241.418C689.337 241.418 689.337 241.419 689.338 241.421C689.339 241.424 689.342 241.428 689.344 241.435C689.35 241.448 689.359 241.468 689.369 241.494C689.39 241.547 689.416 241.624 689.441 241.72C689.49 241.912 689.528 242.174 689.487 242.461L689.814 242.507ZM689.514 241.507C690.359 241.354 690.829 241.346 691.699 241.507L691.759 241.182C690.848 241.014 690.337 241.023 689.455 241.182L689.514 241.507ZM691.729 241.344C691.582 241.269 691.582 241.269 691.582 241.269C691.582 241.269 691.582 241.269 691.582 241.269C691.582 241.269 691.582 241.269 691.581 241.269C691.581 241.269 691.581 241.27 691.581 241.27C691.581 241.27 691.581 241.271 691.58 241.272C691.579 241.273 691.578 241.275 691.577 241.278C691.575 241.283 691.572 241.289 691.568 241.298C691.56 241.315 691.55 241.339 691.538 241.369C691.514 241.43 691.484 241.518 691.457 241.627C691.403 241.845 691.362 242.151 691.412 242.507L691.739 242.461C691.696 242.156 691.732 241.893 691.778 241.706C691.801 241.613 691.826 241.539 691.845 241.49C691.855 241.465 691.863 241.446 691.869 241.435C691.871 241.429 691.873 241.424 691.875 241.422C691.875 241.421 691.876 241.42 691.876 241.419C691.876 241.419 691.876 241.419 691.876 241.419C691.876 241.419 691.876 241.419 691.876 241.419C691.876 241.419 691.876 241.42 691.876 241.42C691.876 241.42 691.876 241.42 691.876 241.42C691.876 241.42 691.876 241.42 691.729 241.344ZM691.412 242.507C691.439 242.695 691.525 242.941 691.632 243.194C691.74 243.45 691.875 243.727 692.006 243.98C692.136 244.235 692.264 244.468 692.359 244.637C692.407 244.722 692.446 244.791 692.474 244.839C692.487 244.862 692.498 244.881 692.506 244.894C692.509 244.9 692.512 244.905 692.514 244.908C692.515 244.91 692.516 244.911 692.516 244.912C692.516 244.913 692.517 244.913 692.517 244.913C692.517 244.913 692.517 244.913 692.517 244.913C692.517 244.913 692.517 244.914 692.517 244.914C692.517 244.914 692.517 244.914 692.659 244.83C692.802 244.746 692.802 244.746 692.802 244.746C692.802 244.746 692.802 244.746 692.802 244.746C692.802 244.746 692.802 244.746 692.802 244.746C692.802 244.746 692.801 244.745 692.801 244.745C692.801 244.744 692.8 244.743 692.799 244.742C692.797 244.738 692.795 244.734 692.791 244.728C692.784 244.715 692.773 244.697 692.76 244.674C692.733 244.627 692.694 244.559 692.647 244.475C692.554 244.308 692.428 244.079 692.299 243.829C692.171 243.579 692.04 243.311 691.936 243.065C691.831 242.816 691.759 242.603 691.739 242.461L691.412 242.507ZM688.378 244.854C688.507 245.74 688.686 246.35 689.031 246.734C689.387 247.13 689.889 247.254 690.568 247.254V246.923C689.921 246.923 689.538 246.804 689.277 246.513C689.004 246.21 688.834 245.691 688.704 244.806L688.378 244.854ZM690.568 247.254C691.247 247.254 691.762 247.131 692.134 246.74C692.496 246.357 692.693 245.746 692.823 244.854L692.496 244.806C692.367 245.691 692.181 246.21 691.894 246.512C691.616 246.805 691.215 246.923 690.568 246.923V247.254Z" fill="black"/>
<path d="M688.886 247.14C688.945 248.531 687.268 249.111 687.268 249.111H693.819C693.819 249.111 692.122 248.509 692.201 247.14H688.886Z" fill="white" stroke="black" stroke-width="0.330386"/>
<rect x="793.019" y="251.121" width="6.79339" height="5.83931" fill="white" stroke="black" stroke-width="0.330386"/>
<rect x="793.019" y="249.149" width="6.79339" height="1.89579" fill="white" stroke="black" stroke-width="0.330386"/>
<path d="M795.49 242.484C795.401 243.112 794.381 244.83 794.381 244.83C794.639 246.601 795.082 247.089 796.408 247.089C797.734 247.089 798.24 246.608 798.499 244.83C798.499 244.83 797.509 243.145 797.415 242.484C797.322 241.823 797.569 241.344 797.569 241.344C796.678 241.18 796.188 241.188 795.324 241.344C795.324 241.344 795.579 241.856 795.49 242.484Z" fill="white"/>
<path d="M794.381 244.83L794.239 244.745L794.209 244.796L794.217 244.854L794.381 244.83ZM795.49 242.484L795.654 242.507L795.654 242.507L795.49 242.484ZM795.324 241.344L795.295 241.182L795.078 241.221L795.177 241.418L795.324 241.344ZM797.569 241.344L797.715 241.42L797.817 241.222L797.598 241.182L797.569 241.344ZM797.415 242.484L797.579 242.461L797.579 242.461L797.415 242.484ZM798.499 244.83L798.663 244.854L798.671 244.796L798.642 244.746L798.499 244.83ZM794.381 244.83C794.523 244.914 794.523 244.914 794.523 244.914C794.523 244.914 794.523 244.914 794.523 244.914C794.523 244.914 794.523 244.914 794.523 244.914C794.523 244.914 794.523 244.913 794.524 244.913C794.524 244.912 794.525 244.911 794.526 244.909C794.528 244.906 794.531 244.901 794.535 244.894C794.542 244.881 794.553 244.862 794.568 244.838C794.596 244.789 794.636 244.719 794.685 244.633C794.783 244.461 794.914 244.225 795.048 243.969C795.182 243.713 795.32 243.436 795.431 243.181C795.539 242.931 795.628 242.688 795.654 242.507L795.327 242.461C795.308 242.594 795.236 242.801 795.128 243.05C795.022 243.294 794.888 243.563 794.756 243.816C794.624 244.068 794.494 244.3 794.398 244.47C794.35 244.555 794.31 244.624 794.282 244.672C794.268 244.696 794.257 244.714 794.25 244.727C794.246 244.733 794.243 244.738 794.242 244.741C794.241 244.742 794.24 244.744 794.239 244.744C794.239 244.745 794.239 244.745 794.239 244.745C794.239 244.745 794.239 244.745 794.239 244.745C794.239 244.745 794.239 244.745 794.239 244.745C794.239 244.745 794.239 244.745 794.381 244.83ZM795.654 242.507C795.702 242.166 795.657 241.859 795.601 241.638C795.573 241.527 795.541 241.437 795.517 241.374C795.504 241.343 795.494 241.318 795.486 241.3C795.482 241.291 795.479 241.284 795.477 241.28C795.475 241.277 795.474 241.275 795.474 241.274C795.473 241.273 795.473 241.272 795.473 241.272C795.473 241.271 795.473 241.271 795.473 241.271C795.472 241.271 795.472 241.271 795.472 241.271C795.472 241.271 795.472 241.271 795.472 241.271C795.472 241.271 795.472 241.271 795.324 241.344C795.177 241.418 795.177 241.418 795.176 241.418C795.176 241.418 795.176 241.418 795.176 241.418C795.176 241.418 795.176 241.418 795.176 241.418C795.176 241.418 795.176 241.418 795.176 241.418C795.176 241.418 795.176 241.418 795.177 241.418C795.177 241.418 795.177 241.419 795.178 241.421C795.179 241.424 795.181 241.428 795.184 241.435C795.19 241.448 795.199 241.468 795.209 241.494C795.229 241.547 795.256 241.624 795.281 241.72C795.33 241.912 795.367 242.174 795.327 242.461L795.654 242.507ZM795.354 241.507C796.199 241.354 796.669 241.346 797.539 241.507L797.598 241.182C796.688 241.014 796.177 241.023 795.295 241.182L795.354 241.507ZM797.569 241.344C797.422 241.269 797.422 241.269 797.422 241.269C797.421 241.269 797.421 241.269 797.421 241.269C797.421 241.269 797.421 241.269 797.421 241.269C797.421 241.269 797.421 241.27 797.421 241.27C797.421 241.27 797.42 241.271 797.42 241.272C797.419 241.273 797.418 241.275 797.417 241.278C797.415 241.283 797.412 241.289 797.408 241.298C797.4 241.315 797.39 241.339 797.378 241.369C797.354 241.43 797.324 241.518 797.297 241.627C797.243 241.845 797.202 242.151 797.252 242.507L797.579 242.461C797.536 242.156 797.571 241.893 797.617 241.706C797.64 241.613 797.666 241.539 797.685 241.49C797.695 241.465 797.703 241.446 797.708 241.435C797.711 241.429 797.713 241.424 797.714 241.422C797.715 241.421 797.715 241.42 797.716 241.419C797.716 241.419 797.716 241.419 797.716 241.419C797.716 241.419 797.716 241.419 797.716 241.419C797.716 241.419 797.716 241.42 797.716 241.42C797.716 241.42 797.715 241.42 797.715 241.42C797.715 241.42 797.715 241.42 797.569 241.344ZM797.252 242.507C797.278 242.695 797.365 242.941 797.472 243.194C797.58 243.45 797.715 243.727 797.845 243.98C797.976 244.235 798.104 244.468 798.199 244.637C798.246 244.722 798.286 244.791 798.313 244.839C798.327 244.862 798.338 244.881 798.345 244.894C798.349 244.9 798.352 244.905 798.354 244.908C798.355 244.91 798.356 244.911 798.356 244.912C798.356 244.913 798.357 244.913 798.357 244.913C798.357 244.913 798.357 244.913 798.357 244.913C798.357 244.913 798.357 244.914 798.357 244.914C798.357 244.914 798.357 244.914 798.499 244.83C798.642 244.746 798.642 244.746 798.642 244.746C798.642 244.746 798.642 244.746 798.642 244.746C798.642 244.746 798.642 244.746 798.642 244.746C798.641 244.746 798.641 244.745 798.641 244.745C798.641 244.744 798.64 244.743 798.639 244.742C798.637 244.738 798.634 244.734 798.631 244.728C798.624 244.715 798.613 244.697 798.6 244.674C798.573 244.627 798.534 244.559 798.487 244.475C798.393 244.308 798.268 244.079 798.139 243.829C798.011 243.579 797.88 243.311 797.776 243.065C797.671 242.816 797.599 242.603 797.579 242.461L797.252 242.507ZM794.217 244.854C794.347 245.74 794.526 246.35 794.871 246.734C795.227 247.13 795.728 247.254 796.408 247.254V246.923C795.761 246.923 795.378 246.804 795.117 246.513C794.844 246.21 794.673 245.691 794.544 244.806L794.217 244.854ZM796.408 247.254C797.087 247.254 797.602 247.131 797.974 246.74C798.336 246.357 798.533 245.746 798.663 244.854L798.336 244.806C798.207 245.691 798.021 246.21 797.734 246.512C797.456 246.805 797.055 246.923 796.408 246.923V247.254Z" fill="black"/>
<path d="M794.726 247.14C794.785 248.531 793.107 249.111 793.107 249.111H799.659C799.659 249.111 797.962 248.509 798.041 247.14H794.726Z" fill="white" stroke="black" stroke-width="0.330386"/>
<rect x="778.306" y="148.435" width="6.78331" height="10.0428" fill="white" stroke="black" stroke-width="0.330386"/>
<rect x="778.306" y="146.559" width="6.79339" height="1.89579" fill="white" stroke="black" stroke-width="0.330386"/>
<path d="M780.777 139.894C780.688 140.521 779.668 142.239 779.668 142.239C779.926 144.01 780.369 144.498 781.695 144.498C783.021 144.498 783.527 144.017 783.786 142.239C783.786 142.239 782.796 140.554 782.703 139.894C782.61 139.233 782.856 138.754 782.856 138.754C781.965 138.59 781.475 138.598 780.612 138.754C780.612 138.754 780.867 139.266 780.777 139.894Z" fill="white"/>
<path d="M779.668 142.239L779.526 142.155L779.496 142.205L779.505 142.263L779.668 142.239ZM780.777 139.894L780.941 139.917L780.941 139.917L780.777 139.894ZM780.612 138.754L780.582 138.591L780.365 138.63L780.464 138.827L780.612 138.754ZM782.856 138.754L783.003 138.829L783.104 138.632L782.886 138.591L782.856 138.754ZM782.703 139.894L782.866 139.871L782.866 139.871L782.703 139.894ZM783.786 142.239L783.95 142.263L783.958 142.206L783.929 142.156L783.786 142.239ZM779.668 142.239C779.81 142.324 779.81 142.324 779.81 142.324C779.81 142.324 779.81 142.324 779.81 142.324C779.81 142.324 779.81 142.323 779.81 142.323C779.81 142.323 779.811 142.323 779.811 142.322C779.811 142.321 779.812 142.32 779.813 142.318C779.815 142.315 779.818 142.31 779.822 142.304C779.829 142.291 779.841 142.272 779.855 142.247C779.883 142.199 779.924 142.129 779.972 142.043C780.07 141.871 780.201 141.635 780.335 141.379C780.469 141.123 780.607 140.845 780.718 140.591C780.826 140.341 780.915 140.098 780.941 139.917L780.614 139.87C780.595 140.003 780.523 140.211 780.415 140.459C780.309 140.703 780.175 140.973 780.043 141.225C779.911 141.477 779.782 141.71 779.685 141.88C779.637 141.964 779.597 142.033 779.569 142.081C779.555 142.105 779.544 142.124 779.537 142.136C779.533 142.142 779.531 142.147 779.529 142.15C779.528 142.152 779.527 142.153 779.527 142.154C779.526 142.154 779.526 142.155 779.526 142.155C779.526 142.155 779.526 142.155 779.526 142.155C779.526 142.155 779.526 142.155 779.526 142.155C779.526 142.155 779.526 142.155 779.668 142.239ZM780.941 139.917C780.989 139.576 780.944 139.268 780.888 139.048C780.86 138.937 780.828 138.847 780.804 138.784C780.792 138.752 780.781 138.727 780.773 138.71C780.769 138.701 780.766 138.694 780.764 138.689C780.763 138.687 780.762 138.685 780.761 138.683C780.76 138.682 780.76 138.682 780.76 138.681C780.76 138.681 780.76 138.681 780.76 138.681C780.76 138.681 780.76 138.68 780.759 138.68C780.759 138.68 780.759 138.68 780.759 138.68C780.759 138.68 780.759 138.68 780.612 138.754C780.464 138.827 780.464 138.827 780.464 138.827C780.464 138.827 780.464 138.827 780.464 138.827C780.464 138.827 780.464 138.827 780.464 138.827C780.463 138.827 780.463 138.827 780.463 138.827C780.463 138.827 780.464 138.827 780.464 138.827C780.464 138.828 780.464 138.829 780.465 138.83C780.466 138.833 780.469 138.838 780.471 138.844C780.477 138.857 780.486 138.877 780.496 138.904C780.516 138.956 780.543 139.033 780.568 139.129C780.617 139.321 780.654 139.584 780.614 139.87L780.941 139.917ZM780.641 138.916C781.486 138.764 781.956 138.756 782.826 138.916L782.886 138.591C781.975 138.423 781.464 138.432 780.582 138.591L780.641 138.916ZM782.856 138.754C782.709 138.678 782.709 138.678 782.709 138.678C782.709 138.678 782.709 138.679 782.709 138.679C782.709 138.679 782.708 138.679 782.708 138.679C782.708 138.679 782.708 138.679 782.708 138.679C782.708 138.68 782.707 138.681 782.707 138.681C782.706 138.683 782.705 138.685 782.704 138.687C782.702 138.692 782.699 138.699 782.695 138.707C782.687 138.724 782.677 138.748 782.665 138.779C782.641 138.84 782.611 138.927 782.584 139.036C782.53 139.254 782.489 139.561 782.539 139.917L782.866 139.871C782.823 139.566 782.859 139.302 782.905 139.115C782.928 139.022 782.953 138.949 782.972 138.899C782.982 138.875 782.99 138.856 782.996 138.844C782.998 138.838 783 138.834 783.002 138.831C783.002 138.83 783.003 138.829 783.003 138.829C783.003 138.829 783.003 138.829 783.003 138.829C783.003 138.829 783.003 138.829 783.003 138.829C783.003 138.829 783.003 138.829 783.003 138.829C783.003 138.829 783.003 138.829 783.003 138.829C783.003 138.829 783.003 138.829 782.856 138.754ZM782.539 139.917C782.566 140.105 782.652 140.351 782.759 140.603C782.867 140.859 783.002 141.136 783.133 141.39C783.263 141.644 783.391 141.877 783.486 142.047C783.534 142.131 783.573 142.2 783.6 142.248C783.614 142.272 783.625 142.291 783.632 142.303C783.636 142.31 783.639 142.315 783.641 142.318C783.642 142.32 783.643 142.321 783.643 142.322C783.643 142.322 783.644 142.322 783.644 142.323C783.644 142.323 783.644 142.323 783.644 142.323C783.644 142.323 783.644 142.323 783.644 142.323C783.644 142.323 783.644 142.323 783.786 142.239C783.929 142.156 783.929 142.156 783.929 142.156C783.929 142.156 783.929 142.156 783.929 142.156C783.929 142.156 783.929 142.156 783.929 142.155C783.929 142.155 783.928 142.155 783.928 142.155C783.928 142.154 783.927 142.153 783.926 142.151C783.924 142.148 783.922 142.143 783.918 142.137C783.911 142.125 783.9 142.107 783.887 142.083C783.86 142.036 783.821 141.969 783.774 141.885C783.681 141.718 783.555 141.488 783.426 141.239C783.298 140.989 783.167 140.72 783.063 140.475C782.958 140.225 782.886 140.013 782.866 139.871L782.539 139.917ZM779.505 142.263C779.634 143.149 779.813 143.76 780.158 144.143C780.514 144.539 781.016 144.663 781.695 144.663V144.333C781.048 144.333 780.665 144.213 780.404 143.922C780.131 143.619 779.961 143.1 779.831 142.216L779.505 142.263ZM781.695 144.663C782.374 144.663 782.889 144.541 783.261 144.149C783.623 143.767 783.82 143.156 783.95 142.263L783.623 142.216C783.494 143.1 783.308 143.619 783.021 143.922C782.743 144.215 782.342 144.333 781.695 144.333V144.663Z" fill="black"/>
<path d="M780.013 144.549C780.072 145.94 778.395 146.521 778.395 146.521H784.946C784.946 146.521 783.249 145.919 783.328 144.549H780.013Z" fill="white" stroke="black" stroke-width="0.330386"/>
<rect x="701.601" y="148.435" width="6.78331" height="10.0428" fill="white" stroke="black" stroke-width="0.330386"/>
<rect x="701.601" y="146.559" width="6.79339" height="1.89579" fill="white" stroke="black" stroke-width="0.330386"/>
<path d="M704.072 139.894C703.983 140.521 702.963 142.239 702.963 142.239C703.221 144.01 703.664 144.498 704.99 144.498C706.316 144.498 706.822 144.017 707.081 142.239C707.081 142.239 706.091 140.554 705.998 139.894C705.904 139.233 706.151 138.754 706.151 138.754C705.26 138.59 704.77 138.598 703.906 138.754C703.906 138.754 704.161 139.266 704.072 139.894Z" fill="white"/>
<path d="M702.963 142.239L702.821 142.155L702.791 142.205L702.799 142.263L702.963 142.239ZM704.072 139.894L704.236 139.917L704.236 139.917L704.072 139.894ZM703.906 138.754L703.877 138.591L703.66 138.63L703.759 138.827L703.906 138.754ZM706.151 138.754L706.297 138.829L706.399 138.632L706.181 138.591L706.151 138.754ZM705.998 139.894L706.161 139.871L706.161 139.871L705.998 139.894ZM707.081 142.239L707.245 142.263L707.253 142.206L707.224 142.156L707.081 142.239ZM702.963 142.239C703.105 142.324 703.105 142.324 703.105 142.324C703.105 142.324 703.105 142.324 703.105 142.324C703.105 142.324 703.105 142.323 703.105 142.323C703.105 142.323 703.105 142.323 703.106 142.322C703.106 142.321 703.107 142.32 703.108 142.318C703.11 142.315 703.113 142.31 703.117 142.304C703.124 142.291 703.135 142.272 703.15 142.247C703.178 142.199 703.218 142.129 703.267 142.043C703.365 141.871 703.496 141.635 703.63 141.379C703.764 141.123 703.902 140.845 704.013 140.591C704.121 140.341 704.21 140.098 704.236 139.917L703.909 139.87C703.89 140.003 703.818 140.211 703.71 140.459C703.604 140.703 703.47 140.973 703.338 141.225C703.206 141.477 703.076 141.71 702.98 141.88C702.932 141.964 702.892 142.033 702.864 142.081C702.85 142.105 702.839 142.124 702.832 142.136C702.828 142.142 702.825 142.147 702.824 142.15C702.823 142.152 702.822 142.153 702.822 142.154C702.821 142.154 702.821 142.155 702.821 142.155C702.821 142.155 702.821 142.155 702.821 142.155C702.821 142.155 702.821 142.155 702.821 142.155C702.821 142.155 702.821 142.155 702.963 142.239ZM704.236 139.917C704.284 139.576 704.239 139.268 704.183 139.048C704.155 138.937 704.123 138.847 704.099 138.784C704.087 138.752 704.076 138.727 704.068 138.71C704.064 138.701 704.061 138.694 704.059 138.689C704.057 138.687 704.056 138.685 704.056 138.683C704.055 138.682 704.055 138.682 704.055 138.681C704.055 138.681 704.055 138.681 704.055 138.681C704.054 138.681 704.054 138.68 704.054 138.68C704.054 138.68 704.054 138.68 704.054 138.68C704.054 138.68 704.054 138.68 703.906 138.754C703.759 138.827 703.759 138.827 703.759 138.827C703.759 138.827 703.758 138.827 703.758 138.827C703.758 138.827 703.758 138.827 703.758 138.827C703.758 138.827 703.758 138.827 703.758 138.827C703.758 138.827 703.758 138.827 703.759 138.827C703.759 138.828 703.759 138.829 703.76 138.83C703.761 138.833 703.763 138.838 703.766 138.844C703.772 138.857 703.781 138.877 703.791 138.904C703.811 138.956 703.838 139.033 703.863 139.129C703.912 139.321 703.949 139.584 703.909 139.87L704.236 139.917ZM703.936 138.916C704.781 138.764 705.251 138.756 706.121 138.916L706.181 138.591C705.27 138.423 704.759 138.432 703.877 138.591L703.936 138.916ZM706.151 138.754C706.004 138.678 706.004 138.678 706.004 138.678C706.004 138.678 706.003 138.679 706.003 138.679C706.003 138.679 706.003 138.679 706.003 138.679C706.003 138.679 706.003 138.679 706.003 138.679C706.003 138.68 706.002 138.681 706.002 138.681C706.001 138.683 706 138.685 705.999 138.687C705.997 138.692 705.994 138.699 705.99 138.707C705.982 138.724 705.972 138.748 705.96 138.779C705.936 138.84 705.906 138.927 705.879 139.036C705.825 139.254 705.784 139.561 705.834 139.917L706.161 139.871C706.118 139.566 706.153 139.302 706.2 139.115C706.223 139.022 706.248 138.949 706.267 138.899C706.277 138.875 706.285 138.856 706.291 138.844C706.293 138.838 706.295 138.834 706.296 138.831C706.297 138.83 706.297 138.829 706.298 138.829C706.298 138.829 706.298 138.829 706.298 138.829C706.298 138.829 706.298 138.829 706.298 138.829C706.298 138.829 706.298 138.829 706.298 138.829C706.298 138.829 706.298 138.829 706.298 138.829C706.297 138.829 706.297 138.829 706.151 138.754ZM705.834 139.917C705.86 140.105 705.947 140.351 706.054 140.603C706.162 140.859 706.297 141.136 706.427 141.39C706.558 141.644 706.686 141.877 706.781 142.047C706.828 142.131 706.868 142.2 706.895 142.248C706.909 142.272 706.92 142.291 706.927 142.303C706.931 142.31 706.934 142.315 706.936 142.318C706.937 142.32 706.938 142.321 706.938 142.322C706.938 142.322 706.939 142.322 706.939 142.323C706.939 142.323 706.939 142.323 706.939 142.323C706.939 142.323 706.939 142.323 706.939 142.323C706.939 142.323 706.939 142.323 707.081 142.239C707.224 142.156 707.224 142.156 707.224 142.156C707.224 142.156 707.224 142.156 707.224 142.156C707.224 142.156 707.224 142.156 707.224 142.155C707.223 142.155 707.223 142.155 707.223 142.155C707.223 142.154 707.222 142.153 707.221 142.151C707.219 142.148 707.217 142.143 707.213 142.137C707.206 142.125 707.195 142.107 707.182 142.083C707.155 142.036 707.116 141.969 707.069 141.885C706.975 141.718 706.85 141.488 706.721 141.239C706.593 140.989 706.462 140.72 706.358 140.475C706.253 140.225 706.181 140.013 706.161 139.871L705.834 139.917ZM702.799 142.263C702.929 143.149 703.108 143.76 703.453 144.143C703.809 144.539 704.311 144.663 704.99 144.663V144.333C704.343 144.333 703.96 144.213 703.699 143.922C703.426 143.619 703.255 143.1 703.126 142.216L702.799 142.263ZM704.99 144.663C705.669 144.663 706.184 144.541 706.556 144.149C706.918 143.767 707.115 143.156 707.245 142.263L706.918 142.216C706.789 143.1 706.603 143.619 706.316 143.922C706.038 144.215 705.637 144.333 704.99 144.333V144.663Z" fill="black"/>
<path d="M703.308 144.549C703.367 145.94 701.689 146.521 701.689 146.521H708.241C708.241 146.521 706.544 145.919 706.623 144.549H703.308Z" fill="white" stroke="black" stroke-width="0.330386"/>
<rect x="757.78" y="251.121" width="6.79339" height="5.83931" fill="white" stroke="black" stroke-width="0.330386"/>
<rect x="757.78" y="249.149" width="6.79339" height="1.89579" fill="white" stroke="black" stroke-width="0.330386"/>
<path d="M760.25 242.484C760.161 243.112 759.141 244.83 759.141 244.83C759.399 246.601 759.842 247.089 761.168 247.089C762.494 247.089 763 246.608 763.259 244.83C763.259 244.83 762.268 243.145 762.175 242.484C762.082 241.823 762.328 241.344 762.328 241.344C761.438 241.18 760.947 241.189 760.084 241.344C760.084 241.344 760.339 241.856 760.25 242.484Z" fill="white"/>
<path d="M759.141 244.83L758.999 244.746L758.969 244.796L758.977 244.854L759.141 244.83ZM760.25 242.484L760.413 242.507L760.413 242.507L760.25 242.484ZM760.084 241.344L760.055 241.182L759.838 241.221L759.936 241.418L760.084 241.344ZM762.328 241.344L762.475 241.42L762.577 241.222L762.358 241.182L762.328 241.344ZM762.175 242.484L762.339 242.461L762.339 242.461L762.175 242.484ZM763.259 244.83L763.423 244.854L763.431 244.796L763.401 244.746L763.259 244.83ZM759.141 244.83C759.283 244.914 759.283 244.914 759.283 244.914C759.283 244.914 759.283 244.914 759.283 244.914C759.283 244.914 759.283 244.914 759.283 244.914C759.283 244.914 759.283 244.913 759.283 244.913C759.284 244.912 759.285 244.911 759.286 244.909C759.288 244.906 759.291 244.901 759.294 244.894C759.302 244.881 759.313 244.862 759.327 244.838C759.356 244.789 759.396 244.719 759.445 244.633C759.543 244.461 759.674 244.225 759.808 243.969C759.942 243.713 760.08 243.436 760.19 243.181C760.299 242.931 760.388 242.688 760.413 242.507L760.086 242.461C760.067 242.594 759.995 242.801 759.887 243.05C759.781 243.294 759.648 243.564 759.515 243.816C759.384 244.068 759.254 244.3 759.158 244.47C759.11 244.555 759.07 244.624 759.042 244.672C759.028 244.696 759.017 244.714 759.01 244.727C759.006 244.733 759.003 244.738 759.001 244.741C759 244.743 759 244.744 758.999 244.745C758.999 244.745 758.999 244.745 758.999 244.745C758.999 244.745 758.999 244.746 758.999 244.746C758.999 244.746 758.999 244.746 758.999 244.746C758.999 244.746 758.999 244.746 759.141 244.83ZM760.413 242.507C760.462 242.166 760.417 241.859 760.361 241.638C760.332 241.527 760.301 241.437 760.277 241.374C760.264 241.343 760.254 241.318 760.246 241.3C760.242 241.292 760.239 241.285 760.236 241.28C760.235 241.277 760.234 241.275 760.233 241.274C760.233 241.273 760.233 241.272 760.233 241.272C760.232 241.272 760.232 241.271 760.232 241.271C760.232 241.271 760.232 241.271 760.232 241.271C760.232 241.271 760.232 241.271 760.232 241.271C760.232 241.271 760.232 241.271 760.084 241.344C759.936 241.418 759.936 241.418 759.936 241.418C759.936 241.418 759.936 241.418 759.936 241.418C759.936 241.418 759.936 241.418 759.936 241.418C759.936 241.418 759.936 241.418 759.936 241.418C759.936 241.418 759.936 241.418 759.936 241.418C759.937 241.419 759.937 241.419 759.938 241.421C759.939 241.424 759.941 241.428 759.944 241.435C759.95 241.448 759.958 241.468 759.969 241.494C759.989 241.547 760.016 241.624 760.04 241.72C760.089 241.912 760.127 242.174 760.086 242.461L760.413 242.507ZM760.113 241.507C760.958 241.355 761.429 241.346 762.298 241.507L762.358 241.182C761.447 241.014 760.937 241.023 760.055 241.182L760.113 241.507ZM762.328 241.344C762.181 241.269 762.181 241.269 762.181 241.269C762.181 241.269 762.181 241.269 762.181 241.269C762.181 241.269 762.181 241.269 762.181 241.269C762.181 241.27 762.181 241.27 762.181 241.27C762.18 241.271 762.18 241.271 762.18 241.272C762.179 241.273 762.178 241.275 762.177 241.278C762.175 241.283 762.171 241.289 762.168 241.298C762.16 241.315 762.149 241.339 762.137 241.369C762.114 241.43 762.083 241.518 762.056 241.627C762.003 241.845 761.962 242.152 762.012 242.507L762.339 242.461C762.296 242.156 762.331 241.893 762.377 241.706C762.4 241.613 762.426 241.539 762.445 241.49C762.455 241.465 762.463 241.447 762.468 241.435C762.471 241.429 762.473 241.424 762.474 241.422C762.475 241.421 762.475 241.42 762.475 241.42C762.475 241.419 762.475 241.419 762.475 241.419C762.475 241.419 762.475 241.419 762.475 241.42C762.475 241.42 762.475 241.42 762.475 241.42C762.475 241.42 762.475 241.42 762.475 241.42C762.475 241.42 762.475 241.42 762.328 241.344ZM762.012 242.507C762.038 242.695 762.125 242.941 762.232 243.194C762.34 243.45 762.475 243.727 762.605 243.98C762.736 244.235 762.864 244.468 762.959 244.637C763.006 244.722 763.046 244.791 763.073 244.839C763.087 244.863 763.098 244.881 763.105 244.894C763.109 244.9 763.112 244.905 763.114 244.909C763.115 244.91 763.115 244.911 763.116 244.912C763.116 244.913 763.116 244.913 763.116 244.913C763.116 244.913 763.117 244.914 763.117 244.914C763.117 244.914 763.117 244.914 763.117 244.914C763.117 244.914 763.117 244.914 763.259 244.83C763.401 244.746 763.401 244.746 763.401 244.746C763.401 244.746 763.401 244.746 763.401 244.746C763.401 244.746 763.401 244.746 763.401 244.746C763.401 244.746 763.401 244.746 763.401 244.745C763.4 244.744 763.4 244.743 763.399 244.742C763.397 244.739 763.394 244.734 763.391 244.728C763.384 244.715 763.373 244.697 763.359 244.674C763.332 244.627 763.294 244.559 763.247 244.476C763.153 244.308 763.027 244.079 762.899 243.829C762.77 243.579 762.64 243.311 762.536 243.065C762.431 242.816 762.359 242.604 762.339 242.461L762.012 242.507ZM758.977 244.854C759.106 245.74 759.286 246.35 759.631 246.734C759.987 247.13 760.488 247.254 761.168 247.254V246.924C760.521 246.924 760.138 246.804 759.877 246.513C759.604 246.21 759.433 245.691 759.304 244.806L758.977 244.854ZM761.168 247.254C761.847 247.254 762.362 247.132 762.733 246.74C763.096 246.357 763.292 245.747 763.423 244.854L763.096 244.806C762.967 245.691 762.78 246.21 762.494 246.512C762.216 246.805 761.815 246.924 761.168 246.924V247.254Z" fill="black"/>
<path d="M759.487 247.14C759.546 248.531 757.869 249.111 757.869 249.111H764.42C764.42 249.111 762.723 248.509 762.802 247.14H759.487Z" fill="white" stroke="black" stroke-width="0.330386"/>
<rect x="722.48" y="251.121" width="6.79339" height="5.83931" fill="white" stroke="black" stroke-width="0.330386"/>
<rect x="722.48" y="249.149" width="6.79339" height="1.89579" fill="white" stroke="black" stroke-width="0.330386"/>
<path d="M724.949 242.484C724.86 243.112 723.84 244.83 723.84 244.83C724.098 246.601 724.541 247.089 725.867 247.089C727.193 247.089 727.699 246.608 727.958 244.83C727.958 244.83 726.968 243.145 726.874 242.484C726.781 241.823 727.027 241.344 727.027 241.344C726.137 241.18 725.647 241.189 724.783 241.344C724.783 241.344 725.038 241.856 724.949 242.484Z" fill="white"/>
<path d="M723.84 244.83L723.698 244.746L723.668 244.796L723.676 244.854L723.84 244.83ZM724.949 242.484L725.113 242.507L725.113 242.507L724.949 242.484ZM724.783 241.344L724.754 241.182L724.537 241.221L724.636 241.418L724.783 241.344ZM727.027 241.344L727.174 241.42L727.276 241.222L727.057 241.182L727.027 241.344ZM726.874 242.484L727.038 242.461L727.038 242.461L726.874 242.484ZM727.958 244.83L728.122 244.854L728.13 244.796L728.101 244.746L727.958 244.83ZM723.84 244.83C723.982 244.914 723.982 244.914 723.982 244.914C723.982 244.914 723.982 244.914 723.982 244.914C723.982 244.914 723.982 244.914 723.982 244.914C723.982 244.914 723.982 244.913 723.983 244.913C723.983 244.912 723.984 244.911 723.985 244.909C723.987 244.906 723.99 244.901 723.994 244.894C724.001 244.881 724.012 244.862 724.027 244.838C724.055 244.789 724.095 244.719 724.144 244.633C724.242 244.461 724.373 244.225 724.507 243.969C724.641 243.713 724.779 243.436 724.89 243.181C724.998 242.931 725.087 242.688 725.113 242.507L724.786 242.461C724.767 242.594 724.694 242.801 724.587 243.05C724.481 243.294 724.347 243.564 724.215 243.816C724.083 244.068 723.953 244.3 723.857 244.47C723.809 244.555 723.769 244.624 723.741 244.672C723.727 244.696 723.716 244.714 723.709 244.727C723.705 244.733 723.702 244.738 723.701 244.741C723.7 244.743 723.699 244.744 723.698 244.745C723.698 244.745 723.698 244.745 723.698 244.745C723.698 244.745 723.698 244.746 723.698 244.746C723.698 244.746 723.698 244.746 723.698 244.746C723.698 244.746 723.698 244.746 723.84 244.83ZM725.113 242.507C725.161 242.166 725.116 241.859 725.06 241.638C725.032 241.527 725 241.437 724.976 241.374C724.963 241.343 724.953 241.318 724.945 241.3C724.941 241.292 724.938 241.285 724.936 241.28C724.934 241.277 724.933 241.275 724.933 241.274C724.932 241.273 724.932 241.272 724.932 241.272C724.932 241.272 724.932 241.271 724.931 241.271C724.931 241.271 724.931 241.271 724.931 241.271C724.931 241.271 724.931 241.271 724.931 241.271C724.931 241.271 724.931 241.271 724.783 241.344C724.636 241.418 724.635 241.418 724.635 241.418C724.635 241.418 724.635 241.418 724.635 241.418C724.635 241.418 724.635 241.418 724.635 241.418C724.635 241.418 724.635 241.418 724.635 241.418C724.635 241.418 724.635 241.418 724.636 241.418C724.636 241.419 724.636 241.419 724.637 241.421C724.638 241.424 724.64 241.428 724.643 241.435C724.649 241.448 724.658 241.468 724.668 241.494C724.688 241.547 724.715 241.624 724.74 241.72C724.789 241.912 724.826 242.174 724.786 242.461L725.113 242.507ZM724.813 241.507C725.657 241.355 726.128 241.346 726.998 241.507L727.057 241.182C726.147 241.014 725.636 241.023 724.754 241.182L724.813 241.507ZM727.027 241.344C726.881 241.269 726.881 241.269 726.88 241.269C726.88 241.269 726.88 241.269 726.88 241.269C726.88 241.269 726.88 241.269 726.88 241.269C726.88 241.27 726.88 241.27 726.88 241.27C726.88 241.271 726.879 241.271 726.879 241.272C726.878 241.273 726.877 241.275 726.876 241.278C726.874 241.283 726.871 241.289 726.867 241.298C726.859 241.315 726.849 241.339 726.837 241.369C726.813 241.43 726.783 241.518 726.756 241.627C726.702 241.845 726.661 242.152 726.711 242.507L727.038 242.461C726.995 242.156 727.03 241.893 727.076 241.706C727.099 241.613 727.125 241.539 727.144 241.49C727.154 241.465 727.162 241.447 727.167 241.435C727.17 241.429 727.172 241.424 727.173 241.422C727.174 241.421 727.174 241.42 727.175 241.42C727.175 241.419 727.175 241.419 727.175 241.419C727.175 241.419 727.175 241.419 727.175 241.42C727.175 241.42 727.175 241.42 727.175 241.42C727.175 241.42 727.174 241.42 727.174 241.42C727.174 241.42 727.174 241.42 727.027 241.344ZM726.711 242.507C726.737 242.695 726.824 242.941 726.931 243.194C727.039 243.45 727.174 243.727 727.304 243.98C727.435 244.235 727.563 244.468 727.658 244.637C727.705 244.722 727.745 244.791 727.772 244.839C727.786 244.863 727.797 244.881 727.804 244.894C727.808 244.9 727.811 244.905 727.813 244.909C727.814 244.91 727.815 244.911 727.815 244.912C727.815 244.913 727.816 244.913 727.816 244.913C727.816 244.913 727.816 244.914 727.816 244.914C727.816 244.914 727.816 244.914 727.816 244.914C727.816 244.914 727.816 244.914 727.958 244.83C728.101 244.746 728.101 244.746 728.101 244.746C728.101 244.746 728.101 244.746 728.101 244.746C728.101 244.746 728.101 244.746 728.101 244.746C728.1 244.746 728.1 244.746 728.1 244.745C728.1 244.744 728.099 244.743 728.098 244.742C728.096 244.739 728.093 244.734 728.09 244.728C728.083 244.715 728.072 244.697 728.059 244.674C728.032 244.627 727.993 244.559 727.946 244.476C727.852 244.308 727.727 244.079 727.598 243.829C727.469 243.579 727.339 243.311 727.235 243.065C727.13 242.816 727.058 242.604 727.038 242.461L726.711 242.507ZM723.676 244.854C723.806 245.74 723.985 246.35 724.33 246.734C724.686 247.13 725.187 247.254 725.867 247.254V246.924C725.22 246.924 724.837 246.804 724.576 246.513C724.303 246.21 724.132 245.691 724.003 244.806L723.676 244.854ZM725.867 247.254C726.546 247.254 727.061 247.132 727.433 246.74C727.795 246.357 727.992 245.747 728.122 244.854L727.795 244.806C727.666 245.691 727.48 246.21 727.193 246.512C726.915 246.805 726.514 246.924 725.867 246.924V247.254Z" fill="black"/>
<path d="M724.186 247.14C724.246 248.531 722.568 249.111 722.568 249.111H729.12C729.12 249.111 727.423 248.509 727.502 247.14H724.186Z" fill="white" stroke="black" stroke-width="0.330386"/>
<rect x="699.39" y="229.714" width="7.63192" height="3.50209" fill="white" stroke="black" stroke-width="0.330386"/>
<rect x="699.39" y="232.886" width="11.96" height="3.83248" fill="white" stroke="black" stroke-width="0.330386"/>
<rect x="699.39" y="236.719" width="7.63192" height="3.50209" fill="white" stroke="black" stroke-width="0.330386"/>
<rect x="699.39" y="239.89" width="11.96" height="3.83248" fill="white" stroke="black" stroke-width="0.330386"/>
<rect x="699.39" y="249.835" width="7.63192" height="3.83248" fill="white" stroke="black" stroke-width="0.330386"/>
<rect x="699.39" y="253.337" width="11.96" height="3.50209" fill="white" stroke="black" stroke-width="0.330386"/>
<rect x="699.39" y="243.723" width="7.63192" height="3.50209" fill="white" stroke="black" stroke-width="0.330386"/>
<rect x="713.044" y="141.797" width="7.63192" height="3.50209" fill="white" stroke="black" stroke-width="0.330386"/>
<rect x="713.044" y="144.969" width="11.96" height="3.83248" fill="white" stroke="black" stroke-width="0.330386"/>
<rect x="713.044" y="148.801" width="7.63192" height="3.50209" fill="white" stroke="black" stroke-width="0.330386"/>
<rect x="713.044" y="151.973" width="11.96" height="3.83248" fill="white" stroke="black" stroke-width="0.330386"/>
<rect x="713.044" y="155.805" width="7.63192" height="3.50209" fill="white" stroke="black" stroke-width="0.330386"/>
<rect x="-0.165193" y="0.165193" width="7.63192" height="3.50209" transform="matrix(-1 0 0 1 773.683 141.632)" fill="white" stroke="black" stroke-width="0.330386"/>
<rect x="-0.165193" y="0.165193" width="11.96" height="3.83248" transform="matrix(-1 0 0 1 773.683 144.803)" fill="white" stroke="black" stroke-width="0.330386"/>
<rect x="-0.165193" y="0.165193" width="7.63192" height="3.50209" transform="matrix(-1 0 0 1 773.683 148.636)" fill="white" stroke="black" stroke-width="0.330386"/>
<rect x="-0.165193" y="0.165193" width="11.96" height="3.83248" transform="matrix(-1 0 0 1 773.683 151.807)" fill="white" stroke="black" stroke-width="0.330386"/>
<rect x="-0.165193" y="0.165193" width="7.63192" height="3.50209" transform="matrix(-1 0 0 1 773.683 155.64)" fill="white" stroke="black" stroke-width="0.330386"/>
<rect x="699.39" y="246.894" width="11.96" height="3.83248" fill="white" stroke="black" stroke-width="0.330386"/>
<rect x="-0.165193" y="0.165193" width="7.63192" height="3.50209" transform="matrix(-1 0 0 1 787.402 229.549)" fill="white" stroke="black" stroke-width="0.330386"/>
<rect x="-0.165193" y="0.165193" width="11.96" height="3.83248" transform="matrix(-1 0 0 1 787.402 232.721)" fill="white" stroke="black" stroke-width="0.330386"/>
<rect x="-0.165193" y="0.165193" width="7.63192" height="3.50209" transform="matrix(-1 0 0 1 787.402 236.554)" fill="white" stroke="black" stroke-width="0.330386"/>
<rect x="-0.165193" y="0.165193" width="11.96" height="3.83248" transform="matrix(-1 0 0 1 787.402 239.724)" fill="white" stroke="black" stroke-width="0.330386"/>
<rect x="-0.165193" y="0.165193" width="7.63192" height="3.83248" transform="matrix(-1 0 0 1 787.402 249.669)" fill="white" stroke="black" stroke-width="0.330386"/>
<rect x="-0.165193" y="0.165193" width="11.96" height="3.50209" transform="matrix(-1 0 0 1 787.402 253.172)" fill="white" stroke="black" stroke-width="0.330386"/>
<rect x="-0.165193" y="0.165193" width="7.63192" height="3.50209" transform="matrix(-1 0 0 1 787.402 243.557)" fill="white" stroke="black" stroke-width="0.330386"/>
<rect x="-0.165193" y="0.165193" width="11.96" height="3.83248" transform="matrix(-1 0 0 1 787.402 246.729)" fill="white" stroke="black" stroke-width="0.330386"/>
<path d="M694.5 158.714L696.51 163.736L790.422 163.769L792.902 158.714H694.5Z" fill="white" stroke="black" stroke-width="0.660773"/>
<mask id="mask0_359_2353" style="mask-type:alpha" maskUnits="userSpaceOnUse" x="736" y="94" width="15" height="45">
<path d="M736.646 101.995C736.646 98.0527 739.842 94.8571 743.784 94.8571V94.8571C747.726 94.8571 750.921 98.0527 750.921 101.995V138.848H736.646V101.995Z" fill="black"/>
</mask>
<g mask="url(#mask0_359_2353)">
<path d="M736.646 101.995C736.646 98.0527 739.842 94.8571 743.784 94.8571V94.8571C747.726 94.8571 750.921 98.0527 750.921 101.995V138.848H736.646V101.995Z" fill="black"/>
<rect x="736.646" y="102.732" width="14.275" height="0.832707" fill="#353839"/>
<rect x="736.646" y="105.54" width="14.275" height="0.832707" fill="#353839"/>
<rect x="736.646" y="104.136" width="14.275" height="0.832707" fill="#353839"/>
<rect x="736.646" y="112.558" width="14.275" height="0.832707" fill="#353839"/>
<rect x="736.646" y="113.962" width="14.275" height="0.832707" fill="#353839"/>
<rect x="736.646" y="116.769" width="14.275" height="0.832707" fill="#353839"/>
<rect x="736.646" y="115.366" width="14.275" height="0.832707" fill="#353839"/>
<rect x="736.646" y="106.943" width="14.275" height="0.832707" fill="#353839"/>
<rect x="736.646" y="108.347" width="14.275" height="0.832707" fill="#353839"/>
<rect x="736.646" y="111.154" width="14.275" height="0.832707" fill="#353839"/>
<rect x="736.646" y="109.751" width="14.275" height="0.832707" fill="#353839"/>
<rect x="736.646" y="94.3101" width="14.275" height="0.832707" fill="#353839"/>
<rect x="736.646" y="97.1174" width="14.275" height="0.832707" fill="#353839"/>
<rect x="736.646" y="95.7138" width="14.275" height="0.832707" fill="#353839"/>
<rect x="736.646" y="98.5211" width="14.275" height="0.832707" fill="#353839"/>
<rect x="736.646" y="99.9249" width="14.275" height="0.832707" fill="#353839"/>
<rect x="736.646" y="101.329" width="14.275" height="0.832707" fill="#353839"/>
<rect x="736.646" y="118.173" width="14.275" height="0.832707" fill="#353839"/>
<rect x="736.646" y="119.577" width="14.275" height="0.832707" fill="#353839"/>
<rect x="736.646" y="122.384" width="14.275" height="0.832707" fill="#353839"/>
<rect x="736.646" y="120.98" width="14.275" height="0.832707" fill="#353839"/>
<rect x="736.646" y="129.403" width="14.275" height="0.832707" fill="#353839"/>
<rect x="736.646" y="130.806" width="14.275" height="0.832707" fill="#353839"/>
<rect x="736.646" y="133.614" width="14.275" height="0.832707" fill="#353839"/>
<rect x="736.646" y="132.21" width="14.275" height="0.832707" fill="#353839"/>
<rect x="736.646" y="135.018" width="14.275" height="0.832707" fill="#353839"/>
<rect x="736.646" y="136.421" width="14.275" height="0.832707" fill="#353839"/>
<rect x="736.646" y="137.825" width="14.275" height="0.832707" fill="#353839"/>
<rect x="736.646" y="123.788" width="14.275" height="0.832707" fill="#353839"/>
<rect x="736.646" y="125.192" width="14.275" height="0.832707" fill="#353839"/>
<rect x="736.646" y="127.999" width="14.275" height="0.832707" fill="#353839"/>
<rect x="736.646" y="126.595" width="14.275" height="0.832707" fill="#353839"/>
</g>
<mask id="path-126-inside-2_359_2353" fill="white">
<path fill-rule="evenodd" clip-rule="evenodd" d="M732.658 49.7022V66.9363H754.232V49.6921L749.851 48.5181L749.882 48.4016H737.046L737.077 48.5182L732.658 49.7022Z"/>
</mask>
<path fill-rule="evenodd" clip-rule="evenodd" d="M732.658 49.7022V66.9363H754.232V49.6921L749.851 48.5181L749.882 48.4016H737.046L737.077 48.5182L732.658 49.7022Z" fill="white"/>
<path d="M732.658 49.7022L732.487 49.0639L731.997 49.1951V49.7022H732.658ZM732.658 66.9363H731.997V67.5971H732.658V66.9363ZM754.232 66.9363V67.5971H754.893V66.9363H754.232ZM754.232 49.6921H754.893V49.1851L754.403 49.0538L754.232 49.6921ZM749.851 48.5181L749.213 48.3471L749.042 48.9854L749.68 49.1564L749.851 48.5181ZM749.882 48.4016L750.521 48.5727L750.744 47.7409H749.882V48.4016ZM737.046 48.4016V47.7409H736.184L736.407 48.5727L737.046 48.4016ZM737.077 48.5182L737.248 49.1565L737.886 48.9854L737.715 48.3472L737.077 48.5182ZM731.997 49.7022V66.9363H733.319V49.7022H731.997ZM732.658 67.5971H754.232V66.2755H732.658V67.5971ZM754.893 66.9363V49.6921H753.572V66.9363H754.893ZM754.403 49.0538L750.022 47.8799L749.68 49.1564L754.061 50.3303L754.403 49.0538ZM750.489 48.6892L750.521 48.5727L749.244 48.2306L749.213 48.3471L750.489 48.6892ZM749.882 47.7409H737.046V49.0624H749.882V47.7409ZM736.407 48.5727L736.439 48.6892L737.715 48.3472L737.684 48.2306L736.407 48.5727ZM736.906 47.88L732.487 49.0639L732.829 50.3404L737.248 49.1565L736.906 47.88Z" fill="black" mask="url(#path-126-inside-2_359_2353)"/>
<mask id="mask1_359_2353" style="mask-type:alpha" maskUnits="userSpaceOnUse" x="721" y="100" width="11" height="39">
<path d="M731.77 100.091V100.091C725.857 100.091 721.063 104.885 721.063 110.798V138.848H731.77V100.091Z" fill="black"/>
</mask>
<g mask="url(#mask1_359_2353)">
<path d="M731.77 100.091V100.091C725.857 100.091 721.063 104.885 721.063 110.798V138.848H731.77V100.091Z" fill="black"/>
<rect x="721.064" y="102.732" width="14.275" height="0.832707" fill="#353839"/>
<rect x="721.064" y="105.54" width="14.275" height="0.832707" fill="#353839"/>
<rect x="721.064" y="104.136" width="14.275" height="0.832707" fill="#353839"/>
<rect x="721.064" y="112.558" width="14.275" height="0.832707" fill="#353839"/>
<rect x="721.064" y="113.962" width="14.275" height="0.832707" fill="#353839"/>
<rect x="721.064" y="116.769" width="14.275" height="0.832707" fill="#353839"/>
<rect x="721.064" y="115.365" width="14.275" height="0.832707" fill="#353839"/>
<rect x="721.064" y="106.943" width="14.275" height="0.832707" fill="#353839"/>
<rect x="721.064" y="108.347" width="14.275" height="0.832707" fill="#353839"/>
<rect x="721.064" y="111.154" width="14.275" height="0.832707" fill="#353839"/>
<rect x="721.064" y="109.751" width="14.275" height="0.832707" fill="#353839"/>
<rect x="721.064" y="99.9248" width="14.275" height="0.832707" fill="#353839"/>
<rect x="721.064" y="101.328" width="14.275" height="0.832707" fill="#353839"/>
<rect x="721.064" y="118.173" width="14.275" height="0.832707" fill="#353839"/>
<rect x="721.064" y="119.577" width="14.275" height="0.832707" fill="#353839"/>
<rect x="721.064" y="122.384" width="14.275" height="0.832707" fill="#353839"/>
<rect x="721.064" y="120.98" width="14.275" height="0.832707" fill="#353839"/>
<rect x="721.064" y="129.402" width="14.275" height="0.832707" fill="#353839"/>
<rect x="721.064" y="130.806" width="14.275" height="0.832707" fill="#353839"/>
<rect x="721.064" y="133.614" width="14.275" height="0.832707" fill="#353839"/>
<rect x="721.064" y="132.21" width="14.275" height="0.832707" fill="#353839"/>
<rect x="721.064" y="135.017" width="14.275" height="0.832707" fill="#353839"/>
<rect x="721.064" y="136.421" width="14.275" height="0.832707" fill="#353839"/>
<rect x="721.064" y="137.825" width="14.275" height="0.832707" fill="#353839"/>
<rect x="721.064" y="123.788" width="14.275" height="0.832707" fill="#353839"/>
<rect x="721.064" y="125.191" width="14.275" height="0.832707" fill="#353839"/>
<rect x="721.064" y="127.999" width="14.275" height="0.832707" fill="#353839"/>
<rect x="721.064" y="126.595" width="14.275" height="0.832707" fill="#353839"/>
</g>
<rect x="711.285" y="90.3093" width="20.9588" height="2.44486" transform="rotate(-15 711.285 90.3093)" fill="white" stroke="black" stroke-width="0.660773"/>
<rect x="-0.404639" y="0.233618" width="20.9588" height="2.44486" transform="matrix(-0.965926 -0.258819 -0.258819 0.965926 775.285 89.9789)" fill="white" stroke="black" stroke-width="0.660773"/>
<rect x="0.330386" y="-0.330386" width="22.6975" height="2.44486" transform="matrix(1 0 0 -1 731.764 86.925)" fill="white" stroke="black" stroke-width="0.660773"/>
<rect x="730.738" y="50.0474" width="8.2925" height="0.967325" transform="rotate(-15 730.738 50.0474)" fill="white" stroke="black" stroke-width="0.261439"/>
<rect x="-0.160098" y="0.0924327" width="8.2925" height="0.967325" transform="matrix(-0.965926 -0.258819 -0.258819 0.965926 756.055 49.9166)" fill="white" stroke="black" stroke-width="0.261439"/>
<rect x="0.13072" y="-0.13072" width="8.98044" height="0.967325" transform="matrix(1 0 0 -1 738.838 48.7083)" fill="white" stroke="black" stroke-width="0.261439"/>
<rect x="740.223" y="36.6068" width="6.44253" height="5.05491" fill="black"/>
<rect x="739.629" y="36.0781" width="7.59888" height="0.528618" fill="black"/>
<path d="M743.461 -6.10352e-05L744.863 33.848H742.059L743.461 -6.10352e-05Z" fill="black"/>
<path d="M743.179 0.792938L728.791 3.94813L743.179 5.96348V0.792938Z" fill="black" stroke="black" stroke-width="0.660773"/>
<rect x="679.33" y="262.8" width="128.218" height="8.97468" fill="#8C796B" stroke="black" stroke-width="0.660936"/>
<rect x="737.621" y="143.963" width="11.6579" height="11.6579" stroke="black" stroke-width="0.237916"/>
<rect x="739.312" y="145.724" width="3.56874" height="3.56874" fill="black"/>
<rect x="743.998" y="145.724" width="3.56874" height="3.56874" fill="black"/>
<rect x="743.998" y="150.316" width="3.56874" height="3.56874" fill="black"/>
<rect x="739.312" y="150.316" width="3.56874" height="3.56874" fill="black"/>
<mask id="mask2_359_2353" style="mask-type:alpha" maskUnits="userSpaceOnUse" x="756" y="100" width="12" height="39">
<path d="M756.371 100.091V100.091C762.284 100.091 767.077 104.885 767.077 110.798V138.848H756.371V100.091Z" fill="black"/>
</mask>
<g mask="url(#mask2_359_2353)">
<path d="M756.371 100.091V100.091C762.284 100.091 767.077 104.885 767.077 110.798V138.848H756.371V100.091Z" fill="black"/>
<rect width="14.275" height="0.832707" transform="matrix(-1 0 0 1 767.078 102.732)" fill="#353839"/>
<rect width="14.275" height="0.832707" transform="matrix(-1 0 0 1 767.078 105.54)" fill="#353839"/>
<rect width="14.275" height="0.832707" transform="matrix(-1 0 0 1 767.078 104.136)" fill="#353839"/>
<rect width="14.275" height="0.832707" transform="matrix(-1 0 0 1 767.078 112.558)" fill="#353839"/>
<rect width="14.275" height="0.832707" transform="matrix(-1 0 0 1 767.078 113.962)" fill="#353839"/>
<rect width="14.275" height="0.832707" transform="matrix(-1 0 0 1 767.078 116.769)" fill="#353839"/>
<rect width="14.275" height="0.832707" transform="matrix(-1 0 0 1 767.078 115.365)" fill="#353839"/>
<rect width="14.275" height="0.832707" transform="matrix(-1 0 0 1 767.078 106.943)" fill="#353839"/>
<rect width="14.275" height="0.832707" transform="matrix(-1 0 0 1 767.078 108.347)" fill="#353839"/>
<rect width="14.275" height="0.832707" transform="matrix(-1 0 0 1 767.078 111.154)" fill="#353839"/>
<rect width="14.275" height="0.832707" transform="matrix(-1 0 0 1 767.078 109.751)" fill="#353839"/>
<rect width="14.275" height="0.832707" transform="matrix(-1 0 0 1 767.078 99.9248)" fill="#353839"/>
<rect width="14.275" height="0.832707" transform="matrix(-1 0 0 1 767.078 101.328)" fill="#353839"/>
<rect width="14.275" height="0.832707" transform="matrix(-1 0 0 1 767.078 118.173)" fill="#353839"/>
<rect width="14.275" height="0.832707" transform="matrix(-1 0 0 1 767.078 119.577)" fill="#353839"/>
<rect width="14.275" height="0.832707" transform="matrix(-1 0 0 1 767.078 122.384)" fill="#353839"/>
<rect width="14.275" height="0.832707" transform="matrix(-1 0 0 1 767.078 120.98)" fill="#353839"/>
<rect width="14.275" height="0.832707" transform="matrix(-1 0 0 1 767.078 129.402)" fill="#353839"/>
<rect width="14.275" height="0.832707" transform="matrix(-1 0 0 1 767.078 130.806)" fill="#353839"/>
<rect width="14.275" height="0.832707" transform="matrix(-1 0 0 1 767.078 133.614)" fill="#353839"/>
<rect width="14.275" height="0.832707" transform="matrix(-1 0 0 1 767.078 132.21)" fill="#353839"/>
<rect width="14.275" height="0.832707" transform="matrix(-1 0 0 1 767.078 135.017)" fill="#353839"/>
<rect width="14.275" height="0.832707" transform="matrix(-1 0 0 1 767.078 136.421)" fill="#353839"/>
<rect width="14.275" height="0.832707" transform="matrix(-1 0 0 1 767.078 137.825)" fill="#353839"/>
<rect width="14.275" height="0.832707" transform="matrix(-1 0 0 1 767.078 123.788)" fill="#353839"/>
<rect width="14.275" height="0.832707" transform="matrix(-1 0 0 1 767.078 125.191)" fill="#353839"/>
<rect width="14.275" height="0.832707" transform="matrix(-1 0 0 1 767.078 127.999)" fill="#353839"/>
<rect width="14.275" height="0.832707" transform="matrix(-1 0 0 1 767.078 126.595)" fill="#353839"/>
</g>
<rect x="743.049" y="187.441" width="0.790834" height="18.4433" fill="white"/>
<rect x="752.672" y="196.263" width="0.790834" height="18.4433" transform="rotate(90 752.672 196.263)" fill="white"/>
<circle cx="743.45" cy="196.662" r="0.737541" fill="black"/>
<g filter="url(#filter0_d_359_2353)">
<path d="M742.805 191.559C742.539 193.493 742.105 195.186 743.477 196.084C744.745 195.176 744.381 193.435 744.149 191.559C743.836 189.025 743.477 186.36 743.477 186.36C743.477 186.36 743.156 189.001 742.805 191.559Z" fill="black"/>
<path d="M743.477 196.084L743.386 196.224C743.443 196.261 743.518 196.26 743.574 196.22L743.477 196.084ZM742.805 191.559L742.64 191.537L742.64 191.537L742.805 191.559ZM743.477 186.36L743.642 186.338C743.631 186.254 743.56 186.193 743.476 186.193C743.392 186.194 743.322 186.256 743.312 186.34L743.477 186.36ZM744.149 191.559L744.315 191.539L744.315 191.539L744.149 191.559ZM743.568 195.945C742.942 195.535 742.722 194.947 742.693 194.203C742.664 193.446 742.835 192.564 742.97 191.582L742.64 191.537C742.509 192.488 742.33 193.42 742.36 194.216C742.391 195.027 742.64 195.735 743.386 196.224L743.568 195.945ZM742.97 191.582C743.146 190.302 743.314 189.002 743.438 188.021C743.5 187.531 743.551 187.121 743.587 186.833C743.605 186.689 743.619 186.576 743.628 186.499C743.633 186.46 743.636 186.43 743.639 186.41C743.64 186.4 743.641 186.393 743.642 186.388C743.642 186.385 743.642 186.383 743.642 186.382C743.642 186.381 743.642 186.381 743.642 186.38C743.642 186.38 743.642 186.38 743.642 186.38C743.642 186.38 743.642 186.38 743.642 186.38C743.642 186.38 743.642 186.38 743.477 186.36C743.312 186.34 743.312 186.34 743.312 186.34C743.312 186.34 743.312 186.34 743.312 186.34C743.312 186.34 743.312 186.34 743.312 186.34C743.311 186.341 743.311 186.341 743.311 186.342C743.311 186.343 743.311 186.345 743.311 186.347C743.31 186.352 743.309 186.36 743.308 186.37C743.305 186.39 743.302 186.419 743.297 186.458C743.288 186.535 743.274 186.648 743.256 186.792C743.221 187.079 743.169 187.489 743.107 187.979C742.983 188.959 742.815 190.258 742.64 191.537L742.97 191.582ZM743.574 196.22C744.265 195.725 744.502 195.004 744.542 194.193C744.581 193.391 744.429 192.465 744.315 191.539L743.984 191.58C744.101 192.53 744.247 193.412 744.209 194.176C744.172 194.932 743.957 195.535 743.38 195.949L743.574 196.22ZM744.315 191.539C744.158 190.271 743.99 188.971 743.861 187.987C743.796 187.496 743.742 187.083 743.703 186.794C743.684 186.649 743.669 186.535 743.658 186.457C743.653 186.418 743.649 186.388 743.646 186.368C743.645 186.358 743.644 186.35 743.643 186.345C743.643 186.343 743.643 186.341 743.642 186.34C743.642 186.339 743.642 186.338 743.642 186.338C743.642 186.338 743.642 186.338 743.642 186.338C743.642 186.338 743.642 186.338 743.642 186.338C743.642 186.338 743.642 186.338 743.477 186.36C743.312 186.382 743.312 186.382 743.312 186.382C743.312 186.382 743.312 186.382 743.312 186.382C743.312 186.382 743.312 186.382 743.312 186.383C743.312 186.383 743.312 186.383 743.312 186.384C743.312 186.385 743.313 186.387 743.313 186.39C743.314 186.395 743.315 186.402 743.316 186.413C743.319 186.433 743.323 186.463 743.328 186.501C743.338 186.579 743.354 186.693 743.373 186.838C743.411 187.127 743.466 187.539 743.53 188.031C743.659 189.014 743.827 190.313 743.984 191.58L744.315 191.539Z" fill="black"/>
</g>
<g filter="url(#filter1_d_359_2353)">
<path d="M746.117 198.969C744.923 198.382 743.8 197.982 743.815 196.864C744.812 196.493 745.658 197.363 746.63 198.209C747.943 199.353 749.313 200.572 749.313 200.572C749.313 200.572 747.697 199.746 746.117 198.969Z" fill="black"/>
<path d="M743.815 196.864L743.702 196.862C743.702 196.815 743.732 196.774 743.776 196.757L743.815 196.864ZM746.117 198.969L746.067 199.071L746.067 199.071L746.117 198.969ZM749.313 200.572L749.388 200.487C749.431 200.525 749.439 200.589 749.407 200.636C749.374 200.683 749.312 200.699 749.261 200.673L749.313 200.572ZM746.63 198.209L746.555 198.295L746.555 198.295L746.63 198.209ZM743.929 196.865C743.922 197.376 744.17 197.724 744.58 198.024C744.997 198.329 745.561 198.569 746.167 198.867L746.067 199.071C745.479 198.782 744.884 198.528 744.445 198.208C743.999 197.881 743.693 197.47 743.702 196.862L743.929 196.865ZM746.167 198.867C746.958 199.256 747.757 199.657 748.359 199.961C748.66 200.112 748.911 200.24 749.087 200.33C749.175 200.374 749.245 200.41 749.292 200.434C749.316 200.446 749.334 200.455 749.346 200.461C749.352 200.464 749.357 200.467 749.36 200.468C749.361 200.469 749.363 200.47 749.363 200.47C749.364 200.47 749.364 200.471 749.364 200.471C749.364 200.471 749.364 200.471 749.365 200.471C749.365 200.471 749.365 200.471 749.365 200.471C749.365 200.471 749.365 200.471 749.313 200.572C749.261 200.673 749.261 200.673 749.261 200.673C749.261 200.673 749.261 200.673 749.261 200.673C749.261 200.673 749.261 200.673 749.261 200.673C749.261 200.673 749.26 200.673 749.26 200.673C749.259 200.672 749.258 200.672 749.256 200.671C749.253 200.669 749.249 200.667 749.243 200.664C749.23 200.658 749.212 200.648 749.189 200.636C749.141 200.612 749.072 200.577 748.984 200.532C748.808 200.443 748.557 200.315 748.256 200.163C747.655 199.86 746.857 199.459 746.067 199.071L746.167 198.867ZM743.776 196.757C744.319 196.555 744.817 196.696 745.291 196.983C745.759 197.267 746.224 197.706 746.704 198.124L746.555 198.295C746.063 197.866 745.619 197.448 745.173 197.177C744.732 196.91 744.308 196.802 743.855 196.97L743.776 196.757ZM746.704 198.124C747.361 198.696 748.032 199.286 748.539 199.734C748.792 199.958 749.005 200.146 749.154 200.279C749.228 200.345 749.287 200.397 749.327 200.432C749.347 200.45 749.362 200.464 749.373 200.473C749.378 200.478 749.382 200.481 749.384 200.484C749.386 200.485 749.387 200.486 749.387 200.486C749.388 200.487 749.388 200.487 749.388 200.487C749.388 200.487 749.388 200.487 749.388 200.487C749.388 200.487 749.388 200.487 749.388 200.487C749.388 200.487 749.388 200.487 749.313 200.572C749.237 200.657 749.237 200.657 749.237 200.657C749.237 200.657 749.237 200.657 749.237 200.657C749.237 200.657 749.237 200.657 749.237 200.657C749.237 200.657 749.237 200.656 749.236 200.656C749.236 200.655 749.235 200.655 749.233 200.653C749.231 200.651 749.227 200.648 749.222 200.643C749.211 200.634 749.196 200.62 749.176 200.602C749.136 200.567 749.077 200.515 749.003 200.449C748.854 200.317 748.642 200.128 748.389 199.905C747.882 199.457 747.211 198.867 746.555 198.295L746.704 198.124Z" fill="black"/>
</g>
<defs>
<filter id="filter0_d_359_2353" x="742.28" y="186.193" width="2.34615" height="10.2124" filterUnits="userSpaceOnUse" color-interpolation-filters="sRGB">
<feFlood flood-opacity="0" result="BackgroundImageFix"/>
<feColorMatrix in="SourceAlpha" type="matrix" values="0 0 0 0 0 0 0 0 0 0 0 0 0 0 0 0 0 0 127 0" result="hardAlpha"/>
<feOffset dy="0.0773723"/>
<feGaussianBlur stdDeviation="0.0386862"/>
<feComposite in2="hardAlpha" operator="out"/>
<feColorMatrix type="matrix" values="0 0 0 0 0 0 0 0 0 0 0 0 0 0 0 0 0 0 0.25 0"/>
<feBlend mode="normal" in2="BackgroundImageFix" result="effect1_dropShadow_359_2353"/>
<feBlend mode="normal" in="SourceGraphic" in2="effect1_dropShadow_359_2353" result="shape"/>
</filter>
<filter id="filter1_d_359_2353" x="743.648" y="196.662" width="5.83014" height="4.12896" filterUnits="userSpaceOnUse" color-interpolation-filters="sRGB">
<feFlood flood-opacity="0" result="BackgroundImageFix"/>
<feColorMatrix in="SourceAlpha" type="matrix" values="0 0 0 0 0 0 0 0 0 0 0 0 0 0 0 0 0 0 127 0" result="hardAlpha"/>
<feOffset dy="0.0527634"/>
<feGaussianBlur stdDeviation="0.0263817"/>
<feComposite in2="hardAlpha" operator="out"/>
<feColorMatrix type="matrix" values="0 0 0 0 0 0 0 0 0 0 0 0 0 0 0 0 0 0 0.25 0"/>
<feBlend mode="normal" in2="BackgroundImageFix" result="effect1_dropShadow_359_2353"/>
<feBlend mode="normal" in="SourceGraphic" in2="effect1_dropShadow_359_2353" result="shape"/>
</filter>
</defs>
</svg>
